<svg width="113" height="23" viewBox="0 0 113 23" fill="none" xmlns="http://www.w3.org/2000/svg">
<g clip-path="url(#clip0)">
<path d="M16.7167 15.5186C15.8958 15.5186 15.2051 16.2085 15.2051 17.2369V17.2629C15.2051 18.2913 15.8958 18.9813 16.7167 18.9813C17.5377 18.9813 18.2414 18.3044 18.2414 17.2629V17.2369C18.2414 16.1955 17.5377 15.5186 16.7167 15.5186Z" fill="white"/>
<path d="M5.02801 5.33856C5.1062 5.29951 5.17135 5.26046 5.23651 5.19537C5.30166 5.13028 5.34075 5.06519 5.37985 4.98708C5.41894 4.90898 5.43197 4.83087 5.43197 4.73975C5.43197 4.64862 5.41894 4.5575 5.37985 4.46637C5.35379 4.38827 5.30166 4.31016 5.24954 4.24507C5.18438 4.17998 5.11923 4.14093 5.04104 4.10188C4.96286 4.06282 4.87164 4.0498 4.78042 4.0498C4.68921 4.0498 4.59799 4.06282 4.5198 4.10188C4.44162 4.14093 4.36343 4.193 4.31131 4.24507C4.24615 4.31016 4.20706 4.37525 4.16797 4.46637C4.12888 4.54448 4.11584 4.6356 4.11584 4.73975C4.11584 4.83087 4.12888 4.90898 4.16797 4.98708C4.20706 5.06519 4.25919 5.13028 4.31131 5.19537C4.37646 5.26046 4.44162 5.29951 4.5198 5.33856C4.59799 5.37761 4.67618 5.39063 4.76739 5.39063C4.85861 5.39063 4.93679 5.3646 5.02801 5.33856Z" fill="white"/>
<path d="M10.2534 16.2207H5.75775V17.887H10.2534V16.2207Z" fill="white"/>
<path d="M0.571411 0.586914V22.5869H22.5416V0.586914H0.571411ZM3.1776 4.72656C3.1776 4.3881 3.28185 4.06265 3.50337 3.76325C3.63368 3.59401 3.76399 3.45082 3.92036 3.35969C4.07673 3.26857 4.23311 3.20348 4.40251 3.17745C4.62403 3.15141 4.79344 3.13839 4.89768 3.13839C5.44498 3.13839 5.86197 3.30762 6.16168 3.64609C6.51352 4.0236 6.68292 4.4662 6.68292 4.9739V10.0378H9.13274C9.26305 10.0378 9.35427 9.99875 9.43245 9.90762C9.47154 9.86857 9.49761 9.76443 9.49761 9.5952V3.24254H11.2438V9.73839C11.2438 10.2201 11.1395 10.6106 10.918 10.897C10.6443 11.2615 10.2013 11.4567 9.60185 11.4567H4.24614V10.0378H4.93678V6.26265C4.91071 6.26265 4.87162 6.26265 4.84556 6.26265C4.80647 6.26265 4.7804 6.26265 4.75434 6.26265C4.31129 6.26265 3.94642 6.11946 3.63368 5.82005C3.33397 5.53366 3.1776 5.16916 3.1776 4.72656ZM11.778 19.3195H4.22007V12.3419H5.74469V14.7763H10.2404V12.3419H11.778V19.3195ZM14.0193 5.2733C13.3026 5.2733 13.0941 5.28632 12.7553 5.32538V3.84135C13.1072 3.90644 13.3287 3.90644 14.0454 3.90644H17.6028C17.8244 3.90644 17.9156 3.90644 18.085 3.89342C18.1501 3.88041 18.1501 3.8804 18.2153 3.8804C18.1371 3.73721 18.1371 3.73721 17.9286 3.41177L18.6844 3.17745C18.9711 3.581 19.0363 3.71117 19.2969 4.27094L19.0102 4.37508L19.336 4.79165C19.2838 4.93484 19.2708 4.98691 19.2187 5.18218C18.8929 6.50999 18.3717 7.59046 17.6159 8.48869C16.8471 9.41295 15.9219 10.0638 14.4624 10.7408C14.1366 10.1159 13.9933 9.93366 13.4069 9.34786C14.1236 9.11354 14.5666 8.91827 15.1661 8.54076C16.417 7.7597 17.264 6.61413 17.5768 5.2733H14.0193ZM20.0005 17.2496C20.0005 19.3195 18.6453 20.465 17.1728 20.465C16.2346 20.465 15.6482 20.0354 15.2312 19.5408V20.3479H13.472V11.8863H15.2312V15.0236C15.6612 14.4378 16.2476 14.0212 17.1728 14.0212C18.6193 14.0212 20.0005 15.1538 20.0005 17.2366V17.2496ZM19.5184 4.2449C19.362 3.84135 19.2187 3.581 18.932 3.12538L19.6748 2.86502C19.9615 3.25555 20.0918 3.50289 20.2612 3.95851L19.5184 4.2449Z" fill="white"/>
<path d="M30.751 6.80989C31.1941 6.80989 31.6111 6.84895 31.976 6.92705C32.3408 7.00516 32.6536 7.13534 32.9142 7.31759C33.1748 7.49983 33.3833 7.73415 33.5266 8.03356C33.67 8.33297 33.7482 8.69747 33.7482 9.14007C33.7482 9.60871 33.6439 10.0123 33.4224 10.3247C33.2139 10.6371 32.8881 10.8975 32.4711 11.0927C33.0445 11.262 33.4875 11.5484 33.7612 11.9649C34.0479 12.3815 34.1912 12.8762 34.1912 13.462C34.1912 13.9306 34.1 14.3472 33.9176 14.6856C33.7351 15.0371 33.4875 15.3105 33.1748 15.5318C32.8621 15.7531 32.5102 15.9093 32.1063 16.0134C31.7023 16.1176 31.2983 16.1697 30.8814 16.1697H26.3336V6.79688H30.751V6.80989ZM30.4904 10.5981C30.8553 10.5981 31.155 10.5069 31.4026 10.3377C31.6372 10.1685 31.7544 9.88208 31.7544 9.47853C31.7544 9.25723 31.7153 9.07498 31.6372 8.9448C31.559 8.80161 31.4547 8.69747 31.3244 8.61936C31.1941 8.54125 31.0377 8.48918 30.8683 8.45013C30.6989 8.42409 30.5165 8.39806 30.3341 8.39806H28.4055V10.585H30.4904V10.5981ZM30.6077 14.5815C30.8032 14.5815 30.9986 14.5555 31.1811 14.5164C31.3635 14.4773 31.5329 14.4123 31.6632 14.3211C31.8066 14.23 31.9108 14.0998 32.002 13.9436C32.0802 13.7874 32.1323 13.5791 32.1323 13.3448C32.1323 12.8631 32.002 12.5247 31.7284 12.3164C31.4547 12.1081 31.1029 12.004 30.6468 12.004H28.4055V14.5815H30.6077Z" fill="white"/>
<path d="M35.4292 11.314C35.5986 10.8714 35.8331 10.4938 36.1328 10.1814C36.4325 9.86898 36.8104 9.63466 37.2405 9.46543C37.6705 9.2962 38.1526 9.20508 38.6869 9.20508C39.2212 9.20508 39.7033 9.2962 40.1333 9.46543C40.5634 9.63466 40.9413 9.882 41.241 10.1814C41.5537 10.4938 41.7883 10.8714 41.9577 11.314C42.1271 11.7566 42.2053 12.2512 42.2053 12.785C42.2053 13.3317 42.1271 13.8134 41.9577 14.256C41.7883 14.6986 41.5537 15.0631 41.241 15.3755C40.9413 15.6879 40.5634 15.9222 40.1333 16.0915C39.7033 16.2607 39.2081 16.3388 38.6869 16.3388C38.1526 16.3388 37.6705 16.2607 37.2405 16.0915C36.8104 15.9222 36.4456 15.6879 36.1328 15.3755C35.8201 15.0631 35.5855 14.6856 35.4292 14.256C35.2598 13.8134 35.1816 13.3317 35.1816 12.785C35.1816 12.2512 35.2728 11.7566 35.4292 11.314ZM37.1232 13.579C37.1753 13.8394 37.2665 14.0737 37.3968 14.269C37.5271 14.4773 37.6966 14.6335 37.905 14.7637C38.1135 14.8808 38.3742 14.9459 38.6999 14.9459C39.0127 14.9459 39.2863 14.8808 39.4948 14.7637C39.7033 14.6465 39.8727 14.4773 40.003 14.269C40.1333 14.0607 40.2246 13.8264 40.2767 13.579C40.3288 13.3187 40.3549 13.0583 40.3549 12.785C40.3549 12.5116 40.3288 12.2512 40.2767 11.9779C40.2246 11.7175 40.1333 11.4832 40.003 11.2879C39.8727 11.0927 39.7033 10.9234 39.4948 10.7932C39.2863 10.6631 39.0127 10.598 38.6999 10.598C38.3872 10.598 38.1266 10.6631 37.905 10.7932C37.6966 10.9234 37.5271 11.0796 37.3968 11.2879C37.2665 11.4832 37.1753 11.7175 37.1232 11.9779C37.0711 12.2382 37.045 12.5116 37.045 12.785C37.045 13.0583 37.0711 13.3317 37.1232 13.579Z" fill="white"/>
<path d="M43.4562 11.314C43.6256 10.8714 43.8602 10.4938 44.1599 10.1814C44.4596 9.86898 44.8375 9.63466 45.2675 9.46543C45.6975 9.2962 46.1797 9.20508 46.7139 9.20508C47.2482 9.20508 47.7304 9.2962 48.1604 9.46543C48.5904 9.63466 48.9683 9.882 49.268 10.1814C49.5807 10.4938 49.8153 10.8714 49.9847 11.314C50.1541 11.7566 50.2323 12.2512 50.2323 12.785C50.2323 13.3317 50.1541 13.8134 49.9847 14.256C49.8153 14.6986 49.5807 15.0631 49.268 15.3755C48.9683 15.6879 48.5904 15.9222 48.1604 16.0915C47.7304 16.2607 47.2352 16.3388 46.7139 16.3388C46.1797 16.3388 45.6975 16.2607 45.2675 16.0915C44.8375 15.9222 44.4726 15.6879 44.1599 15.3755C43.8471 15.0631 43.6126 14.6856 43.4562 14.256C43.2868 13.8134 43.2086 13.3317 43.2086 12.785C43.2086 12.2512 43.2868 11.7566 43.4562 11.314ZM45.1502 13.579C45.2024 13.8394 45.2936 14.0737 45.4239 14.269C45.5542 14.4773 45.7236 14.6335 45.9321 14.7637C46.1406 14.8808 46.4012 14.9459 46.7139 14.9459C47.0267 14.9459 47.3003 14.8808 47.5088 14.7637C47.7173 14.6465 47.8867 14.4773 48.017 14.269C48.1473 14.0607 48.2386 13.8264 48.2907 13.579C48.3428 13.3187 48.3689 13.0583 48.3689 12.785C48.3689 12.5116 48.3428 12.2512 48.2907 11.9779C48.2386 11.7175 48.1473 11.4832 48.017 11.2879C47.8867 11.0927 47.7173 10.9234 47.5088 10.7932C47.3003 10.6631 47.0267 10.598 46.7139 10.598C46.4012 10.598 46.1406 10.6631 45.9321 10.7932C45.7236 10.9234 45.5542 11.0796 45.4239 11.2879C45.2936 11.4832 45.2024 11.7175 45.1502 11.9779C45.0981 12.2382 45.072 12.5116 45.072 12.785C45.072 13.0583 45.0981 13.3317 45.1502 13.579Z" fill="white"/>
<path d="M53.2164 9.38733V10.3376H53.2555C53.49 9.94709 53.8028 9.6607 54.1806 9.47845C54.5585 9.2962 54.9364 9.20508 55.3404 9.20508C55.8356 9.20508 56.2526 9.27017 56.5653 9.41336C56.8911 9.54354 57.1387 9.73881 57.3211 9.97313C57.5035 10.2074 57.6338 10.5069 57.712 10.8583C57.7902 11.2098 57.8293 11.5873 57.8293 12.0039V16.1826H55.9529V12.3424C55.9529 11.7826 55.8616 11.366 55.6922 11.0927C55.5098 10.8193 55.2101 10.6761 54.767 10.6761C54.2588 10.6761 53.894 10.8323 53.6594 11.1317C53.4379 11.4311 53.3206 11.9258 53.3206 12.6157V16.1696H51.4572V9.38733H53.2164Z" fill="white"/>
<path d="M61.048 9.38733V10.3116H61.0741C61.3216 9.96011 61.6214 9.68674 61.9602 9.49147C62.312 9.2962 62.7029 9.20508 63.146 9.20508C63.576 9.20508 63.9669 9.28318 64.3188 9.45242C64.6706 9.62165 64.9442 9.90804 65.1267 10.3376C65.3221 10.0382 65.5958 9.77786 65.9476 9.54354C66.2864 9.32224 66.7034 9.20508 67.1725 9.20508C67.5374 9.20508 67.8632 9.24413 68.1759 9.33526C68.4887 9.42638 68.7493 9.56958 68.9578 9.75182C69.1793 9.94709 69.3487 10.1944 69.466 10.5069C69.5833 10.8193 69.6484 11.1968 69.6484 11.6264V16.1696H67.785V12.3293C67.785 12.108 67.772 11.8867 67.7589 11.6915C67.7459 11.4962 67.6938 11.314 67.6156 11.1708C67.5374 11.0276 67.4201 10.8974 67.2638 10.8193C67.1074 10.7282 66.8989 10.6891 66.6383 10.6891C66.3777 10.6891 66.1692 10.7412 65.9998 10.8453C65.8434 10.9495 65.7131 11.0796 65.6219 11.2358C65.5306 11.3921 65.4655 11.5873 65.4394 11.7826C65.4134 11.9909 65.3873 12.1992 65.3873 12.4074V16.1826H63.5239V12.3684C63.5239 12.1731 63.5239 11.9648 63.5108 11.7696C63.4978 11.5743 63.4587 11.3921 63.3936 11.2228C63.3284 11.0536 63.2242 10.9234 63.0678 10.8193C62.9114 10.7151 62.6899 10.6631 62.3902 10.6631C62.299 10.6631 62.1817 10.6891 62.0383 10.7282C61.895 10.7672 61.7517 10.8453 61.6214 10.9495C61.478 11.0536 61.3738 11.2228 61.2695 11.4181C61.1783 11.6264 61.1262 11.8867 61.1262 12.2252V16.1566H59.2628V9.38733H61.048Z" fill="white"/>
<path d="M73.1277 14.5547C73.4013 14.8281 73.8053 14.9583 74.3395 14.9583C74.7174 14.9583 75.0432 14.8671 75.3169 14.6719C75.5905 14.4896 75.7599 14.2813 75.812 14.0731H77.4539C77.1933 14.8802 76.7894 15.466 76.2421 15.8174C75.6948 16.1689 75.0432 16.3382 74.2744 16.3382C73.7401 16.3382 73.258 16.247 72.828 16.0778C72.3979 15.9086 72.0331 15.6612 71.7334 15.3488C71.4336 15.0364 71.2121 14.6589 71.0427 14.2163C70.8863 13.7737 70.7951 13.292 70.7951 12.7713C70.7951 12.2636 70.8733 11.795 71.0427 11.3524C71.2121 10.9097 71.4467 10.5322 71.7464 10.2198C72.0591 9.89436 72.424 9.64703 72.841 9.46478C73.271 9.28253 73.7401 9.19141 74.2483 9.19141C74.8217 9.19141 75.3299 9.30857 75.7599 9.52987C76.1899 9.75117 76.5418 10.0506 76.8154 10.4281C77.0891 10.8056 77.2845 11.2352 77.4148 11.7168C77.5321 12.1985 77.5842 12.7062 77.5451 13.2269H72.6455C72.6976 13.8387 72.854 14.2813 73.1277 14.5547ZM75.2387 10.9748C75.0171 10.7275 74.6783 10.6103 74.2223 10.6103C73.9226 10.6103 73.675 10.6624 73.4795 10.7666C73.284 10.8707 73.1277 10.9879 73.0104 11.1441C72.8931 11.2873 72.8149 11.4565 72.7628 11.6127C72.7107 11.7819 72.6846 11.9251 72.6716 12.0553H75.7078C75.6166 11.5867 75.4602 11.2222 75.2387 10.9748Z" fill="white"/>
<path d="M80.6726 14.5547C80.9463 14.8281 81.3502 14.9583 81.8845 14.9583C82.2624 14.9583 82.5882 14.8671 82.8618 14.6719C83.1355 14.4896 83.3049 14.2813 83.357 14.0731H84.9989C84.7383 14.8802 84.3343 15.466 83.787 15.8174C83.2397 16.1689 82.5882 16.3382 81.8193 16.3382C81.2851 16.3382 80.8029 16.247 80.3729 16.0778C79.9429 15.9086 79.578 15.6612 79.2783 15.3488C78.9786 15.0364 78.744 14.6589 78.5876 14.2163C78.4182 13.7737 78.3401 13.292 78.3401 12.7713C78.3401 12.2636 78.4182 11.795 78.5876 11.3524C78.7571 10.9097 78.9916 10.5322 79.2913 10.2198C79.6041 9.89436 79.9689 9.64703 80.3859 9.46478C80.8159 9.28253 81.2851 9.19141 81.7933 9.19141C82.3666 9.19141 82.8748 9.30857 83.3049 9.52987C83.7349 9.75117 84.0867 10.0506 84.3604 10.4281C84.634 10.8056 84.8295 11.2352 84.9598 11.7168C85.0771 12.1985 85.1292 12.7062 85.0901 13.2269H80.1905C80.2426 13.8387 80.3859 14.2813 80.6726 14.5547ZM82.7836 10.9748C82.5621 10.7275 82.2233 10.6103 81.7672 10.6103C81.4675 10.6103 81.2199 10.6624 81.0244 10.7666C80.829 10.8707 80.6726 10.9879 80.5553 11.1441C80.438 11.2873 80.3599 11.4565 80.3077 11.6127C80.2556 11.7819 80.2296 11.9251 80.2165 12.0553H83.2527C83.1615 11.5867 83.0052 11.2222 82.7836 10.9748Z" fill="white"/>
<path d="M92.1268 6.80957V14.451H96.7007V16.1824H90.0679V6.80957H92.1268Z" fill="white"/>
<path d="M97.5737 11.4832C97.5998 11.0406 97.7171 10.6891 97.8995 10.3897C98.095 10.1033 98.3426 9.86898 98.6423 9.69975C98.942 9.53052 99.2808 9.40034 99.6456 9.32224C100.024 9.24413 100.388 9.20508 100.766 9.20508C101.105 9.20508 101.457 9.23111 101.809 9.28319C102.161 9.33526 102.473 9.42638 102.773 9.56958C103.06 9.71277 103.294 9.90804 103.477 10.1554C103.659 10.4027 103.75 10.7412 103.75 11.1447V14.6725C103.75 14.985 103.763 15.2714 103.803 15.5577C103.842 15.8441 103.894 16.0524 103.985 16.1826H102.095C102.056 16.0785 102.03 15.9743 102.004 15.8572C101.978 15.753 101.965 15.6358 101.965 15.5187C101.665 15.8311 101.314 16.0394 100.91 16.1566C100.506 16.2737 100.089 16.3388 99.6717 16.3388C99.3459 16.3388 99.0462 16.2998 98.7726 16.2216C98.4859 16.1435 98.2513 16.0264 98.0428 15.8572C97.8343 15.6879 97.6649 15.4796 97.5477 15.2323C97.4304 14.9719 97.3652 14.6725 97.3652 14.3211C97.3652 13.9305 97.4304 13.6181 97.5737 13.3708C97.704 13.1234 97.8865 12.9282 98.095 12.7719C98.3035 12.6287 98.551 12.5116 98.8247 12.4335C99.0983 12.3554 99.385 12.3033 99.6587 12.2512C99.9454 12.2122 100.219 12.1731 100.493 12.1471C100.766 12.1211 101.001 12.082 101.222 12.0299C101.431 11.9779 101.6 11.8998 101.718 11.7956C101.835 11.6915 101.9 11.5483 101.887 11.353C101.887 11.1577 101.848 10.9885 101.783 10.8714C101.718 10.7542 101.626 10.6631 101.522 10.598C101.418 10.5329 101.288 10.4938 101.144 10.4678C101.001 10.4418 100.844 10.4287 100.675 10.4287C100.31 10.4287 100.024 10.5069 99.802 10.6631C99.5935 10.8193 99.4632 11.0796 99.4372 11.4441H97.5737V11.4832ZM101.887 12.85C101.809 12.9151 101.705 12.9802 101.587 13.0193C101.47 13.0583 101.34 13.0974 101.209 13.1234C101.079 13.1495 100.936 13.1755 100.779 13.1885C100.636 13.2015 100.48 13.2276 100.336 13.2536C100.193 13.2796 100.063 13.3187 99.9193 13.3577C99.789 13.3968 99.6717 13.4619 99.5675 13.54C99.4632 13.6181 99.385 13.7092 99.3199 13.8264C99.2547 13.9435 99.2287 14.0867 99.2287 14.256C99.2287 14.4252 99.2547 14.5684 99.3199 14.6725C99.385 14.7897 99.4632 14.8808 99.5675 14.9459C99.6717 15.011 99.789 15.0631 99.9323 15.0891C100.076 15.1151 100.219 15.1282 100.362 15.1282C100.727 15.1282 101.014 15.0631 101.222 14.9459C101.418 14.8287 101.574 14.6725 101.665 14.5033C101.757 14.3341 101.822 14.1648 101.848 13.9826C101.874 13.8134 101.887 13.6702 101.887 13.566V12.85Z" fill="white"/>
<path d="M107.06 6.80956V10.2202H107.086C107.308 9.86873 107.621 9.60838 108.011 9.45216C108.402 9.29595 108.806 9.20483 109.223 9.20483C109.562 9.20483 109.901 9.26992 110.24 9.41311C110.579 9.55631 110.878 9.76459 111.139 10.051C111.413 10.3374 111.621 10.7149 111.79 11.1575C111.96 11.6131 112.038 12.1468 112.038 12.7587C112.038 13.3835 111.96 13.9173 111.79 14.3599C111.621 14.8155 111.413 15.18 111.139 15.4664C110.865 15.7528 110.579 15.9741 110.24 16.1042C109.914 16.2474 109.575 16.3125 109.223 16.3125C108.728 16.3125 108.272 16.2344 107.881 16.0782C107.49 15.922 107.191 15.6486 106.982 15.2711H106.956V16.1433H105.184V6.77051H107.06V6.80956ZM110.083 11.9646C110.018 11.7042 109.927 11.4699 109.797 11.2746C109.666 11.0794 109.497 10.9102 109.302 10.793C109.106 10.6758 108.872 10.6107 108.585 10.6107C108.311 10.6107 108.077 10.6758 107.881 10.793C107.686 10.9102 107.516 11.0664 107.386 11.2746C107.256 11.4699 107.164 11.7042 107.099 11.9646C107.034 12.2249 107.008 12.4983 107.008 12.7977C107.008 13.0711 107.034 13.3445 107.099 13.6048C107.164 13.8652 107.256 14.0995 107.386 14.2948C107.516 14.49 107.686 14.6593 107.881 14.7764C108.077 14.8936 108.324 14.9587 108.585 14.9587C108.859 14.9587 109.106 14.8936 109.302 14.7764C109.497 14.6593 109.666 14.5031 109.797 14.2948C109.927 14.0995 110.031 13.8652 110.083 13.6048C110.149 13.3445 110.175 13.0711 110.175 12.7977C110.175 12.4983 110.149 12.2249 110.083 11.9646Z" fill="white"/>
</g>
<defs>
<clipPath id="clip0">
<rect width="111.467" height="22" fill="white" transform="translate(0.571411 0.586914)"/>
</clipPath>
</defs>
</svg>
