<svg width="104" height="39" viewBox="0 0 104 39" fill="none" xmlns="http://www.w3.org/2000/svg">
<g clip-path="url(#clip0)">
<path d="M0 19.6396V15.5856H1.23691V4.41441H0V0.360352H16.834V7.86786H11.2528V4.41441H8.23598V8.34834H10.4383V11.1712H8.23598V15.5856H11.2528V11.6516H16.834V19.6396H0Z" fill="white"/>
<path d="M19.0061 19.6396V15.5856H20.243V4.41441H19.0061V0.360352H29.5349V4.41441H27.2421V15.5856H29.4745V13.3033H34.4222V19.6396H19.0061Z" fill="white"/>
<path d="M36.5339 19.6396V15.5856H37.7708V4.41441H36.5339V0.360352H53.3679V7.86786H47.7867V4.41441H44.7699V8.34834H46.9722V11.1712H44.7699V15.5856H47.7867V11.6516H53.3679V19.6396H36.5339Z" fill="white"/>
<path d="M57.9535 17.6276C56.2641 16.036 55.3892 13.5135 55.3892 10C55.3892 3.33333 58.6474 0 65.1638 0C66.7325 0 68.2108 0.18018 69.5684 0.570571C70.926 0.960961 71.9215 1.38138 72.5852 1.83183V8.04805H66.6119V6.27628C66.6119 5.64565 66.461 5.1952 66.1895 4.89489C65.918 4.59459 65.4956 4.44444 64.9224 4.44444C64.3492 4.44444 63.9269 4.59459 63.6554 4.89489C63.3839 5.1952 63.233 5.64565 63.233 6.27628V13.7538C63.233 14.3844 63.3839 14.8348 63.6554 15.1351C63.9269 15.4354 64.3492 15.5856 64.9224 15.5856C65.4956 15.5856 65.918 15.4354 66.1895 15.1351C66.461 14.8348 66.6119 14.3844 66.6119 13.7538V11.7417H72.5852V18.1682C71.8913 18.6186 70.8958 19.039 69.5684 19.4294C68.241 19.8198 66.7929 20 65.2241 20C62.0866 20 59.6731 19.1892 57.9535 17.6276Z" fill="white"/>
<path d="M93.4015 6.33608H89.1175V4.41416H87.5186V15.5853H89.2684V19.6394H78.7999V15.5853H80.5497V4.41416H78.9508V6.33608H74.6669V0.330078H93.4015V6.33608Z" fill="white"/>
<path d="M100.461 1.80176C100.702 1.80176 100.913 1.86182 101.094 1.95191C101.275 2.07203 101.396 2.19215 101.487 2.40236C101.577 2.58254 101.637 2.82278 101.637 3.06302V3.33329H99.7066C99.7066 3.66362 99.7971 3.90386 99.9479 4.05401C100.099 4.23419 100.31 4.29425 100.612 4.29425C100.793 4.29425 100.943 4.26422 101.094 4.23419C101.245 4.20416 101.366 4.1441 101.517 4.08404V4.47443C101.366 4.53449 101.215 4.59455 101.094 4.62458C100.943 4.65461 100.793 4.68464 100.581 4.68464C100.31 4.68464 100.069 4.62458 99.8574 4.53449C99.6463 4.41437 99.4954 4.26422 99.3747 4.05401C99.2541 3.8438 99.1937 3.57353 99.1937 3.27323C99.1937 2.97293 99.2541 2.70266 99.3446 2.49245C99.4351 2.28224 99.5859 2.10206 99.7971 1.98194C100.008 1.86182 100.219 1.80176 100.461 1.80176ZM100.461 2.19215C100.25 2.19215 100.069 2.25221 99.9479 2.40236C99.8273 2.55251 99.7368 2.73269 99.7066 3.00296H101.155C101.155 2.76272 101.094 2.58254 100.974 2.43239C100.883 2.28224 100.702 2.19215 100.461 2.19215Z" fill="white"/>
<path d="M100.431 6.72673C98.5602 6.72673 97.0518 5.22523 97.0518 3.36336C97.0518 1.5015 98.5602 0 100.431 0C102.301 0 103.809 1.5015 103.809 3.36336C103.809 5.22523 102.301 6.72673 100.431 6.72673ZM100.431 0.510511C98.8317 0.510511 97.5646 1.8018 97.5646 3.36336C97.5646 4.92493 98.8619 6.21622 100.431 6.21622C102.03 6.21622 103.297 4.92493 103.297 3.36336C103.297 1.8018 102.03 0.510511 100.431 0.510511Z" fill="white"/>
</g>
<path d="M0.75 35V34.5L1.08 34.45C1.2 34.43 1.29 34.39 1.35 34.33C1.41 34.2633 1.44 34.15 1.44 33.99V29.21C1.44 29.05 1.41 28.94 1.35 28.88C1.29 28.8133 1.2 28.77 1.08 28.75L0.75 28.7V28.2H2.98V28.7L2.65 28.75C2.53 28.77 2.44 28.8133 2.38 28.88C2.32 28.94 2.29 29.05 2.29 29.21V33.99C2.29 34.15 2.32 34.2633 2.38 34.33C2.44 34.39 2.53 34.43 2.65 34.45L2.98 34.5V35H0.75ZM8.7507 28.2H10.9307V28.7L10.6007 28.75C10.4407 28.7767 10.3407 28.8167 10.3007 28.87C10.2607 28.9233 10.2407 29.0367 10.2407 29.21V35H9.4507L6.1507 29.48V33.99C6.1507 34.1633 6.1707 34.2767 6.2107 34.33C6.2507 34.3833 6.3507 34.4233 6.5107 34.45L6.8407 34.5V35H4.6607V34.5L4.9907 34.45C5.1507 34.4233 5.2507 34.3833 5.2907 34.33C5.3307 34.2767 5.3507 34.1633 5.3507 33.99V29.21C5.3507 29.03 5.33737 28.9167 5.3107 28.87C5.28404 28.8233 5.2107 28.7867 5.0907 28.76L4.7707 28.7V28.2H6.3107L9.4407 33.43V29.21C9.4407 29.0367 9.4207 28.9233 9.3807 28.87C9.3407 28.8167 9.2407 28.7767 9.0807 28.75L8.7507 28.7V28.2ZM15.7791 29.14C15.7391 29.0267 15.6858 28.9433 15.6191 28.89C15.5591 28.8367 15.4691 28.8 15.3491 28.78L15.0191 28.73V28.2H17.3891V28.73L17.1391 28.75C17.0058 28.7567 16.9058 28.79 16.8391 28.85C16.7725 28.9033 16.7391 28.97 16.7391 29.05C16.7391 29.11 16.7525 29.18 16.7791 29.26L18.2991 34.11H18.4391L20.0991 29.28C20.1258 29.22 20.1391 29.15 20.1391 29.07C20.1391 28.9767 20.1091 28.9067 20.0491 28.86C19.9891 28.8067 19.8925 28.7733 19.7591 28.76L19.4791 28.73V28.2H21.7691V28.73L21.4091 28.78C21.2958 28.7933 21.2058 28.83 21.1391 28.89C21.0725 28.95 21.0191 29.04 20.9791 29.16L18.9991 35H17.6891L15.7791 29.14ZM25.4146 35.11C24.6613 35.11 24.0313 34.9067 23.5246 34.5C23.0246 34.0867 22.7746 33.4233 22.7746 32.51V30.7C22.7746 29.8067 23.0213 29.15 23.5146 28.73C24.0146 28.3033 24.6479 28.09 25.4146 28.09C26.1946 28.09 26.8346 28.3033 27.3346 28.73C27.8346 29.15 28.0846 29.8067 28.0846 30.7V32.51C28.0846 33.4233 27.8279 34.0867 27.3146 34.5C26.8079 34.9067 26.1746 35.11 25.4146 35.11ZM25.4146 34.36C25.9813 34.36 26.4246 34.2133 26.7446 33.92C27.0713 33.62 27.2346 33.15 27.2346 32.51V30.65C27.2346 30.05 27.0679 29.6 26.7346 29.3C26.4079 28.9933 25.9679 28.84 25.4146 28.84C24.8679 28.84 24.4313 28.9933 24.1046 29.3C23.7846 29.6067 23.6246 30.0567 23.6246 30.65V32.51C23.6246 33.15 23.7813 33.62 24.0946 33.92C24.4146 34.2133 24.8546 34.36 25.4146 34.36ZM30.7009 35V34.5L31.0309 34.45C31.1509 34.43 31.2409 34.39 31.3009 34.33C31.3609 34.2633 31.3909 34.15 31.3909 33.99V29.77C31.3909 29.5367 31.3842 29.2467 31.3709 28.9H30.3309C30.2375 28.9 30.1642 28.9233 30.1109 28.97C30.0642 29.0167 30.0342 29.1 30.0209 29.22L29.9709 29.58H29.3809V28.2H34.2509V29.58H33.6609L33.6109 29.22C33.5975 29.1 33.5675 29.0167 33.5209 28.97C33.4742 28.9233 33.4009 28.9 33.3009 28.9H32.2609C32.2475 29.2467 32.2409 29.5367 32.2409 29.77V33.99C32.2409 34.15 32.2709 34.2633 32.3309 34.33C32.3909 34.39 32.4809 34.43 32.6009 34.45L32.9309 34.5V35H30.7009ZM35.552 35V34.5L35.782 34.45C35.9086 34.4233 35.9986 34.38 36.052 34.32C36.112 34.26 36.142 34.15 36.142 33.99V29.21C36.142 29.05 36.1086 28.94 36.042 28.88C35.9753 28.82 35.8686 28.7733 35.722 28.74L35.552 28.7V28.2H40.122V29.63H39.542L39.482 29.22C39.4686 29.1067 39.4253 29.0267 39.352 28.98C39.2853 28.9267 39.1686 28.9 39.002 28.9H37.352C37.2053 28.9 37.1086 28.9333 37.062 29C37.0153 29.06 36.992 29.1867 36.992 29.38V31.26H39.332V31.91H36.992V33.82C36.992 34.0133 37.0153 34.1433 37.062 34.21C37.1086 34.27 37.2053 34.3 37.352 34.3H39.112C39.2786 34.3 39.3953 34.2767 39.462 34.23C39.5353 34.1833 39.5786 34.1033 39.592 33.99L39.652 33.57H40.232V35H35.552ZM47.7311 35H46.4911L45.1411 28.84L44.4711 28.68V28.2H46.8111V28.68L46.0611 28.84L47.1911 34.09H47.2611L48.6611 29.21H49.4311L50.8411 34.09H50.9111L51.9511 28.84L51.2411 28.68V28.2H53.4911V28.68L52.8111 28.84L51.5111 35H50.2711L49.0511 30.66H48.9811L47.7311 35ZM54.6398 35V34.5L54.8698 34.45C54.9965 34.4233 55.0865 34.38 55.1398 34.32C55.1998 34.26 55.2298 34.15 55.2298 33.99V29.21C55.2298 29.05 55.1965 28.94 55.1298 28.88C55.0632 28.82 54.9565 28.7733 54.8098 28.74L54.6398 28.7V28.2H59.2098V29.63H58.6298L58.5698 29.22C58.5565 29.1067 58.5132 29.0267 58.4398 28.98C58.3732 28.9267 58.2565 28.9 58.0898 28.9H56.4398C56.2932 28.9 56.1965 28.9333 56.1498 29C56.1032 29.06 56.0798 29.1867 56.0798 29.38V31.26H58.4198V31.91H56.0798V33.82C56.0798 34.0133 56.1032 34.1433 56.1498 34.21C56.1965 34.27 56.2932 34.3 56.4398 34.3H58.1998C58.3665 34.3 58.4832 34.2767 58.5498 34.23C58.6232 34.1833 58.6665 34.1033 58.6798 33.99L58.7398 33.57H59.3198V35H54.6398ZM65.029 35V34.5L65.359 34.45C65.479 34.43 65.569 34.39 65.629 34.33C65.689 34.2633 65.719 34.15 65.719 33.99V29.77C65.719 29.5367 65.7123 29.2467 65.699 28.9H64.659C64.5657 28.9 64.4923 28.9233 64.439 28.97C64.3923 29.0167 64.3623 29.1 64.349 29.22L64.299 29.58H63.709V28.2H68.579V29.58H67.989L67.939 29.22C67.9257 29.1 67.8957 29.0167 67.849 28.97C67.8023 28.9233 67.729 28.9 67.629 28.9H66.589C66.5757 29.2467 66.569 29.5367 66.569 29.77V33.99C66.569 34.15 66.599 34.2633 66.659 34.33C66.719 34.39 66.809 34.43 66.929 34.45L67.259 34.5V35H65.029ZM69.8301 35V34.5L70.1301 34.46C70.2501 34.4467 70.3367 34.4067 70.3901 34.34C70.4434 34.2733 70.4701 34.1567 70.4701 33.99V29.21C70.4701 29.09 70.4534 29.0067 70.4201 28.96C70.3934 28.9067 70.3401 28.8667 70.2601 28.84L69.8901 28.73V28.2H72.7301C73.4101 28.2 73.9367 28.3867 74.3101 28.76C74.6834 29.1333 74.8701 29.63 74.8701 30.25C74.8701 31.2567 74.3834 31.9133 73.4101 32.22L74.3901 34.12C74.4434 34.22 74.5001 34.2933 74.5601 34.34C74.6267 34.38 74.7201 34.4067 74.8401 34.42L75.2001 34.47V35H73.8201L72.6301 32.35H71.3201V33.99C71.3201 34.1567 71.3501 34.2733 71.4101 34.34C71.4701 34.4 71.5734 34.4367 71.7201 34.45L72.1001 34.5V35H69.8301ZM72.3201 31.65C72.8601 31.65 73.2667 31.5333 73.5401 31.3C73.8201 31.06 73.9601 30.71 73.9601 30.25C73.9601 29.83 73.8334 29.5 73.5801 29.26C73.3267 29.02 72.9767 28.9 72.5301 28.9H71.6101C71.4167 28.9 71.3201 28.9933 71.3201 29.18V31.65H72.3201ZM79.7687 35.11C79.022 35.11 78.412 34.9167 77.9387 34.53C77.4653 34.1433 77.2287 33.4967 77.2287 32.59V29.21C77.2287 29.05 77.1987 28.94 77.1387 28.88C77.0787 28.8133 76.9887 28.77 76.8687 28.75L76.5387 28.7V28.2H78.7687V28.7L78.4387 28.75C78.3187 28.77 78.2287 28.8133 78.1687 28.88C78.1087 28.94 78.0787 29.05 78.0787 29.21V32.57C78.0787 33.1567 78.222 33.6033 78.5087 33.91C78.7953 34.21 79.2153 34.36 79.7687 34.36C80.3287 34.36 80.752 34.21 81.0387 33.91C81.332 33.6033 81.4787 33.1567 81.4787 32.57V29.21C81.4787 29.05 81.4487 28.94 81.3887 28.88C81.3287 28.8133 81.2387 28.77 81.1187 28.75L80.7887 28.7V28.2H83.0187V28.7L82.6887 28.75C82.5687 28.77 82.4787 28.8133 82.4187 28.88C82.3587 28.94 82.3287 29.05 82.3287 29.21V32.59C82.3287 33.4967 82.0887 34.1433 81.6087 34.53C81.1353 34.9167 80.522 35.11 79.7687 35.11ZM86.7243 35.1C86.191 35.1 85.7476 35.05 85.3943 34.95C85.0476 34.8433 84.7343 34.7133 84.4543 34.56C84.4543 34 84.4843 33.54 84.5443 33.18H85.2243L85.3243 34.05C85.491 34.15 85.7043 34.2267 85.9643 34.28C86.231 34.3267 86.4843 34.35 86.7243 34.35C87.1643 34.35 87.521 34.2467 87.7943 34.04C88.0676 33.8267 88.2043 33.54 88.2043 33.18C88.2043 32.92 88.1276 32.7067 87.9743 32.54C87.821 32.3667 87.6276 32.23 87.3943 32.13C87.1676 32.0233 86.861 31.9067 86.4743 31.78C86.041 31.6333 85.691 31.4967 85.4243 31.37C85.1576 31.2367 84.931 31.0567 84.7443 30.83C84.5643 30.5967 84.4743 30.3033 84.4743 29.95C84.4743 29.2833 84.681 28.8067 85.0943 28.52C85.5143 28.2333 86.0676 28.09 86.7543 28.09C87.5276 28.09 88.2276 28.2667 88.8543 28.62C88.8543 29.04 88.8276 29.5 88.7743 30H88.0943L88.0343 29.14C87.901 29.0533 87.7076 28.9833 87.4543 28.93C87.2076 28.87 86.9843 28.84 86.7843 28.84C86.351 28.84 85.9976 28.9167 85.7243 29.07C85.4576 29.2233 85.3243 29.48 85.3243 29.84C85.3243 30.1733 85.4476 30.4267 85.6943 30.6C85.941 30.7667 86.3043 30.92 86.7843 31.06C87.311 31.22 87.711 31.36 87.9843 31.48C88.2643 31.6 88.511 31.79 88.7243 32.05C88.9443 32.31 89.0543 32.66 89.0543 33.1C89.0543 33.7267 88.8543 34.2167 88.4543 34.57C88.0543 34.9233 87.4776 35.1 86.7243 35.1ZM91.6286 35V34.5L91.9586 34.45C92.0786 34.43 92.1686 34.39 92.2286 34.33C92.2886 34.2633 92.3186 34.15 92.3186 33.99V29.77C92.3186 29.5367 92.3119 29.2467 92.2986 28.9H91.2586C91.1653 28.9 91.0919 28.9233 91.0386 28.97C90.9919 29.0167 90.9619 29.1 90.9486 29.22L90.8986 29.58H90.3086V28.2H95.1786V29.58H94.5886L94.5386 29.22C94.5253 29.1 94.4953 29.0167 94.4486 28.97C94.4019 28.9233 94.3286 28.9 94.2286 28.9H93.1886C93.1753 29.2467 93.1686 29.5367 93.1686 29.77V33.99C93.1686 34.15 93.1986 34.2633 93.2586 34.33C93.3186 34.39 93.4086 34.43 93.5286 34.45L93.8586 34.5V35H91.6286Z" fill="white"/>
<defs>
<clipPath id="clip0">
<rect width="103.81" height="20" fill="white"/>
</clipPath>
</defs>
</svg>
