<svg width="30" height="30" viewBox="0 0 30 30" fill="none" xmlns="http://www.w3.org/2000/svg">
<path fill-rule="evenodd" clip-rule="evenodd" d="M18.175 9.15032C17.65 9.15032 17.2 9.15032 16.675 9.15032C16 9.15032 15.625 9.52533 15.55 10.1253C15.55 10.6503 15.55 11.1753 15.55 11.7003C15.55 11.9253 15.625 11.8503 15.775 11.8503C16.525 11.8503 17.275 11.8503 18.025 11.8503C18.25 11.8503 18.325 11.9253 18.325 12.1503C18.25 13.0503 18.175 13.8753 18.1 14.7753C18.1 15.0003 18.025 15.0003 17.8 15.0003C17.2 15.0003 16.6 15.0003 16 15.0003C15.55 15.0003 15.625 14.9253 15.625 15.3753C15.625 18.1503 15.625 20.8503 15.625 23.6253C15.625 23.9253 15.55 24.0003 15.25 24.0003C14.2 24.0003 13.225 24.0003 12.175 24.0003C11.875 24.0003 11.875 23.9253 11.875 23.6253C11.875 22.2753 11.875 20.8503 11.875 19.5003C11.875 18.0753 11.875 16.7253 11.875 15.3003C11.875 15.0753 11.8 15.0003 11.575 15.0003C11.125 15.0003 10.675 15.0003 10.225 15.0003C10.075 15.0003 10 14.9253 10 14.7753C10 13.8753 10 13.0503 10 12.1503C10 12.0003 10.075 11.9253 10.225 11.9253C10.675 11.9253 11.125 11.9253 11.575 11.9253C11.8 11.9253 11.875 11.8503 11.875 11.6253C11.875 10.9503 11.875 10.2753 11.875 9.60033C11.875 8.77533 12.1 8.02533 12.625 7.35033C13.225 6.52533 14.125 6.15033 15.1 6.07533C16.15 6.00033 17.2 6.07533 18.175 6.07533C18.325 6.07533 18.325 6.15032 18.325 6.30032C18.325 7.20032 18.325 8.10032 18.325 8.92532C18.4 9.07532 18.325 9.15032 18.175 9.15032Z" fill="white"/>
</svg>
