<svg width="32" height="34" viewBox="0 0 32 34" fill="none" xmlns="http://www.w3.org/2000/svg">
<rect width="32" height="34" fill="#28B55F"/>
<path fill-rule="evenodd" clip-rule="evenodd" d="M20.175 11.1083C19.65 11.1083 19.2 11.1083 18.675 11.1083C18 11.1083 17.625 11.4833 17.55 12.0833C17.55 12.6083 17.55 13.1333 17.55 13.6583C17.55 13.8833 17.625 13.8083 17.775 13.8083C18.525 13.8083 19.275 13.8083 20.025 13.8083C20.25 13.8083 20.325 13.8833 20.325 14.1083C20.25 15.0083 20.175 15.8333 20.1 16.7333C20.1 16.9583 20.025 16.9583 19.8 16.9583C19.2 16.9583 18.6 16.9583 18 16.9583C17.55 16.9583 17.625 16.8833 17.625 17.3333C17.625 20.1083 17.625 22.8083 17.625 25.5833C17.625 25.8833 17.55 25.9583 17.25 25.9583C16.2 25.9583 15.225 25.9583 14.175 25.9583C13.875 25.9583 13.875 25.8833 13.875 25.5833C13.875 24.2333 13.875 22.8083 13.875 21.4583C13.875 20.0333 13.875 18.6833 13.875 17.2583C13.875 17.0333 13.8 16.9583 13.575 16.9583C13.125 16.9583 12.675 16.9583 12.225 16.9583C12.075 16.9583 12 16.8833 12 16.7333C12 15.8333 12 15.0083 12 14.1083C12 13.9583 12.075 13.8833 12.225 13.8833C12.675 13.8833 13.125 13.8833 13.575 13.8833C13.8 13.8833 13.875 13.8083 13.875 13.5833C13.875 12.9083 13.875 12.2333 13.875 11.5583C13.875 10.7333 14.1 9.98333 14.625 9.30833C15.225 8.48333 16.125 8.10833 17.1 8.03333C18.15 7.95833 19.2 8.03333 20.175 8.03333C20.325 8.03333 20.325 8.10833 20.325 8.25833C20.325 9.15833 20.325 10.0583 20.325 10.8833C20.4 11.0333 20.325 11.1083 20.175 11.1083Z" fill="#F0EFE9"/>
</svg>
