<svg width="69" height="21" viewBox="0 0 69 21" fill="none" xmlns="http://www.w3.org/2000/svg">
<g clip-path="url(#clip0)">
<path d="M30.2933 9.36968C30.2933 5.13687 31.6241 2.73828 35.0562 2.73828C36.2119 2.73828 37.2275 3.05574 37.8579 3.40848L37.5077 5.77179C36.7722 5.4896 36.0017 5.27796 35.1963 5.27796C34.0406 5.27796 33.3752 5.70124 33.3752 8.2762V10.3221C33.3752 13.1087 34.0756 13.6378 35.1963 13.6378C36.0368 13.6378 36.7022 13.3556 37.4726 12.9676L38.033 15.2251C37.3676 15.6131 36.352 16.0716 34.9861 16.0716C31.5891 16.0716 30.2933 13.5319 30.2933 9.36968Z" fill="white"/>
<path d="M54.7731 0.586914L55.3335 2.84441V11.0984C54.9832 11.2395 54.633 11.3806 54.0026 11.3806C53.1621 11.3806 52.8119 10.922 52.8119 9.72272V0.586914H49.3098L49.8701 2.84441V9.05252C49.8701 12.6151 51.4461 13.7086 53.2322 13.7086C54.0727 13.7086 54.598 13.5322 54.8081 13.4264L55.5786 12.1566L56.174 13.497H58.2052V0.586914H54.7731Z" fill="white"/>
<path d="M14.919 2.9502L15.4794 5.20769V13.4617C15.1291 13.6028 14.7789 13.7438 14.1486 13.7438C13.308 13.7438 12.9578 13.2853 12.9578 12.086V2.9502H9.45572L10.0161 5.20769V11.4158C10.0161 14.9784 11.592 16.0719 13.3781 16.0719C14.2186 16.0719 14.7439 15.8955 14.954 15.7897L15.7245 14.5199L16.3199 15.8602H18.3511V2.9502H14.919Z" fill="white"/>
<path d="M24.0245 15.8248L23.4641 13.5673V5.31335C23.8144 5.17226 24.1646 5.03117 24.7949 5.03117C25.6355 5.03117 25.9857 5.48972 25.9857 6.68902V15.8248H29.4878L28.9274 13.5673V7.35921C28.9274 3.7966 27.3515 2.70312 25.5654 2.70312C24.7249 2.70312 24.1996 2.87949 23.9895 2.98531L23.219 4.25515L22.6236 2.91477H20.5924V15.7895H24.0245V15.8248Z" fill="white"/>
<path d="M64.2288 0.586914H59.8161L60.3765 2.84441V11.2042L59.8161 13.4617H63.3182V9.68744H64.2638C66.9955 9.68744 68.5714 8.31178 68.5714 5.13718C68.5714 1.96258 66.9955 0.586914 64.2288 0.586914ZM65.5246 5.73683C65.5246 7.14776 65.1744 7.53577 64.1588 7.53577H63.2832V2.95023H64.1237C65.1393 2.95023 65.5246 3.30296 65.5246 4.67863V5.73683Z" fill="white"/>
<path d="M4.41267 2.9502H0L0.560339 5.20769V13.5675L0 15.825H3.50212V12.086H4.44769C7.17934 12.086 8.75529 10.7103 8.75529 7.53573C8.75529 4.32586 7.17934 2.9502 4.41267 2.9502ZM5.70845 8.13538C5.70845 9.54632 5.35824 9.93432 4.34262 9.93432H3.4671V5.31351H4.3076C5.32322 5.31351 5.70845 5.66624 5.70845 7.04191V8.13538Z" fill="white"/>
<path d="M47.7688 5.20769L48.3292 2.9502H44.3017L44.8621 5.20769V8.10011H42.2705V5.20769L42.8309 2.9502H38.7684L39.3287 5.20769V13.5675L38.7684 15.825H42.8309L42.2705 13.5675V10.4634H44.8621V13.5675L44.3017 15.825H48.3292L47.7688 13.5675V5.20769Z" fill="white"/>
<path d="M48.3292 18.1885H0V20.5518H48.3292V18.1885Z" fill="white"/>
<path d="M68.1862 15.8252H48.3292V18.1885H68.1862V15.8252Z" fill="white"/>
</g>
<defs>
<clipPath id="clip0">
<rect width="68.5714" height="20" fill="white" transform="translate(0 0.586914)"/>
</clipPath>
</defs>
</svg>
