<svg width="32" height="34" viewBox="0 0 32 34" fill="none" xmlns="http://www.w3.org/2000/svg">
<rect width="32" height="34" fill="#28B55F"/>
<path d="M23.275 13.6C23.275 13.75 23.275 13.9 23.275 14.05C23.275 18.925 19.525 24.625 12.7 24.625C10.6 24.625 8.65 24.025 7 22.975C7.3 22.975 7.6 23.05 7.9 23.05C9.625 23.05 11.2 22.45 12.475 21.475C10.825 21.475 9.475 20.35 9.025 18.925C9.25 19 9.475 19 9.7 19C10.075 19 10.375 18.925 10.675 18.85C8.95 18.475 7.675 16.975 7.675 15.25C7.675 15.25 7.675 15.25 7.675 15.175C8.2 15.475 8.725 15.625 9.325 15.625C8.425 14.875 7.825 13.75 7.825 12.475C7.825 11.8 7.975 11.125 8.35 10.6C10.15 12.85 12.925 14.35 16 14.5C15.925 14.2 15.925 13.975 15.925 13.675C15.925 11.65 17.575 10 19.6 10C20.65 10 21.625 10.45 22.3 11.2C23.125 11.05 23.95 10.75 24.625 10.3C24.325 11.2 23.725 11.875 22.975 12.325C23.725 12.25 24.475 12.025 25.075 11.725C24.625 12.4 23.95 13.075 23.275 13.6Z" fill="#F0EFE9"/>
</svg>
