<svg width="30" height="30" viewBox="0 0 30 30" fill="none" xmlns="http://www.w3.org/2000/svg">
<path d="M22.2 11.3246C22.2 11.4746 22.2 11.6246 22.2 11.7746C22.2 16.6496 18.45 22.3496 11.625 22.3496C9.52499 22.3496 7.57499 21.7496 5.92499 20.6996C6.22499 20.6996 6.52499 20.7746 6.82499 20.7746C8.54999 20.7746 10.125 20.1746 11.4 19.1996C9.74999 19.1996 8.39999 18.0746 7.94999 16.6496C8.17499 16.7246 8.39999 16.7246 8.62499 16.7246C8.99999 16.7246 9.29999 16.6496 9.59999 16.5746C7.87499 16.1996 6.59999 14.6996 6.59999 12.9746C6.59999 12.9746 6.59999 12.9746 6.59999 12.8996C7.12499 13.1996 7.64999 13.3496 8.24999 13.3496C7.34999 12.5996 6.74999 11.4746 6.74999 10.1996C6.74999 9.52461 6.89999 8.84961 7.27499 8.32461C9.07499 10.5746 11.85 12.0746 14.925 12.2246C14.85 11.9246 14.85 11.6996 14.85 11.3996C14.85 9.37461 16.5 7.72461 18.525 7.72461C19.575 7.72461 20.55 8.17461 21.225 8.92461C22.05 8.77461 22.875 8.47461 23.55 8.02461C23.25 8.92461 22.65 9.59961 21.9 10.0496C22.65 9.97461 23.4 9.74961 24 9.44961C23.55 10.1246 22.875 10.7996 22.2 11.3246Z" fill="white"/>
</svg>
