<svg width="93" height="38" viewBox="0 0 93 38" fill="none" xmlns="http://www.w3.org/2000/svg">
<path d="M37.6315 15.6C37.5315 15.6 37.5315 15.6 37.6315 15.6C37.5315 15.6 37.5315 15.7 37.5315 15.7L37.6315 15.6Z" fill="#202020"/>
<path d="M76.2315 26.8C76.1315 26.7 76.3315 26.8 76.3315 26.8C76.2315 26.7 76.1315 26.6 76.0315 26.6C76.0315 26.6 76.2315 26.7 76.2315 26.8Z" fill="#202020"/>
<path d="M87.7315 35.1L87.6315 35.2C87.7315 35.2 87.7315 35.2 87.7315 35.1Z" fill="#202020"/>
<path d="M27.8315 14.7C27.7315 14.6 27.7315 14.6 27.8315 14.7V14.7Z" fill="#202020"/>
<path d="M3.83142 13.4C3.83142 13.4 3.83142 13.5 3.83142 13.4H3.93142C3.83142 13.4 3.83142 13.4 3.83142 13.4Z" fill="#202020"/>
<path d="M21.3314 14.2C21.4314 14.3 21.7314 14.3 22.1314 14.3V14.1L21.3314 14.2Z" fill="#202020"/>
<path d="M14.0314 10.8L14.7314 11.1C12.5314 11.3 11.4314 11.1 9.53145 11.4L9.63145 11.3C9.33145 11.2 9.23145 11.9 6.13145 11.3C6.03145 11.3 6.03145 11.4 5.83145 11.3L6.33145 11.5C6.03145 11.6 5.73145 11.8 5.33145 11.8C5.23145 11.8 5.23145 11.7 5.23145 11.7L4.23145 11.8L3.93145 11.6C3.63145 11.7 3.83145 12.1 2.93145 11.9C3.23145 12.2 2.53145 12.1 2.63145 12.2C2.63145 12.2 2.53145 12.1 2.43145 12.1C1.93145 12.2 0.931445 12.3 0.731445 12.5C0.731445 12.5 2.73145 13 3.33145 13.3C2.63145 13.3 3.13145 13.3 3.33145 13.4V13.3C3.73145 13.3 3.73145 13.5 4.03145 13.6V13.5C4.03145 13.5 4.03145 13.4 4.13145 13.4C4.33145 13.4 4.63145 13.4 4.73145 13.4V13.6C5.03145 13.3 6.93145 13.9 7.33145 13.9C7.73145 14.1 8.33145 13.8 8.83145 13.9C9.73145 13.9 9.23145 14.1 9.73145 14.2C10.2314 14.3 9.63145 14 9.83145 14L10.4314 14.2C10.0314 14.2 10.2314 14.3 10.3314 14.4C10.9314 14.4 11.7314 14.6 11.9314 14.3C12.6314 14.4 12.7314 14.5 13.0314 14.5C12.9314 14.4 12.7314 14.4 12.7314 14.3C13.0314 14.4 12.8314 14.3 12.7314 14.2C13.2314 14 15.1314 14.7 15.2314 14.3V14.4C15.3314 14.2 15.1314 13.9 15.4314 13.8L15.6314 13.9L15.9314 13.8C16.1314 13.9 16.0314 13.9 16.0314 14C16.5314 13.9 17.2314 14 17.9314 14L17.0314 13.3C17.5314 13.4 18.5314 13.7 18.6314 13.5L18.9314 13.7C20.0314 14.1 19.6314 13.5 20.1314 13.6L20.6314 13.8H20.1314C20.6314 13.9 20.8314 14 21.3314 14.1C21.3314 14.1 21.3314 14.1 21.2314 14.1H21.3314C21.4314 14 21.6314 13.9 22.0314 13.9C22.5314 13.9 22.9314 13.8 23.8314 14L24.0314 13.7L24.6314 13.9V14.1C24.0314 14.1 22.8314 14.1 22.0314 14.2V14.3C22.5314 14.3 23.0314 14.2 23.3314 14.2C23.5314 14.2 23.8314 14.5 23.6314 14.6L23.9314 14.4C25.5314 14.4 25.5314 14.4 27.1314 14.6H27.0314C27.3314 14.5 27.7314 14.5 27.7314 14.7C28.7314 14.8 29.7314 14.9 30.3314 15.2L30.4314 15C30.6314 15 30.9314 15.4 31.0314 15.1L31.4314 15C31.7314 15 31.9314 14.9 32.2314 15.1C32.2314 15.1 32.2314 15.1 32.3314 15.1C32.9314 15.2 32.3314 14.9 33.0314 15.1C33.2314 15.3 33.3314 14.8 33.6314 14.9L33.9314 15.3C34.5314 15.5 34.7314 15.2 35.6314 15.3C36.0314 15.5 36.2314 15.8 35.9314 16C36.3314 15.7 36.1314 15.8 36.7314 15.7C36.8314 15.8 36.7314 15.9 36.6314 16C37.1314 16.2 36.9314 15.9 37.3314 15.9C37.4314 15.7 37.6314 15.3 37.7314 15.3L37.6314 15.2C38.0314 15.1 38.4314 15.1 38.9314 15.2V15.3H39.4314V15.5H40.1314L40.0314 15.4C40.2314 15.4 40.7314 15.4 41.0314 15.5V15.6C41.8314 16 42.6314 15.7 43.6314 15.8L43.4314 16C43.7314 16.2 43.5314 15.7 43.9314 15.9V16.1C44.3314 15.9 44.3314 16.2 44.6314 16.4L44.5314 16.1L44.9314 16.2C45.4314 16.4 45.2314 16.6 45.1314 16.7L45.5314 16.5V16.8C45.8314 16.6 45.7314 16.9 46.2314 16.8C46.2314 16.9 46.1314 16.9 46.2314 17L47.0314 16.8L46.5314 16.9L46.6314 16.5C47.1314 16.3 47.2314 16.6 47.6314 16.6L47.4314 16.7C47.9314 16.7 47.9314 16.9 48.2314 17C48.1314 16.9 48.0314 16.8 48.2314 16.8C48.4314 16.8 48.3314 16.9 48.4314 17C48.5314 16.8 48.9314 16.7 49.2314 16.9C49.2314 16.9 49.2314 17 49.1314 17C49.2314 17 49.3314 16.9 49.4314 17H49.5314L49.8314 16.8C50.0314 16.9 50.3314 16.8 50.2314 16.9H50.1314L51.6314 17.3V17.5C51.8314 17.2 52.4314 17.8 52.4314 17.4C52.6314 17.7 53.5314 17.5 53.3314 17.9C54.2314 18.2 54.9314 17.9 56.0314 18.4C56.3314 18.8 57.5314 19.1 58.2314 19.3C58.9314 19.4 59.5314 19.5 60.2314 19.7C60.8314 19.8 61.4314 20 62.2314 20.2C62.9314 21 64.4314 20.8 65.2314 21.5L65.5314 21.4C66.0314 21.9 67.1315 22 67.8315 22.6C68.0314 22.6 68.2314 22.6 68.2314 22.6C68.2314 22.6 68.1314 22.5 68.2314 22.4C68.4314 22.6 68.9314 22.7 68.8315 22.9H68.7314C68.6314 23.1 69.5314 23.1 69.6314 23.5V23.2L70.0314 23.5H69.9314C72.1314 23.9 72.6314 25.2 74.6314 25.7C74.2314 25.8 75.0314 25.8 74.9314 26.1C75.1314 26.7 75.8314 26.5 76.2314 26.6C76.2314 26.6 76.2315 26.6 76.3315 26.6L76.9314 27C76.3315 27.1 77.5314 27 77.0314 27.1C78.5314 28.4 80.7315 29.5 82.4314 31V30.9C82.8315 31.3 83.5314 31.6 83.7314 32C83.9314 32.4 84.6314 32.4 84.7314 32.5C85.2314 32.7 85.3314 33.2 85.1314 33.1C85.5314 33.4 86.1314 33.4 86.5314 34C86.5314 34.4 88.1314 35 87.9314 35.3C88.4314 36.1 89.3315 36.4 89.8315 37.2C89.8315 37.2 89.8314 37.2 89.7314 37.2L91.9314 37.8L92.4314 36.5C92.2315 35.8 92.1314 35.2 91.9314 34.5C90.7315 33.4 89.5314 32.4 88.2314 31.4C87.3314 30.5 86.4314 29.5 85.5314 28.6C83.0314 26.7 80.4314 24.9 77.7314 23.3L77.0314 23.1C75.7314 21.7 73.3314 21.1 71.7314 19.9L71.6314 20.1C71.1314 19.9 71.2314 19.7 71.1314 19.6C66.3314 17.4 61.2314 16 56.8314 14.5C56.4314 14.2 55.1314 14 54.8314 13.8C53.3314 13.7 51.7314 13.4 50.2314 13.1H50.3314L49.4314 13V12.9C48.6314 12.9 47.4314 12.6 46.4314 12.3H46.5314C40.8314 11.4 35.5314 11.4 29.9314 10.9C27.3314 10.4 24.2314 10.9 21.2314 10.6C20.9314 10.5 19.3314 10.5 17.6314 10.6C15.9314 10.7 14.3314 10.8 14.0314 10.8Z" fill="#202020"/>
<path d="M5.23146 11.6C5.23146 11.5 5.13146 11.5 5.23146 11.6V11.6Z" fill="#202020"/>
<path d="M17.7314 13.9L17.8314 14.1L17.7314 13.9Z" fill="#202020"/>
<path d="M2.23144 12C2.03144 12 2.13144 12.1 2.23144 12.1C2.43144 12.1 2.53144 12.1 2.53144 12.1C2.53144 12 2.33144 12 2.23144 12Z" fill="#202020"/>
<path d="M13.2314 6.49999C13.1314 6.39999 13.1314 6.39999 13.0314 6.49999C13.1314 6.49999 13.2314 6.49999 13.2314 6.49999Z" fill="#202020"/>
<path d="M17.5314 3.40002L17.6314 3.50002C17.5314 3.40002 17.5314 3.40002 17.5314 3.40002Z" fill="#202020"/>
<path d="M8.03142 18C8.03142 17.9 8.03142 17.8 7.93142 17.8L7.83142 17.9L8.03142 18Z" fill="#202020"/>
<path d="M7.63137 22.4V22C8.33137 22.4 8.53137 22.9 9.23137 23.2H9.13137C9.13137 23.3 9.63137 22.8 10.0314 24.2C10.0314 24.2 10.1314 24.2 10.1314 24.3L10.0314 24C10.1314 24 10.3314 24 10.5314 24V24.1L10.9314 24.3V24.5C11.1314 24.5 11.2314 24.1 11.4314 24.5C11.5314 24.2 11.6314 24.4 11.7314 24.3C11.7314 24.3 11.7314 24.4 11.7314 24.5C11.9314 24.6 12.2314 24.7 12.4314 24.6C12.4314 24.6 12.1314 23.7 12.1314 23.3C12.3314 23.5 12.2314 23.3 12.2314 23.2H12.1314C12.0314 23.1 12.1314 22.9 12.1314 22.8C12.1314 22.8 12.1314 22.8 12.1314 22.9C12.1314 22.9 12.1314 23 12.0314 22.9C11.9314 22.9 11.9314 22.8 11.8314 22.8L11.9314 22.7C11.6314 22.9 11.5314 21.9 11.4314 21.8C11.4314 21.6 11.1314 21.6 11.0314 21.4C10.8314 21.2 11.0314 21.1 11.0314 20.9C10.9314 20.7 10.9314 21.1 10.9314 21V20.7C11.0314 20.8 11.0314 20.7 11.0314 20.6C10.9314 20.5 10.8314 20 10.6314 20.2C10.5314 19.9 10.6314 19.8 10.5314 19.7C10.5314 19.8 10.5314 19.9 10.5314 19.9C10.5314 19.7 10.4314 19.9 10.5314 19.9C10.3314 19.9 10.2314 18.9 10.0314 19.2C9.83137 19.4 9.73137 19.6 9.53137 19.6V19.5H9.33137C9.33137 19.4 9.43137 19.4 9.43137 19.3C9.23137 19.3 9.13137 19 8.93137 18.8L8.63137 19.5C8.63137 19.3 8.53137 18.8 8.33137 18.9V19C8.33137 18.4 8.03137 19 8.03137 18.8V18.5L8.13137 18.6C8.13137 18.4 8.13137 18.3 8.13137 18C8.03137 18.1 7.93137 18.1 7.83137 18C7.73137 17.8 7.53137 17.9 7.43137 17.5L7.23137 17.6L7.03137 17.3L7.13137 17.2C7.23137 17.4 7.63137 17.6 7.83137 17.8L7.93137 17.7C7.83137 17.6 7.63137 17.5 7.53137 17.4C7.53137 17.3 7.53137 17.1 7.73137 17.1L7.53137 17.2C7.13137 16.8 7.13137 16.8 6.93137 16.2V16.3C6.83137 16.3 6.73137 16.2 6.83137 16.1C6.63137 15.8 6.43137 15.5 6.53137 15.1L6.33137 15.2C6.33137 15.1 6.53137 14.8 6.23137 15H5.93137C5.83137 14.9 5.73137 15 5.73137 14.8C5.63137 14.6 5.53137 14.9 5.53137 14.6C5.63137 14.4 5.23137 14.7 5.23137 14.6L5.43137 14.3C5.43137 14 5.13137 14.2 4.93137 13.9C4.93137 13.7 5.13137 13.5 5.33137 13.4C5.03137 13.5 5.13137 13.5 4.93137 13.4C5.03137 13.3 5.03137 13.3 5.23137 13.3C5.23137 13.1 5.03137 13.3 5.03137 13.2C4.83137 13.3 4.53137 13.5 4.43137 13.5V13.6C4.23137 13.6 4.03137 13.4 4.13137 13.3L4.23137 13.2H4.13137L4.23137 13.1H4.13137C4.03137 13.1 4.03137 13 4.03137 13H4.13137C4.33137 12.9 3.93137 12.9 3.93137 12.7H4.13137C4.33137 12.7 3.83137 12.7 3.93137 12.6H4.13137C3.83137 12.5 4.23137 12.6 4.33137 12.6H4.03137H4.13137C4.23137 12.6 4.53137 12.7 4.73137 12.7C4.63137 12.7 4.53137 12.6 4.53137 12.6L4.83137 12.7C4.53137 12.6 4.93137 12.7 4.73137 12.6C4.83137 12.6 4.83137 12.7 4.93137 12.7C4.83137 12.6 4.73137 12.6 4.63137 12.5L4.73137 12.6L4.43137 12.4C4.23137 12.2 4.53137 12.4 4.43137 12.3L4.53137 12.4C4.53137 12.3 4.63137 12.4 4.73137 12.5C4.63137 12.5 4.63137 12.4 4.53137 12.4L4.63137 12.5C4.43137 12.3 4.43137 12.2 4.53137 12.3C4.53137 12.3 4.53137 12.4 4.63137 12.4C4.63137 12.4 4.53137 12.3 4.63137 12.3L4.83137 12.5C4.83137 12.4 4.73137 12.4 4.73137 12.3C4.73137 12.3 4.73137 12.3 4.83137 12.3V12.4L5.13137 12L5.23137 12.2C5.13137 11.9 5.53137 12.1 5.33137 11.8C5.53137 11.9 5.63137 11.5 5.73137 11.8C6.03137 11.6 6.03137 11.2 6.53137 11.1C6.83137 11.3 7.13137 11 7.43137 10.9C7.83137 10.5 8.03137 10.2 8.43137 9.8C9.03137 10 9.03137 9.2 9.53137 9.2V9C9.93137 9.1 10.0314 8.6 10.4314 8.7C10.4314 8.6 10.4314 8.5 10.5314 8.5C10.5314 8.5 10.4314 8.5 10.4314 8.4C10.5314 8.4 10.6314 8.2 10.8314 8.4C10.9314 8.6 11.0314 8.1 11.2314 8.3L11.0314 8.1L11.2314 8V8.1C11.6314 7.2 12.3314 7.7 12.7314 6.8C12.8314 7.1 12.7314 6.6 12.9314 6.9C13.3314 7.1 13.2314 6.6 13.2314 6.5C13.2314 6.5 13.2314 6.5 13.2314 6.4L13.5314 6.3C13.6314 6.7 13.5314 5.9 13.5314 6.3C14.3314 6.2 14.9314 5.4 15.6314 5.1L15.4314 5C15.6314 4.9 15.7314 4.7 16.0314 4.7C16.2314 4.8 16.2314 4.3 16.2314 4.2C16.3314 4 16.6314 4.2 16.5314 4.2C16.6314 4.1 16.6314 3.7 16.9314 3.6C17.2314 3.8 17.3314 2.9 17.5314 3.3C17.9314 3.4 17.9314 2.8 18.4314 2.8C18.4314 2.8 18.4314 2.8 18.4314 2.9V1.5L17.5314 0.5L16.4314 0L15.1314 1.1L13.7314 1.5L11.0314 3.4V3.8C10.2314 3.7 9.83137 4.7 9.03137 4.7L9.13137 4.9C8.93137 5 8.93137 4.9 8.83137 4.9C7.33137 5.9 5.93137 7.2 4.33137 7.9C4.03137 7.8 3.73137 8.2 3.53137 8.1C3.33137 8.4 3.13137 8.6 2.93137 8.7C2.73137 8.9 2.63137 9 2.13137 9.3L1.73137 9.6H1.63137C1.33137 10.1 0.631371 10.5 0.331371 11C-0.0686291 11.8 -0.0686292 12.8 0.131371 13.6C0.231371 14 0.531371 14.4 0.731371 14.8C0.831371 15 1.03137 15.2 1.13137 15.4L1.43137 15.7C2.13137 16.5 2.73137 17.3 3.33137 18.2C3.73137 19.2 4.93137 19.7 5.43137 20.7C5.53137 20.9 7.33137 22.4 7.63137 22.4Z" fill="#202020"/>
<path d="M8.73132 19.1L8.83132 19L8.73132 19.1Z" fill="#202020"/>
<path d="M10.9314 20.9C10.8314 20.8 10.8314 20.8 10.8314 20.9H10.9314Z" fill="#202020"/>
<path d="M11.5314 24.7C11.6314 24.7 11.6314 24.7 11.6314 24.6C11.5314 24.6 11.5314 24.5 11.5314 24.5C11.4314 24.6 11.4314 24.7 11.5314 24.7Z" fill="#202020"/>
<path d="M12.0314 23.4C12.1314 23.3 12.0314 23.3 12.0314 23.4V23.4Z" fill="#202020"/>
</svg>
