<svg width="606" height="606" viewBox="0 0 606 606" fill="none" xmlns="http://www.w3.org/2000/svg">
<path d="M282.2 603.5H581.9L432 464.6L282.2 603.5Z" fill="#28B55F"/>
<path d="M581.9 325.7H282.2L432 464.6L581.9 325.7Z" fill="#28B55F"/>
<path d="M581.9 603.5V325.7L432 464.6L581.9 603.5Z" fill="#4076CA"/>
<path d="M282.2 325.7V603.5L432 464.6L282.2 325.7Z" fill="#4076CA"/>
<path d="M282.208 2.50328H2.5078V602.503H282.208V2.50328Z" fill="#F0EFE9" stroke="black" stroke-width="5"/>
<path d="M602.477 2.50328H282.177V324.803H602.477V2.50328Z" fill="#4076CA" stroke="black" stroke-width="5"/>
<path d="M581.877 324.827H282.177V602.527H581.877V324.827Z" stroke="black" stroke-width="5"/>
<path d="M602.504 324.827H581.904V602.527H602.504V324.827Z" fill="#28B55F" stroke="black" stroke-width="5"/>
<path d="M581.429 326.703C580.835 326.602 579.845 326.903 579.449 327.203C574.696 330.809 570.042 334.414 565.389 338.119H565.29C564.993 338.42 564.894 338.52 565.092 338.42C564.3 339.021 563.606 339.622 562.814 340.222C562.715 340.323 562.616 340.323 562.616 340.423C561.428 341.324 560.24 342.225 559.052 343.227C558.557 343.527 557.765 344.128 558.656 343.327C557.765 343.928 557.666 344.228 557.171 344.829C557.072 344.829 557.072 344.929 556.973 344.929C556.378 345.23 556.477 344.829 557.072 344.228L556.279 345.029V344.929L555.685 345.63C554.794 346.131 555.388 345.53 554.497 346.131V346.432L553.903 346.732C554.2 346.632 553.705 347.032 553.21 347.533V347.433L552.517 348.034C553.111 347.333 551.824 348.535 552.022 348.134C551.428 348.635 551.428 348.635 550.339 349.536H550.636C549.348 350.738 550.438 349.436 549.249 350.237L549.447 350.337C547.665 351.339 546.774 352.641 545.487 353.442C546.18 352.841 545.883 352.841 545.883 352.841C544.893 353.742 543.111 355.044 542.219 356.046C541.625 356.146 541.526 356.146 540.338 356.947C539.546 357.648 539.447 357.748 539.249 358.049C538.457 358.549 537.071 359.851 536.873 359.751C536.774 360.052 536.179 360.252 535.783 360.753H535.684L535.882 360.853C534.298 361.654 533.704 362.956 532.12 363.757L532.318 363.557L531.823 364.057C531.724 364.057 531.922 363.857 531.823 363.757L529.149 365.96L529.744 365.66C529.149 366.161 528.951 366.561 528.159 367.062C529.05 365.96 527.268 367.763 526.971 367.763L527.466 367.262C526.674 367.963 526.674 367.963 526.872 368.063C525.882 368.965 525.981 368.364 525.09 369.265L525.783 368.764C526.08 368.664 525.684 369.165 525.189 369.566C525.09 369.666 524.694 369.866 524.991 369.566C524.199 370.267 522.912 371.168 522.615 371.569C522.119 371.869 522.218 371.669 522.416 371.468C520.832 372.971 521.624 372.069 519.941 373.571V373.471L519.446 374.072L518.456 374.573L518.852 374.473C518.258 374.974 517.961 375.274 517.268 375.775L517.466 375.474C515.981 376.876 515.485 376.776 514.099 378.278C514 378.379 514.198 378.078 514.297 377.978C513.01 379.38 513.109 378.679 511.822 380.081C511.921 379.981 511.723 380.081 511.723 379.981L511.129 380.582L511.03 380.382L510.733 381.083L510.238 381.283L510.04 381.583C509.05 381.784 508.356 382.885 507.168 383.386L507.465 383.486C505.485 385.89 501.822 387.792 499.148 390.296L499.049 390.096L498.059 391.298C497.366 391.698 498.356 390.797 498.059 390.897C496.871 392.099 497.762 391.598 496.376 392.9C495.584 393.401 496.574 392.599 496.871 392.199C495.584 393.401 493.603 395.203 492.613 396.004V396.105C491.722 396.906 490.534 397.907 489.544 398.809C489.544 398.708 489.742 398.508 489.94 398.308C489.544 398.608 489.049 399.009 488.752 399.309L489.049 398.809C488.257 399.41 486.87 400.812 486.573 400.812C486.672 400.812 486.771 400.912 486.078 401.513C485.484 401.613 484.395 403.115 483.207 403.916C483.306 403.716 484.098 403.115 483.801 403.215C483.207 403.616 482.811 404.116 482.415 404.617L482.514 404.417L480.137 406.72C479.543 406.82 477.86 408.823 477.86 408.423C476.969 409.224 478.652 407.922 477.563 408.924C477.167 409.124 476.573 409.825 476.474 409.625L476.573 409.524L475.781 410.225L476.177 409.625C475.583 410.225 475.187 410.826 475.286 411.027C474.593 411.527 473.701 412.329 473.305 412.429L473.503 412.228C471.82 413.831 470.236 414.331 469.048 415.834C468.949 415.934 468.949 415.834 469.147 415.633L468.058 416.535L468.256 416.234L466.572 418.037V417.937C465.384 418.938 463.503 420.641 462.018 422.043L462.216 421.843C460.632 423.445 460.533 423.144 459.344 424.346C459.344 424.246 459.443 424.246 459.443 424.246L458.354 425.248L458.552 424.947C457.859 425.848 456.077 426.75 456.671 426.449C456.275 426.95 455.582 427.751 455.483 427.952C454.295 429.053 455.087 428.152 454.295 428.653C453.403 429.454 453.403 429.654 452.116 430.655V430.555C451.621 431.056 451.324 431.457 450.532 432.158L450.73 431.957C449.641 433.259 448.948 433.059 448.255 434.361C447.661 434.762 446.77 435.663 446.671 435.463C445.185 436.965 444.096 438.066 442.611 439.569C442.116 439.569 442.314 439.869 441.225 440.57L441.423 440.67C439.244 442.673 436.472 444.576 434.195 446.779L433.997 446.679L433.7 447.28C431.125 449.583 427.759 452.588 425.679 454.39C425.085 455.091 424.194 456.193 423.105 457.094L423.204 456.994C421.422 458.797 419.541 460.7 417.461 462.402C417.56 462.202 417.263 462.402 417.461 462.102C417.164 462.703 416.273 463.203 415.877 463.604L416.471 463.203C416.372 463.404 416.174 463.604 415.976 463.804V463.704L414.986 463.003C414.986 462.903 414.887 462.803 414.887 462.803L414.689 462.703L414.392 462.102C414.095 461.901 412.907 460.9 412.412 460.7C412.412 460.6 411.619 459.698 412.313 460.299L409.144 457.195L409.639 457.695C409.54 457.896 408.55 457.094 408.055 456.494C408.847 456.994 408.253 456.393 408.154 455.993C407.659 455.692 408.451 456.494 408.154 456.293C407.461 455.893 406.273 454.791 406.075 454.39L406.471 454.691C405.679 453.99 405.58 453.389 404.787 452.688C403.995 452.187 403.599 451.586 403.5 451.987C402.51 451.086 403.302 451.486 403.005 451.186C402.411 450.885 401.223 449.483 401.124 449.183C400.233 448.982 398.649 446.579 398.252 446.679L397.658 445.778C397.559 445.878 397.262 445.878 396.569 445.277C396.074 444.576 396.371 444.576 396.173 444.376L395.48 444.276C392.312 440.57 387.559 436.364 384.192 432.358C382.509 430.756 380.232 428.753 378.351 426.75L378.648 426.95L376.766 424.947L378.054 426.449C377.558 426.049 377.261 425.748 376.865 425.348C374.885 423.044 372.212 420.14 369.538 417.636C367.558 416.234 368.746 416.234 366.865 414.832C367.063 414.932 367.162 414.932 367.261 415.032C365.479 413.33 364.489 412.429 362.607 410.826C363.102 410.726 361.518 409.625 361.815 409.625H361.518C361.221 409.124 360.33 408.222 360.627 408.222L359.736 407.622L359.835 407.421C358.845 406.42 356.567 404.217 356.369 403.415C353.696 401.012 349.933 396.806 346.963 393.501C346.468 393.1 345.478 392.199 344.785 391.498L344.191 390.496C343.399 389.795 342.507 389.194 341.913 388.393H342.012C341.22 387.692 340.626 386.791 339.834 386.29C339.042 385.389 338.349 384.488 338.745 384.688C337.953 384.087 336.666 382.084 336.666 382.084C336.666 382.084 326.863 370.968 315.774 358.449C313.001 355.345 310.229 352.14 307.456 348.935C304.684 345.831 301.912 342.726 299.436 339.922C294.287 334.214 289.832 329.507 287.158 327.003C286.663 326.803 285.673 325.801 285.871 326.402C285.178 325.601 285.079 325 284.782 325C285.178 325.501 285.079 325.601 284.881 325.601C283.99 324.9 281.614 325.901 282.505 327.003C289.436 335.315 296.466 343.627 303.496 351.839C303.397 351.739 303.397 351.739 303.298 351.639C303.496 351.839 303.694 352.04 303.892 352.24C304.189 352.641 304.585 353.041 304.882 353.442C306.07 354.944 306.664 356.146 308.05 357.748L308.248 357.648C310.625 361.053 313.991 364.658 316.962 368.164L316.665 367.663C317.16 368.063 317.853 368.764 318.447 369.265C318.447 369.365 317.853 369.065 318.744 370.066C318.645 369.866 318.249 369.365 318.447 369.465C320.823 372.67 326.467 378.879 330.626 383.787C336.666 390.196 342.903 397.407 348.844 403.616C347.953 402.614 348.646 402.815 349.24 403.616C350.627 406.019 352.607 406.921 354.191 409.224C357.855 412.729 360.528 416.334 364.093 419.339L363.994 419.539C364.39 420.14 364.687 420.14 365.182 420.641H365.083C366.271 421.943 367.855 423.345 368.449 424.046L368.647 423.946C369.34 424.647 368.944 424.446 369.736 425.147L369.637 425.248L370.627 425.949C370.231 426.149 372.608 428.052 373.103 428.753C374.093 429.654 375.974 431.357 377.36 432.859C377.459 433.259 379.242 435.062 380.232 436.264C381.321 437.365 382.608 438.667 384.093 440.069C385.48 441.471 386.965 442.873 388.351 444.276L388.45 444.075L389.143 444.776C389.143 444.776 389.143 444.876 389.044 444.876C389.44 445.678 390.826 446.479 391.222 447.18C391.024 446.679 390.727 446.679 390.331 446.278C389.836 445.577 390.529 445.978 391.321 446.879H391.222L391.817 447.28C391.718 447.48 392.213 448.081 392.114 448.281C394.589 450.585 396.371 451.987 398.847 454.491C398.451 454.39 400.629 456.193 399.936 455.993C401.52 457.395 399.936 455.492 400.728 455.993C401.124 456.393 401.619 456.794 401.619 456.894C401.322 456.794 401.817 457.395 401.421 457.094L402.411 458.096C402.51 458.196 402.213 457.996 402.114 457.896C404.292 459.698 405.58 461.501 407.56 463.103C407.758 463.103 406.867 462.402 407.065 462.402C409.144 464.005 408.55 464.105 410.431 465.607L409.936 465.407C410.53 465.807 410.926 465.907 411.619 466.809L411.52 466.909C411.223 466.709 410.629 466.208 410.332 466.008C410.629 466.308 411.025 466.709 411.421 467.009C411.223 467.209 411.124 467.41 411.025 467.61C410.926 467.61 410.035 468.411 410.629 467.71L407.263 470.714L407.857 470.314C408.055 470.414 407.164 471.415 406.57 471.816C407.164 471.115 406.471 471.616 406.075 471.716C405.679 472.217 406.57 471.516 406.372 471.816C405.877 472.417 404.787 473.619 404.391 473.819L404.688 473.418C403.995 474.22 403.401 474.32 402.708 475.021C402.114 475.822 401.52 476.122 401.916 476.223C401.025 477.224 401.421 476.423 401.025 476.723C400.728 477.224 399.243 478.526 398.946 478.526C398.748 479.427 396.272 480.929 396.371 481.33L395.381 481.931C395.381 482.031 395.48 482.332 394.787 483.033C394.094 483.533 394.094 483.233 393.896 483.333L393.797 484.034C390.034 487.038 385.678 491.645 381.618 495.15C380.034 496.853 378.054 499.056 375.974 500.959L376.172 500.658L374.192 502.461L375.776 501.159C375.38 501.66 375.083 501.96 374.687 502.361C372.41 504.364 369.439 506.968 366.964 509.772C365.578 511.775 365.578 510.573 364.192 512.476C364.291 512.276 364.291 512.175 364.39 512.075C362.805 513.978 361.914 514.98 360.33 516.882C360.231 516.382 359.241 518.084 359.241 517.684V517.984C358.746 518.284 357.855 519.186 357.855 518.985L357.261 519.887L357.063 519.787C356.072 520.788 353.993 523.092 353.201 523.392C350.825 526.096 346.864 530.102 343.696 533.307C343.399 533.907 342.507 534.809 341.715 535.61L340.824 536.211C340.131 537.012 339.537 538.013 338.844 538.614V538.514C338.151 539.315 337.359 539.916 336.864 540.818C336.071 541.619 335.18 542.42 335.279 542.019C335.477 542.32 333.497 543.722 333.497 543.722C333.497 543.722 332.804 544.423 331.715 545.525C330.527 546.726 328.942 548.429 326.863 550.532C322.903 554.738 317.358 560.446 311.714 566.656C306.07 572.865 300.129 579.374 295.179 585.183C290.228 590.991 286.168 596.099 284.089 599.103C283.891 599.604 283.099 600.706 283.594 600.405C282.901 601.206 282.406 601.407 282.406 601.607C283.396 600.606 282.505 602.308 283.594 601.407L283.297 601.807C282.901 602.208 282.505 602.709 282.109 603.109C281.713 603.61 282.505 603.61 282.802 603.61C283.396 603.61 284.287 603.41 284.683 602.909C290.525 596.299 296.367 589.79 302.209 583.28C303.694 581.978 305.08 580.676 306.664 578.874C307.258 578.473 306.466 579.274 306.169 579.775C308.248 577.071 309.734 576.57 311.714 574.367L311.615 574.267C314.783 571.663 317.754 567.757 321.12 564.553L320.625 564.853C320.922 564.252 321.615 563.551 322.11 562.95C322.209 562.95 322.011 563.551 322.804 562.55C322.606 562.75 322.11 563.05 322.209 562.95C325.18 560.346 330.824 554.237 335.378 549.631C341.319 543.221 348.151 536.611 354.092 530.402C353.201 531.304 353.3 530.703 354.092 530.002C356.468 528.6 357.261 526.597 359.538 524.994C362.904 521.289 366.469 518.485 369.34 514.779L369.538 514.879C370.132 514.479 370.132 514.178 370.627 513.678V513.778C371.915 512.576 373.301 510.974 373.994 510.373L373.895 510.173C374.588 509.471 374.39 509.872 375.083 509.071L375.182 509.171L375.875 508.17C376.073 508.57 377.955 506.167 378.648 505.666C379.539 504.664 381.222 502.762 382.707 501.46C383.103 501.36 384.886 499.557 386.074 498.555C388.252 496.352 391.321 493.248 394.193 490.644L393.995 490.544L394.688 489.843C394.688 489.843 394.787 489.843 394.787 489.943C395.579 489.642 396.371 488.24 397.163 487.84C396.668 488.04 396.668 488.34 396.173 488.741C395.48 489.242 395.876 488.541 396.767 487.84V487.94L397.262 487.339C397.46 487.439 398.054 487.038 398.252 487.038C400.629 484.635 402.015 482.832 404.589 480.529C404.49 480.929 406.372 478.726 406.075 479.527C407.461 478.025 405.58 479.527 406.174 478.726C406.57 478.326 406.966 477.825 407.164 477.825C407.065 478.125 407.659 477.625 407.362 478.025L408.352 477.024C408.451 476.924 408.253 477.224 408.154 477.324C410.035 475.221 412.015 474.019 413.699 472.217C413.699 472.016 412.907 472.918 413.006 472.617C414.194 471.215 414.59 471.115 415.283 470.514C415.877 471.115 416.57 471.716 417.164 472.317C417.164 472.317 417.164 472.517 417.065 472.417C418.253 473.218 417.857 473.418 419.244 474.72C423.006 478.125 428.155 482.432 431.818 485.937C432.809 486.438 433.997 487.539 435.284 488.641L435.185 489.041L436.274 489.843C436.571 490.343 435.482 489.242 436.076 489.943L436.571 490.143C436.571 490.343 439.046 492.547 437.264 491.245C438.551 492.446 439.839 493.648 441.126 494.75C442.017 495.551 441.819 494.95 442.71 495.851C442.809 496.152 442.314 495.651 442.314 495.751C444.987 498.555 446.175 498.155 448.651 500.658L448.354 500.458C448.849 500.759 449.74 501.56 449.74 501.56C449.641 500.959 449.146 501.259 448.453 500.358C448.75 500.158 449.542 501.159 449.74 500.859C450.334 501.46 450.829 501.66 451.324 502.161C452.116 503.162 453.602 504.264 454.097 505.065C454.592 505.365 455.384 505.566 456.374 506.467C456.869 507.268 456.077 506.467 456.968 507.469H457.265C458.057 508.17 457.859 508.17 457.76 508.17C458.552 508.871 458.651 508.57 459.641 509.572L458.948 509.171C459.74 509.772 460.037 510.072 461.127 511.074C461.028 511.174 460.632 510.773 460.334 510.473C460.731 511.174 461.424 511.274 461.721 511.575C461.721 511.474 460.929 510.773 461.424 510.974C461.622 511.174 461.82 511.274 462.018 511.474C462.315 511.775 462.612 511.975 462.909 512.276C462.909 512.276 462.909 512.276 463.008 512.376L462.315 511.975C463.503 512.876 463.107 512.276 464.295 513.477C464.196 513.477 464.196 513.477 464.196 513.477C465.186 513.978 466.077 515.08 467.365 516.181L467.067 515.981C467.464 516.281 467.761 516.382 467.959 516.482C468.355 516.782 468.751 517.183 469.147 517.483C468.85 517.383 468.553 517.283 468.058 516.983C468.652 517.383 469.345 517.984 469.147 517.984L469.543 517.884C469.84 518.184 470.137 518.385 470.434 518.685C470.632 518.785 470.83 518.985 471.028 519.086C472.216 520.187 473.503 521.189 474.692 522.29C474.593 522.29 474.494 522.19 474.296 521.99C473.305 521.389 474.89 522.39 474.692 522.591C474.989 522.691 475.88 523.492 476.375 523.993V523.793C476.672 523.993 476.87 524.293 477.167 524.494C477.068 524.594 477.068 524.794 477.86 525.395C479.048 526.296 477.464 524.994 478.256 525.495C479.048 526.196 479.147 526.597 480.335 527.398C480.632 527.698 481.128 528.399 481.028 528.6C481.821 529.1 483.009 530.402 483.603 530.603C482.514 529.501 482.217 529.801 481.128 528.399L481.623 528.499C482.613 529.301 483.9 530.202 484.494 530.803C484.395 530.703 484.395 530.603 484.494 530.603C484.692 530.803 484.89 530.903 485.088 531.003C485.583 531.404 485.979 531.804 486.474 532.205C487.167 533.006 487.365 532.906 488.554 534.108C488.455 534.308 487.662 533.307 487.365 533.407L488.851 534.608C489.247 534.508 489.94 535.61 490.93 536.211C491.722 536.912 492.316 537.312 492.811 537.613C493.702 538.314 494.593 539.015 495.386 539.716C495.485 539.916 495.485 540.117 495.287 540.016C496.376 540.818 495.188 539.716 495.584 539.916C495.881 540.117 496.178 540.417 496.475 540.617L497.267 541.318C500.534 544.022 503.802 546.726 507.069 549.33C506.97 549.33 506.97 549.43 506.871 549.33C507.069 549.43 507.168 549.43 507.267 549.53L507.366 549.631C507.663 549.931 508.059 550.131 508.356 550.432C508.554 550.632 508.753 550.932 508.257 550.732C508.653 551.333 510.139 552.535 511.03 553.136C511.624 553.336 510.238 552.335 510.436 552.234C510.832 552.535 511.129 552.735 511.426 552.935C520.535 560.246 529.744 567.457 538.952 574.567H538.853L539.051 574.667C541.328 576.37 543.606 578.072 545.784 579.775C545.685 579.775 545.685 579.675 545.487 579.675C545.784 579.875 545.982 579.975 546.081 580.075C546.477 580.376 546.774 580.576 547.17 580.877C547.17 581.077 547.566 581.377 548.259 582.078L547.566 581.377C547.665 581.377 547.665 581.377 547.764 581.477L547.665 581.377C547.764 581.477 547.863 581.477 547.863 581.578L547.764 581.477C547.863 581.578 547.962 581.678 548.061 581.778C548.061 581.778 548.061 581.778 548.061 581.678C555.388 587.186 562.715 592.694 570.24 598.102C572.914 600.005 575.488 601.908 578.162 603.81C579.152 604.511 581.726 603.109 580.34 602.208C569.646 594.597 559.151 586.785 548.655 578.874C548.556 578.773 548.457 578.673 548.259 578.573C547.071 577.672 545.982 576.771 544.794 575.969V575.869C544.497 575.669 544.101 575.368 543.705 575.068C542.615 574.267 541.526 573.466 540.536 572.564C540.338 572.264 540.14 572.064 539.447 571.463C538.655 570.862 538.457 570.762 538.16 570.662C537.467 569.96 535.882 568.959 535.981 568.759C535.684 568.759 535.288 568.158 534.793 567.958V567.857V568.058C533.704 566.656 532.318 566.455 531.13 565.053L531.427 565.153L530.833 564.753C530.833 564.653 531.031 564.753 531.13 564.653L528.456 562.449L528.951 562.95C528.357 562.55 527.862 562.349 527.268 561.748C528.555 562.349 526.377 561.047 526.278 560.747L526.872 561.148C526.08 560.547 526.08 560.547 525.981 560.747C524.892 559.946 525.486 559.946 524.397 559.345L525.09 559.846C525.189 560.046 524.595 559.846 524.199 559.445C524.1 559.345 523.803 559.044 524.199 559.245C523.308 558.644 522.119 557.642 521.723 557.442C521.327 557.041 521.525 557.041 521.822 557.242C519.941 556.04 521.03 556.641 519.149 555.339L519.248 555.239L518.555 554.838L517.862 553.937L518.06 554.337C517.466 553.937 517.07 553.636 516.476 553.036L516.872 553.136C515.188 551.934 515.188 551.433 513.505 550.332C513.406 550.231 513.703 550.332 513.802 550.432C512.218 549.53 512.911 549.33 511.327 548.429C511.426 548.429 511.327 548.329 511.426 548.329L510.733 547.928L510.931 547.828L510.238 547.628L509.941 547.127L509.644 547.027C509.248 546.125 508.059 545.625 507.267 544.623V544.924C504.495 543.421 502.02 540.317 498.95 538.114L499.148 538.013L497.861 537.212C497.366 536.511 498.356 537.413 498.257 537.112C496.97 536.111 497.564 536.912 496.079 535.71C495.386 535.009 496.475 535.81 496.871 536.011C495.386 534.909 493.306 533.307 492.415 532.405H492.316C491.326 531.704 490.237 530.603 489.148 529.801C489.247 529.701 489.544 529.902 489.742 530.102C489.346 529.801 488.95 529.301 488.554 529.1L489.049 529.301C488.257 528.6 486.672 527.498 486.672 527.198C486.672 527.298 486.573 527.398 485.88 526.897C485.682 526.296 483.999 525.495 483.009 524.494C483.207 524.494 483.999 525.195 483.801 524.994C483.306 524.494 482.712 524.193 482.217 523.893H482.415C481.524 523.292 480.632 522.591 479.84 521.89C479.642 521.289 477.464 519.887 477.761 519.887C476.87 519.086 478.454 520.588 477.266 519.686C477.068 519.286 476.177 518.885 476.375 518.785L476.474 518.885L475.682 518.184L476.276 518.485C475.583 517.984 474.989 517.684 474.791 517.784C474.196 517.183 473.305 516.482 473.107 516.081L473.404 516.281C471.523 514.779 470.83 513.277 469.147 512.376C469.048 512.276 469.147 512.276 469.345 512.376L468.256 511.374L468.652 511.474L466.671 510.072L466.77 509.972C465.582 508.871 463.701 507.368 462.117 506.066L462.414 506.267C460.632 504.965 460.83 504.765 459.542 503.763C459.641 503.763 459.641 503.763 459.74 503.863L458.651 502.862L458.948 502.962C457.958 502.461 456.869 500.659 457.166 501.259C456.671 500.959 455.78 500.358 455.582 500.258C454.394 499.156 455.384 499.857 454.691 499.156C453.8 498.355 453.602 498.355 452.413 497.253L452.512 497.153C451.918 496.653 451.522 496.452 450.829 495.751L451.126 495.952C449.74 495.05 449.74 494.349 448.453 493.848C447.958 493.348 446.968 492.446 447.166 492.346C445.482 491.044 444.294 490.043 442.71 488.741C442.71 488.24 442.413 488.441 441.621 487.439L441.522 487.639C439.343 485.636 437.165 483.033 434.789 480.929L434.888 480.729L434.294 480.429C431.818 478.025 428.551 474.921 426.571 473.118C425.877 472.617 424.689 471.816 423.699 470.815L423.798 470.915C422.313 469.613 420.828 468.311 419.343 466.809C419.541 466.608 419.838 466.508 420.036 466.408C420.036 466.308 419.244 467.009 419.64 466.508C420.729 465.607 422.313 464.105 423.6 463.003C423.6 463.103 423.798 463.003 423.699 463.203C424.491 462.002 424.788 462.502 426.076 461.1C429.739 457.595 434.492 452.888 438.254 449.583C438.848 448.582 440.037 447.48 441.225 446.379L441.621 446.579L442.512 445.577C443.007 445.277 441.819 446.379 442.611 445.778L442.809 445.277C443.007 445.277 445.383 442.974 443.898 444.776L447.76 441.271C448.651 440.47 448.057 440.57 449.047 439.769C449.344 439.669 448.75 440.169 448.948 440.169C452.017 437.866 451.72 436.664 454.493 434.361L454.295 434.561C454.691 434.06 455.582 433.359 455.483 433.259C454.889 433.259 455.186 433.86 454.196 434.361C454.097 434.06 455.087 433.359 454.889 433.159C455.582 432.658 455.879 432.258 456.374 431.757C457.463 431.056 458.651 429.754 459.542 429.354C459.938 428.853 460.235 428.152 461.226 427.25C462.117 426.85 461.226 427.551 462.216 426.75V426.449C463.008 425.748 462.909 425.949 462.909 426.049C463.8 425.348 463.404 425.248 464.592 424.446L464.493 425.147C465.186 424.446 465.582 424.146 466.671 423.245C466.671 423.345 466.275 423.745 465.978 423.946C466.77 423.645 466.869 422.944 467.266 422.744C467.166 422.744 466.374 423.345 466.572 422.944C467.166 422.544 467.563 421.742 468.058 421.542L467.563 422.243C468.553 421.141 468.058 421.542 469.345 420.44C469.246 420.541 469.345 420.541 469.345 420.541C470.038 419.639 471.226 418.838 472.414 417.837L472.216 418.037C472.711 417.536 472.81 417.236 473.107 416.935C472.315 417.436 472.513 417.236 472.315 417.136C473.404 416.535 473.503 415.633 475.088 414.432C475.088 414.532 474.89 414.932 474.395 415.233C474.097 415.934 474.197 416.134 473.404 417.136C473.899 416.635 474.593 415.934 474.494 416.234V415.834C474.791 415.533 475.088 415.333 475.385 415.032C475.385 414.732 474.494 415.433 475.187 414.632C475.979 413.731 475.88 414.432 475.88 414.231C477.068 413.03 476.177 413.53 477.464 412.629C477.365 412.729 477.167 413.03 477.068 413.03C477.959 412.329 479.147 411.127 479.642 411.227C479.543 411.427 479.642 411.527 479.246 411.728V411.627C478.553 412.529 479.741 411.127 479.84 411.327C479.939 411.027 480.929 410.225 481.425 409.825H481.128C482.514 407.722 481.326 410.225 483.009 408.623C484.098 407.521 482.514 408.924 483.108 408.222C483.9 407.622 484.296 407.521 485.385 406.42C485.781 406.22 486.474 405.719 486.672 405.919C487.266 405.218 488.851 404.217 489.049 403.716C487.761 404.517 488.059 404.918 486.474 405.819L486.672 405.318C487.662 404.517 488.752 403.415 489.445 402.915C489.247 403.015 489.148 403.015 489.247 402.915C490.534 401.713 490.732 401.212 492.118 400.111C492.415 400.111 491.623 400.711 491.128 401.212C492.118 400.611 492.019 400.511 493.405 399.41C493.603 399.51 492.514 400.111 492.514 400.411L493.9 399.109C493.9 398.708 494.99 398.208 495.881 397.407C497.96 395.604 498.059 395.003 499.049 393.801C499.445 393.601 499.544 393.601 499.445 393.801C498.851 394.102 499.049 394.102 498.851 394.402C499.544 393.801 500.633 393.301 500.336 393.801C501.425 392.8 499.841 394.002 500.435 393.401L502.02 392.099C501.722 392.099 501.128 392.599 501.921 391.798C502.614 391.197 502.911 390.997 503.802 390.196C503.703 390.396 504.198 390.196 503.604 390.697C504.099 390.396 504.792 389.795 504.891 389.495C503.802 390.196 506.376 388.093 505.485 388.493L506.574 387.792C506.376 387.993 506.376 388.093 506.079 388.293C506.475 388.293 506.871 387.592 507.168 387.292C507.564 387.091 508.455 386.29 508.554 386.29C508.852 385.99 509.644 385.389 509.842 385.389C510.238 384.988 509.743 385.189 509.842 385.088L511.426 383.787C511.624 383.787 511.921 383.987 511.723 384.287C512.218 383.686 511.723 383.787 512.614 383.085C512.317 383.686 513.901 382.284 513.406 383.085C514 382.785 515.485 381.583 516.278 380.882C516.674 380.281 515.386 381.483 515.287 381.283C517.466 379.38 517.268 378.779 518.951 377.477L518.456 377.778C518.555 377.678 518.654 377.577 518.753 377.477C519.149 377.077 519.644 376.776 520.04 376.376C520.535 376.175 521.822 375.474 523.011 374.473C523.11 374.273 522.02 374.974 522.02 374.673C522.417 374.373 522.714 374.072 523.11 373.772L523.011 373.872C524.001 372.971 525.09 372.57 525.189 372.169L526.476 371.669L525.981 371.869C526.08 371.669 527.169 370.667 527.367 370.467C528.456 369.365 528.951 369.165 529.645 368.764C529.546 368.764 529.248 368.865 529.149 368.865C529.348 368.664 529.645 368.464 529.843 368.264C530.437 367.963 531.625 366.862 531.724 367.062C532.12 366.761 532.813 366.361 532.714 366.161L532.813 366.461C532.714 366.06 533.902 365.059 534.892 364.158C534.892 364.158 534.991 364.158 534.991 364.057C535.09 364.658 536.08 363.056 536.873 363.056C536.873 362.655 538.556 361.554 538.556 361.153C538.655 361.053 538.754 360.953 538.952 360.853C539.447 360.552 539.546 360.753 539.843 360.652L540.14 360.252C540.635 360.052 542.12 358.85 543.11 358.249L543.705 357.348L544.101 357.247C544.2 357.047 544.893 356.446 544.398 356.747L544.893 356.446C544.695 356.146 545.289 355.946 545.982 355.345C546.081 355.245 546.18 355.144 546.378 355.044C546.477 355.044 546.477 355.144 546.378 355.245C546.873 354.844 546.774 355.144 547.071 355.044C546.873 355.144 547.269 354.543 547.467 354.143C548.259 353.442 549.15 352.841 549.942 352.14C550.041 352.24 550.24 352.24 550.933 351.639C550.141 352.24 549.942 352.741 549.546 353.141C549.843 352.941 550.042 352.841 549.645 353.242C550.735 352.24 549.942 352.741 551.032 351.839C551.131 352.14 551.527 351.94 552.517 351.239L551.626 351.639C551.626 351.539 551.725 351.539 551.725 351.439C551.428 351.639 551.329 351.639 551.23 351.639C551.428 351.439 552.319 350.337 552.616 350.337C552.121 350.538 552.22 350.337 552.517 350.037C553.21 349.436 553.903 348.935 554.695 348.334C554.992 348.134 555.487 347.834 555.487 348.034C555.784 347.733 554.893 348.234 554.992 348.134C555.19 347.934 555.388 347.834 555.685 347.633C555.982 347.433 556.279 347.333 556.576 347.133L556.378 347.333L557.369 346.732C557.468 346.532 556.378 347.233 557.171 346.532C557.468 346.432 558.161 345.731 558.26 345.831C557.963 346.331 558.458 346.231 557.765 346.832C558.359 346.331 560.141 344.929 559.25 345.23L559.943 344.729C559.547 344.929 558.458 345.63 559.052 345.029C559.151 344.929 559.349 344.829 559.448 344.729L559.547 344.629C559.943 344.328 560.438 343.928 560.834 343.627C560.933 343.627 561.032 343.527 561.23 343.427L560.933 343.527C561.131 343.327 561.428 343.127 561.626 342.926C561.626 342.926 561.626 342.926 561.725 342.926C562.022 342.626 562.22 342.526 562.418 342.325C562.715 342.125 563.012 341.825 563.309 341.624C564.102 341.024 565.488 339.922 566.082 339.622C566.973 338.82 566.181 339.521 566.181 339.321C566.28 339.221 566.379 339.121 566.478 339.021C567.765 338.52 569.943 336.417 571.627 335.115C571.528 335.115 571.528 335.115 571.528 335.115C572.023 334.714 572.518 334.314 573.112 333.913C573.112 333.913 573.013 334.113 572.617 334.414L573.508 333.613C574.3 333.312 572.122 334.915 573.211 334.414C574.201 333.613 574.696 332.711 575.983 331.91C575.785 332.511 576.874 331.109 576.775 331.61C576.577 331.91 576.181 332.11 575.884 332.411L576.181 332.311C578.459 330.608 576.676 331.51 577.667 330.408C579.053 329.306 578.855 329.707 579.053 329.807C579.35 329.707 579.944 329.106 580.34 328.806C579.647 329.607 578.756 329.807 578.954 329.507C578.954 329.507 579.053 329.507 579.053 329.406C579.647 329.206 580.34 328.505 580.934 328.004C581.231 327.704 581.627 327.504 581.924 327.203C582.122 327.003 581.924 326.803 581.429 326.703ZM286.663 598.002L286.366 598.402C287.257 597.401 287.059 597.902 287.257 597.801L287.059 598.002L287.455 597.701C286.663 598.603 285.871 599.404 285.178 600.305C285.475 599.704 285.475 599.003 286.663 598.002ZM283.99 601.206C284.485 600.706 284.782 600.505 285.079 600.405C284.782 600.806 284.386 601.106 284.089 601.507L283.99 601.206Z" fill="black"/>
<path d="M510.6 379.5L510.9 379.2C510.7 379.4 510.6 379.5 510.6 379.5Z" fill="black"/>
<path d="M551.3 348C551.5 347.9 551.8 347.6 552.4 347.2L551.3 348Z" fill="black"/>
<path d="M457.9 423.3L458.2 423C458 423.2 457.9 423.2 457.9 423.3Z" fill="black"/>
<path d="M489 397.2C488.9 397.3 488.8 397.5 488.6 397.6C488.8 397.4 489 397.3 489 397.2Z" fill="black"/>
<path d="M281.2 598.8C280.8 599.2 280.6 599.6 280.3 600.1L281.2 598.8Z" fill="black"/>
<path d="M552.7 350.1C552.3 350.6 551.3 351.1 551.4 351.2C551.9 350.8 552.6 350.4 552.7 350.1Z" fill="black"/>
<path d="M405.7 477.7L405.4 478C405.6 477.8 405.7 477.8 405.7 477.7Z" fill="black"/>
<path d="M365 509.6C365 509.5 365.1 509.5 365.1 509.5L365 509.6Z" fill="black"/>
<path d="M362.4 511.9C362.6 511.7 362.7 511.5 362.9 511.4C362.6 511.6 362.4 511.8 362.4 511.9Z" fill="black"/>
<path d="M280.3 600.1L279.8 600.8C280 600.6 280.2 600.3 280.3 600.1Z" fill="black"/>
<path d="M491.1 395.6C491.2 395.6 491.3 395.5 491.3 395.4C491.3 395.4 491.3 395.4 491.1 395.6Z" fill="black"/>
<path d="M475 413.9C474.7 414.2 474.3 414.6 474.1 414.9C474.4 414.7 474.6 414.4 475 413.9Z" fill="black"/>
<path d="M478.5 411.3C478.5 411.3 478.5 411.4 478.5 411.3C478.6 411.3 478.5 411.3 478.5 411.3Z" fill="black"/>
<path d="M492.6 399.6L493.3 398.8L492.7 399.2C492.8 399.3 492.8 399.3 492.6 399.6Z" fill="black"/>
<path d="M468 420.4C467.9 420.5 467.9 420.5 467.8 420.6C467.9 420.5 468 420.4 468 420.4Z" fill="black"/>
<path d="M462.1 425.9C462.5 425.5 462.1 425.8 461.8 425.9C461.8 426 461.9 426 462.1 425.9Z" fill="black"/>
<path d="M507.4 386.5C507.5 386.4 507.5 386.3 507.5 386.3C507.4 386.4 507.4 386.5 507.4 386.5Z" fill="black"/>
<path d="M545.7 355.2C545.6 355.3 545.4 355.4 545.3 355.6C545.4 355.4 545.6 355.3 545.7 355.2Z" fill="black"/>
<path d="M497.4 394.8C497.6 394.6 497.7 394.5 497.8 394.4C497.7 394.6 497.5 394.7 497.4 394.8Z" fill="black"/>
<path d="M544.8 356L544.2 356.4L544.8 356Z" fill="black"/>
<path d="M548.9 353.1C548.7 353.3 548.4 353.5 548.2 353.6C548.5 353.5 548.7 353.3 548.9 353.1Z" fill="black"/>
<path d="M522.1 373.9C522.1 373.9 522 373.9 522.1 373.9C521.6 374.4 521.9 374.1 522.1 373.9Z" fill="black"/>
<path d="M542.5 358.2C542.5 358.2 542.4 358.3 542.5 358.2L542.3 358.4L542.5 358.2Z" fill="black"/>
<path d="M551.4 351.2C551.3 351.3 551.2 351.4 551.1 351.5C551.2 351.4 551.3 351.3 551.4 351.2C551.4 351.3 551.4 351.2 551.4 351.2Z" fill="black"/>
<path d="M530.8 367.3C530.9 367.1 530.9 367 530.9 367C530.7 367.2 530.6 367.3 530.8 367.3Z" fill="black"/>
<path d="M510.9 547.9L511.2 548.1C511 547.9 511 547.9 510.9 547.9Z" fill="black"/>
<path d="M458.7 503.6L459 503.9C458.9 503.7 458.8 503.6 458.7 503.6Z" fill="black"/>
<path d="M488.9 529.8C489.1 530 489.3 530.1 489.4 530.1C489.3 530.1 489.1 530 488.9 529.8Z" fill="black"/>
<path d="M282.7 326L283.9 327C283.5 326.6 283.1 326.3 282.7 326Z" fill="black"/>
<path d="M399.6 456.8L399.3 456.5C399.4 456.7 399.5 456.7 399.6 456.8Z" fill="black"/>
<path d="M366.7 416.8C366.8 416.8 366.8 416.9 366.8 416.9L366.7 416.8Z" fill="black"/>
<path d="M364.4 414.2C364.6 414.4 364.7 414.5 364.9 414.7C364.7 414.4 364.6 414.3 364.4 414.2Z" fill="black"/>
<path d="M282.7 326L282.1 325.4C282.3 325.6 282.5 325.8 282.7 326Z" fill="black"/>
<path d="M491.3 531.8C491.4 531.9 491.4 531.9 491.5 532C491.6 532.1 491.6 532 491.3 531.8Z" fill="black"/>
<path d="M487.7 534.1L488.6 534.7L488.1 534.2C488 534.3 488 534.3 487.7 534.1Z" fill="black"/>
<path d="M463.1 513.1C463 513.1 462.9 513 462.9 513C463 513.1 463.1 513.1 463.1 513.1Z" fill="black"/>
<path d="M456.7 508.1C457.2 508.4 456.8 508.1 456.6 507.8C456.6 507.9 456.6 507.9 456.7 508.1Z" fill="black"/>
<path d="M601.391 4.9649C600.757 4.84932 599.701 5.19606 599.279 5.54281C594.209 9.70377 589.245 13.8647 584.281 18.1413H584.176C583.859 18.488 583.753 18.6036 583.964 18.488C583.12 19.1815 582.38 19.875 581.535 20.5685C581.43 20.6841 581.324 20.6841 581.324 20.7997C580.057 21.8399 578.789 22.8802 577.522 24.036C576.994 24.3827 576.149 25.0762 577.099 24.1516C576.149 24.845 576.043 25.1918 575.515 25.8853C575.41 25.8853 575.41 26.0009 575.304 26.0009C574.67 26.3476 574.776 25.8853 575.41 25.1918L574.565 26.1165V26.0009L573.931 26.8099C572.98 27.3879 573.614 26.6944 572.664 27.3879V27.7346L572.03 28.0814C572.347 27.9658 571.819 28.4281 571.291 29.006V28.8904L570.551 29.5839C571.185 28.7748 569.812 30.1618 570.023 29.6995C569.39 30.2774 569.39 30.2774 568.228 31.3177H568.545C567.172 32.7046 568.333 31.2021 567.066 32.1267L567.277 32.2423C565.376 33.3981 564.426 34.9007 563.053 35.8254C563.792 35.1319 563.475 35.1319 563.475 35.1319C562.419 36.1721 560.518 37.6747 559.567 38.8305C558.934 38.9461 558.828 38.9461 557.561 39.8707C556.716 40.6798 556.61 40.7954 556.399 41.1422C555.554 41.7201 554.075 43.2226 553.864 43.1071C553.758 43.4538 553.125 43.685 552.702 44.2629H552.597L552.808 44.3785C551.118 45.3031 550.484 46.8057 548.795 47.7303L549.006 47.4992L548.478 48.0771C548.372 48.0771 548.583 47.8459 548.478 47.7303L545.626 50.2732L546.26 49.9264C545.626 50.5043 545.415 50.9666 544.57 51.5446C545.52 50.2732 543.619 52.3536 543.303 52.3536L543.831 51.7757C542.986 52.5848 542.986 52.5848 543.197 52.7004C542.141 53.7406 542.246 53.0471 541.296 54.0874L542.035 53.5095C542.352 53.3939 541.93 53.9718 541.401 54.4341C541.296 54.5497 540.873 54.7809 541.19 54.4341C540.345 55.2432 538.972 56.2834 538.655 56.7458C538.127 57.0925 538.233 56.8613 538.444 56.6302C536.754 58.3639 537.599 57.3237 535.804 59.0574V58.9418L535.276 59.6353L534.22 60.2132L534.642 60.0976C534.008 60.6756 533.692 61.0223 532.952 61.6002L533.163 61.2535C531.579 62.8716 531.051 62.756 529.573 64.4898C529.467 64.6054 529.678 64.2586 529.784 64.143C528.411 65.7612 528.516 64.9521 527.143 66.5703C527.249 66.4547 527.038 66.5703 527.038 66.4547L526.404 67.1482L526.298 66.917L525.982 67.7261L525.454 67.9572L525.242 68.304C524.186 68.5351 523.447 69.8066 522.179 70.3845L522.496 70.5001C520.384 73.274 516.476 75.4701 513.625 78.3596L513.519 78.1285L512.463 79.5155C511.724 79.9778 512.78 78.9376 512.463 79.0531C511.195 80.4401 512.146 79.8622 510.667 81.3648C509.822 81.9427 510.879 81.018 511.195 80.5557C509.822 81.9427 507.71 84.0232 506.654 84.9478V85.0634C505.703 85.9881 504.436 87.1439 503.38 88.1841C503.38 88.0686 503.591 87.8374 503.802 87.6062C503.38 87.953 502.852 88.4153 502.535 88.762L502.852 88.1841C502.007 88.8776 500.528 90.4958 500.212 90.4958C500.317 90.4958 500.423 90.6114 499.683 91.3049C499.05 91.4204 497.888 93.1542 496.621 94.0788C496.726 93.8477 497.571 93.1542 497.254 93.2698C496.621 93.7321 496.198 94.31 495.776 94.8879L495.881 94.6567L493.347 97.3151C492.713 97.4307 490.917 99.7424 490.917 99.28C489.967 100.205 491.762 98.7021 490.6 99.8579C490.178 100.089 489.544 100.898 489.439 100.667L489.544 100.551L488.699 101.361L489.122 100.667C488.488 101.361 488.066 102.054 488.171 102.285C487.432 102.863 486.482 103.788 486.059 103.903L486.27 103.672C484.475 105.521 482.785 106.099 481.518 107.833C481.412 107.949 481.412 107.833 481.623 107.602L480.461 108.642L480.673 108.295L478.877 110.376V110.26C477.61 111.416 475.603 113.381 474.019 114.999L474.23 114.768C472.54 116.617 472.435 116.271 471.167 117.658C471.167 117.542 471.273 117.542 471.273 117.542L470.111 118.698L470.322 118.351C469.583 119.391 467.682 120.432 468.316 120.085C467.893 120.663 467.154 121.587 467.048 121.819C465.781 123.09 466.626 122.05 465.781 122.628C464.83 123.552 464.83 123.783 463.457 124.939V124.824C462.929 125.402 462.612 125.864 461.768 126.673L461.979 126.442C460.817 127.944 460.078 127.713 459.338 129.216C458.705 129.678 457.754 130.718 457.649 130.487C456.064 132.221 454.903 133.492 453.318 135.226C452.79 135.226 453.001 135.573 451.84 136.382L452.051 136.498C449.727 138.809 446.77 141.005 444.341 143.548L444.13 143.432L443.813 144.126C441.067 146.784 437.476 150.252 435.258 152.332C434.624 153.141 433.674 154.413 432.512 155.453L432.618 155.337C430.717 157.418 428.71 159.614 426.492 161.579C426.598 161.348 426.281 161.579 426.492 161.232C426.175 161.926 425.225 162.504 424.802 162.966L425.436 162.504C425.33 162.735 425.119 162.966 424.908 163.197V163.081L423.852 162.272C423.852 162.157 423.746 162.041 423.746 162.041L423.535 161.926L423.218 161.232C422.901 161.001 421.634 159.845 421.106 159.614C421.106 159.498 420.261 158.458 421 159.152L417.62 155.569L418.148 156.147C418.043 156.378 416.987 155.453 416.459 154.76C417.303 155.337 416.67 154.644 416.564 154.182C416.036 153.835 416.881 154.76 416.564 154.528C415.825 154.066 414.557 152.795 414.346 152.332L414.769 152.679C413.924 151.87 413.818 151.176 412.973 150.367C412.128 149.789 411.706 149.096 411.6 149.558C410.544 148.518 411.389 148.98 411.072 148.634C410.438 148.287 409.171 146.669 409.065 146.322C408.115 146.091 406.425 143.317 406.003 143.432L405.369 142.392C405.263 142.508 404.946 142.508 404.207 141.814C403.679 141.005 403.996 141.005 403.785 140.774L403.045 140.658C399.666 136.382 394.596 131.527 391.005 126.904C389.21 125.055 386.781 122.743 384.774 120.432L385.091 120.663L383.084 118.351L384.457 120.085C383.929 119.623 383.612 119.276 383.19 118.813C381.077 116.155 378.226 112.803 375.374 109.914C373.262 108.295 374.529 108.295 372.523 106.677C372.734 106.793 372.839 106.793 372.945 106.908C371.044 104.944 369.988 103.903 367.981 102.054C368.509 101.938 366.819 100.667 367.136 100.667H366.819C366.503 100.089 365.552 99.0489 365.869 99.0489L364.918 98.3554L365.024 98.1242C363.968 96.9684 361.539 94.4256 361.327 93.5009C358.476 90.727 354.462 85.8725 351.294 82.0583C350.766 81.596 349.71 80.5557 348.97 79.7466L348.337 78.5908C347.492 77.7817 346.541 77.0882 345.908 76.1636H346.013C345.168 75.3545 344.535 74.3143 343.69 73.7364C342.845 72.6961 342.105 71.6559 342.528 71.887C341.683 71.1935 340.31 68.8819 340.31 68.8819C340.31 68.8819 329.854 56.0523 318.025 41.6045C315.068 38.0214 312.111 34.3228 309.153 30.6242C306.196 27.0411 303.239 23.4581 300.599 20.2218C295.107 13.6336 290.354 8.2012 287.502 5.31165C286.974 5.08048 285.918 3.92466 286.129 4.61815C285.39 3.69349 285.284 3 284.967 3C285.39 3.57791 285.284 3.69349 285.073 3.69349C284.123 2.88442 281.588 4.04024 282.538 5.31165C289.931 14.905 297.43 24.4983 304.929 33.976C304.823 33.8605 304.823 33.8605 304.718 33.7449C304.929 33.9761 305.14 34.2072 305.351 34.4384C305.668 34.9007 306.091 35.363 306.407 35.8254C307.675 37.5591 308.308 38.9461 309.787 40.7954L309.998 40.6798C312.533 44.6096 316.124 48.7706 319.292 52.816L318.976 52.238C319.504 52.7004 320.243 53.5095 320.877 54.0874C320.877 54.2029 320.243 53.8562 321.194 55.012C321.088 54.7809 320.665 54.2029 320.877 54.3185C323.411 58.0172 329.432 65.1833 333.867 70.8468C340.31 78.2441 346.964 86.566 353.301 93.7321C352.35 92.5763 353.089 92.8074 353.723 93.7321C355.202 96.5061 357.314 97.5463 359.004 100.205C362.912 104.25 365.763 108.411 369.565 111.879L369.46 112.11C369.882 112.803 370.199 112.803 370.727 113.381H370.622C371.889 114.884 373.579 116.502 374.212 117.311L374.424 117.195C375.163 118.004 374.741 117.773 375.585 118.582L375.48 118.698L376.536 119.507C376.114 119.738 378.648 121.934 379.176 122.743C380.233 123.783 382.239 125.748 383.718 127.482C383.823 127.944 385.725 130.025 386.781 131.412C387.942 132.683 389.315 134.186 390.9 135.804C392.378 137.422 393.962 139.04 395.441 140.658L395.547 140.427L396.286 141.236C396.286 141.236 396.286 141.352 396.18 141.352C396.603 142.277 398.081 143.201 398.504 144.01C398.293 143.432 397.976 143.432 397.553 142.97C397.025 142.161 397.765 142.623 398.61 143.664H398.504L399.138 144.126C399.032 144.357 399.56 145.051 399.454 145.282C402.095 147.94 403.996 149.558 406.636 152.448C406.214 152.332 408.537 154.413 407.798 154.182C409.488 155.8 407.798 153.604 408.643 154.182C409.065 154.644 409.594 155.106 409.594 155.222C409.277 155.106 409.805 155.8 409.382 155.453L410.438 156.609C410.544 156.724 410.227 156.493 410.122 156.378C412.445 158.458 413.818 160.539 415.93 162.388C416.142 162.388 415.191 161.579 415.402 161.579C417.62 163.428 416.987 163.544 418.993 165.278L418.465 165.046C419.099 165.509 419.521 165.624 420.261 166.665L420.155 166.78C419.838 166.549 419.205 165.971 418.888 165.74C419.205 166.087 419.627 166.549 420.049 166.896C419.838 167.127 419.733 167.358 419.627 167.589C419.521 167.589 418.571 168.514 419.205 167.705L415.614 171.172L416.247 170.71C416.459 170.825 415.508 171.981 414.874 172.444C415.508 171.635 414.769 172.212 414.346 172.328C413.924 172.906 414.874 172.097 414.663 172.444C414.135 173.137 412.973 174.524 412.551 174.755L412.868 174.293C412.128 175.218 411.495 175.333 410.755 176.142C410.122 177.067 409.488 177.414 409.91 177.529C408.96 178.685 409.382 177.76 408.96 178.107C408.643 178.685 407.059 180.188 406.742 180.188C406.531 181.228 403.89 182.962 403.996 183.424L402.94 184.117C402.94 184.233 403.045 184.58 402.306 185.389C401.567 185.967 401.567 185.62 401.356 185.736L401.25 186.545C397.237 190.012 392.59 195.329 388.259 199.374C386.569 201.339 384.457 203.882 382.239 206.078L382.45 205.731L380.338 207.812L382.028 206.309C381.606 206.887 381.289 207.234 380.866 207.696C378.437 210.008 375.269 213.013 372.628 216.249C371.15 218.561 371.15 217.174 369.671 219.37C369.777 219.139 369.777 219.023 369.882 218.908C368.192 221.104 367.242 222.26 365.552 224.456C365.446 223.878 364.39 225.843 364.39 225.38V225.727C363.862 226.074 362.912 227.114 362.912 226.883L362.278 227.923L362.067 227.808C361.011 228.963 358.793 231.622 357.948 231.968C355.413 235.089 351.188 239.712 347.809 243.411C347.492 244.105 346.541 245.145 345.696 246.07L344.746 246.763C344.006 247.688 343.373 248.844 342.633 249.537V249.421C341.894 250.346 341.049 251.04 340.521 252.08C339.676 253.004 338.726 253.929 338.831 253.467C339.043 253.814 336.93 255.432 336.93 255.432C336.93 255.432 336.191 256.241 335.029 257.512C333.762 258.899 332.072 260.864 329.854 263.291C325.629 268.146 319.715 274.734 313.695 281.9C307.675 289.066 301.338 296.579 296.057 303.283C290.776 309.987 286.446 315.881 284.228 319.349C284.017 319.927 283.172 321.198 283.7 320.851C282.961 321.776 282.433 322.007 282.433 322.238C283.489 321.082 282.538 323.047 283.7 322.007L283.383 322.469C282.961 322.932 282.538 323.51 282.116 323.972C281.693 324.55 282.538 324.55 282.855 324.55C283.489 324.55 284.439 324.319 284.862 323.741C291.093 316.112 297.324 308.6 303.556 301.087C305.14 299.584 306.619 298.082 308.308 296.001C308.942 295.539 308.097 296.463 307.78 297.041C309.998 293.921 311.583 293.343 313.695 290.8L313.589 290.684C316.969 287.679 320.137 283.171 323.728 279.473L323.2 279.82C323.517 279.126 324.256 278.317 324.784 277.624C324.89 277.624 324.679 278.317 325.524 277.161C325.313 277.392 324.784 277.739 324.89 277.624C328.059 274.618 334.079 267.568 338.937 262.251C345.274 254.854 352.561 247.225 358.898 240.059C357.948 241.099 358.053 240.406 358.898 239.597C361.433 237.979 362.278 235.667 364.707 233.818C368.298 229.541 372.1 226.305 375.163 222.028L375.374 222.144C376.008 221.682 376.008 221.335 376.536 220.757V220.873C377.909 219.486 379.388 217.636 380.127 216.943L380.021 216.712C380.761 215.903 380.549 216.365 381.289 215.44L381.394 215.556L382.134 214.4C382.345 214.862 384.352 212.088 385.091 211.51C386.041 210.355 387.837 208.159 389.421 206.656C389.843 206.54 391.745 204.46 393.012 203.304C395.336 200.761 398.61 197.178 401.672 194.173L401.461 194.058L402.2 193.248C402.2 193.248 402.306 193.248 402.306 193.364C403.151 193.017 403.996 191.399 404.841 190.937C404.313 191.168 404.313 191.515 403.785 191.977C403.045 192.555 403.468 191.746 404.418 190.937V191.052L404.946 190.359C405.158 190.474 405.791 190.012 406.003 190.012C408.537 187.238 410.016 185.158 412.762 182.499C412.656 182.962 414.663 180.419 414.346 181.343C415.825 179.61 413.818 181.343 414.452 180.419C414.874 179.956 415.297 179.379 415.508 179.379C415.402 179.725 416.036 179.147 415.719 179.61L416.775 178.454C416.881 178.338 416.67 178.685 416.564 178.801C418.571 176.373 420.683 174.986 422.479 172.906C422.479 172.675 421.634 173.715 421.739 173.368C423.007 171.75 423.429 171.635 424.168 170.941C424.802 171.635 425.541 172.328 426.175 173.022C426.175 173.022 426.175 173.253 426.07 173.137C427.337 174.062 426.914 174.293 428.393 175.796C432.406 179.725 437.898 184.695 441.806 188.741C442.862 189.319 444.13 190.59 445.503 191.861L445.397 192.324L446.559 193.248C446.876 193.826 445.714 192.555 446.348 193.364L446.876 193.595C446.876 193.826 449.516 196.369 447.615 194.867C448.988 196.254 450.361 197.641 451.734 198.912C452.685 199.837 452.473 199.143 453.424 200.183C453.53 200.53 453.001 199.952 453.001 200.068C455.853 203.304 457.12 202.842 459.761 205.731L459.444 205.5C459.972 205.847 460.923 206.772 460.923 206.772C460.817 206.078 460.289 206.425 459.55 205.385C459.866 205.153 460.711 206.309 460.923 205.962C461.556 206.656 462.084 206.887 462.612 207.465C463.457 208.621 465.042 209.892 465.57 210.817C466.098 211.164 466.943 211.395 467.999 212.435C468.527 213.36 467.682 212.435 468.633 213.591H468.949C469.794 214.4 469.583 214.4 469.477 214.4C470.322 215.209 470.428 214.862 471.484 216.018L470.745 215.556C471.59 216.249 471.907 216.596 473.068 217.752C472.963 217.867 472.54 217.405 472.223 217.058C472.646 217.867 473.385 217.983 473.702 218.33C473.702 218.214 472.857 217.405 473.385 217.636C473.596 217.867 473.808 217.983 474.019 218.214C474.336 218.561 474.653 218.792 474.969 219.139C474.969 219.139 474.969 219.139 475.075 219.254L474.336 218.792C475.603 219.832 475.181 219.139 476.448 220.526C476.342 220.526 476.342 220.526 476.342 220.526C477.399 221.104 478.349 222.375 479.722 223.647L479.405 223.415C479.828 223.762 480.145 223.878 480.356 223.993C480.778 224.34 481.201 224.802 481.623 225.149C481.306 225.034 480.99 224.918 480.461 224.571C481.095 225.034 481.834 225.727 481.623 225.727L482.046 225.611C482.363 225.958 482.679 226.189 482.996 226.536C483.207 226.652 483.419 226.883 483.63 226.998C484.897 228.27 486.27 229.426 487.538 230.697C487.432 230.697 487.326 230.581 487.115 230.35C486.059 229.657 487.749 230.813 487.538 231.044C487.855 231.159 488.805 232.084 489.333 232.662V232.431C489.65 232.662 489.861 233.009 490.178 233.24C490.072 233.355 490.072 233.587 490.917 234.28C492.185 235.32 490.495 233.818 491.34 234.396C492.185 235.205 492.29 235.667 493.558 236.592C493.875 236.939 494.403 237.748 494.297 237.979C495.142 238.557 496.409 240.059 497.043 240.29C495.881 239.019 495.564 239.366 494.403 237.748L494.931 237.863C495.987 238.788 497.36 239.828 497.994 240.522C497.888 240.406 497.888 240.29 497.994 240.29C498.205 240.522 498.416 240.637 498.627 240.753C499.155 241.215 499.578 241.677 500.106 242.14C500.845 243.064 501.056 242.949 502.324 244.336C502.218 244.567 501.373 243.411 501.056 243.527L502.641 244.914C503.063 244.798 503.802 246.07 504.859 246.763C505.703 247.572 506.337 248.034 506.865 248.381C507.816 249.19 508.766 249.999 509.611 250.808C509.717 251.04 509.717 251.271 509.506 251.155C510.667 252.08 509.4 250.808 509.822 251.04C510.139 251.271 510.456 251.617 510.773 251.849L511.618 252.658C515.103 255.778 518.589 258.899 522.074 261.904C521.968 261.904 521.968 262.02 521.863 261.904C522.074 262.02 522.179 262.02 522.285 262.135L522.391 262.251C522.708 262.598 523.13 262.829 523.447 263.176C523.658 263.407 523.869 263.754 523.341 263.522C523.764 264.216 525.348 265.603 526.298 266.296C526.932 266.528 525.454 265.372 525.665 265.256C526.087 265.603 526.404 265.834 526.721 266.065C536.438 274.503 546.26 282.825 556.082 291.031H555.976L556.188 291.147C558.617 293.112 561.046 295.076 563.369 297.041C563.264 297.041 563.264 296.926 563.053 296.926C563.369 297.157 563.581 297.272 563.686 297.388C564.109 297.735 564.426 297.966 564.848 298.313C564.848 298.544 565.271 298.891 566.01 299.7L565.271 298.891C565.376 298.891 565.376 298.891 565.482 299.006L565.376 298.891C565.482 299.006 565.587 299.006 565.587 299.122L565.482 299.006C565.587 299.122 565.693 299.237 565.799 299.353C565.799 299.353 565.799 299.353 565.799 299.237C573.614 305.594 581.43 311.951 589.456 318.193C592.308 320.389 595.054 322.585 597.906 324.781C598.962 325.59 601.708 323.972 600.229 322.932C588.823 314.147 577.628 305.132 566.432 296.001C566.327 295.885 566.221 295.77 566.01 295.654C564.742 294.614 563.581 293.574 562.313 292.649V292.534C561.996 292.302 561.574 291.956 561.152 291.609C559.99 290.684 558.828 289.76 557.772 288.719C557.561 288.373 557.349 288.141 556.61 287.448C555.765 286.755 555.554 286.639 555.237 286.523C554.498 285.714 552.808 284.558 552.914 284.327C552.597 284.327 552.174 283.634 551.646 283.403V283.287V283.518C550.484 281.9 549.006 281.669 547.738 280.051L548.055 280.166L547.422 279.704C547.422 279.588 547.633 279.704 547.738 279.588L544.887 277.046L545.415 277.624C544.781 277.161 544.253 276.93 543.619 276.236C544.992 276.93 542.669 275.427 542.563 275.081L543.197 275.543C542.352 274.85 542.352 274.849 542.246 275.081C541.085 274.156 541.718 274.156 540.557 273.463L541.296 274.04C541.401 274.272 540.768 274.04 540.345 273.578C540.24 273.463 539.923 273.116 540.345 273.347C539.395 272.653 538.127 271.498 537.705 271.266C537.282 270.804 537.494 270.804 537.811 271.035C535.804 269.648 536.966 270.342 534.959 268.839L535.065 268.724L534.325 268.261L533.586 267.221L533.797 267.683C533.163 267.221 532.741 266.874 532.107 266.181L532.53 266.296C530.734 264.909 530.734 264.332 528.939 263.06C528.833 262.945 529.15 263.06 529.256 263.176C527.566 262.135 528.305 261.904 526.615 260.864C526.721 260.864 526.615 260.748 526.721 260.748L525.982 260.286L526.193 260.171L525.454 259.939L525.137 259.361L524.82 259.246C524.397 258.206 523.13 257.628 522.285 256.472V256.819C519.328 255.085 516.688 251.502 513.413 248.959L513.625 248.843L512.252 247.919C511.724 247.11 512.78 248.15 512.674 247.803C511.301 246.647 511.935 247.572 510.351 246.185C509.611 245.376 510.773 246.301 511.195 246.532C509.611 245.26 507.393 243.411 506.443 242.371H506.337C505.281 241.562 504.119 240.29 502.957 239.366C503.063 239.25 503.38 239.481 503.591 239.713C503.169 239.366 502.746 238.788 502.324 238.557L502.852 238.788C502.007 237.979 500.317 236.707 500.317 236.361C500.317 236.476 500.212 236.592 499.472 236.014C499.261 235.32 497.466 234.396 496.409 233.24C496.621 233.24 497.466 234.049 497.254 233.818C496.726 233.24 496.092 232.893 495.564 232.546H495.776C494.825 231.853 493.875 231.044 493.03 230.235C492.818 229.541 490.495 227.923 490.812 227.923C489.861 226.998 491.551 228.732 490.284 227.692C490.072 227.23 489.122 226.767 489.333 226.652L489.439 226.767L488.594 225.958L489.228 226.305C488.488 225.727 487.855 225.38 487.643 225.496C487.01 224.802 486.059 223.993 485.848 223.531L486.165 223.762C484.158 222.028 483.419 220.295 481.623 219.254C481.518 219.139 481.623 219.139 481.834 219.254L480.673 218.099L481.095 218.214L478.983 216.596L479.088 216.48C477.821 215.209 475.814 213.475 474.125 211.973L474.441 212.204C472.54 210.701 472.752 210.47 471.379 209.314C471.484 209.314 471.484 209.314 471.59 209.43L470.428 208.274L470.745 208.39C469.689 207.812 468.527 205.731 468.844 206.425C468.316 206.078 467.365 205.385 467.154 205.269C465.887 203.998 466.943 204.807 466.203 203.998C465.253 203.073 465.042 203.073 463.774 201.802L463.88 201.686C463.246 201.108 462.824 200.877 462.084 200.068L462.401 200.299C460.923 199.259 460.923 198.45 459.55 197.872C459.022 197.294 457.965 196.254 458.177 196.138C456.381 194.635 455.114 193.48 453.424 191.977C453.424 191.399 453.107 191.63 452.262 190.474L452.157 190.706C449.833 188.394 447.509 185.389 444.975 182.962L445.08 182.73L444.447 182.384C441.806 179.61 438.321 176.027 436.209 173.946C435.469 173.368 434.202 172.444 433.146 171.288L433.251 171.403C431.667 169.901 430.083 168.398 428.499 166.665C428.71 166.433 429.027 166.318 429.238 166.202C429.238 166.087 428.393 166.896 428.816 166.318C429.977 165.278 431.667 163.544 433.04 162.272C433.04 162.388 433.251 162.272 433.146 162.504C433.991 161.117 434.308 161.694 435.681 160.076C439.588 156.031 444.658 150.599 448.671 146.784C449.305 145.629 450.572 144.357 451.84 143.086L452.262 143.317L453.213 142.161C453.741 141.814 452.473 143.086 453.318 142.392L453.53 141.814C453.741 141.814 456.276 139.156 454.691 141.236L458.81 137.191C459.761 136.266 459.127 136.382 460.183 135.457C460.5 135.342 459.866 135.92 460.078 135.92C463.352 133.261 463.035 131.874 465.992 129.216L465.781 129.447C466.203 128.869 467.154 128.06 467.048 127.944C466.415 127.944 466.731 128.638 465.675 129.216C465.57 128.869 466.626 128.06 466.415 127.829C467.154 127.251 467.471 126.789 467.999 126.211C469.161 125.402 470.428 123.899 471.379 123.437C471.801 122.859 472.118 122.05 473.174 121.009C474.125 120.547 473.174 121.356 474.23 120.432V120.085C475.075 119.276 474.969 119.507 474.969 119.623C475.92 118.813 475.498 118.698 476.765 117.773L476.659 118.582C477.399 117.773 477.821 117.426 478.983 116.386C478.983 116.502 478.56 116.964 478.244 117.195C479.088 116.849 479.194 116.039 479.617 115.808C479.511 115.808 478.666 116.502 478.877 116.039C479.511 115.577 479.933 114.652 480.461 114.421L479.933 115.23C480.99 113.959 480.461 114.421 481.834 113.15C481.729 113.265 481.834 113.265 481.834 113.265C482.574 112.225 483.841 111.301 485.109 110.145L484.897 110.376C485.425 109.798 485.531 109.451 485.848 109.105C485.003 109.682 485.214 109.451 485.003 109.336C486.165 108.642 486.27 107.602 487.96 106.215C487.96 106.331 487.749 106.793 487.221 107.14C486.904 107.949 487.01 108.18 486.165 109.336C486.693 108.758 487.432 107.949 487.326 108.295V107.833C487.643 107.486 487.96 107.255 488.277 106.908C488.277 106.562 487.326 107.371 488.066 106.446C488.911 105.406 488.805 106.215 488.805 105.984C490.072 104.597 489.122 105.175 490.495 104.134C490.389 104.25 490.178 104.597 490.072 104.597C491.023 103.788 492.29 102.401 492.818 102.516C492.713 102.747 492.818 102.863 492.396 103.094V102.979C491.657 104.019 492.924 102.401 493.03 102.632C493.135 102.285 494.191 101.361 494.72 100.898H494.403C495.881 98.471 494.614 101.361 496.409 99.5112C497.571 98.2398 495.881 99.8579 496.515 99.0489C497.36 98.3554 497.782 98.2398 498.944 96.9684C499.367 96.7372 500.106 96.1593 500.317 96.3905C500.951 95.5814 502.641 94.4256 502.852 93.8477C501.479 94.7723 501.796 95.2347 500.106 96.2749L500.317 95.697C501.373 94.7723 502.535 93.5009 503.274 92.923C503.063 93.0386 502.958 93.0386 503.063 92.923C504.436 91.536 504.647 90.9581 506.126 89.6867C506.443 89.6867 505.598 90.3802 505.07 90.9581C506.126 90.2646 506.02 90.149 507.499 88.8776C507.71 88.9932 506.548 89.6867 506.548 90.0335L508.027 88.5309C508.027 88.0686 509.189 87.4906 510.139 86.566C512.357 84.4855 512.463 83.792 513.519 82.405C513.941 82.1739 514.047 82.1739 513.941 82.405C513.308 82.7518 513.519 82.7518 513.308 83.0985C514.047 82.405 515.209 81.8271 514.892 82.405C516.054 81.2492 514.364 82.6362 514.998 81.9427L516.687 80.4401C516.371 80.4401 515.737 81.018 516.582 80.0934C517.321 79.3999 517.638 79.1687 518.589 78.2441C518.483 78.4752 519.011 78.2441 518.377 78.822C518.905 78.4752 519.645 77.7817 519.75 77.435C518.589 78.2441 521.335 75.8168 520.384 76.2792L521.546 75.4701C521.335 75.7012 521.335 75.8168 521.018 76.048C521.44 76.048 521.863 75.2389 522.179 74.8922C522.602 74.661 523.552 73.7364 523.658 73.7364C523.975 73.3896 524.82 72.6961 525.031 72.6961C525.454 72.2338 524.925 72.465 525.031 72.3494L526.721 70.8468C526.932 70.8468 527.249 71.078 527.038 71.4247C527.566 70.7312 527.038 70.8468 527.988 70.0377C527.671 70.7312 529.361 69.1131 528.833 70.0377C529.467 69.691 531.051 68.304 531.896 67.4949C532.319 66.8014 530.946 68.1884 530.84 67.9572C533.163 65.7612 532.952 65.0677 534.748 63.5651L534.22 63.9119C534.325 63.7963 534.431 63.6807 534.536 63.5651C534.959 63.1028 535.487 62.756 535.909 62.2937C536.438 62.0625 537.811 61.2535 539.078 60.0976C539.184 59.8665 538.022 60.6756 538.022 60.3288C538.444 59.9821 538.761 59.6353 539.184 59.2886L539.078 59.4041C540.134 58.3639 541.296 57.9016 541.401 57.4393L542.774 56.8613L542.246 57.0925C542.352 56.8613 543.514 55.7055 543.725 55.4744C544.887 54.2029 545.415 53.9718 546.154 53.5095C546.049 53.5095 545.732 53.625 545.626 53.625C545.837 53.3939 546.154 53.1627 546.365 52.9315C546.999 52.5848 548.266 51.3134 548.372 51.5446C548.795 51.1978 549.534 50.7355 549.428 50.5043L549.534 50.8511C549.428 50.3887 550.696 49.2329 551.752 48.1927C551.752 48.1927 551.857 48.1927 551.857 48.0771C551.963 48.7706 553.019 46.9213 553.864 46.9213C553.864 46.4589 555.66 45.1875 555.66 44.7252C555.765 44.6096 555.871 44.494 556.082 44.3785C556.61 44.0317 556.716 44.2629 557.033 44.1473L557.349 43.685C557.877 43.4538 559.462 42.0668 560.518 41.3733L561.152 40.3331L561.574 40.2175C561.68 39.9863 562.419 39.2928 561.891 39.6396L562.419 39.2928C562.208 38.9461 562.841 38.7149 563.581 38.0214C563.686 37.9058 563.792 37.7903 564.003 37.6747C564.109 37.6747 564.109 37.7903 564.003 37.9058C564.531 37.4435 564.426 37.7903 564.742 37.6747C564.531 37.7903 564.954 37.0968 565.165 36.6344C566.01 35.8254 566.96 35.1319 567.805 34.3228C567.911 34.4384 568.122 34.4384 568.861 33.7449C568.017 34.4384 567.805 35.0163 567.383 35.4786C567.7 35.2475 567.911 35.1319 567.488 35.5942C568.65 34.4384 567.805 35.0163 568.967 33.976C569.073 34.3228 569.495 34.0916 570.551 33.2826L569.601 33.7449C569.601 33.6293 569.706 33.6293 569.706 33.5137C569.39 33.7449 569.284 33.7449 569.178 33.7449C569.39 33.5137 570.34 32.2423 570.657 32.2423C570.129 32.4735 570.234 32.2423 570.551 31.8956C571.291 31.2021 572.03 30.6242 572.875 29.9307C573.192 29.6995 573.72 29.3528 573.72 29.5839C574.037 29.2372 573.086 29.8151 573.192 29.6995C573.403 29.4683 573.614 29.3528 573.931 29.1216C574.248 28.8904 574.565 28.7748 574.882 28.5437L574.67 28.7748L575.726 28.0814C575.832 27.8502 574.67 28.6593 575.515 27.8502C575.832 27.7346 576.571 26.9255 576.677 27.0411C576.36 27.619 576.888 27.5034 576.149 28.1969C576.783 27.619 578.684 26.0009 577.733 26.3476L578.472 25.7697C578.05 26.0009 576.888 26.8099 577.522 26.1165C577.628 26.0009 577.839 25.8853 577.944 25.7697L578.05 25.6541C578.472 25.3074 579.001 24.8451 579.423 24.4983C579.529 24.4983 579.634 24.3827 579.845 24.2671L579.529 24.3827C579.74 24.1516 580.057 23.9204 580.268 23.6892C580.268 23.6892 580.268 23.6892 580.374 23.6892C580.69 23.3425 580.902 23.2269 581.113 22.9957C581.43 22.7646 581.747 22.4178 582.063 22.1867C582.908 21.4932 584.387 20.2218 585.021 19.875C585.971 18.9504 585.126 19.7594 585.126 19.5283C585.232 19.4127 585.337 19.2971 585.443 19.1815C586.816 18.6036 589.14 16.1764 590.935 14.6738C590.829 14.6738 590.829 14.6738 590.829 14.6738C591.358 14.2115 591.886 13.7492 592.519 13.2868C592.519 13.2868 592.414 13.518 591.991 13.8647L592.942 12.9401C593.787 12.5933 591.463 14.4426 592.625 13.8647C593.681 12.9401 594.209 11.8998 595.582 10.9752C595.371 11.6687 596.533 10.0505 596.427 10.6284C596.216 10.9752 595.793 11.2063 595.477 11.5531L595.793 11.4375C598.223 9.47261 596.321 10.5128 597.378 9.24144C598.856 7.97004 598.645 8.43237 598.856 8.54795C599.173 8.43237 599.807 7.73887 600.229 7.39213C599.49 8.31678 598.539 8.54795 598.751 8.2012C598.751 8.2012 598.856 8.2012 598.856 8.08562C599.49 7.85446 600.229 7.04538 600.863 6.46747C601.18 6.12072 601.602 5.88956 601.919 5.54281C602.13 5.31165 601.919 5.08048 601.391 4.9649ZM286.974 318.077L286.657 318.54C287.608 317.384 287.397 317.962 287.608 317.846L287.397 318.077L287.819 317.731C286.974 318.771 286.129 319.695 285.39 320.736C285.707 320.042 285.707 319.233 286.974 318.077ZM284.123 321.776C284.651 321.198 284.967 320.967 285.284 320.851C284.967 321.314 284.545 321.66 284.228 322.123L284.123 321.776Z" fill="black"/>
<path d="M526.932 65.9923L527.249 65.6456C527.038 65.8768 526.932 65.9923 526.932 65.9923Z" fill="black"/>
<path d="M569.918 29.584C570.129 29.4684 570.446 29.1216 571.079 28.6593L569.918 29.584Z" fill="black"/>
<path d="M471.273 116.617L471.59 116.271C471.379 116.502 471.273 116.502 471.273 116.617Z" fill="black"/>
<path d="M504.119 86.4504C504.014 86.566 503.908 86.7972 503.697 86.9128C503.908 86.6816 504.119 86.566 504.119 86.4504Z" fill="black"/>
<path d="M284.651 319.464C284.228 319.927 284.017 320.389 283.7 320.967L284.651 319.464Z" fill="black"/>
<path d="M571.396 32.0112C570.974 32.5891 569.918 33.167 570.023 33.2826C570.551 32.8202 571.291 32.3579 571.396 32.0112Z" fill="black"/>
<path d="M416.142 179.494L415.825 179.841C416.036 179.61 416.142 179.61 416.142 179.494Z" fill="black"/>
<path d="M373.156 216.365C373.156 216.249 373.263 216.249 373.263 216.249L373.156 216.365Z" fill="black"/>
<path d="M370.41 219.023C370.622 218.792 370.727 218.561 370.938 218.445C370.622 218.677 370.41 218.908 370.41 219.023Z" fill="black"/>
<path d="M283.7 320.967L283.172 321.776C283.383 321.545 283.595 321.198 283.7 320.967Z" fill="black"/>
<path d="M506.337 84.6011C506.443 84.6011 506.548 84.4855 506.548 84.3699C506.548 84.3699 506.548 84.3699 506.337 84.6011Z" fill="black"/>
<path d="M489.333 105.753C489.016 106.099 488.594 106.562 488.383 106.908C488.699 106.677 488.911 106.331 489.333 105.753Z" fill="black"/>
<path d="M493.03 102.747C493.03 102.747 493.03 102.863 493.03 102.747C493.136 102.747 493.03 102.747 493.03 102.747Z" fill="black"/>
<path d="M507.921 89.2244L508.661 88.2997L508.027 88.762C508.133 88.8776 508.133 88.8776 507.921 89.2244Z" fill="black"/>
<path d="M481.94 113.266C481.834 113.381 481.834 113.381 481.729 113.497C481.834 113.381 481.94 113.266 481.94 113.266Z" fill="black"/>
<path d="M475.709 119.623C476.131 119.16 475.709 119.507 475.392 119.623C475.392 119.738 475.498 119.738 475.709 119.623Z" fill="black"/>
<path d="M523.552 74.0831C523.659 73.9675 523.659 73.8519 523.659 73.8519C523.552 73.9675 523.552 74.0831 523.552 74.0831Z" fill="black"/>
<path d="M564.003 37.9059C563.898 38.0215 563.686 38.137 563.581 38.3682C563.686 38.137 563.898 38.0215 564.003 37.9059Z" fill="black"/>
<path d="M512.991 83.6764C513.202 83.4453 513.308 83.3297 513.413 83.2141C513.308 83.4453 513.097 83.5609 512.991 83.6764Z" fill="black"/>
<path d="M563.053 38.8305L562.419 39.2928L563.053 38.8305Z" fill="black"/>
<path d="M567.383 35.4786C567.172 35.7098 566.855 35.941 566.644 36.0565C566.96 35.941 567.172 35.7098 567.383 35.4786Z" fill="black"/>
<path d="M539.078 59.5197C539.078 59.5197 538.972 59.5197 539.078 59.5197C538.55 60.0976 538.867 59.7509 539.078 59.5197Z" fill="black"/>
<path d="M560.623 41.3734C560.623 41.3734 560.518 41.4889 560.623 41.3734L560.412 41.6045L560.623 41.3734Z" fill="black"/>
<path d="M570.023 33.2826C569.918 33.3982 569.812 33.5138 569.706 33.6293C569.812 33.5138 569.918 33.3982 570.023 33.2826C570.023 33.3982 570.023 33.2826 570.023 33.2826Z" fill="black"/>
<path d="M548.266 51.8913C548.372 51.6601 548.372 51.5446 548.372 51.5446C548.161 51.7757 548.055 51.8913 548.266 51.8913Z" fill="black"/>
<path d="M527.249 260.633L527.566 260.864C527.355 260.633 527.355 260.633 527.249 260.633Z" fill="black"/>
<path d="M472.118 209.43L472.435 209.777C472.329 209.546 472.223 209.43 472.118 209.43Z" fill="black"/>
<path d="M504.014 239.713C504.225 239.944 504.436 240.059 504.542 240.059C504.436 240.059 504.225 239.944 504.014 239.713Z" fill="black"/>
<path d="M286.235 4.15582L287.502 5.31165C287.08 4.84932 286.657 4.50257 286.235 4.15582Z" fill="black"/>
<path d="M409.699 155.337L409.382 154.991C409.488 155.222 409.594 155.222 409.699 155.337Z" fill="black"/>
<path d="M374.952 109.105C375.058 109.105 375.058 109.22 375.058 109.22L374.952 109.105Z" fill="black"/>
<path d="M372.523 106.099C372.734 106.331 372.839 106.446 373.051 106.677C372.839 106.331 372.734 106.215 372.523 106.099Z" fill="black"/>
<path d="M286.235 4.15584L285.601 3.46234C285.812 3.69351 286.024 3.92467 286.235 4.15584Z" fill="black"/>
<path d="M506.548 242.024C506.654 242.14 506.654 242.14 506.76 242.255C506.865 242.371 506.865 242.255 506.548 242.024Z" fill="black"/>
<path d="M502.746 244.683L503.697 245.376L503.169 244.798C503.063 244.914 503.063 244.914 502.746 244.683Z" fill="black"/>
<path d="M476.765 220.41C476.659 220.41 476.554 220.295 476.554 220.295C476.659 220.41 476.765 220.41 476.765 220.41Z" fill="black"/>
<path d="M470.006 214.631C470.534 214.978 470.111 214.631 469.9 214.284C469.9 214.4 469.9 214.4 470.006 214.631Z" fill="black"/>
<path d="M278.469 3.69181C277.917 3.47465 276.996 4.12614 276.627 4.77764C272.207 12.5956 267.879 20.4136 263.552 28.4487H263.459C263.183 29.1002 263.091 29.3173 263.275 29.1002C262.539 30.4032 261.894 31.7062 261.157 33.0092C261.065 33.2263 260.973 33.2263 260.973 33.4435C259.868 35.398 258.763 37.3525 257.658 39.5241C257.198 40.1756 256.461 41.4786 257.29 39.7413C256.461 41.0443 256.369 41.6958 255.909 42.9988C255.817 42.9988 255.816 43.2159 255.724 43.2159C255.172 43.8674 255.264 42.9988 255.817 41.6958L255.08 43.4331V43.2159L254.527 44.7361C253.699 45.8219 254.251 44.5189 253.422 45.8219V46.4734L252.87 47.1249C253.146 46.9077 252.686 47.7764 252.225 48.8622V48.6451L251.581 49.9481C252.133 48.4279 250.936 51.0339 251.12 50.1652C250.568 51.2511 250.568 51.2511 249.555 53.2055H249.831C248.634 55.8115 249.647 52.9884 248.542 54.7257L248.726 54.9429C247.069 57.1145 246.24 59.9377 245.043 61.675C245.687 60.372 245.411 60.372 245.411 60.372C244.49 62.3265 242.833 65.1496 242.004 67.3213C241.452 67.5385 241.359 67.5385 240.254 69.2758C239.518 70.7959 239.426 71.0131 239.242 71.6646C238.505 72.7504 237.216 75.5736 237.032 75.3564C236.939 76.0079 236.387 76.4422 236.019 77.5281H235.926L236.111 77.7452C234.637 79.4826 234.085 82.3057 232.612 84.043L232.796 83.6087L232.335 84.6945C232.243 84.6945 232.427 84.2602 232.335 84.043L229.849 88.8207L230.401 88.1692C229.849 89.255 229.665 90.1237 228.928 91.2095C229.757 88.8207 228.099 92.7297 227.823 92.7297L228.284 91.6438C227.547 93.164 227.547 93.164 227.731 93.3811C226.81 95.3356 226.902 94.0327 226.074 95.9871L226.718 94.9013C226.994 94.6841 226.626 95.77 226.166 96.6386C226.074 96.8558 225.705 97.2901 225.982 96.6386C225.245 98.1588 224.048 100.113 223.771 100.982C223.311 101.633 223.403 101.199 223.587 100.765C222.114 104.022 222.851 102.068 221.285 105.325V105.108L220.825 106.411L219.904 107.497L220.272 107.28C219.72 108.366 219.444 109.017 218.799 110.103L218.983 109.451C217.602 112.492 217.142 112.275 215.852 115.532C215.76 115.749 215.944 115.098 216.036 114.881C214.839 117.921 214.932 116.401 213.734 119.441C213.827 119.224 213.642 119.441 213.642 119.224L213.09 120.527L212.998 120.093L212.721 121.613L212.261 122.047L212.077 122.698C211.156 123.133 210.512 125.522 209.407 126.607L209.683 126.825C207.841 132.037 204.434 136.163 201.948 141.592L201.856 141.158L200.935 143.764C200.29 144.632 201.211 142.678 200.935 142.895C199.83 145.501 200.659 144.415 199.369 147.238C198.633 148.324 199.554 146.587 199.83 145.718C198.633 148.324 196.791 152.233 195.87 153.97V154.187C195.041 155.925 193.936 158.096 193.016 160.051C193.016 159.834 193.2 159.399 193.384 158.965C193.016 159.617 192.555 160.485 192.279 161.137L192.555 160.051C191.819 161.354 190.529 164.394 190.253 164.394C190.345 164.394 190.437 164.611 189.793 165.914C189.24 166.132 188.227 169.389 187.122 171.126C187.214 170.692 187.951 169.389 187.675 169.606C187.122 170.475 186.754 171.561 186.386 172.647L186.478 172.212L184.268 177.207C183.715 177.424 182.15 181.768 182.15 180.899C181.321 182.636 182.886 179.813 181.874 181.985C181.505 182.419 180.953 183.939 180.861 183.505L180.953 183.288L180.216 184.808L180.584 183.505C180.032 184.808 179.664 186.111 179.756 186.545C179.111 187.631 178.282 189.368 177.914 189.585L178.098 189.151C176.533 192.626 175.059 193.712 173.954 196.969C173.862 197.186 173.862 196.969 174.046 196.535L173.034 198.489L173.218 197.838L171.652 201.747V201.53C170.547 203.701 168.798 207.393 167.416 210.433L167.601 209.999C166.127 213.474 166.035 212.822 164.93 215.428C164.93 215.211 165.022 215.211 165.022 215.211L164.009 217.383L164.194 216.731C163.549 218.686 161.891 220.64 162.444 219.989C162.076 221.074 161.431 222.812 161.339 223.246C160.234 225.635 160.971 223.68 160.234 224.766C159.405 226.504 159.405 226.938 158.208 229.11V228.892C157.748 229.978 157.471 230.847 156.735 232.367L156.919 231.933C155.906 234.756 155.261 234.322 154.617 237.145C154.064 238.013 153.236 239.968 153.144 239.534C151.762 242.791 150.749 245.18 149.368 248.437C148.908 248.437 149.092 249.089 148.079 250.609L148.263 250.826C146.237 255.169 143.659 259.296 141.541 264.073L141.357 263.856L141.081 265.159C138.686 270.154 135.556 276.669 133.622 280.578C133.069 282.098 132.241 284.487 131.228 286.441L131.32 286.224C129.662 290.133 127.913 294.259 125.979 297.951C126.071 297.517 125.795 297.951 125.979 297.3C125.703 298.603 124.874 299.688 124.506 300.557L125.058 299.688C124.966 300.123 124.782 300.557 124.598 300.991V300.774L123.677 299.254C123.677 299.037 123.585 298.82 123.585 298.82L123.401 298.603L123.124 297.3C122.848 296.865 121.743 294.694 121.283 294.259C121.283 294.042 120.546 292.088 121.191 293.391L118.244 286.658L118.704 287.744C118.612 288.179 117.691 286.441 117.231 285.138C117.968 286.224 117.415 284.921 117.323 284.052C116.863 283.401 117.599 285.138 117.323 284.704C116.679 283.835 115.574 281.446 115.389 280.578L115.758 281.229C115.021 279.709 114.929 278.406 114.192 276.886C113.456 275.8 113.087 274.497 112.995 275.366C112.074 273.411 112.811 274.28 112.535 273.628C111.982 272.977 110.877 269.937 110.785 269.285C109.956 268.851 108.483 263.639 108.115 263.856L107.562 261.902C107.47 262.119 107.194 262.119 106.549 260.816C106.089 259.296 106.365 259.296 106.181 258.861L105.536 258.644C102.59 250.609 98.1698 241.488 95.039 232.801C93.4736 229.327 91.3556 224.983 89.6061 220.64L89.8823 221.074L88.1327 216.731L89.3298 219.989C88.8694 219.12 88.5931 218.468 88.2248 217.6C86.3831 212.605 83.8969 206.307 81.4106 200.878C79.569 197.838 80.674 197.838 78.9244 194.797C79.1086 195.015 79.2006 195.015 79.2927 195.232C77.6352 191.54 76.7144 189.585 74.9648 186.111C75.4252 185.894 73.9519 183.505 74.2281 183.505H73.9519C73.6756 182.419 72.8469 180.465 73.1231 180.465L72.2944 179.162L72.3865 178.727C71.4656 176.556 69.3477 171.778 69.1636 170.041C66.6773 164.829 63.1781 155.708 60.4156 148.541C59.9552 147.673 59.0344 145.718 58.3898 144.198L57.8373 142.026C57.1006 140.506 56.2719 139.203 55.7194 137.466H55.8115C55.0748 135.946 54.5223 133.991 53.7856 132.905C53.049 130.951 52.4044 128.996 52.7727 129.431C52.0361 128.128 50.839 123.784 50.839 123.784C50.839 123.784 41.7227 99.679 31.4094 72.5333C28.831 65.8011 26.2527 58.8518 23.6744 51.9025C21.096 45.1704 18.5177 38.4383 16.2156 32.3577C11.4273 19.9792 7.28354 9.77245 4.79729 4.34331C4.33687 3.90898 3.41604 1.73732 3.60021 3.04032C2.95562 1.30299 2.86354 0 2.58729 0C2.95562 1.08583 2.86354 1.30299 2.67937 1.30299C1.85062 -0.217165 -0.359378 1.95449 0.469372 4.34331C6.91521 22.368 13.4531 40.3928 19.991 58.2003C19.899 57.9832 19.899 57.9832 19.8069 57.766C19.991 58.2003 20.1752 58.6347 20.3594 59.069C20.6356 59.9377 21.004 60.8063 21.2802 61.675C22.3852 64.9325 22.9377 67.5385 24.2269 71.0131L24.411 70.7959C26.621 78.1796 29.7519 85.9975 32.5144 93.5983L32.2381 92.5125C32.6985 93.3811 33.3431 94.9013 33.8956 95.9871C33.8956 96.2043 33.3431 95.5528 34.1719 97.7245C34.0798 97.2901 33.7115 96.2043 33.8956 96.4215C36.1056 103.371 41.3544 116.835 45.2219 127.476C50.839 141.375 56.6402 157.011 62.1652 170.475C61.3365 168.303 61.981 168.738 62.5335 170.475C63.8227 175.687 65.6644 177.641 67.1377 182.636C70.5448 190.237 73.0311 198.055 76.3461 204.57L76.254 205.004C76.6223 206.307 76.8986 206.307 77.359 207.393H77.2669C78.3719 210.216 79.8452 213.257 80.3977 214.777L80.5819 214.559C81.2265 216.08 80.8581 215.645 81.5948 217.165L81.5027 217.383L82.4236 218.903C82.0552 219.337 84.2652 223.463 84.7256 224.983C85.6465 226.938 87.3961 230.63 88.6852 233.887C88.7773 234.756 90.4348 238.665 91.3556 241.271C92.3686 243.66 93.5656 246.483 94.9469 249.523C96.2361 252.563 97.6173 255.604 98.9065 258.644L98.9986 258.21L99.6431 259.73C99.6431 259.73 99.6431 259.947 99.5511 259.947C99.9194 261.684 101.209 263.422 101.577 264.942C101.393 263.856 101.116 263.856 100.748 262.987C100.288 261.467 100.932 262.336 101.669 264.29H101.577L102.129 265.159C102.037 265.593 102.498 266.896 102.406 267.331C104.708 272.326 106.365 275.366 108.667 280.795C108.299 280.578 110.325 284.487 109.68 284.052C111.154 287.093 109.68 282.967 110.417 284.052C110.785 284.921 111.246 285.79 111.246 286.007C110.969 285.79 111.43 287.093 111.061 286.441L111.982 288.613C112.074 288.83 111.798 288.396 111.706 288.179C113.732 292.088 114.929 295.997 116.771 299.471C116.955 299.471 116.126 297.951 116.31 297.951C118.244 301.426 117.691 301.643 119.441 304.9L118.981 304.466C119.533 305.335 119.901 305.552 120.546 307.506L120.454 307.723C120.178 307.289 119.625 306.203 119.349 305.769C119.625 306.42 119.994 307.289 120.362 307.941C120.178 308.375 120.086 308.809 119.994 309.244C119.901 309.244 119.073 310.981 119.625 309.461L116.494 315.976L117.047 315.107C117.231 315.324 116.402 317.496 115.85 318.365C116.402 316.844 115.758 317.93 115.389 318.147C115.021 319.233 115.85 317.713 115.666 318.365C115.205 319.668 114.192 322.274 113.824 322.708L114.1 321.839C113.456 323.577 112.903 323.794 112.259 325.314C111.706 327.051 111.154 327.703 111.522 327.92C110.693 330.092 111.061 328.354 110.693 329.006C110.417 330.092 109.036 332.915 108.759 332.915C108.575 334.869 106.273 338.127 106.365 338.995L105.444 340.298C105.444 340.515 105.536 341.167 104.892 342.687C104.247 343.773 104.247 343.121 104.063 343.339L103.971 344.859C100.472 351.374 96.4202 361.363 92.6448 368.964C91.1715 372.656 89.3298 377.434 87.3961 381.56L87.5802 380.908L85.7386 384.817L87.2119 381.994C86.8436 383.08 86.5673 383.731 86.199 384.6C84.0811 388.943 81.3186 394.59 79.0165 400.67C77.7273 405.014 77.7273 402.408 76.4381 406.534C76.5302 406.099 76.5302 405.882 76.6223 405.665C75.149 409.791 74.3202 411.963 72.8469 416.089C72.7548 415.003 71.834 418.695 71.834 417.826V418.478C71.3736 419.129 70.5448 421.084 70.5448 420.65L69.9923 422.604L69.8081 422.387C68.8873 424.559 66.9536 429.553 66.2169 430.205C64.0069 436.068 60.3236 444.755 57.3769 451.704C57.1006 453.007 56.2719 454.962 55.5352 456.699L54.7065 458.002C54.0619 459.739 53.5094 461.911 52.8648 463.214V462.997C52.2202 464.734 51.4836 466.037 51.0231 467.992C50.2865 469.729 49.4577 471.466 49.5498 470.598C49.734 471.249 47.8923 474.289 47.8923 474.289C47.8923 474.289 47.2477 475.81 46.2348 478.198C45.1298 480.804 43.6565 484.496 41.7227 489.057C38.0394 498.178 32.8827 510.556 27.634 524.02C22.3852 537.485 16.8602 551.6 12.256 564.196C7.65187 576.791 3.87646 587.867 1.94271 594.382C1.75854 595.468 1.02187 597.857 1.48229 597.205C0.837705 598.942 0.377289 599.377 0.377289 599.811C1.29812 597.639 0.469372 601.331 1.48229 599.377L1.20604 600.245C0.837705 601.114 0.469372 602.2 0.101038 603.069C-0.267295 604.154 0.469372 604.154 0.745622 604.154C1.29812 604.154 2.12687 603.72 2.49521 602.634C7.92812 588.301 13.361 574.185 18.794 560.07C20.1752 557.247 21.4644 554.423 22.9377 550.514C23.4902 549.646 22.7535 551.383 22.4773 552.469C24.411 546.605 25.7923 545.52 27.634 540.742L27.5419 540.525C30.4885 534.879 33.251 526.409 36.3819 519.46L35.9215 520.111C36.1977 518.808 36.8423 517.288 37.3027 515.985C37.3948 515.985 37.2106 517.288 37.9473 515.117C37.7631 515.551 37.3027 516.202 37.3948 515.985C40.1573 510.339 45.406 497.092 49.6419 487.102C55.1669 473.204 61.5206 458.871 67.0456 445.406C66.2169 447.361 66.309 446.058 67.0456 444.538C69.2556 441.497 69.9923 437.154 72.1102 433.679C75.2411 425.644 78.5561 419.564 81.2265 411.529L81.4106 411.746C81.9631 410.877 81.9631 410.226 82.4236 409.14V409.357C83.6206 406.751 84.9098 403.276 85.5544 401.973L85.4623 401.539C86.1069 400.019 85.9227 400.887 86.5673 399.15L86.6594 399.367L87.304 397.196C87.4881 398.064 89.2377 392.852 89.8823 391.767C90.7111 389.595 92.2765 385.469 93.6577 382.646C94.0261 382.428 95.6836 378.519 96.7886 376.348C98.8144 371.57 101.669 364.838 104.339 359.192L104.155 358.975L104.8 357.454C104.8 357.454 104.892 357.454 104.892 357.672C105.629 357.02 106.365 353.98 107.102 353.111C106.641 353.545 106.641 354.197 106.181 355.066C105.536 356.151 105.905 354.631 106.734 353.111V353.328L107.194 352.025C107.378 352.242 107.931 351.374 108.115 351.374C110.325 346.162 111.614 342.253 114.008 337.258C113.916 338.127 115.666 333.349 115.389 335.086C116.679 331.829 114.929 335.086 115.481 333.349C115.85 332.48 116.218 331.395 116.402 331.395C116.31 332.046 116.863 330.96 116.586 331.829L117.507 329.657C117.599 329.44 117.415 330.092 117.323 330.309C119.073 325.748 120.914 323.142 122.48 319.233C122.48 318.799 121.743 320.753 121.835 320.102C122.94 317.062 123.309 316.844 123.953 315.541C124.506 316.844 125.15 318.147 125.703 319.45C125.703 319.45 125.703 319.885 125.611 319.668C126.716 321.405 126.347 321.839 127.636 324.662C131.136 332.046 135.924 341.384 139.331 348.985C140.252 350.071 141.357 352.46 142.554 354.848L142.462 355.717L143.475 357.454C143.751 358.54 142.738 356.151 143.291 357.672L143.751 358.106C143.751 358.54 146.053 363.318 144.396 360.495C145.593 363.101 146.79 365.707 147.987 368.095C148.816 369.833 148.631 368.53 149.46 370.484C149.552 371.136 149.092 370.05 149.092 370.267C151.578 376.348 152.683 375.479 154.985 380.908L154.709 380.474C155.169 381.125 155.998 382.863 155.998 382.863C155.906 381.56 155.446 382.211 154.801 380.257C155.077 379.822 155.814 381.994 155.998 381.343C156.551 382.646 157.011 383.08 157.471 384.166C158.208 386.337 159.589 388.726 160.05 390.464C160.51 391.115 161.247 391.549 162.168 393.504C162.628 395.241 161.891 393.504 162.72 395.675H162.996C163.733 397.196 163.549 397.196 163.457 397.196C164.194 398.716 164.286 398.064 165.206 400.236L164.562 399.367C165.299 400.67 165.575 401.322 166.588 403.493C166.496 403.711 166.127 402.842 165.851 402.19C166.219 403.711 166.864 403.928 167.14 404.579C167.14 404.362 166.404 402.842 166.864 403.276C167.048 403.711 167.232 403.928 167.416 404.362C167.693 405.014 167.969 405.448 168.245 406.099C168.245 406.099 168.245 406.099 168.337 406.317L167.693 405.448C168.798 407.402 168.429 406.099 169.534 408.705C169.442 408.705 169.442 408.705 169.442 408.705C170.363 409.791 171.192 412.18 172.389 414.569L172.113 414.135C172.481 414.786 172.757 415.003 172.941 415.22C173.31 415.872 173.678 416.741 174.046 417.392C173.77 417.175 173.494 416.958 173.034 416.306C173.586 417.175 174.231 418.478 174.046 418.478L174.415 418.261C174.691 418.912 174.967 419.346 175.244 419.998L175.336 420.215L175.244 419.998C175.428 420.215 175.612 420.65 175.796 420.867C176.901 423.255 178.098 425.427 179.203 427.816C179.111 427.816 179.019 427.599 178.835 427.164C177.914 425.861 179.387 428.033 179.203 428.467C179.479 428.685 180.308 430.422 180.769 431.508V431.073C181.045 431.508 181.229 432.159 181.505 432.594C181.413 432.811 181.413 433.245 182.15 434.548C183.255 436.503 181.781 433.679 182.518 434.765C183.255 436.285 183.347 437.154 184.452 438.891C184.728 439.543 185.189 441.063 185.096 441.497C185.833 442.583 186.938 445.406 187.491 445.841C186.478 443.452 186.201 444.103 185.189 441.063L185.649 441.28C186.57 443.018 187.767 444.972 188.319 446.275C188.227 446.058 188.227 445.841 188.319 445.841C188.504 446.275 188.688 446.492 188.872 446.709C189.332 447.578 189.701 448.447 190.161 449.315C190.806 451.053 190.99 450.836 192.095 453.441C192.003 453.876 191.266 451.704 190.99 451.921L192.371 454.527C192.739 454.31 193.384 456.699 194.305 458.002C195.041 459.522 195.594 460.391 196.054 461.042C196.883 462.562 197.712 464.083 198.449 465.603C198.541 466.037 198.541 466.471 198.357 466.254C199.369 467.992 198.264 465.603 198.633 466.037C198.909 466.471 199.185 467.123 199.462 467.557L200.198 469.077C203.237 474.941 206.276 480.804 209.314 486.451C209.222 486.451 209.222 486.668 209.13 486.451C209.314 486.668 209.406 486.668 209.499 486.885L209.591 487.102C209.867 487.754 210.235 488.188 210.512 488.839C210.696 489.274 210.88 489.925 210.419 489.491C210.788 490.794 212.169 493.4 212.998 494.703C213.55 495.137 212.261 492.966 212.445 492.748C212.814 493.4 213.09 493.834 213.366 494.269C221.838 510.122 230.402 525.758 238.965 541.176H238.873L239.057 541.393C241.175 545.085 243.293 548.777 245.319 552.469C245.227 552.469 245.227 552.252 245.043 552.252C245.319 552.686 245.503 552.903 245.595 553.12C245.964 553.772 246.24 554.206 246.608 554.858C246.608 555.292 246.977 555.944 247.621 557.464L246.977 555.944C247.069 555.944 247.069 555.944 247.161 556.161L247.069 555.944C247.161 556.161 247.253 556.161 247.253 556.378L247.161 556.161C247.253 556.378 247.345 556.595 247.437 556.812C247.437 556.812 247.437 556.812 247.437 556.595C254.251 568.539 261.065 580.483 268.064 592.21C270.55 596.336 272.944 600.463 275.43 604.589C276.351 606.109 278.745 603.068 277.456 601.114C267.511 584.609 257.75 567.671 247.989 550.514C247.897 550.297 247.805 550.08 247.621 549.863C246.516 547.908 245.503 545.954 244.398 544.217V544C244.122 543.565 243.754 542.914 243.385 542.262C242.372 540.525 241.359 538.788 240.439 536.833C240.254 536.182 240.07 535.747 239.426 534.444C238.689 533.141 238.505 532.924 238.229 532.707C237.584 531.187 236.111 529.015 236.203 528.581C235.927 528.581 235.558 527.278 235.098 526.843V526.626V527.061C234.085 524.02 232.796 523.586 231.691 520.546L231.967 520.763L231.414 519.894C231.414 519.677 231.599 519.894 231.691 519.677L229.204 514.899L229.665 515.985C229.112 515.117 228.652 514.682 228.099 513.379C229.296 514.682 227.271 511.859 227.179 511.207L227.731 512.076C226.994 510.773 226.994 510.773 226.902 511.207C225.889 509.47 226.442 509.47 225.429 508.167L226.074 509.253C226.166 509.687 225.613 509.253 225.245 508.384C225.153 508.167 224.877 507.516 225.245 507.95C224.416 506.647 223.311 504.475 222.943 504.041C222.574 503.172 222.759 503.172 223.035 503.607C221.285 501.001 222.298 502.304 220.549 499.481L220.641 499.263L219.996 498.395L219.352 496.44L219.536 497.309C218.983 496.44 218.615 495.789 218.062 494.486L218.431 494.703C216.865 492.097 216.865 491.011 215.3 488.622C215.208 488.405 215.484 488.622 215.576 488.839C214.103 486.885 214.747 486.451 213.274 484.496C213.366 484.496 213.274 484.279 213.366 484.279L212.721 483.41L212.906 483.193L212.261 482.759L211.985 481.673L211.709 481.456C211.34 479.501 210.235 478.416 209.499 476.244V476.895C206.92 473.638 204.618 466.906 201.764 462.128L201.948 461.911L200.751 460.174C200.29 458.653 201.211 460.608 201.119 459.956C199.922 457.785 200.474 459.522 199.093 456.916C198.449 455.396 199.461 457.133 199.83 457.568C198.449 455.179 196.515 451.704 195.686 449.75H195.594C194.673 448.23 193.66 445.841 192.647 444.103C192.739 443.886 193.016 444.321 193.2 444.755C192.831 444.103 192.463 443.018 192.095 442.583L192.555 443.018C191.819 441.497 190.345 439.109 190.345 438.457C190.345 438.674 190.253 438.891 189.609 437.806C189.424 436.503 187.859 434.765 186.938 432.594C187.122 432.594 187.859 434.114 187.675 433.679C187.214 432.594 186.662 431.942 186.201 431.291H186.386C185.557 429.988 184.728 428.467 183.991 426.947C183.807 425.644 181.781 422.604 182.058 422.604C181.229 420.867 182.702 424.124 181.597 422.17C181.413 421.301 180.584 420.432 180.769 420.215L180.861 420.432L180.124 418.912L180.676 419.564C180.032 418.478 179.479 417.826 179.295 418.044C178.743 416.741 177.914 415.22 177.73 414.352L178.006 414.786C176.256 411.529 175.612 408.271 174.046 406.317C173.954 406.099 174.046 406.099 174.231 406.317L173.218 404.145L173.586 404.362L171.744 401.322L171.836 401.105C170.731 398.716 168.982 395.458 167.509 392.635L167.785 393.069C166.127 390.246 166.311 389.812 165.114 387.64C165.206 387.64 165.206 387.64 165.299 387.858L164.286 385.686L164.562 385.903C163.641 384.817 162.628 380.908 162.904 382.211C162.444 381.56 161.615 380.257 161.431 380.04C160.326 377.651 161.247 379.171 160.602 377.651C159.774 375.913 159.589 375.913 158.484 373.525L158.576 373.307C158.024 372.222 157.656 371.787 157.011 370.267L157.287 370.701C155.998 368.747 155.998 367.227 154.801 366.141C154.341 365.055 153.42 363.101 153.604 362.884C152.039 360.06 150.934 357.889 149.46 355.066C149.46 353.98 149.184 354.414 148.447 352.242L148.355 352.677C146.329 348.333 144.304 342.687 142.094 338.127L142.186 337.692L141.633 337.041C139.331 331.829 136.292 325.097 134.451 321.188C133.806 320.102 132.701 318.365 131.78 316.193L131.872 316.41C130.491 313.587 129.11 310.764 127.729 307.506C127.913 307.072 128.189 306.855 128.373 306.638C128.373 306.42 127.636 307.941 128.005 306.855C129.018 304.9 130.491 301.643 131.688 299.254C131.688 299.471 131.872 299.254 131.78 299.688C132.517 297.082 132.793 298.168 133.99 295.128C137.397 287.527 141.817 277.32 145.316 270.154C145.869 267.982 146.974 265.593 148.079 263.205L148.447 263.639L149.276 261.467C149.736 260.816 148.631 263.205 149.368 261.902L149.552 260.816C149.736 260.816 151.946 255.821 150.565 259.73L154.156 252.129C154.985 250.392 154.433 250.609 155.354 248.872C155.63 248.654 155.077 249.74 155.261 249.74C158.116 244.745 157.84 242.139 160.418 237.145L160.234 237.579C160.602 236.493 161.431 234.973 161.339 234.756C160.786 234.756 161.063 236.059 160.142 237.145C160.05 236.493 160.971 234.973 160.786 234.539C161.431 233.453 161.707 232.584 162.168 231.498C163.181 229.978 164.286 227.155 165.114 226.286C165.483 225.201 165.759 223.68 166.68 221.726C167.509 220.857 166.68 222.377 167.601 220.64V219.989C168.337 218.468 168.245 218.903 168.245 219.12C169.074 217.6 168.706 217.383 169.811 215.645L169.719 217.165C170.363 215.645 170.731 214.994 171.744 213.039C171.744 213.256 171.376 214.125 171.1 214.559C171.836 213.908 171.929 212.388 172.297 211.953C172.205 211.953 171.468 213.257 171.652 212.388C172.205 211.519 172.573 209.782 173.034 209.348L172.573 210.868C173.494 208.479 173.034 209.348 174.231 206.959C174.139 207.176 174.231 207.176 174.231 207.176C174.875 205.221 175.98 203.484 177.085 201.312L176.901 201.747C177.361 200.661 177.454 200.009 177.73 199.358C176.993 200.444 177.177 200.009 176.993 199.792C178.006 198.489 178.098 196.535 179.571 193.929C179.571 194.146 179.387 195.015 178.927 195.666C178.651 197.186 178.743 197.621 178.006 199.792C178.466 198.706 179.111 197.186 179.019 197.838V196.969C179.295 196.318 179.571 195.883 179.848 195.232C179.848 194.58 179.019 196.1 179.664 194.363C180.4 192.409 180.308 193.929 180.308 193.494C181.413 190.888 180.584 191.974 181.781 190.02C181.689 190.237 181.505 190.888 181.413 190.888C182.242 189.368 183.347 186.762 183.807 186.979C183.715 187.414 183.807 187.631 183.439 188.065V187.848C182.794 189.803 183.899 186.762 183.991 187.197C184.084 186.545 185.004 184.808 185.465 183.939H185.189C186.478 179.379 185.373 184.808 186.938 181.333C187.951 178.944 186.478 181.985 187.03 180.465C187.767 179.162 188.135 178.944 189.148 176.556C189.516 176.121 190.161 175.035 190.345 175.47C190.898 173.95 192.371 171.778 192.555 170.692C191.358 172.429 191.634 173.298 190.161 175.253L190.345 174.167C191.266 172.429 192.279 170.041 192.924 168.955C192.739 169.172 192.647 169.172 192.739 168.955C193.936 166.349 194.121 165.263 195.41 162.874C195.686 162.874 194.949 164.177 194.489 165.263C195.41 163.96 195.318 163.743 196.607 161.354C196.791 161.571 195.778 162.874 195.778 163.526L197.067 160.702C197.067 159.834 198.08 158.748 198.909 157.011C200.843 153.102 200.935 151.799 201.856 149.193C202.224 148.758 202.316 148.758 202.224 149.193C201.671 149.844 201.856 149.844 201.671 150.496C202.316 149.193 203.329 148.107 203.053 149.193C204.066 147.021 202.592 149.627 203.145 148.324L204.618 145.501C204.342 145.501 203.789 146.587 204.526 144.849C205.171 143.546 205.447 143.112 206.276 141.375C206.184 141.809 206.644 141.375 206.091 142.461C206.552 141.809 207.197 140.506 207.289 139.855C206.276 141.375 208.67 136.814 207.841 137.683L208.854 136.163C208.67 136.597 208.67 136.814 208.394 137.249C208.762 137.249 209.13 135.728 209.407 135.077C209.775 134.643 210.604 132.905 210.696 132.905C210.972 132.254 211.709 130.951 211.893 130.951C212.261 130.082 211.801 130.516 211.893 130.299L213.366 127.476C213.55 127.476 213.826 127.91 213.642 128.562C214.103 127.259 213.642 127.476 214.471 125.956C214.195 127.259 215.668 124.219 215.208 125.956C215.76 125.304 217.141 122.698 217.878 121.178C218.247 119.875 217.049 122.481 216.957 122.047C218.983 117.921 218.799 116.618 220.364 113.795L219.904 114.446C219.996 114.229 220.088 114.012 220.18 113.795C220.549 112.926 221.009 112.275 221.377 111.406C221.838 110.972 223.035 109.451 224.14 107.28C224.232 106.845 223.219 108.366 223.219 107.714C223.587 107.063 223.864 106.411 224.232 105.76L224.14 105.977C225.061 104.022 226.074 103.154 226.166 102.285L227.363 101.199L226.902 101.633C226.994 101.199 228.007 99.0275 228.191 98.5931C229.204 96.2043 229.665 95.77 230.309 94.9013C230.217 94.9013 229.941 95.1185 229.849 95.1185C230.033 94.6841 230.309 94.2498 230.494 93.8155C231.046 93.164 232.151 90.7752 232.243 91.2095C232.611 90.558 233.256 89.6893 233.164 89.255L233.256 89.9065C233.164 89.0378 234.269 86.8662 235.19 84.9117C235.19 84.9117 235.282 84.9117 235.282 84.6945C235.374 85.9975 236.295 82.5229 237.032 82.5229C237.032 81.6542 238.597 79.2654 238.597 78.3967C238.689 78.1796 238.781 77.9624 238.965 77.7452C239.426 77.0937 239.518 77.5281 239.794 77.3109L240.07 76.4422C240.531 76.0079 241.912 73.4019 242.833 72.0989L243.385 70.1444L243.754 69.9273C243.846 69.493 244.49 68.19 244.03 68.8415L244.49 68.19C244.306 67.5385 244.859 67.1041 245.503 65.8011C245.595 65.584 245.687 65.3668 245.872 65.1496C245.964 65.1496 245.964 65.3668 245.872 65.584C246.332 64.7153 246.24 65.3668 246.516 65.1496C246.332 65.3668 246.7 64.0638 246.884 63.1952C247.621 61.675 248.45 60.372 249.186 58.8518C249.279 59.069 249.463 59.069 250.107 57.766C249.371 59.069 249.186 60.1548 248.818 61.0235C249.094 60.5892 249.279 60.372 248.91 61.2407C249.923 59.069 249.186 60.1548 250.199 58.2003C250.292 58.8518 250.66 58.4175 251.581 56.8974L250.752 57.766C250.752 57.5489 250.844 57.5488 250.844 57.3317C250.568 57.766 250.476 57.766 250.384 57.766C250.568 57.3317 251.396 54.9429 251.673 54.9429C251.212 55.3772 251.304 54.9429 251.581 54.2914C252.225 52.9884 252.87 51.9025 253.607 50.5996C253.883 50.1652 254.343 49.5137 254.343 49.9481C254.619 49.2966 253.791 50.3824 253.883 50.1652C254.067 49.7309 254.251 49.5137 254.527 49.0794C254.804 48.6451 255.08 48.4279 255.356 47.9936L255.172 48.4279L256.093 47.1249C256.185 46.6906 255.172 48.2107 255.909 46.6906C256.185 46.4734 256.829 44.9533 256.922 45.1704C256.645 46.2562 257.106 46.0391 256.461 47.3421C257.014 46.2562 258.671 43.2159 257.842 43.8674L258.487 42.7816C258.119 43.2159 257.106 44.7361 257.658 43.4331C257.75 43.2159 257.934 42.9988 258.026 42.7816L258.119 42.5644C258.487 41.9129 258.947 41.0443 259.316 40.3928C259.408 40.3928 259.5 40.1756 259.684 39.9584L259.408 40.1756C259.592 39.7413 259.868 39.3069 260.052 38.8726C260.052 38.8726 260.052 38.8726 260.144 38.8726C260.421 38.2211 260.605 38.004 260.789 37.5696C261.065 37.1353 261.341 36.4838 261.618 36.0495C262.354 34.7465 263.644 32.3577 264.196 31.7062C265.025 29.9688 264.288 31.489 264.288 31.0547C264.38 30.8375 264.472 30.6203 264.564 30.4032C265.762 29.3173 267.787 24.7569 269.353 21.9337C269.261 21.9337 269.261 21.9337 269.261 21.9337C269.721 21.0651 270.182 20.1964 270.734 19.3277C270.734 19.3277 270.642 19.7621 270.274 20.4136L271.102 18.6762C271.839 18.0247 269.813 21.4994 270.826 20.4136C271.747 18.6762 272.207 16.7217 273.404 14.9844C273.22 16.2874 274.233 13.2471 274.141 14.3329C273.957 14.9844 273.589 15.4187 273.312 16.0702L273.589 15.8531C275.707 12.1613 274.049 14.1158 274.97 11.7269C276.259 9.33812 276.075 10.2068 276.259 10.4239C276.535 10.2068 277.088 8.90378 277.456 8.25229C276.812 9.98961 275.983 10.4239 276.167 9.77245C276.167 9.77245 276.259 9.77245 276.259 9.55528C276.812 9.12095 277.456 7.60079 278.009 6.51496C278.285 5.86347 278.653 5.42914 278.929 4.77764C279.114 4.34331 278.929 3.90898 278.469 3.69181ZM4.33687 591.993L4.06062 592.862C4.88937 590.69 4.70521 591.776 4.88937 591.559L4.70521 591.993L5.07354 591.342C4.33687 593.296 3.60021 595.033 2.95562 596.988C3.23187 595.685 3.23187 594.165 4.33687 591.993ZM1.85062 598.942C2.31104 597.857 2.58729 597.422 2.86354 597.205C2.58729 598.074 2.21896 598.725 1.94271 599.594L1.85062 598.942Z" fill="black"/>
<path d="M213.55 118.355L213.827 117.704C213.642 118.138 213.55 118.355 213.55 118.355Z" fill="black"/>
<path d="M251.028 49.9481C251.212 49.7309 251.489 49.0794 252.041 48.2108L251.028 49.9481Z" fill="black"/>
<path d="M165.022 213.474L165.299 212.822C165.114 213.256 165.022 213.256 165.022 213.474Z" fill="black"/>
<path d="M193.66 156.794C193.568 157.011 193.476 157.445 193.292 157.662C193.476 157.228 193.66 157.011 193.66 156.794Z" fill="black"/>
<path d="M2.31103 594.599C1.9427 595.468 1.75853 596.336 1.48228 597.422L2.31103 594.599Z" fill="black"/>
<path d="M252.317 54.5086C251.949 55.5944 251.028 56.6802 251.12 56.8974C251.581 56.0287 252.225 55.1601 252.317 54.5086Z" fill="black"/>
<path d="M116.955 331.612L116.679 332.263C116.863 331.829 116.955 331.829 116.955 331.612Z" fill="black"/>
<path d="M79.4769 400.887C79.4769 400.67 79.569 400.67 79.569 400.67L79.4769 400.887Z" fill="black"/>
<path d="M77.0827 405.882C77.2669 405.448 77.359 405.014 77.5431 404.796C77.2669 405.231 77.0827 405.665 77.0827 405.882Z" fill="black"/>
<path d="M1.4823 597.422L1.02188 598.942C1.20605 598.508 1.39021 597.857 1.4823 597.422Z" fill="black"/>
<path d="M195.594 153.319C195.686 153.319 195.778 153.102 195.778 152.885C195.778 152.885 195.778 152.885 195.594 153.319Z" fill="black"/>
<path d="M180.769 193.06C180.492 193.712 180.124 194.58 179.94 195.232C180.216 194.797 180.4 194.146 180.769 193.06Z" fill="black"/>
<path d="M183.991 187.414C183.991 187.414 183.991 187.629 183.991 187.414C184.084 187.414 183.991 187.414 183.991 187.414Z" fill="black"/>
<path d="M196.975 162.005L197.62 160.268L197.067 161.137C197.159 161.354 197.159 161.354 196.975 162.005Z" fill="black"/>
<path d="M174.323 207.176C174.231 207.393 174.231 207.393 174.139 207.61C174.231 207.393 174.323 207.176 174.323 207.176Z" fill="black"/>
<path d="M168.89 219.12C169.258 218.251 168.89 218.903 168.614 219.12C168.614 219.337 168.706 219.337 168.89 219.12Z" fill="black"/>
<path d="M210.604 133.557C210.696 133.34 210.696 133.122 210.696 133.122C210.604 133.34 210.604 133.557 210.604 133.557Z" fill="black"/>
<path d="M245.872 65.584C245.779 65.8011 245.595 66.0183 245.503 66.4526C245.595 66.0183 245.779 65.8011 245.872 65.584Z" fill="black"/>
<path d="M201.395 151.581C201.579 151.147 201.671 150.93 201.764 150.713C201.671 151.147 201.487 151.364 201.395 151.581Z" fill="black"/>
<path d="M245.043 67.3213L244.49 68.19L245.043 67.3213Z" fill="black"/>
<path d="M248.818 61.0235C248.634 61.4579 248.358 61.8922 248.174 62.1094C248.45 61.8922 248.634 61.4579 248.818 61.0235Z" fill="black"/>
<path d="M224.14 106.194C224.14 106.194 224.048 106.194 224.14 106.194C223.679 107.28 223.956 106.628 224.14 106.194Z" fill="black"/>
<path d="M242.925 72.0989C242.925 72.0989 242.833 72.3161 242.925 72.0989L242.741 72.5333L242.925 72.0989Z" fill="black"/>
<path d="M251.12 56.8974C251.028 57.1145 250.936 57.3317 250.844 57.5489C250.936 57.3317 251.028 57.1145 251.12 56.8974C251.12 57.1145 251.12 56.8974 251.12 56.8974Z" fill="black"/>
<path d="M232.151 91.861C232.243 91.4266 232.243 91.2095 232.243 91.2095C232.059 91.6438 231.967 91.861 232.151 91.861Z" fill="black"/>
<path d="M213.826 484.062L214.103 484.496C213.919 484.062 213.919 484.062 213.826 484.062Z" fill="black"/>
<path d="M165.759 387.858L166.035 388.509C165.943 388.075 165.851 387.858 165.759 387.858Z" fill="black"/>
<path d="M193.568 444.755C193.752 445.189 193.936 445.406 194.029 445.406C193.936 445.406 193.752 445.189 193.568 444.755Z" fill="black"/>
<path d="M3.69229 2.17166L4.79729 4.34332C4.42896 3.47465 4.06062 2.82316 3.69229 2.17166Z" fill="black"/>
<path d="M111.338 286.224L111.061 285.573C111.154 286.007 111.246 286.007 111.338 286.224Z" fill="black"/>
<path d="M81.0423 199.358C81.1344 199.358 81.1344 199.575 81.1344 199.575L81.0423 199.358Z" fill="black"/>
<path d="M78.9244 193.712C79.1086 194.146 79.2006 194.363 79.3848 194.797C79.2006 194.146 79.1086 193.929 78.9244 193.712Z" fill="black"/>
<path d="M3.69229 2.17161L3.13979 0.868622C3.32395 1.30295 3.50812 1.73728 3.69229 2.17161Z" fill="black"/>
<path d="M195.778 449.098C195.87 449.315 195.87 449.315 195.962 449.532C196.054 449.75 196.054 449.532 195.778 449.098Z" fill="black"/>
<path d="M192.463 454.093L193.292 455.396L192.831 454.31C192.739 454.527 192.739 454.527 192.463 454.093Z" fill="black"/>
<path d="M169.811 408.488C169.719 408.488 169.626 408.271 169.626 408.271C169.719 408.488 169.811 408.488 169.811 408.488Z" fill="black"/>
<path d="M163.917 397.63C164.378 398.281 164.009 397.63 163.825 396.978C163.825 397.196 163.825 397.196 163.917 397.63Z" fill="black"/>
</svg>
