<svg width="217" height="218" viewBox="0 0 217 218" fill="none" xmlns="http://www.w3.org/2000/svg">
<path d="M101.286 216.464H207.791L154.521 166.874L101.286 216.464Z" fill="#28B55F"/>
<path d="M207.791 117.283H101.286L154.521 166.874L207.791 117.283Z" fill="#28B55F"/>
<path d="M207.791 216.465V117.283L154.521 166.874L207.791 216.465Z" fill="#2D6ED3"/>
<path d="M101.286 117.283V216.465L154.521 166.874L101.286 117.283Z" fill="#2D6ED3"/>
<path d="M101.289 1.89372H1.89117V216.109H101.289V1.89372Z" fill="white" stroke="black" stroke-width="2"/>
<path d="M215.103 1.89372H101.278V116.963H215.103V1.89372Z" fill="#2D6ED3" stroke="black" stroke-width="2"/>
<path d="M207.783 116.971H101.278V216.117H207.783V116.971Z" stroke="black" stroke-width="2"/>
<path d="M215.113 116.971H207.792V216.117H215.113V116.971Z" fill="#28B55F" stroke="black" stroke-width="2"/>
<path d="M207.624 117.641C207.413 117.605 207.061 117.712 206.92 117.82C205.231 119.107 203.577 120.394 201.923 121.717H201.888C201.783 121.824 201.747 121.86 201.818 121.824C201.536 122.039 201.29 122.253 201.008 122.468C200.973 122.504 200.938 122.504 200.938 122.539C200.516 122.861 200.094 123.183 199.671 123.54C199.495 123.648 199.214 123.862 199.531 123.576C199.214 123.791 199.179 123.898 199.003 124.113C198.968 124.113 198.968 124.148 198.932 124.148C198.721 124.256 198.757 124.113 198.968 123.898L198.686 124.184V124.148L198.475 124.399C198.158 124.577 198.369 124.363 198.053 124.577V124.685L197.842 124.792C197.947 124.756 197.771 124.899 197.595 125.078V125.042L197.349 125.257C197.56 125.006 197.103 125.436 197.173 125.292C196.962 125.471 196.962 125.471 196.575 125.793H196.68C196.223 126.222 196.61 125.757 196.188 126.043L196.258 126.079C195.625 126.437 195.308 126.901 194.851 127.188C195.097 126.973 194.992 126.973 194.992 126.973C194.64 127.295 194.006 127.76 193.69 128.117C193.478 128.153 193.443 128.153 193.021 128.439C192.74 128.689 192.704 128.725 192.634 128.832C192.353 129.011 191.86 129.476 191.79 129.44C191.754 129.547 191.543 129.619 191.402 129.798H191.367L191.438 129.833C190.875 130.119 190.664 130.584 190.101 130.87L190.171 130.799L189.995 130.978C189.96 130.978 190.03 130.906 189.995 130.87L189.045 131.657L189.256 131.55C189.045 131.728 188.975 131.871 188.693 132.05C189.01 131.657 188.376 132.3 188.271 132.3L188.447 132.122C188.165 132.372 188.165 132.372 188.236 132.408C187.884 132.73 187.919 132.515 187.602 132.837L187.849 132.658C187.954 132.622 187.813 132.801 187.637 132.944C187.602 132.98 187.462 133.051 187.567 132.944C187.286 133.194 186.828 133.516 186.723 133.659C186.547 133.766 186.582 133.695 186.652 133.623C186.089 134.16 186.371 133.838 185.773 134.374V134.339L185.597 134.553L185.245 134.732L185.385 134.696C185.174 134.875 185.069 134.982 184.823 135.161L184.893 135.054C184.365 135.554 184.189 135.518 183.697 136.055C183.661 136.091 183.732 135.983 183.767 135.948C183.309 136.448 183.345 136.198 182.887 136.698C182.922 136.663 182.852 136.698 182.852 136.663L182.641 136.877L182.606 136.806L182.5 137.056L182.324 137.127L182.254 137.235C181.902 137.306 181.656 137.7 181.233 137.878L181.339 137.914C180.635 138.772 179.333 139.452 178.383 140.345L178.348 140.274L177.996 140.703C177.75 140.846 178.102 140.524 177.996 140.56C177.574 140.989 177.891 140.81 177.398 141.275C177.117 141.454 177.468 141.168 177.574 141.025C177.117 141.454 176.413 142.097 176.061 142.383V142.419C175.744 142.705 175.322 143.063 174.97 143.385C174.97 143.349 175.041 143.277 175.111 143.206C174.97 143.313 174.794 143.456 174.689 143.563L174.794 143.385C174.513 143.599 174.02 144.1 173.915 144.1C173.95 144.1 173.985 144.135 173.739 144.35C173.528 144.386 173.14 144.922 172.718 145.208C172.753 145.137 173.035 144.922 172.929 144.958C172.718 145.101 172.577 145.28 172.437 145.458L172.472 145.387L171.627 146.209C171.416 146.245 170.818 146.96 170.818 146.817C170.501 147.103 171.1 146.638 170.713 146.996C170.572 147.067 170.361 147.318 170.325 147.246L170.361 147.21L170.079 147.461L170.22 147.246C170.009 147.461 169.868 147.675 169.903 147.747C169.657 147.925 169.34 148.212 169.2 148.247L169.27 148.176C168.672 148.748 168.109 148.927 167.686 149.463C167.651 149.499 167.651 149.463 167.722 149.391L167.335 149.713L167.405 149.606L166.807 150.25V150.214C166.385 150.571 165.716 151.179 165.188 151.68L165.259 151.608C164.696 152.18 164.66 152.073 164.238 152.502C164.238 152.466 164.273 152.466 164.273 152.466L163.886 152.824L163.957 152.717C163.71 153.038 163.077 153.36 163.288 153.253C163.147 153.432 162.901 153.718 162.866 153.789C162.444 154.183 162.725 153.861 162.444 154.04C162.127 154.326 162.127 154.397 161.67 154.755V154.719C161.494 154.898 161.388 155.041 161.107 155.291L161.177 155.22C160.79 155.684 160.544 155.613 160.297 156.078C160.086 156.221 159.769 156.542 159.734 156.471C159.206 157.007 158.819 157.401 158.292 157.937C158.116 157.937 158.186 158.044 157.799 158.294L157.869 158.33C157.095 159.045 156.11 159.725 155.301 160.511L155.23 160.476L155.125 160.69C154.21 161.512 153.014 162.585 152.275 163.229C152.063 163.479 151.747 163.872 151.36 164.194L151.395 164.158C150.762 164.802 150.093 165.481 149.354 166.089C149.389 166.018 149.284 166.089 149.354 165.982C149.249 166.196 148.932 166.375 148.791 166.518L149.002 166.375C148.967 166.447 148.897 166.518 148.826 166.59V166.554L148.474 166.304C148.474 166.268 148.439 166.232 148.439 166.232L148.369 166.196L148.263 165.982C148.158 165.91 147.735 165.553 147.56 165.481C147.56 165.445 147.278 165.124 147.524 165.338L146.398 164.23L146.574 164.409C146.539 164.48 146.187 164.194 146.011 163.98C146.293 164.158 146.082 163.944 146.047 163.801C145.871 163.693 146.152 163.98 146.047 163.908C145.8 163.765 145.378 163.372 145.308 163.229L145.448 163.336C145.167 163.086 145.132 162.871 144.85 162.621C144.569 162.442 144.428 162.228 144.393 162.371C144.041 162.049 144.322 162.192 144.217 162.084C144.006 161.977 143.583 161.477 143.548 161.369C143.232 161.298 142.669 160.44 142.528 160.476L142.317 160.154C142.282 160.189 142.176 160.189 141.93 159.975C141.754 159.725 141.859 159.725 141.789 159.653L141.543 159.617C140.417 158.294 138.728 156.793 137.531 155.363C136.933 154.79 136.124 154.075 135.455 153.36L135.561 153.432L134.892 152.717L135.35 153.253C135.174 153.11 135.068 153.003 134.927 152.86C134.224 152.037 133.274 151 132.324 150.107C131.62 149.606 132.042 149.606 131.374 149.105C131.444 149.141 131.479 149.141 131.514 149.177C130.881 148.569 130.529 148.247 129.861 147.675C130.036 147.639 129.473 147.246 129.579 147.246H129.473C129.368 147.067 129.051 146.746 129.157 146.746L128.84 146.531L128.875 146.46C128.523 146.102 127.714 145.315 127.644 145.029C126.694 144.171 125.357 142.669 124.301 141.49C124.125 141.347 123.773 141.025 123.527 140.774L123.316 140.417C123.034 140.167 122.718 139.952 122.506 139.666H122.542C122.26 139.416 122.049 139.094 121.768 138.915C121.486 138.593 121.24 138.272 121.38 138.343C121.099 138.129 120.642 137.413 120.642 137.413C120.642 137.413 117.158 133.445 113.217 128.975C112.232 127.867 111.247 126.723 110.261 125.579C109.276 124.47 108.291 123.362 107.411 122.361C105.582 120.323 103.998 118.642 103.048 117.748C102.872 117.677 102.52 117.319 102.591 117.534C102.344 117.248 102.309 117.033 102.204 117.033C102.344 117.212 102.309 117.248 102.239 117.248C101.922 116.997 101.078 117.355 101.394 117.748C103.857 120.716 106.356 123.684 108.854 126.615C108.819 126.58 108.819 126.58 108.784 126.544C108.854 126.615 108.924 126.687 108.995 126.758C109.1 126.901 109.241 127.044 109.347 127.188C109.769 127.724 109.98 128.153 110.473 128.725L110.543 128.689C111.387 129.905 112.584 131.192 113.639 132.444L113.534 132.265C113.71 132.408 113.956 132.658 114.167 132.837C114.167 132.873 113.956 132.765 114.273 133.123C114.238 133.051 114.097 132.873 114.167 132.908C115.012 134.052 117.017 136.269 118.495 138.021C120.642 140.31 122.858 142.884 124.97 145.101C124.653 144.743 124.899 144.815 125.11 145.101C125.603 145.959 126.307 146.281 126.87 147.103C128.172 148.355 129.122 149.642 130.388 150.714L130.353 150.786C130.494 151 130.599 151 130.775 151.179H130.74C131.162 151.644 131.725 152.145 131.937 152.395L132.007 152.359C132.253 152.609 132.113 152.538 132.394 152.788L132.359 152.824L132.711 153.074C132.57 153.146 133.414 153.825 133.59 154.075C133.942 154.397 134.611 155.005 135.103 155.541C135.139 155.684 135.772 156.328 136.124 156.757C136.511 157.15 136.968 157.615 137.496 158.116C137.989 158.616 138.517 159.117 139.009 159.617L139.044 159.546L139.291 159.796C139.291 159.796 139.291 159.832 139.255 159.832C139.396 160.118 139.889 160.404 140.03 160.654C139.959 160.476 139.854 160.476 139.713 160.332C139.537 160.082 139.783 160.225 140.065 160.547H140.03L140.241 160.69C140.205 160.762 140.381 160.976 140.346 161.048C141.226 161.87 141.859 162.371 142.739 163.264C142.598 163.229 143.372 163.872 143.126 163.801C143.689 164.301 143.126 163.622 143.408 163.801C143.548 163.944 143.724 164.087 143.724 164.123C143.619 164.087 143.795 164.301 143.654 164.194L144.006 164.552C144.041 164.587 143.935 164.516 143.9 164.48C144.674 165.124 145.132 165.767 145.835 166.339C145.906 166.339 145.589 166.089 145.659 166.089C146.398 166.661 146.187 166.697 146.856 167.233L146.68 167.162C146.891 167.305 147.032 167.34 147.278 167.662L147.243 167.698C147.137 167.627 146.926 167.448 146.821 167.376C146.926 167.484 147.067 167.627 147.208 167.734C147.137 167.805 147.102 167.877 147.067 167.948C147.032 167.948 146.715 168.234 146.926 167.984L145.73 169.057L145.941 168.914C146.011 168.949 145.695 169.307 145.484 169.45C145.695 169.2 145.448 169.379 145.308 169.414C145.167 169.593 145.484 169.343 145.413 169.45C145.237 169.665 144.85 170.094 144.709 170.165L144.815 170.022C144.569 170.308 144.358 170.344 144.111 170.594C143.9 170.88 143.689 170.988 143.83 171.023C143.513 171.381 143.654 171.095 143.513 171.202C143.408 171.381 142.88 171.846 142.774 171.846C142.704 172.167 141.824 172.704 141.859 172.847L141.507 173.061C141.507 173.097 141.543 173.204 141.296 173.455C141.05 173.633 141.05 173.526 140.98 173.562L140.944 173.812C139.607 174.885 138.059 176.53 136.616 177.781C136.053 178.389 135.35 179.175 134.611 179.855L134.681 179.748L133.977 180.391L134.54 179.926C134.4 180.105 134.294 180.212 134.153 180.355C133.344 181.07 132.288 182 131.409 183.001C130.916 183.716 130.916 183.287 130.424 183.967C130.459 183.895 130.459 183.859 130.494 183.824C129.931 184.503 129.614 184.86 129.051 185.54C129.016 185.361 128.664 185.969 128.664 185.826V185.933C128.488 186.04 128.172 186.362 128.172 186.291L127.96 186.612L127.89 186.577C127.538 186.934 126.799 187.757 126.518 187.864C125.673 188.829 124.266 190.259 123.14 191.404C123.034 191.618 122.718 191.94 122.436 192.226L122.119 192.441C121.873 192.727 121.662 193.084 121.416 193.299V193.263C121.169 193.549 120.888 193.763 120.712 194.085C120.43 194.371 120.114 194.657 120.149 194.514C120.219 194.622 119.516 195.122 119.516 195.122C119.516 195.122 119.269 195.372 118.882 195.766C118.46 196.195 117.897 196.803 117.158 197.554C115.751 199.055 113.78 201.093 111.774 203.31C109.769 205.527 107.658 207.851 105.898 209.925C104.139 211.999 102.696 213.822 101.957 214.895C101.887 215.074 101.605 215.467 101.781 215.36C101.535 215.646 101.359 215.717 101.359 215.789C101.711 215.431 101.394 216.039 101.781 215.717L101.676 215.86C101.535 216.003 101.394 216.182 101.254 216.325C101.113 216.504 101.394 216.504 101.5 216.504C101.711 216.504 102.028 216.432 102.168 216.253C104.244 213.894 106.32 211.57 108.397 209.245C108.924 208.781 109.417 208.316 109.98 207.672C110.191 207.529 109.91 207.815 109.804 207.994C110.543 207.029 111.071 206.85 111.774 206.063L111.739 206.027C112.865 205.098 113.921 203.703 115.117 202.559L114.941 202.667C115.047 202.452 115.293 202.202 115.469 201.987C115.504 201.987 115.434 202.202 115.715 201.844C115.645 201.916 115.469 202.023 115.504 201.987C116.56 201.058 118.566 198.876 120.184 197.232C122.295 194.943 124.723 192.584 126.834 190.367C126.518 190.689 126.553 190.474 126.834 190.224C127.679 189.723 127.96 189.008 128.77 188.436C129.966 187.113 131.233 186.112 132.253 184.789L132.324 184.825C132.535 184.682 132.535 184.574 132.711 184.396V184.431C133.168 184.002 133.661 183.43 133.907 183.216L133.872 183.144C134.118 182.894 134.048 183.037 134.294 182.751L134.329 182.787L134.576 182.429C134.646 182.572 135.315 181.714 135.561 181.535C135.878 181.178 136.476 180.498 137.003 180.034C137.144 179.998 137.778 179.354 138.2 178.997C138.974 178.21 140.065 177.102 141.085 176.172L141.015 176.136L141.261 175.886C141.261 175.886 141.296 175.886 141.296 175.922C141.578 175.814 141.859 175.314 142.141 175.171C141.965 175.242 141.965 175.35 141.789 175.493C141.543 175.671 141.683 175.421 142 175.171V175.207L142.176 174.992C142.246 175.028 142.457 174.885 142.528 174.885C143.372 174.027 143.865 173.383 144.78 172.561C144.745 172.704 145.413 171.917 145.308 172.203C145.8 171.667 145.132 172.203 145.343 171.917C145.484 171.774 145.624 171.595 145.695 171.595C145.659 171.703 145.871 171.524 145.765 171.667L146.117 171.309C146.152 171.274 146.082 171.381 146.047 171.417C146.715 170.666 147.419 170.237 148.017 169.593C148.017 169.522 147.735 169.843 147.771 169.736C148.193 169.236 148.334 169.2 148.58 168.985C148.791 169.2 149.037 169.414 149.249 169.629C149.249 169.629 149.249 169.7 149.213 169.665C149.636 169.951 149.495 170.022 149.987 170.487C151.325 171.703 153.154 173.24 154.456 174.492C154.808 174.67 155.23 175.064 155.688 175.457L155.653 175.6L156.04 175.886C156.145 176.065 155.758 175.671 155.969 175.922L156.145 175.993C156.145 176.065 157.025 176.851 156.391 176.387C156.849 176.816 157.306 177.245 157.764 177.638C158.08 177.924 158.01 177.709 158.327 178.031C158.362 178.139 158.186 177.96 158.186 177.996C159.136 178.997 159.558 178.854 160.438 179.748L160.332 179.676C160.508 179.783 160.825 180.069 160.825 180.069C160.79 179.855 160.614 179.962 160.368 179.64C160.473 179.569 160.755 179.926 160.825 179.819C161.036 180.034 161.212 180.105 161.388 180.284C161.67 180.641 162.197 181.035 162.373 181.321C162.549 181.428 162.831 181.5 163.183 181.821C163.358 182.107 163.077 181.821 163.394 182.179H163.499C163.781 182.429 163.71 182.429 163.675 182.429C163.957 182.679 163.992 182.572 164.344 182.93L164.097 182.787C164.379 183.001 164.484 183.108 164.872 183.466C164.836 183.502 164.696 183.359 164.59 183.252C164.731 183.502 164.977 183.538 165.083 183.645C165.083 183.609 164.801 183.359 164.977 183.43C165.047 183.502 165.118 183.538 165.188 183.609C165.294 183.716 165.399 183.788 165.505 183.895C165.505 183.895 165.505 183.895 165.54 183.931L165.294 183.788C165.716 184.11 165.575 183.895 165.998 184.324C165.962 184.324 165.962 184.324 165.962 184.324C166.314 184.503 166.631 184.896 167.088 185.29L166.983 185.218C167.123 185.325 167.229 185.361 167.299 185.397C167.44 185.504 167.581 185.647 167.722 185.754C167.616 185.719 167.511 185.683 167.335 185.576C167.546 185.719 167.792 185.933 167.722 185.933L167.862 185.897C167.968 186.005 168.074 186.076 168.179 186.183C168.249 186.219 168.32 186.291 168.39 186.326C168.812 186.72 169.27 187.077 169.692 187.471C169.657 187.471 169.622 187.435 169.551 187.363C169.2 187.149 169.763 187.506 169.692 187.578C169.798 187.614 170.114 187.9 170.29 188.078V188.007C170.396 188.078 170.466 188.186 170.572 188.257C170.537 188.293 170.537 188.364 170.818 188.579C171.24 188.901 170.677 188.436 170.959 188.615C171.24 188.865 171.276 189.008 171.698 189.294C171.803 189.401 171.979 189.652 171.944 189.723C172.226 189.902 172.648 190.367 172.859 190.438C172.472 190.045 172.366 190.152 171.979 189.652L172.155 189.687C172.507 189.973 172.965 190.295 173.176 190.51C173.14 190.474 173.14 190.438 173.176 190.438C173.246 190.51 173.316 190.546 173.387 190.581C173.563 190.724 173.703 190.867 173.879 191.01C174.126 191.296 174.196 191.261 174.618 191.69C174.583 191.761 174.302 191.404 174.196 191.439L174.724 191.868C174.865 191.833 175.111 192.226 175.463 192.441C175.744 192.691 175.955 192.834 176.131 192.941C176.448 193.191 176.765 193.442 177.046 193.692C177.081 193.763 177.081 193.835 177.011 193.799C177.398 194.085 176.976 193.692 177.117 193.764C177.222 193.835 177.328 193.942 177.433 194.014L177.715 194.264C178.876 195.229 180.037 196.195 181.198 197.124C181.163 197.124 181.163 197.16 181.128 197.124C181.198 197.16 181.233 197.16 181.269 197.196L181.304 197.232C181.409 197.339 181.55 197.411 181.656 197.518C181.726 197.589 181.796 197.697 181.62 197.625C181.761 197.84 182.289 198.269 182.606 198.483C182.817 198.555 182.324 198.197 182.395 198.161C182.535 198.269 182.641 198.34 182.746 198.412C185.984 201.022 189.256 203.596 192.528 206.135H192.493L192.564 206.171C193.373 206.778 194.182 207.386 194.956 207.994C194.921 207.994 194.921 207.958 194.851 207.958C194.956 208.03 195.027 208.066 195.062 208.101C195.203 208.209 195.308 208.28 195.449 208.387C195.449 208.459 195.59 208.566 195.836 208.816L195.59 208.566C195.625 208.566 195.625 208.566 195.66 208.602L195.625 208.566C195.66 208.602 195.695 208.602 195.695 208.638L195.66 208.602C195.695 208.638 195.73 208.673 195.766 208.709C195.766 208.709 195.766 208.709 195.766 208.673C198.369 210.64 200.973 212.606 203.647 214.537C204.598 215.217 205.512 215.896 206.462 216.575C206.814 216.826 207.729 216.325 207.237 216.003C203.436 213.286 199.707 210.497 195.977 207.672C195.942 207.636 195.906 207.601 195.836 207.565C195.414 207.243 195.027 206.921 194.604 206.635V206.6C194.499 206.528 194.358 206.421 194.217 206.314C193.83 206.027 193.443 205.741 193.091 205.42C193.021 205.312 192.951 205.241 192.704 205.026C192.423 204.812 192.353 204.776 192.247 204.74C192.001 204.49 191.438 204.132 191.473 204.061C191.367 204.061 191.227 203.846 191.051 203.775V203.739V203.811C190.664 203.31 190.171 203.239 189.749 202.738L189.854 202.774L189.643 202.631C189.643 202.595 189.713 202.631 189.749 202.595L188.799 201.808L188.975 201.987C188.763 201.844 188.588 201.773 188.376 201.558C188.834 201.773 188.06 201.308 188.025 201.201L188.236 201.344C187.954 201.129 187.954 201.129 187.919 201.201C187.532 200.915 187.743 200.915 187.356 200.7L187.602 200.879C187.637 200.95 187.426 200.879 187.286 200.736C187.25 200.7 187.145 200.593 187.286 200.664C186.969 200.45 186.547 200.092 186.406 200.021C186.265 199.878 186.336 199.878 186.441 199.949C185.773 199.52 186.16 199.735 185.491 199.27L185.526 199.234L185.28 199.091L185.034 198.769L185.104 198.912C184.893 198.769 184.752 198.662 184.541 198.447L184.682 198.483C184.084 198.054 184.084 197.875 183.485 197.482C183.45 197.446 183.556 197.482 183.591 197.518C183.028 197.196 183.274 197.124 182.711 196.803C182.746 196.803 182.711 196.767 182.746 196.767L182.5 196.624L182.571 196.588L182.324 196.517L182.219 196.338L182.113 196.302C181.972 195.98 181.55 195.802 181.269 195.444V195.551C180.283 195.015 179.404 193.907 178.313 193.12L178.383 193.084L177.926 192.798C177.75 192.548 178.102 192.87 178.067 192.762C177.609 192.405 177.82 192.691 177.292 192.262C177.046 192.011 177.433 192.298 177.574 192.369C177.046 191.976 176.307 191.404 175.991 191.082H175.955C175.604 190.832 175.216 190.438 174.829 190.152C174.865 190.116 174.97 190.188 175.041 190.259C174.9 190.152 174.759 189.973 174.618 189.902L174.794 189.973C174.513 189.723 173.95 189.33 173.95 189.223C173.95 189.258 173.915 189.294 173.668 189.115C173.598 188.901 173 188.615 172.648 188.257C172.718 188.257 173 188.507 172.929 188.436C172.753 188.257 172.542 188.15 172.366 188.043H172.437C172.12 187.828 171.803 187.578 171.522 187.328C171.451 187.113 170.677 186.612 170.783 186.612C170.466 186.326 171.029 186.863 170.607 186.541C170.537 186.398 170.22 186.255 170.29 186.219L170.325 186.255L170.044 186.005L170.255 186.112C170.009 185.933 169.798 185.826 169.727 185.862C169.516 185.647 169.2 185.397 169.129 185.254L169.235 185.325C168.566 184.789 168.32 184.253 167.722 183.931C167.686 183.895 167.722 183.895 167.792 183.931L167.405 183.573L167.546 183.609L166.842 183.108L166.877 183.073C166.455 182.679 165.786 182.143 165.223 181.678L165.329 181.75C164.696 181.285 164.766 181.213 164.309 180.856C164.344 180.856 164.344 180.856 164.379 180.892L163.992 180.534L164.097 180.57C163.746 180.391 163.358 179.748 163.464 179.962C163.288 179.855 162.971 179.64 162.901 179.604C162.479 179.211 162.831 179.461 162.584 179.211C162.268 178.925 162.197 178.925 161.775 178.532L161.81 178.496C161.599 178.317 161.458 178.246 161.212 177.996L161.318 178.067C160.825 177.745 160.825 177.495 160.368 177.316C160.192 177.137 159.84 176.816 159.91 176.78C159.312 176.315 158.89 175.957 158.327 175.493C158.327 175.314 158.221 175.385 157.94 175.028L157.905 175.099C157.13 174.384 156.356 173.455 155.512 172.704L155.547 172.632L155.336 172.525C154.456 171.667 153.295 170.558 152.591 169.915C152.345 169.736 151.923 169.45 151.571 169.092L151.606 169.128C151.078 168.663 150.55 168.199 150.023 167.662C150.093 167.591 150.199 167.555 150.269 167.519C150.269 167.484 149.987 167.734 150.128 167.555C150.515 167.233 151.078 166.697 151.536 166.304C151.536 166.339 151.606 166.304 151.571 166.375C151.852 165.946 151.958 166.125 152.415 165.624C153.717 164.373 155.406 162.692 156.743 161.512C156.954 161.155 157.377 160.762 157.799 160.368L157.94 160.44L158.256 160.082C158.432 159.975 158.01 160.368 158.292 160.154L158.362 159.975C158.432 159.975 159.277 159.153 158.749 159.796L160.121 158.545C160.438 158.259 160.227 158.294 160.579 158.008C160.684 157.973 160.473 158.151 160.544 158.151C161.634 157.329 161.529 156.9 162.514 156.078L162.444 156.149C162.584 155.97 162.901 155.72 162.866 155.684C162.655 155.684 162.76 155.899 162.408 156.078C162.373 155.97 162.725 155.72 162.655 155.649C162.901 155.47 163.007 155.327 163.183 155.148C163.57 154.898 163.992 154.433 164.309 154.29C164.449 154.111 164.555 153.861 164.907 153.539C165.223 153.396 164.907 153.646 165.259 153.36V153.253C165.54 153.003 165.505 153.074 165.505 153.11C165.822 152.86 165.681 152.824 166.103 152.538L166.068 152.788C166.314 152.538 166.455 152.431 166.842 152.109C166.842 152.145 166.701 152.288 166.596 152.359C166.877 152.252 166.912 152.002 167.053 151.93C167.018 151.93 166.736 152.145 166.807 152.002C167.018 151.859 167.159 151.572 167.335 151.501L167.159 151.751C167.511 151.358 167.335 151.501 167.792 151.108C167.757 151.143 167.792 151.143 167.792 151.143C168.038 150.822 168.461 150.536 168.883 150.178L168.812 150.25C168.988 150.071 169.024 149.964 169.129 149.856C168.848 150.035 168.918 149.964 168.848 149.928C169.235 149.713 169.27 149.391 169.833 148.962C169.833 148.998 169.762 149.141 169.587 149.248C169.481 149.499 169.516 149.57 169.235 149.928C169.411 149.749 169.657 149.499 169.622 149.606V149.463C169.727 149.356 169.833 149.284 169.938 149.177C169.938 149.07 169.622 149.32 169.868 149.034C170.15 148.712 170.114 148.962 170.114 148.891C170.537 148.462 170.22 148.641 170.677 148.319C170.642 148.355 170.572 148.462 170.537 148.462C170.853 148.212 171.276 147.782 171.451 147.818C171.416 147.89 171.451 147.925 171.311 147.997V147.961C171.064 148.283 171.487 147.782 171.522 147.854C171.557 147.747 171.909 147.461 172.085 147.318H171.979C172.472 146.567 172.05 147.461 172.648 146.889C173.035 146.495 172.472 146.996 172.683 146.746C172.965 146.531 173.105 146.495 173.492 146.102C173.633 146.03 173.879 145.852 173.95 145.923C174.161 145.673 174.724 145.315 174.794 145.137C174.337 145.423 174.442 145.566 173.879 145.887L173.95 145.709C174.302 145.423 174.689 145.029 174.935 144.851C174.865 144.886 174.829 144.886 174.865 144.851C175.322 144.421 175.392 144.243 175.885 143.849C175.991 143.849 175.709 144.064 175.533 144.243C175.885 144.028 175.85 143.992 176.342 143.599C176.413 143.635 176.026 143.849 176.026 143.957L176.518 143.492C176.518 143.349 176.905 143.17 177.222 142.884C177.961 142.24 177.996 142.026 178.348 141.597C178.489 141.525 178.524 141.525 178.489 141.597C178.278 141.704 178.348 141.704 178.278 141.811C178.524 141.597 178.911 141.418 178.806 141.597C179.193 141.239 178.63 141.668 178.841 141.454L179.404 140.989C179.298 140.989 179.087 141.168 179.369 140.882C179.615 140.667 179.72 140.596 180.037 140.31C180.002 140.381 180.178 140.31 179.967 140.488C180.143 140.381 180.389 140.167 180.424 140.059C180.037 140.31 180.952 139.559 180.635 139.702L181.022 139.452C180.952 139.523 180.952 139.559 180.846 139.63C180.987 139.63 181.128 139.38 181.233 139.273C181.374 139.201 181.691 138.915 181.726 138.915C181.832 138.808 182.113 138.593 182.183 138.593C182.324 138.45 182.148 138.522 182.183 138.486L182.746 138.021C182.817 138.021 182.922 138.093 182.852 138.2C183.028 137.986 182.852 138.021 183.169 137.771C183.063 137.986 183.626 137.485 183.45 137.771C183.661 137.664 184.189 137.235 184.471 136.984C184.611 136.77 184.154 137.199 184.119 137.127C184.893 136.448 184.823 136.234 185.421 135.769L185.245 135.876C185.28 135.84 185.315 135.804 185.35 135.769C185.491 135.626 185.667 135.518 185.808 135.375C185.984 135.304 186.441 135.054 186.863 134.696C186.899 134.625 186.511 134.875 186.511 134.768C186.652 134.66 186.758 134.553 186.899 134.446L186.863 134.482C187.215 134.16 187.602 134.017 187.637 133.874L188.095 133.695L187.919 133.766C187.954 133.695 188.341 133.337 188.412 133.266C188.799 132.873 188.975 132.801 189.221 132.658C189.186 132.658 189.08 132.694 189.045 132.694C189.115 132.622 189.221 132.551 189.291 132.479C189.502 132.372 189.925 131.979 189.96 132.05C190.101 131.943 190.347 131.8 190.312 131.728L190.347 131.836C190.312 131.693 190.734 131.335 191.086 131.013C191.086 131.013 191.121 131.013 191.121 130.978C191.156 131.192 191.508 130.62 191.79 130.62C191.79 130.477 192.388 130.084 192.388 129.941C192.423 129.905 192.458 129.869 192.528 129.833C192.704 129.726 192.74 129.798 192.845 129.762L192.951 129.619C193.127 129.547 193.654 129.118 194.006 128.904L194.217 128.582L194.358 128.546C194.393 128.475 194.64 128.26 194.464 128.367L194.64 128.26C194.569 128.153 194.78 128.081 195.027 127.867C195.062 127.831 195.097 127.795 195.167 127.76C195.203 127.76 195.203 127.795 195.167 127.831C195.343 127.688 195.308 127.795 195.414 127.76C195.343 127.795 195.484 127.581 195.555 127.438C195.836 127.188 196.153 126.973 196.434 126.723C196.469 126.758 196.54 126.758 196.786 126.544C196.505 126.758 196.434 126.937 196.293 127.08C196.399 127.009 196.469 126.973 196.329 127.116C196.716 126.758 196.434 126.937 196.821 126.615C196.856 126.723 196.997 126.651 197.349 126.401L197.032 126.544C197.032 126.508 197.068 126.508 197.068 126.472C196.962 126.544 196.927 126.544 196.892 126.544C196.962 126.472 197.279 126.079 197.384 126.079C197.208 126.151 197.243 126.079 197.349 125.972C197.595 125.757 197.842 125.579 198.123 125.364C198.229 125.292 198.405 125.185 198.405 125.257C198.51 125.149 198.194 125.328 198.229 125.292C198.299 125.221 198.369 125.185 198.475 125.114C198.581 125.042 198.686 125.006 198.792 124.935L198.721 125.006L199.073 124.792C199.108 124.72 198.721 124.971 199.003 124.72C199.108 124.685 199.355 124.434 199.39 124.47C199.284 124.649 199.46 124.613 199.214 124.828C199.425 124.649 200.058 124.148 199.742 124.256L199.988 124.077C199.847 124.148 199.46 124.399 199.671 124.184C199.707 124.148 199.777 124.113 199.812 124.077L199.847 124.041C199.988 123.934 200.164 123.791 200.305 123.684C200.34 123.684 200.375 123.648 200.445 123.612L200.34 123.648C200.41 123.576 200.516 123.505 200.586 123.433C200.586 123.433 200.586 123.433 200.621 123.433C200.727 123.326 200.797 123.29 200.868 123.219C200.973 123.147 201.079 123.04 201.184 122.968C201.466 122.754 201.959 122.361 202.17 122.253C202.486 121.967 202.205 122.218 202.205 122.146C202.24 122.11 202.275 122.075 202.31 122.039C202.768 121.86 203.542 121.109 204.14 120.644C204.105 120.644 204.105 120.644 204.105 120.644C204.281 120.501 204.457 120.358 204.668 120.215C204.668 120.215 204.633 120.287 204.492 120.394L204.809 120.108C205.09 120.001 204.316 120.573 204.703 120.394C205.055 120.108 205.231 119.786 205.688 119.5C205.618 119.715 206.005 119.214 205.97 119.393C205.899 119.5 205.759 119.572 205.653 119.679L205.759 119.643C206.568 119.035 205.935 119.357 206.287 118.964C206.779 118.571 206.709 118.714 206.779 118.749C206.885 118.714 207.096 118.499 207.237 118.392C206.99 118.678 206.674 118.749 206.744 118.642C206.744 118.642 206.779 118.642 206.779 118.606C206.99 118.535 207.237 118.284 207.448 118.106C207.553 117.998 207.694 117.927 207.8 117.82C207.87 117.748 207.8 117.677 207.624 117.641ZM102.872 214.501L102.767 214.644C103.083 214.287 103.013 214.466 103.083 214.43L103.013 214.501L103.154 214.394C102.872 214.716 102.591 215.002 102.344 215.324C102.45 215.109 102.45 214.859 102.872 214.501ZM101.922 215.646C102.098 215.467 102.204 215.395 102.309 215.36C102.204 215.503 102.063 215.61 101.957 215.753L101.922 215.646Z" fill="black"/>
<path d="M182.453 136.491L182.559 136.384C182.488 136.455 182.453 136.491 182.453 136.491Z" fill="black"/>
<path d="M196.917 125.245C196.988 125.209 197.094 125.102 197.307 124.959L196.917 125.245Z" fill="black"/>
<path d="M163.725 152.129L163.831 152.021C163.76 152.093 163.725 152.093 163.725 152.129Z" fill="black"/>
<path d="M174.777 142.81C174.741 142.846 174.706 142.917 174.635 142.953C174.706 142.882 174.777 142.846 174.777 142.81Z" fill="black"/>
<path d="M100.931 214.786C100.788 214.929 100.717 215.072 100.611 215.251L100.931 214.786Z" fill="black"/>
<path d="M197.414 125.994C197.272 126.173 196.917 126.351 196.952 126.387C197.13 126.244 197.379 126.102 197.414 125.994Z" fill="black"/>
<path d="M145.174 171.551L145.068 171.658C145.139 171.586 145.174 171.586 145.174 171.551Z" fill="black"/>
<path d="M130.711 182.939C130.711 182.904 130.746 182.904 130.746 182.904L130.711 182.939Z" fill="black"/>
<path d="M129.787 183.761C129.858 183.69 129.893 183.618 129.965 183.582C129.858 183.654 129.787 183.725 129.787 183.761Z" fill="black"/>
<path d="M100.611 215.251L100.433 215.5C100.504 215.429 100.575 215.322 100.611 215.251Z" fill="black"/>
<path d="M175.523 142.239C175.559 142.239 175.594 142.203 175.594 142.168C175.594 142.168 175.594 142.168 175.523 142.239Z" fill="black"/>
<path d="M169.802 148.773C169.695 148.88 169.553 149.022 169.482 149.13C169.589 149.058 169.66 148.951 169.802 148.773Z" fill="black"/>
<path d="M171.046 147.844C171.046 147.844 171.046 147.88 171.046 147.844C171.082 147.844 171.046 147.844 171.046 147.844Z" fill="black"/>
<path d="M176.056 143.667L176.305 143.381L176.092 143.524C176.127 143.56 176.127 143.56 176.056 143.667Z" fill="black"/>
<path d="M167.313 151.093C167.278 151.128 167.278 151.128 167.243 151.164C167.278 151.128 167.313 151.093 167.313 151.093Z" fill="black"/>
<path d="M165.217 153.057C165.359 152.914 165.217 153.021 165.111 153.057C165.111 153.093 165.146 153.093 165.217 153.057Z" fill="black"/>
<path d="M181.316 138.989C181.351 138.954 181.351 138.919 181.351 138.919C181.316 138.954 181.316 138.989 181.316 138.989Z" fill="black"/>
<path d="M194.926 127.815C194.891 127.851 194.82 127.887 194.784 127.958C194.82 127.887 194.891 127.851 194.926 127.815Z" fill="black"/>
<path d="M177.762 141.953C177.833 141.882 177.869 141.846 177.904 141.811C177.869 141.882 177.797 141.918 177.762 141.953Z" fill="black"/>
<path d="M194.607 128.101L194.393 128.244L194.607 128.101Z" fill="black"/>
<path d="M196.064 127.065C195.993 127.137 195.886 127.208 195.815 127.244C195.922 127.208 195.993 127.137 196.064 127.065Z" fill="black"/>
<path d="M186.54 134.492C186.54 134.492 186.504 134.492 186.54 134.492C186.362 134.67 186.469 134.563 186.54 134.492Z" fill="black"/>
<path d="M193.789 128.886C193.789 128.886 193.753 128.922 193.789 128.886L193.718 128.957L193.789 128.886Z" fill="black"/>
<path d="M196.952 126.387C196.917 126.423 196.881 126.459 196.845 126.494C196.881 126.459 196.917 126.423 196.952 126.387C196.952 126.423 196.952 126.387 196.952 126.387Z" fill="black"/>
<path d="M189.632 132.135C189.667 132.064 189.667 132.028 189.667 132.028C189.596 132.1 189.56 132.135 189.632 132.135Z" fill="black"/>
<path d="M182.56 196.614L182.666 196.685C182.595 196.614 182.595 196.614 182.56 196.614Z" fill="black"/>
<path d="M164.009 180.798L164.116 180.905C164.08 180.833 164.045 180.798 164.009 180.798Z" fill="black"/>
<path d="M174.741 190.152C174.812 190.223 174.883 190.259 174.919 190.259C174.883 190.259 174.812 190.223 174.741 190.152Z" fill="black"/>
<path d="M101.464 117.39L101.89 117.747C101.748 117.604 101.606 117.497 101.464 117.39Z" fill="black"/>
<path d="M143.007 164.089L142.9 163.982C142.936 164.053 142.971 164.053 143.007 164.089Z" fill="black"/>
<path d="M131.315 149.808C131.35 149.808 131.35 149.843 131.35 149.843L131.315 149.808Z" fill="black"/>
<path d="M130.498 148.88C130.569 148.951 130.604 148.987 130.675 149.058C130.604 148.951 130.569 148.915 130.498 148.88Z" fill="black"/>
<path d="M101.464 117.39L101.25 117.176C101.322 117.247 101.393 117.319 101.464 117.39Z" fill="black"/>
<path d="M175.594 190.866C175.63 190.901 175.63 190.901 175.665 190.937C175.701 190.973 175.701 190.937 175.594 190.866Z" fill="black"/>
<path d="M174.315 191.687L174.635 191.901L174.457 191.723C174.422 191.758 174.422 191.758 174.315 191.687Z" fill="black"/>
<path d="M165.573 184.189C165.537 184.189 165.502 184.154 165.502 184.154C165.537 184.189 165.573 184.189 165.573 184.189Z" fill="black"/>
<path d="M163.298 182.404C163.476 182.511 163.334 182.404 163.263 182.297C163.263 182.333 163.263 182.333 163.298 182.404Z" fill="black"/>
<path d="M214.717 2.77259C214.492 2.73133 214.117 2.85512 213.967 2.97892C212.165 4.46449 210.401 5.95005 208.637 7.47689H208.6C208.487 7.60068 208.449 7.64195 208.525 7.60068C208.224 7.84828 207.962 8.09587 207.661 8.34347C207.624 8.38473 207.586 8.38473 207.586 8.426C207.136 8.79739 206.685 9.16878 206.235 9.58144C206.047 9.70524 205.747 9.95283 206.085 9.6227C205.747 9.8703 205.71 9.9941 205.522 10.2417C205.484 10.2417 205.484 10.283 205.447 10.283C205.222 10.4068 205.259 10.2417 205.484 9.9941L205.184 10.3242V10.283L204.959 10.5718C204.621 10.7781 204.846 10.5306 204.509 10.7781V10.9019L204.283 11.0257C204.396 10.9845 204.208 11.1495 204.021 11.3559V11.3146L203.758 11.5622C203.983 11.2733 203.495 11.7685 203.57 11.6035C203.345 11.8098 203.345 11.8098 202.932 12.1812H203.045C202.557 12.6764 202.97 12.1399 202.519 12.47L202.594 12.5113C201.919 12.924 201.581 13.4604 201.093 13.7905C201.356 13.5429 201.243 13.5429 201.243 13.5429C200.868 13.9143 200.192 14.4508 199.854 14.8635C199.629 14.9047 199.592 14.9047 199.141 15.2348C198.841 15.5237 198.804 15.565 198.728 15.6888C198.428 15.8951 197.903 16.4316 197.828 16.3903C197.79 16.5141 197.565 16.5966 197.415 16.8029H197.377L197.452 16.8442C196.852 17.1743 196.627 17.7108 196.026 18.0409L196.101 17.9584L195.914 18.1647C195.876 18.1647 195.951 18.0822 195.914 18.0409L194.9 18.9488L195.125 18.825C194.9 19.0313 194.825 19.1964 194.525 19.4027C194.863 18.9488 194.187 19.6915 194.074 19.6915L194.262 19.4852C193.962 19.7741 193.962 19.7741 194.037 19.8153C193.662 20.1867 193.699 19.9391 193.361 20.3105L193.624 20.1042C193.737 20.0629 193.587 20.2693 193.399 20.4343C193.361 20.4756 193.211 20.5581 193.324 20.4343C193.024 20.7232 192.536 21.0946 192.423 21.2596C192.235 21.3834 192.273 21.3009 192.348 21.2184C191.747 21.8374 192.048 21.466 191.41 22.085V22.0437L191.222 22.2913L190.847 22.4976L190.997 22.4563C190.772 22.6627 190.659 22.7865 190.396 22.9928L190.471 22.869C189.908 23.4467 189.721 23.4055 189.195 24.0244C189.158 24.0657 189.233 23.9419 189.27 23.9006C188.782 24.4784 188.82 24.1895 188.332 24.7672C188.369 24.726 188.294 24.7672 188.294 24.726L188.069 24.9736L188.032 24.891L187.919 25.1799L187.731 25.2624L187.656 25.3862C187.281 25.4687 187.018 25.9227 186.568 26.129L186.68 26.1703C185.93 27.1606 184.541 27.9447 183.528 28.9763L183.49 28.8938L183.115 29.389C182.852 29.5541 183.227 29.1827 183.115 29.2239C182.664 29.7191 183.002 29.5128 182.477 30.0492C182.177 30.2556 182.552 29.9254 182.664 29.7604C182.177 30.2556 181.426 30.9984 181.051 31.3285V31.3697C180.713 31.6999 180.262 32.1125 179.887 32.4839C179.887 32.4427 179.962 32.3601 180.037 32.2776C179.887 32.4014 179.699 32.5665 179.587 32.6903L179.699 32.4839C179.399 32.7315 178.874 33.3092 178.761 33.3092C178.799 33.3092 178.836 33.3505 178.573 33.5981C178.348 33.6394 177.935 34.2584 177.485 34.5885C177.522 34.5059 177.823 34.2583 177.71 34.2996C177.485 34.4647 177.335 34.671 177.185 34.8773L177.222 34.7948L176.321 35.7439C176.096 35.7852 175.458 36.6105 175.458 36.4454C175.12 36.7756 175.758 36.2391 175.346 36.6518C175.195 36.7343 174.97 37.0232 174.933 36.9406L174.97 36.8994L174.67 37.1882L174.82 36.9406C174.595 37.1882 174.445 37.4358 174.482 37.5183C174.22 37.7247 173.882 38.0548 173.732 38.0961L173.807 38.0135C173.169 38.6738 172.568 38.8801 172.118 39.4991C172.08 39.5404 172.08 39.4991 172.155 39.4166L171.742 39.788L171.818 39.6642L171.179 40.4069V40.3657C170.729 40.7783 170.016 41.4799 169.453 42.0576L169.528 41.975C168.928 42.6353 168.89 42.5115 168.44 43.0067C168.44 42.9654 168.477 42.9654 168.477 42.9654L168.064 43.3781L168.139 43.2543C167.877 43.6257 167.201 43.9971 167.426 43.8733C167.276 44.0796 167.013 44.4097 166.976 44.4923C166.525 44.9462 166.826 44.5748 166.525 44.7811C166.188 45.1112 166.188 45.1938 165.7 45.6064V45.5652C165.512 45.7715 165.399 45.9366 165.099 46.2254L165.174 46.1429C164.761 46.6793 164.499 46.5968 164.236 47.1333C164.011 47.2983 163.673 47.6697 163.635 47.5872C163.072 48.2062 162.66 48.6601 162.097 49.2791C161.909 49.2791 161.984 49.4029 161.571 49.6917L161.646 49.733C160.82 50.5583 159.77 51.3424 158.906 52.2502L158.831 52.2089L158.719 52.4565C157.743 53.4057 156.467 54.6436 155.678 55.3864C155.453 55.6753 155.115 56.1292 154.703 56.5006L154.74 56.4593C154.065 57.2021 153.351 57.9861 152.563 58.6877C152.601 58.6051 152.488 58.6877 152.563 58.5639C152.451 58.8115 152.113 59.0178 151.963 59.1828L152.188 59.0178C152.15 59.1003 152.075 59.1829 152 59.2654V59.2241L151.625 58.9353C151.625 58.894 151.587 58.8527 151.587 58.8527L151.512 58.8115L151.4 58.5639C151.287 58.4813 150.837 58.0687 150.649 57.9861C150.649 57.9449 150.349 57.5735 150.612 57.8211L149.411 56.5418L149.598 56.7482C149.561 56.8307 149.185 56.5006 148.998 56.253C149.298 56.4593 149.073 56.2117 149.035 56.0467C148.848 55.9229 149.148 56.253 149.035 56.1705C148.772 56.0054 148.322 55.5515 148.247 55.3864L148.397 55.5102C148.097 55.2213 148.059 54.9737 147.759 54.6849C147.459 54.4786 147.309 54.231 147.271 54.396C146.896 54.0246 147.196 54.1897 147.083 54.0659C146.858 53.9421 146.408 53.3644 146.37 53.2406C146.033 53.1581 145.432 52.1677 145.282 52.2089L145.057 51.8376C145.019 51.8788 144.907 51.8788 144.644 51.6312C144.456 51.3424 144.569 51.3424 144.494 51.2598L144.231 51.2186C143.03 49.6917 141.228 47.9586 139.952 46.3079C139.314 45.6477 138.451 44.8224 137.738 43.9971L137.85 44.0796L137.137 43.2543L137.625 43.8733C137.438 43.7082 137.325 43.5844 137.175 43.4193C136.424 42.4702 135.411 41.2735 134.397 40.2419C133.647 39.6642 134.097 39.6642 133.384 39.0864C133.459 39.1277 133.497 39.1277 133.534 39.169C132.859 38.4675 132.483 38.0961 131.77 37.4358C131.958 37.3945 131.357 36.9406 131.47 36.9406H131.357C131.245 36.7343 130.907 36.3629 131.019 36.3629L130.682 36.1153L130.719 36.0328C130.344 35.6201 129.481 34.7123 129.406 34.3821C128.392 33.3918 126.966 31.6586 125.84 30.2968C125.652 30.1318 125.277 29.7604 125.014 29.4715L124.789 29.0589C124.489 28.77 124.151 28.5224 123.926 28.1923H123.963C123.663 27.9034 123.438 27.532 123.138 27.3257C122.837 26.9543 122.575 26.5829 122.725 26.6655C122.424 26.4179 121.937 25.5925 121.937 25.5925C121.937 25.5925 118.221 21.012 114.017 15.8538C112.966 14.5746 111.915 13.2541 110.864 11.9336C109.813 10.6543 108.763 9.37511 107.824 8.21967C105.873 5.86752 104.184 3.92803 103.17 2.89639C102.983 2.81386 102.607 2.4012 102.682 2.6488C102.42 2.31867 102.382 2.07108 102.269 2.07108C102.42 2.2774 102.382 2.31867 102.307 2.31867C101.969 2.02981 101.068 2.44247 101.406 2.89639C104.033 6.32145 106.698 9.7465 109.363 13.1303C109.326 13.089 109.326 13.089 109.288 13.0478C109.363 13.1303 109.438 13.2128 109.513 13.2954C109.626 13.4604 109.776 13.6255 109.889 13.7905C110.339 14.4095 110.564 14.9047 111.09 15.565L111.165 15.5237C112.065 16.9267 113.342 18.4123 114.468 19.8566L114.355 19.6503C114.543 19.8153 114.805 20.1042 115.031 20.3105C115.031 20.3518 114.805 20.228 115.143 20.6407C115.106 20.5581 114.955 20.3518 115.031 20.3931C115.931 21.7136 118.071 24.272 119.647 26.2941C121.937 28.9351 124.301 31.9062 126.553 34.4647C126.215 34.052 126.478 34.1346 126.703 34.4647C127.229 35.4551 127.979 35.8264 128.58 36.7756C129.969 38.2199 130.982 39.7054 132.333 40.9434L132.296 41.0259C132.446 41.2735 132.558 41.2735 132.746 41.4799H132.708C133.159 42.0163 133.759 42.594 133.985 42.8829L134.06 42.8416C134.322 43.1305 134.172 43.048 134.472 43.3368L134.435 43.3781L134.81 43.6669C134.66 43.7495 135.561 44.5335 135.749 44.8224C136.124 45.1938 136.837 45.8953 137.362 46.5143C137.4 46.6793 138.076 47.4221 138.451 47.9173C138.864 48.3712 139.352 48.9077 139.915 49.4854C140.44 50.0631 141.003 50.6408 141.529 51.2186L141.566 51.136L141.829 51.4249C141.829 51.4249 141.829 51.4662 141.791 51.4662C141.941 51.7963 142.467 52.1264 142.617 52.4153C142.542 52.2089 142.429 52.2089 142.279 52.0439C142.092 51.755 142.354 51.9201 142.655 52.2915H142.617L142.842 52.4565C142.805 52.5391 142.992 52.7867 142.955 52.8692C143.893 53.8183 144.569 54.396 145.507 55.4277C145.357 55.3864 146.183 56.1292 145.92 56.0467C146.52 56.6244 145.92 55.8403 146.22 56.0467C146.37 56.2117 146.558 56.3768 146.558 56.418C146.445 56.3768 146.633 56.6244 146.483 56.5006L146.858 56.9132C146.896 56.9545 146.783 56.872 146.746 56.8307C147.571 57.5735 148.059 58.3163 148.81 58.9765C148.885 58.9765 148.547 58.6877 148.622 58.6877C149.41 59.3479 149.185 59.3892 149.898 60.0082L149.711 59.9256C149.936 60.0907 150.086 60.132 150.349 60.5034L150.311 60.5446C150.199 60.4621 149.973 60.2558 149.861 60.1732C149.973 60.297 150.124 60.4621 150.274 60.5859C150.199 60.6684 150.161 60.7509 150.124 60.8335C150.086 60.8335 149.748 61.1636 149.973 60.8747L148.697 62.1127L148.923 61.9477C148.998 61.9889 148.66 62.4016 148.435 62.5666C148.66 62.2778 148.397 62.4841 148.247 62.5254C148.097 62.7317 148.435 62.4428 148.36 62.5666C148.172 62.8142 147.759 63.3094 147.609 63.392L147.722 63.2269C147.459 63.557 147.234 63.5983 146.971 63.8871C146.746 64.2173 146.52 64.3411 146.671 64.3823C146.333 64.795 146.483 64.4649 146.333 64.5887C146.22 64.795 145.657 65.3314 145.545 65.3314C145.47 65.7028 144.531 66.3218 144.569 66.4869L144.193 66.7345C144.193 66.7757 144.231 66.8995 143.968 67.1884C143.706 67.3947 143.706 67.2709 143.63 67.3122L143.593 67.6011C142.167 68.839 140.515 70.7373 138.976 72.1816C138.376 72.8831 137.625 73.7909 136.837 74.575L136.912 74.4512L136.161 75.194L136.762 74.6575C136.612 74.8638 136.499 74.9876 136.349 75.1527C135.486 75.978 134.36 77.0509 133.422 78.2064C132.896 79.0317 132.896 78.5365 132.371 79.3205C132.408 79.238 132.408 79.1967 132.446 79.1555C131.845 79.9395 131.507 80.3522 130.907 81.1362C130.869 80.9299 130.494 81.6314 130.494 81.4663V81.5901C130.306 81.7139 129.969 82.0853 129.969 82.0028L129.743 82.3742L129.668 82.3329C129.293 82.7456 128.505 83.6947 128.205 83.8185C127.304 84.9327 125.802 86.5833 124.601 87.9038C124.489 88.1514 124.151 88.5228 123.851 88.8529L123.513 89.1005C123.25 89.4306 123.025 89.8433 122.762 90.0909V90.0496C122.5 90.3797 122.199 90.6273 122.012 90.9987C121.711 91.3289 121.374 91.659 121.411 91.4939C121.486 91.6177 120.736 92.1954 120.736 92.1954C120.736 92.1954 120.473 92.4843 120.06 92.9382C119.61 93.4334 119.009 94.1349 118.221 95.0015C116.72 96.7347 114.618 99.0868 112.478 101.645C110.339 104.204 108.087 106.886 106.21 109.279C104.334 111.673 102.795 113.777 102.007 115.015C101.932 115.222 101.631 115.676 101.819 115.552C101.556 115.882 101.369 115.965 101.369 116.047C101.744 115.634 101.406 116.336 101.819 115.965L101.706 116.13C101.556 116.295 101.406 116.501 101.256 116.666C101.106 116.872 101.406 116.872 101.519 116.872C101.744 116.872 102.082 116.79 102.232 116.583C104.446 113.86 106.661 111.178 108.875 108.495C109.438 107.959 109.964 107.422 110.564 106.68C110.789 106.515 110.489 106.845 110.376 107.051C111.165 105.937 111.728 105.731 112.478 104.823L112.441 104.781C113.642 103.709 114.768 102.099 116.044 100.779L115.856 100.903C115.969 100.655 116.232 100.366 116.419 100.118C116.457 100.118 116.382 100.366 116.682 99.9534C116.607 100.036 116.419 100.16 116.457 100.118C117.583 99.0456 119.722 96.5283 121.449 94.6301C123.701 91.9891 126.29 89.2656 128.542 86.7071C128.205 87.0785 128.242 86.8309 128.542 86.542C129.443 85.9643 129.743 85.139 130.607 84.4787C131.883 82.9519 133.234 81.7965 134.322 80.2696L134.397 80.3109C134.623 80.1458 134.623 80.022 134.81 79.8157V79.857C135.298 79.3618 135.824 78.7015 136.086 78.4539L136.049 78.3714C136.312 78.0826 136.237 78.2476 136.499 77.9175L136.537 77.9588L136.8 77.5461C136.875 77.7112 137.588 76.7208 137.85 76.5145C138.188 76.1018 138.826 75.3177 139.389 74.7813C139.539 74.74 140.215 73.9973 140.665 73.5846C141.491 72.6768 142.655 71.3975 143.743 70.3246L143.668 70.2833L143.931 69.9945C143.931 69.9945 143.968 69.9945 143.968 70.0357C144.269 69.9119 144.569 69.3342 144.869 69.1692C144.681 69.2517 144.681 69.3755 144.494 69.5406C144.231 69.7469 144.381 69.458 144.719 69.1692V69.2104L144.907 68.9628C144.982 69.0041 145.207 68.839 145.282 68.839C146.183 67.8487 146.708 67.1059 147.684 66.1568C147.646 66.3218 148.36 65.414 148.247 65.7441C148.772 65.1251 148.059 65.7441 148.285 65.414C148.435 65.2489 148.585 65.0426 148.66 65.0426C148.622 65.1664 148.848 64.9601 148.735 65.1251L149.11 64.7125C149.148 64.6712 149.073 64.795 149.035 64.8363C149.748 63.9697 150.499 63.4745 151.137 62.7317C151.137 62.6492 150.837 63.0206 150.874 62.8968C151.325 62.319 151.475 62.2778 151.738 62.0302C151.963 62.2778 152.225 62.5254 152.451 62.773C152.451 62.773 152.451 62.8555 152.413 62.8142C152.864 63.1444 152.713 63.2269 153.239 63.7633C154.665 65.1664 156.617 66.9408 158.005 68.3851C158.381 68.5914 158.831 69.0454 159.319 69.4993L159.282 69.6644L159.694 69.9945C159.807 70.2008 159.394 69.7469 159.619 70.0357L159.807 70.1183C159.807 70.2008 160.745 71.1087 160.07 70.5722C160.558 71.0674 161.046 71.5626 161.534 72.0165C161.871 72.3466 161.796 72.099 162.134 72.4704C162.172 72.5942 161.984 72.3879 161.984 72.4292C162.997 73.5846 163.448 73.4195 164.386 74.4512L164.273 74.3686C164.461 74.4924 164.799 74.8226 164.799 74.8226C164.761 74.575 164.574 74.6988 164.311 74.3274C164.424 74.2448 164.724 74.6575 164.799 74.5337C165.024 74.7813 165.212 74.8638 165.399 75.0702C165.7 75.4828 166.263 75.9367 166.45 76.2669C166.638 76.3907 166.938 76.4732 167.314 76.8446C167.501 77.1747 167.201 76.8446 167.539 77.2572H167.651C167.952 77.5461 167.877 77.5461 167.839 77.5461C168.139 77.835 168.177 77.7112 168.552 78.1238L168.289 77.9588C168.59 78.2064 168.702 78.3302 169.115 78.7428C169.078 78.7841 168.928 78.619 168.815 78.4952C168.965 78.7841 169.228 78.8253 169.34 78.9491C169.34 78.9079 169.04 78.619 169.228 78.7015C169.303 78.7841 169.378 78.8253 169.453 78.9079C169.566 79.0317 169.678 79.1142 169.791 79.238C169.791 79.238 169.791 79.238 169.828 79.2793L169.566 79.1142C170.016 79.4856 169.866 79.238 170.316 79.7332C170.279 79.7332 170.279 79.7332 170.279 79.7332C170.654 79.9395 170.992 80.3934 171.48 80.8474L171.367 80.7648C171.517 80.8886 171.63 80.9299 171.705 80.9712C171.855 81.095 172.005 81.26 172.155 81.3838C172.043 81.3425 171.93 81.3013 171.742 81.1775C171.968 81.3425 172.23 81.5901 172.155 81.5901L172.305 81.5489C172.418 81.6727 172.531 81.7552 172.643 81.879C172.718 81.9203 172.793 82.0028 172.868 82.0441C173.319 82.498 173.807 82.9107 174.257 83.3646C174.22 83.3646 174.182 83.3233 174.107 83.2408C173.732 82.9932 174.332 83.4058 174.257 83.4884C174.37 83.5296 174.708 83.8598 174.895 84.0661V83.9836C175.008 84.0661 175.083 84.1899 175.195 84.2724C175.158 84.3137 175.158 84.3962 175.458 84.6438C175.909 85.0152 175.308 84.4787 175.608 84.6851C175.909 84.9739 175.946 85.139 176.397 85.4691C176.509 85.5929 176.697 85.8818 176.659 85.9643C176.96 86.1706 177.41 86.7071 177.635 86.7896C177.222 86.3357 177.11 86.4595 176.697 85.8818L176.884 85.923C177.26 86.2532 177.748 86.6246 177.973 86.8722C177.935 86.8309 177.935 86.7896 177.973 86.7896C178.048 86.8722 178.123 86.9134 178.198 86.9547C178.386 87.1198 178.536 87.2848 178.724 87.4499C178.986 87.78 179.061 87.7387 179.512 88.2339C179.474 88.3165 179.174 87.9038 179.061 87.9451L179.624 88.4403C179.774 88.399 180.037 88.8529 180.413 89.1005C180.713 89.3894 180.938 89.5544 181.126 89.6782C181.463 89.9671 181.801 90.256 182.101 90.5448C182.139 90.6273 182.139 90.7099 182.064 90.6686C182.477 90.9987 182.026 90.5448 182.177 90.6273C182.289 90.7099 182.402 90.8337 182.514 90.9162L182.815 91.2051C184.053 92.3192 185.292 93.4334 186.53 94.5063C186.493 94.5063 186.493 94.5476 186.455 94.5063C186.53 94.5476 186.568 94.5476 186.605 94.5889L186.643 94.6301C186.756 94.7539 186.906 94.8364 187.018 94.9603C187.093 95.0428 187.168 95.1666 186.981 95.084C187.131 95.3316 187.694 95.8268 188.032 96.0744C188.257 96.1569 187.731 95.7443 187.806 95.703C187.957 95.8268 188.069 95.9094 188.182 95.9919C191.635 99.0043 195.125 101.975 198.616 104.905H198.578L198.653 104.947C199.517 105.648 200.38 106.35 201.206 107.051C201.168 107.051 201.168 107.01 201.093 107.01C201.206 107.092 201.281 107.134 201.318 107.175C201.468 107.299 201.581 107.381 201.731 107.505C201.731 107.588 201.881 107.711 202.144 108L201.881 107.711C201.919 107.711 201.919 107.711 201.956 107.753L201.919 107.711C201.956 107.753 201.994 107.753 201.994 107.794L201.956 107.753C201.994 107.794 202.031 107.835 202.069 107.876C202.069 107.876 202.069 107.876 202.069 107.835C204.846 110.105 207.624 112.374 210.476 114.603C211.49 115.387 212.465 116.171 213.479 116.955C213.854 117.244 214.83 116.666 214.305 116.295C210.251 113.158 206.273 109.94 202.294 106.68C202.257 106.638 202.219 106.597 202.144 106.556C201.694 106.185 201.281 105.813 200.83 105.483V105.442C200.718 105.359 200.568 105.235 200.417 105.112C200.005 104.781 199.592 104.451 199.216 104.08C199.141 103.956 199.066 103.874 198.804 103.626C198.503 103.378 198.428 103.337 198.316 103.296C198.053 103.007 197.452 102.594 197.49 102.512C197.377 102.512 197.227 102.264 197.04 102.182V102.14V102.223C196.627 101.645 196.101 101.563 195.651 100.985L195.763 101.026L195.538 100.861C195.538 100.82 195.613 100.861 195.651 100.82L194.637 99.9121L194.825 100.118C194.6 99.9534 194.412 99.8709 194.187 99.6233C194.675 99.8709 193.849 99.3344 193.812 99.2106L194.037 99.3757C193.737 99.1281 193.737 99.1281 193.699 99.2106C193.286 98.8805 193.511 98.8805 193.099 98.6329L193.361 98.8392C193.399 98.9218 193.174 98.8392 193.024 98.6742C192.986 98.6329 192.873 98.5091 193.024 98.5916C192.686 98.344 192.235 97.9314 192.085 97.8489C191.935 97.6838 192.01 97.6838 192.123 97.7663C191.41 97.2711 191.822 97.5187 191.109 96.9823L191.147 96.941L190.884 96.7759L190.621 96.4045L190.696 96.5696C190.471 96.4045 190.321 96.2807 190.096 96.0332L190.246 96.0744C189.608 95.5792 189.608 95.3729 188.97 94.919C188.932 94.8777 189.045 94.919 189.083 94.9603C188.482 94.5889 188.745 94.5063 188.144 94.1349C188.182 94.1349 188.144 94.0937 188.182 94.0937L187.919 93.9286L187.994 93.8873L187.731 93.8048L187.619 93.5985L187.506 93.5572C187.356 93.1858 186.906 92.9795 186.605 92.5668V92.6906C185.555 92.0716 184.616 90.7924 183.453 89.8846L183.528 89.8433L183.04 89.5132C182.852 89.2243 183.227 89.5957 183.19 89.4719C182.702 89.0592 182.927 89.3894 182.364 88.8942C182.101 88.6053 182.514 88.9354 182.664 89.018C182.101 88.564 181.313 87.9038 180.976 87.5324H180.938C180.563 87.2436 180.15 86.7896 179.737 86.4595C179.774 86.4182 179.887 86.5008 179.962 86.5833C179.812 86.4595 179.662 86.2532 179.512 86.1706L179.699 86.2532C179.399 85.9643 178.799 85.5104 178.799 85.3866C178.799 85.4279 178.761 85.4691 178.498 85.2628C178.423 85.0152 177.785 84.6851 177.41 84.2724C177.485 84.2724 177.785 84.5613 177.71 84.4787C177.522 84.2724 177.297 84.1486 177.11 84.0248H177.185C176.847 83.7772 176.509 83.4884 176.209 83.1995C176.134 82.9519 175.308 82.3742 175.421 82.3742C175.083 82.0441 175.683 82.6631 175.233 82.2917C175.158 82.1266 174.82 81.9615 174.895 81.9203L174.933 81.9615L174.632 81.6727L174.858 81.7965C174.595 81.5901 174.37 81.4663 174.295 81.5076C174.069 81.26 173.732 80.9712 173.657 80.8061L173.769 80.8886C173.056 80.2696 172.793 79.6507 172.155 79.2793C172.118 79.238 172.155 79.238 172.23 79.2793L171.818 78.8666L171.968 78.9079L171.217 78.3302L171.255 78.2889C170.804 77.835 170.091 77.216 169.491 76.6795L169.603 76.7621C168.928 76.2256 169.003 76.1431 168.515 75.7304C168.552 75.7304 168.552 75.7304 168.59 75.7717L168.177 75.359L168.289 75.4003C167.914 75.194 167.501 74.4512 167.614 74.6988C167.426 74.575 167.088 74.3274 167.013 74.2861C166.563 73.8322 166.938 74.121 166.676 73.8322C166.338 73.5021 166.263 73.5021 165.812 73.0481L165.85 73.0069C165.625 72.8005 165.475 72.718 165.212 72.4292L165.324 72.5117C164.799 72.1403 164.799 71.8514 164.311 71.6451C164.123 71.4388 163.748 71.0674 163.823 71.0261C163.185 70.4897 162.735 70.077 162.134 69.5406C162.134 69.3342 162.021 69.4167 161.721 69.0041L161.684 69.0866C160.858 68.2613 160.032 67.1884 159.131 66.3218L159.169 66.2393L158.944 66.1155C158.005 65.1251 156.767 63.8459 156.016 63.1031C155.754 62.8968 155.303 62.5666 154.928 62.154L154.965 62.1952C154.402 61.6588 153.839 61.1223 153.276 60.5034C153.351 60.4208 153.464 60.3796 153.539 60.3383C153.539 60.297 153.239 60.5859 153.389 60.3796C153.802 60.0082 154.402 59.3892 154.89 58.9353C154.89 58.9765 154.965 58.9353 154.928 59.0178C155.228 58.5226 155.341 58.7289 155.829 58.1512C157.217 56.7069 159.019 54.7674 160.445 53.4056C160.67 52.993 161.121 52.5391 161.571 52.0851L161.721 52.1677L162.059 51.755C162.247 51.6312 161.796 52.0851 162.097 51.8376L162.172 51.6312C162.247 51.6312 163.147 50.6821 162.584 51.4249L164.048 49.9806C164.386 49.6505 164.161 49.6917 164.536 49.3616C164.649 49.3203 164.424 49.5267 164.499 49.5267C165.662 48.5776 165.55 48.0824 166.6 47.1333L166.525 47.2158C166.676 47.0095 167.013 46.7206 166.976 46.6793C166.751 46.6793 166.863 46.9269 166.488 47.1333C166.45 47.0095 166.826 46.7206 166.751 46.6381C167.013 46.4317 167.126 46.2667 167.314 46.0603C167.726 45.7715 168.177 45.235 168.515 45.07C168.665 44.8636 168.777 44.5748 169.153 44.2034C169.491 44.0383 169.153 44.3272 169.528 43.9971V43.8733C169.828 43.5844 169.791 43.6669 169.791 43.7082C170.129 43.4193 169.978 43.3781 170.429 43.048L170.391 43.3368C170.654 43.048 170.804 42.9241 171.217 42.5528C171.217 42.594 171.067 42.7591 170.954 42.8416C171.255 42.7178 171.292 42.429 171.442 42.3464C171.405 42.3464 171.104 42.594 171.179 42.429C171.405 42.2639 171.555 41.9338 171.742 41.8512L171.555 42.1401C171.93 41.6862 171.742 41.8512 172.23 41.3973C172.193 41.4386 172.23 41.4386 172.23 41.4386C172.493 41.0672 172.944 40.7371 173.394 40.3244L173.319 40.4069C173.507 40.2006 173.544 40.0768 173.657 39.953C173.356 40.1593 173.431 40.0768 173.356 40.0355C173.769 39.788 173.807 39.4166 174.407 38.9214C174.407 38.9626 174.332 39.1277 174.145 39.2515C174.032 39.5404 174.069 39.6229 173.769 40.0355C173.957 39.8292 174.22 39.5404 174.182 39.6642V39.4991C174.295 39.3753 174.407 39.2928 174.52 39.169C174.52 39.0452 174.182 39.334 174.445 39.0039C174.745 38.6325 174.708 38.9214 174.708 38.8388C175.158 38.3437 174.82 38.55 175.308 38.1786C175.271 38.2199 175.195 38.3437 175.158 38.3437C175.496 38.0548 175.946 37.5596 176.134 37.6009C176.096 37.6834 176.134 37.7247 175.984 37.8072V37.7659C175.721 38.1373 176.171 37.5596 176.209 37.6421C176.246 37.5183 176.622 37.1882 176.809 37.0232H176.697C177.222 36.1566 176.772 37.1882 177.41 36.528C177.823 36.074 177.222 36.6518 177.447 36.3629C177.748 36.1153 177.898 36.074 178.311 35.6201C178.461 35.5376 178.724 35.3313 178.799 35.4138C179.024 35.1249 179.624 34.7123 179.699 34.5059C179.211 34.8361 179.324 35.0011 178.724 35.3725L178.799 35.1662C179.174 34.8361 179.587 34.3821 179.85 34.1758C179.774 34.2171 179.737 34.2171 179.774 34.1758C180.262 33.6806 180.337 33.4743 180.863 33.0204C180.976 33.0204 180.675 33.268 180.488 33.4743C180.863 33.2267 180.825 33.1854 181.351 32.7315C181.426 32.7728 181.013 33.0204 181.013 33.1442L181.538 32.6077C181.538 32.4427 181.951 32.2363 182.289 31.9062C183.077 31.1634 183.115 30.9158 183.49 30.4206C183.64 30.3381 183.678 30.3381 183.64 30.4206C183.415 30.5444 183.49 30.5444 183.415 30.6682C183.678 30.4206 184.091 30.2143 183.978 30.4206C184.391 30.008 183.79 30.5032 184.016 30.2556L184.616 29.7191C184.504 29.7191 184.278 29.9254 184.579 29.5953C184.841 29.3477 184.954 29.2652 185.292 28.9351C185.254 29.0176 185.442 28.9351 185.217 29.1414C185.404 29.0176 185.667 28.77 185.705 28.6462C185.292 28.9351 186.268 28.0685 185.93 28.2336L186.343 27.9447C186.268 28.0272 186.268 28.0685 186.155 28.151C186.305 28.151 186.455 27.8622 186.568 27.7384C186.718 27.6558 187.056 27.3257 187.093 27.3257C187.206 27.2019 187.506 26.9543 187.581 26.9543C187.731 26.7893 187.544 26.8718 187.581 26.8305L188.182 26.2941C188.257 26.2941 188.369 26.3766 188.294 26.5004C188.482 26.2528 188.294 26.2941 188.632 26.0052C188.52 26.2528 189.12 25.6751 188.932 26.0052C189.158 25.8814 189.721 25.3862 190.021 25.0974C190.171 24.8498 189.683 25.3449 189.646 25.2624C190.471 24.4784 190.396 24.2308 191.034 23.6943L190.847 23.8181C190.884 23.7769 190.922 23.7356 190.959 23.6943C191.109 23.5293 191.297 23.4055 191.447 23.2404C191.635 23.1579 192.123 22.869 192.573 22.4563C192.611 22.3738 192.198 22.6627 192.198 22.5389C192.348 22.4151 192.461 22.2913 192.611 22.1675L192.573 22.2088C192.948 21.8374 193.361 21.6723 193.399 21.5072L193.887 21.3009L193.699 21.3834C193.737 21.3009 194.149 20.8883 194.225 20.8057C194.637 20.3518 194.825 20.2693 195.088 20.1042C195.05 20.1042 194.938 20.1455 194.9 20.1455C194.975 20.0629 195.088 19.9804 195.163 19.8979C195.388 19.7741 195.838 19.3202 195.876 19.4027C196.026 19.2789 196.289 19.1138 196.251 19.0313L196.289 19.1551C196.251 18.99 196.702 18.5774 197.077 18.206C197.077 18.206 197.115 18.206 197.115 18.1647C197.152 18.4123 197.527 17.7521 197.828 17.7521C197.828 17.587 198.466 17.1331 198.466 16.968C198.503 16.9267 198.541 16.8855 198.616 16.8442C198.804 16.7204 198.841 16.8029 198.954 16.7617L199.066 16.5966C199.254 16.5141 199.817 16.0189 200.192 15.7713L200.417 15.3999L200.568 15.3586C200.605 15.2761 200.868 15.0285 200.68 15.1523L200.868 15.0285C200.793 14.9047 201.018 14.8222 201.281 14.5746C201.318 14.5333 201.356 14.4921 201.431 14.4508C201.468 14.4508 201.468 14.4921 201.431 14.5333C201.619 14.3683 201.581 14.4921 201.694 14.4508C201.618 14.4921 201.769 14.2445 201.844 14.0794C202.144 13.7905 202.482 13.5429 202.782 13.2541C202.82 13.2954 202.895 13.2954 203.157 13.0478C202.857 13.2954 202.782 13.5017 202.632 13.6667C202.744 13.5842 202.82 13.543 202.669 13.708C203.082 13.2954 202.782 13.5017 203.195 13.1303C203.232 13.2541 203.383 13.1716 203.758 12.8827L203.42 13.0478C203.42 13.0065 203.458 13.0065 203.458 12.9652C203.345 13.0478 203.307 13.0478 203.27 13.0478C203.345 12.9652 203.683 12.5113 203.795 12.5113C203.608 12.5938 203.645 12.5113 203.758 12.3875C204.021 12.1399 204.283 11.9336 204.584 11.686C204.696 11.6035 204.884 11.4797 204.884 11.5622C204.996 11.4384 204.659 11.6447 204.696 11.6035C204.771 11.5209 204.846 11.4797 204.959 11.3971C205.072 11.3146 205.184 11.2733 205.297 11.1908L205.222 11.2733L205.597 11.0257C205.634 10.9432 205.222 11.2321 205.522 10.9432C205.635 10.9019 205.897 10.6131 205.935 10.6543C205.822 10.8607 206.01 10.8194 205.747 11.067C205.972 10.8607 206.648 10.283 206.31 10.4068L206.573 10.2004C206.423 10.283 206.01 10.5718 206.235 10.3242C206.273 10.283 206.348 10.2417 206.385 10.2004L206.423 10.1592C206.573 10.0354 206.76 9.8703 206.911 9.7465C206.948 9.7465 206.986 9.70524 207.061 9.66397L206.948 9.70524C207.023 9.6227 207.136 9.54017 207.211 9.45764C207.211 9.45764 207.211 9.45764 207.248 9.45764C207.361 9.33384 207.436 9.29258 207.511 9.21005C207.624 9.12752 207.736 9.00372 207.849 8.92119C208.149 8.67359 208.675 8.21967 208.9 8.09587C209.238 7.76575 208.937 8.05461 208.937 7.97208C208.975 7.93081 209.012 7.88954 209.05 7.84828C209.538 7.64195 210.364 6.77537 211.002 6.23891C210.964 6.23891 210.964 6.23891 210.964 6.23891C211.152 6.07385 211.339 5.90879 211.565 5.74373C211.565 5.74373 211.527 5.82626 211.377 5.95005L211.715 5.61993C212.015 5.49613 211.189 6.15638 211.602 5.95005C211.978 5.61993 212.165 5.24854 212.653 4.91841C212.578 5.16601 212.991 4.58829 212.953 4.79461C212.878 4.91841 212.728 5.00094 212.616 5.12474L212.728 5.08347C213.591 4.38196 212.916 4.75335 213.291 4.29943C213.817 3.8455 213.742 4.01056 213.817 4.05183C213.929 4.01056 214.154 3.76297 214.305 3.63917C214.042 3.9693 213.704 4.05183 213.779 3.92803C213.779 3.92803 213.817 3.92803 213.817 3.88677C214.042 3.80424 214.305 3.51538 214.53 3.30905C214.642 3.18525 214.792 3.10272 214.905 2.97892C214.98 2.89639 214.905 2.81386 214.717 2.77259ZM102.983 114.561L102.87 114.727C103.208 114.314 103.133 114.52 103.208 114.479L103.133 114.561L103.283 114.438C102.983 114.809 102.682 115.139 102.42 115.511C102.532 115.263 102.532 114.974 102.983 114.561ZM101.969 115.882C102.157 115.676 102.269 115.593 102.382 115.552C102.269 115.717 102.119 115.841 102.007 116.006L101.969 115.882Z" fill="black"/>
<path d="M188.257 24.5609L188.369 24.4371C188.294 24.5196 188.257 24.5609 188.257 24.5609Z" fill="black"/>
<path d="M203.533 11.5622C203.608 11.5209 203.72 11.3971 203.946 11.2321L203.533 11.5622Z" fill="black"/>
<path d="M168.477 42.6353L168.59 42.5115C168.515 42.594 168.477 42.594 168.477 42.6353Z" fill="black"/>
<path d="M180.15 31.8649C180.112 31.9062 180.075 31.9887 180 32.03C180.075 31.9475 180.15 31.9062 180.15 31.8649Z" fill="black"/>
<path d="M102.157 115.057C102.007 115.222 101.932 115.387 101.819 115.593L102.157 115.057Z" fill="black"/>
<path d="M204.058 12.4288C203.908 12.6351 203.533 12.8414 203.57 12.8827C203.758 12.7176 204.021 12.5526 204.058 12.4288Z" fill="black"/>
<path d="M148.885 65.0839L148.772 65.2077C148.848 65.1251 148.885 65.1251 148.885 65.0839Z" fill="black"/>
<path d="M133.609 78.2471C133.609 78.2064 133.647 78.2064 133.647 78.2064L133.609 78.2471Z" fill="black"/>
<path d="M132.633 79.1968C132.708 79.1142 132.746 79.0317 132.821 78.9904C132.708 79.073 132.633 79.1555 132.633 79.1968Z" fill="black"/>
<path d="M101.819 115.593L101.631 115.882C101.706 115.799 101.781 115.676 101.819 115.593Z" fill="black"/>
<path d="M180.938 31.2047C180.976 31.2047 181.013 31.1634 181.013 31.1222C181.013 31.1222 181.013 31.1222 180.938 31.2047Z" fill="black"/>
<path d="M174.895 38.7563C174.783 38.8801 174.632 39.0451 174.557 39.1689C174.67 39.0864 174.745 38.9626 174.895 38.7563Z" fill="black"/>
<path d="M176.209 37.6834C176.209 37.6834 176.209 37.7249 176.209 37.6834C176.247 37.6834 176.209 37.6834 176.209 37.6834Z" fill="black"/>
<path d="M181.501 32.8553L181.764 32.5252L181.539 32.6903C181.576 32.7315 181.576 32.7315 181.501 32.8553Z" fill="black"/>
<path d="M172.268 41.4386C172.23 41.4799 172.23 41.4799 172.193 41.5211C172.23 41.4799 172.268 41.4386 172.268 41.4386Z" fill="black"/>
<path d="M170.054 43.7082C170.204 43.5431 170.054 43.6669 169.941 43.7082C169.941 43.7494 169.978 43.7494 170.054 43.7082Z" fill="black"/>
<path d="M187.056 27.4495C187.094 27.4082 187.094 27.367 187.094 27.367C187.056 27.4082 187.056 27.4495 187.056 27.4495Z" fill="black"/>
<path d="M201.431 14.5333C201.393 14.5746 201.318 14.6159 201.281 14.6984C201.318 14.6159 201.393 14.5746 201.431 14.5333Z" fill="black"/>
<path d="M183.302 30.8746C183.378 30.792 183.415 30.7508 183.453 30.7095C183.415 30.792 183.34 30.8333 183.302 30.8746Z" fill="black"/>
<path d="M201.093 14.8634L200.868 15.0285L201.093 14.8634Z" fill="black"/>
<path d="M202.632 13.6668C202.557 13.7493 202.444 13.8318 202.369 13.8731C202.482 13.8318 202.557 13.7493 202.632 13.6668Z" fill="black"/>
<path d="M192.573 22.25C192.573 22.25 192.536 22.25 192.573 22.25C192.386 22.4563 192.498 22.3325 192.573 22.25Z" fill="black"/>
<path d="M200.23 15.7713C200.23 15.7713 200.192 15.8126 200.23 15.7713L200.155 15.8539L200.23 15.7713Z" fill="black"/>
<path d="M203.57 12.8827C203.533 12.924 203.495 12.9653 203.458 13.0065C203.495 12.9653 203.533 12.924 203.57 12.8827C203.57 12.924 203.57 12.8827 203.57 12.8827Z" fill="black"/>
<path d="M195.839 19.5265C195.876 19.444 195.876 19.4027 195.876 19.4027C195.801 19.4852 195.763 19.5265 195.839 19.5265Z" fill="black"/>
<path d="M188.369 94.0524L188.482 94.1349C188.407 94.0524 188.407 94.0524 188.369 94.0524Z" fill="black"/>
<path d="M168.777 75.7717L168.89 75.8955C168.852 75.813 168.815 75.7717 168.777 75.7717Z" fill="black"/>
<path d="M180.112 86.5833C180.187 86.6658 180.262 86.7071 180.3 86.7071C180.262 86.7071 180.187 86.6658 180.112 86.5833Z" fill="black"/>
<path d="M102.72 2.48376L103.17 2.89642C103.02 2.73136 102.87 2.60756 102.72 2.48376Z" fill="black"/>
<path d="M146.596 56.4593L146.483 56.3355C146.52 56.418 146.558 56.418 146.596 56.4593Z" fill="black"/>
<path d="M134.247 39.953C134.285 39.953 134.285 39.9937 134.285 39.9937L134.247 39.953Z" fill="black"/>
<path d="M133.384 38.8802C133.459 38.9627 133.497 39.004 133.572 39.0865C133.497 38.9627 133.459 38.9214 133.384 38.8802Z" fill="black"/>
<path d="M102.72 2.48371L102.495 2.23611C102.57 2.31865 102.645 2.40118 102.72 2.48371Z" fill="black"/>
<path d="M181.013 87.4086C181.051 87.4499 181.051 87.4499 181.088 87.4912C181.126 87.5324 181.126 87.4912 181.013 87.4086Z" fill="black"/>
<path d="M179.662 88.3577L180 88.6053L179.812 88.399C179.774 88.4402 179.774 88.4402 179.662 88.3577Z" fill="black"/>
<path d="M170.428 79.6914C170.391 79.6914 170.354 79.6507 170.354 79.6507C170.391 79.6914 170.428 79.6914 170.428 79.6914Z" fill="black"/>
<path d="M168.027 77.6287C168.214 77.7525 168.064 77.6287 167.989 77.5049C167.989 77.5461 167.989 77.5461 168.027 77.6287Z" fill="black"/>
<path d="M99.9601 2.31807C99.7637 2.24054 99.4365 2.47314 99.3056 2.70574C97.7348 5.49694 96.1968 8.28815 94.6588 11.1569H94.6261C94.5279 11.3895 94.4952 11.467 94.5606 11.3895C94.2988 11.8547 94.0698 12.3199 93.808 12.7851C93.7753 12.8626 93.7425 12.8626 93.7425 12.9402C93.3498 13.638 92.9572 14.3358 92.5645 15.1111C92.4009 15.3437 92.1391 15.8089 92.4336 15.1886C92.1391 15.6538 92.1063 15.8864 91.9427 16.3516C91.91 16.3516 91.91 16.4292 91.8773 16.4292C91.6809 16.6618 91.7137 16.3516 91.91 15.8864L91.6482 16.5067V16.4292L91.4519 16.9719C91.1573 17.3596 91.3537 16.8944 91.0592 17.3596V17.5922L90.8628 17.8248C90.961 17.7472 90.7974 18.0574 90.6338 18.445V18.3675L90.4047 18.8327C90.601 18.29 90.1756 19.2204 90.2411 18.9102C90.0447 19.2979 90.0447 19.2979 89.6848 19.9957H89.7829C89.3575 20.9261 89.7175 19.9182 89.3248 20.5384L89.3903 20.616C88.8012 21.3913 88.5067 22.3992 88.0813 23.0195C88.3104 22.5543 88.2122 22.5543 88.2122 22.5543C87.885 23.2521 87.2959 24.26 87.0014 25.0354C86.8051 25.1129 86.7724 25.1129 86.3797 25.7332C86.1179 26.2759 86.0852 26.3534 86.0197 26.586C85.7579 26.9737 85.2998 27.9816 85.2343 27.9041C85.2016 28.1367 85.0053 28.2918 84.8744 28.6794H84.8416L84.9071 28.757C84.3835 29.3772 84.1872 30.3852 83.6636 31.0054L83.729 30.8504L83.5654 31.238C83.5327 31.238 83.5981 31.083 83.5654 31.0054L82.6819 32.7112L82.8782 32.4786C82.6819 32.8662 82.6164 33.1764 82.3546 33.564C82.6492 32.7112 82.0601 34.1068 81.962 34.1068L82.1256 33.7191C81.8638 34.2619 81.8638 34.2619 81.9292 34.3394C81.602 35.0372 81.6347 34.572 81.3402 35.2698L81.5693 34.8821C81.6674 34.8046 81.5365 35.1923 81.3729 35.5024C81.3402 35.5799 81.2093 35.735 81.3075 35.5024C81.0457 36.0451 80.6203 36.7429 80.5221 37.0531C80.3585 37.2857 80.3912 37.1306 80.4566 36.9755C79.9331 38.1385 80.1949 37.4407 79.6386 38.6037V38.5262L79.4749 38.9914L79.1477 39.3791L79.2786 39.3015C79.0823 39.6892 78.9841 39.9218 78.755 40.3095L78.8205 40.0769C78.3296 41.1623 78.166 41.0848 77.7079 42.2478C77.6751 42.3253 77.7406 42.0927 77.7733 42.0152C77.3479 43.1007 77.3806 42.5579 76.9552 43.6434C76.9879 43.5659 76.9225 43.6434 76.9225 43.5659L76.7261 44.0311L76.6934 43.876L76.5952 44.4187L76.4316 44.5738L76.3662 44.8064C76.0389 44.9615 75.8099 45.8143 75.4172 46.202L75.5154 46.2795C74.8609 48.1403 73.6501 49.6135 72.7666 51.5518L72.7338 51.3967L72.4066 52.3271C72.1775 52.6373 72.5048 51.9395 72.4066 52.017C72.0139 52.9474 72.3084 52.5597 71.8503 53.5677C71.5885 53.9554 71.9157 53.3351 72.0139 53.0249C71.5885 53.9553 70.934 55.351 70.6068 55.9712V56.0488C70.3123 56.669 69.9196 57.4444 69.5923 58.1422C69.5923 58.0646 69.6578 57.9096 69.7232 57.7545C69.5923 57.9871 69.4287 58.2972 69.3306 58.5298L69.4287 58.1422C69.1669 58.6074 68.7088 59.6928 68.6106 59.6928C68.6433 59.6928 68.6761 59.7704 68.447 60.2356C68.2507 60.3131 67.8907 61.4761 67.498 62.0964C67.5307 61.9413 67.7925 61.4761 67.6944 61.5536C67.498 61.8638 67.3671 62.2514 67.2362 62.6391L67.2689 62.484L66.4836 64.2673C66.2872 64.3448 65.7309 65.8955 65.7309 65.5854C65.4364 66.2056 65.9927 65.1977 65.6328 65.973C65.5019 66.1281 65.3055 66.6708 65.2728 66.5158L65.3055 66.4382L65.0437 66.981L65.1746 66.5158C64.9783 66.981 64.8474 67.4462 64.8801 67.6012C64.651 67.9889 64.3565 68.6092 64.2256 68.6867L64.2911 68.5316C63.7348 69.7722 63.2112 70.1598 62.8185 71.3228C62.7858 71.4004 62.7858 71.3228 62.8512 71.1678L62.4913 71.8656L62.5567 71.633L62.0004 73.0286V72.951C61.6077 73.7264 60.986 75.0444 60.4951 76.1299L60.5606 75.9748C60.037 77.2154 60.0043 76.9828 59.6116 77.9132C59.6116 77.8356 59.6443 77.8357 59.6443 77.8357L59.2843 78.611L59.3498 78.3784C59.1207 79.0762 58.5317 79.774 58.728 79.5414C58.5971 79.9291 58.3681 80.5493 58.3353 80.7044C57.9427 81.5573 58.2044 80.8595 57.9427 81.2471C57.6481 81.8674 57.6481 82.0225 57.2227 82.7978V82.7203C57.0591 83.1079 56.9609 83.4181 56.6991 83.9608L56.7646 83.8057C56.4046 84.8137 56.1756 84.6586 55.9465 85.6665C55.7502 85.9767 55.4556 86.6745 55.4229 86.5194C54.9321 87.6824 54.5721 88.5353 54.0812 89.6983C53.9176 89.6983 53.9831 89.9309 53.6231 90.4736L53.6886 90.5511C52.9686 92.1018 52.0524 93.5749 51.2997 95.2807L51.2343 95.2031L51.1361 95.6683C50.2853 97.4516 49.1727 99.7776 48.4855 101.173C48.2891 101.716 47.9946 102.569 47.6346 103.267L47.6674 103.189C47.0783 104.585 46.4566 106.058 45.7694 107.376C45.8021 107.221 45.7039 107.376 45.7694 107.143C45.6712 107.608 45.3767 107.996 45.2458 108.306L45.4422 107.996C45.4094 108.151 45.344 108.306 45.2785 108.461V108.384L44.9513 107.841C44.9513 107.764 44.9186 107.686 44.9186 107.686L44.8531 107.608L44.7549 107.143C44.6568 106.988 44.2641 106.213 44.1005 106.058C44.1005 105.98 43.8387 105.283 44.0677 105.748L43.0206 103.344L43.1842 103.732C43.1515 103.887 42.8242 103.267 42.6606 102.801C42.9224 103.189 42.7261 102.724 42.6933 102.414C42.5297 102.181 42.7915 102.801 42.6933 102.646C42.4643 102.336 42.0716 101.483 42.0061 101.173L42.137 101.406C41.8753 100.863 41.8425 100.398 41.5807 99.8552C41.3189 99.4675 41.1881 99.0023 41.1553 99.3124C40.8281 98.6146 41.0899 98.9248 40.9917 98.6922C40.7954 98.4595 40.4027 97.3741 40.37 97.1415C40.0754 96.9864 39.5519 95.1256 39.421 95.2031L39.2246 94.5053C39.1919 94.5829 39.0937 94.5829 38.8647 94.1177C38.701 93.5749 38.7992 93.5749 38.7338 93.4199L38.5047 93.3423C37.4575 90.4736 35.8868 87.2172 34.7742 84.1159C34.2179 82.8753 33.4652 81.3247 32.8435 79.774L32.9416 79.9291L32.3199 78.3784L32.7453 79.5414C32.5817 79.2313 32.4835 78.9986 32.3526 78.6885C31.6981 76.9053 30.8146 74.6568 29.9311 72.7184C29.2766 71.633 29.6693 71.633 29.0475 70.5475C29.113 70.625 29.1457 70.625 29.1784 70.7026C28.5894 69.3845 28.2621 68.6867 27.6404 67.4462C27.804 67.3686 27.2804 66.5158 27.3786 66.5158H27.2804C27.1822 66.1281 26.8877 65.4303 26.9859 65.4303L26.6914 64.9651L26.7241 64.81C26.3969 64.0347 25.6442 62.329 25.5788 61.7087C24.6952 59.8479 23.4517 56.5915 22.47 54.0329C22.3064 53.7227 21.9792 53.0249 21.7501 52.4822L21.5538 51.7069C21.292 51.1641 20.9974 50.6989 20.8011 50.0787H20.8338C20.572 49.5359 20.3757 48.8381 20.1139 48.4505C19.8521 47.7527 19.623 47.0549 19.7539 47.2099C19.4921 46.7447 19.0667 45.1941 19.0667 45.1941C19.0667 45.1941 15.8271 36.5879 12.162 26.8962C11.2457 24.4926 10.3295 22.0116 9.41321 19.5305C8.49694 17.127 7.58067 14.7234 6.76258 12.5525C5.06094 8.13308 3.58837 4.48901 2.70482 2.55067C2.5412 2.3956 2.21396 1.62027 2.27941 2.08547C2.05035 1.4652 2.01762 1 1.91945 1C2.05035 1.38767 2.01762 1.4652 1.95217 1.4652C1.65766 0.922467 0.872287 1.6978 1.1668 2.55067C3.45747 8.98595 5.78086 15.4212 8.10425 21.779C8.07153 21.7014 8.07153 21.7014 8.03881 21.6239C8.10425 21.779 8.1697 21.934 8.23515 22.0891C8.33332 22.3992 8.46422 22.7094 8.56239 23.0195C8.95507 24.1825 9.15142 25.1129 9.60955 26.3534L9.675 26.2759C10.4604 28.912 11.573 31.7032 12.5547 34.4169L12.4565 34.0293C12.6201 34.3394 12.8492 34.8821 13.0456 35.2698C13.0456 35.3473 12.8492 35.1147 13.1437 35.8901C13.111 35.735 12.9801 35.3473 13.0456 35.4249C13.8309 37.9059 15.6962 42.713 17.0706 46.5121C19.0667 51.4743 21.1283 57.0567 23.0918 61.8638C22.7973 61.0884 23.0263 61.2435 23.2227 61.8638C23.6808 63.7246 24.3353 64.4224 24.8589 66.2056C26.0696 68.9193 26.9532 71.7105 28.1312 74.0365L28.0985 74.1916C28.2294 74.6568 28.3276 74.6568 28.4912 75.0444H28.4585C28.8512 76.0524 29.3747 77.1379 29.5711 77.6806L29.6365 77.6031C29.8656 78.1458 29.7347 77.9907 29.9965 78.5335L29.9638 78.611L30.291 79.1537C30.1601 79.3088 30.9455 80.7819 31.1091 81.3247C31.4363 82.0225 32.0581 83.3405 32.5162 84.5035C32.549 84.8137 33.138 86.2093 33.4652 87.1397C33.8252 87.9925 34.2506 89.0005 34.7415 90.0859C35.1996 91.1714 35.6904 92.2569 36.1486 93.3423L36.1813 93.1873L36.4104 93.73C36.4104 93.73 36.4104 93.8075 36.3776 93.8075C36.5085 94.4278 36.9667 95.0481 37.0976 95.5908C37.0321 95.2031 36.934 95.2031 36.8031 94.893C36.6394 94.3503 36.8685 94.6604 37.1303 95.3582H37.0976L37.2939 95.6683C37.2612 95.8234 37.4248 96.2886 37.3921 96.4437C38.2102 98.227 38.7992 99.3124 39.6173 101.251C39.4864 101.173 40.2063 102.569 39.9773 102.414C40.5009 103.499 39.9773 102.026 40.2391 102.414C40.37 102.724 40.5336 103.034 40.5336 103.112C40.4354 103.034 40.599 103.499 40.4681 103.267L40.7954 104.042C40.8281 104.119 40.7299 103.964 40.6972 103.887C41.4171 105.282 41.8425 106.678 42.497 107.919C42.5625 107.919 42.2679 107.376 42.3334 107.376C43.0206 108.616 42.8242 108.694 43.446 109.857L43.2824 109.702C43.4787 110.012 43.6096 110.09 43.8387 110.787L43.806 110.865C43.7078 110.71 43.5114 110.322 43.4133 110.167C43.5114 110.4 43.6423 110.71 43.7732 110.942C43.7078 111.098 43.6751 111.253 43.6423 111.408C43.6096 111.408 43.3151 112.028 43.5114 111.485L42.3988 113.811L42.5952 113.501C42.6606 113.579 42.3661 114.354 42.1698 114.664C42.3661 114.121 42.137 114.509 42.0061 114.587C41.8753 114.974 42.1698 114.431 42.1043 114.664C41.9407 115.129 41.5807 116.06 41.4498 116.215L41.548 115.905C41.3189 116.525 41.1226 116.602 40.8935 117.145C40.6972 117.765 40.5009 117.998 40.6317 118.076C40.3372 118.851 40.4681 118.231 40.3372 118.463C40.2391 118.851 39.7482 119.859 39.65 119.859C39.5846 120.557 38.7665 121.72 38.7992 122.03L38.472 122.495C38.472 122.572 38.5047 122.805 38.2756 123.348C38.0466 123.735 38.0466 123.503 37.9811 123.58L37.9484 124.123C36.7049 126.449 35.265 130.016 33.9234 132.729C33.3998 134.047 32.7453 135.753 32.0581 137.226L32.1236 136.994L31.4691 138.389L31.9927 137.381C31.8618 137.769 31.7636 138.002 31.6327 138.312C30.88 139.862 29.8983 141.878 29.0802 144.049C28.6221 145.6 28.6221 144.669 28.164 146.143C28.1967 145.988 28.1967 145.91 28.2294 145.832C27.7058 147.306 27.4113 148.081 26.8877 149.554C26.855 149.166 26.5278 150.484 26.5278 150.174V150.407C26.3642 150.64 26.0696 151.337 26.0696 151.182L25.8733 151.88L25.8078 151.803C25.4806 152.578 24.7934 154.361 24.5316 154.594C23.7462 156.687 22.4373 159.789 21.3901 162.27C21.292 162.735 20.9974 163.433 20.7357 164.053L20.4411 164.518C20.2121 165.138 20.0157 165.914 19.7867 166.379V166.301C19.5576 166.922 19.2958 167.387 19.1322 168.085C18.8704 168.705 18.5759 169.325 18.6086 169.015C18.6741 169.248 18.0196 170.333 18.0196 170.333C18.0196 170.333 17.7905 170.876 17.4305 171.729C17.0379 172.659 16.5143 173.977 15.8271 175.605C14.5181 178.862 12.6856 183.281 10.8203 188.088C8.95507 192.895 6.99164 197.935 5.35545 202.432C3.71926 206.929 2.37758 210.883 1.69038 213.209C1.62494 213.597 1.36314 214.45 1.52676 214.217C1.2977 214.837 1.13408 214.992 1.13408 215.147C1.46132 214.372 1.1668 215.69 1.52676 214.992L1.42859 215.302C1.2977 215.613 1.1668 216 1.03591 216.31C0.905011 216.698 1.1668 216.698 1.26497 216.698C1.46132 216.698 1.75583 216.543 1.88673 216.155C3.81743 211.038 5.74814 205.998 7.67884 200.959C8.1697 199.951 8.62784 198.943 9.15142 197.547C9.34776 197.237 9.08597 197.857 8.9878 198.245C9.675 196.152 10.1659 195.764 10.8203 194.058L10.7876 193.981C11.8348 191.965 12.8165 188.941 13.9291 186.46L13.7655 186.693C13.8637 186.227 14.0927 185.685 14.2563 185.219C14.2891 185.219 14.2236 185.685 14.4854 184.909C14.42 185.064 14.2563 185.297 14.2891 185.219C15.2708 183.204 17.136 178.474 18.6413 174.908C20.6048 169.945 22.8627 164.828 24.8261 160.021C24.5316 160.719 24.5643 160.254 24.8261 159.711C25.6115 158.626 25.8733 157.075 26.6259 155.834C27.7386 152.966 28.9166 150.795 29.8656 147.926L29.9311 148.003C30.1274 147.693 30.1274 147.461 30.291 147.073V147.151C30.7164 146.22 31.1746 144.98 31.4036 144.514L31.3709 144.359C31.6 143.817 31.5345 144.127 31.7636 143.506L31.7963 143.584L32.0254 142.809C32.0908 143.119 32.7126 141.258 32.9416 140.87C33.2362 140.095 33.7925 138.622 34.2833 137.614C34.4142 137.536 35.0032 136.141 35.3959 135.365C36.1159 133.66 37.1303 131.256 38.0793 129.24L38.0138 129.163L38.2429 128.62C38.2429 128.62 38.2756 128.62 38.2756 128.698C38.5374 128.465 38.7992 127.38 39.061 127.069C38.8974 127.224 38.8974 127.457 38.7338 127.767C38.5047 128.155 38.6356 127.612 38.9301 127.069V127.147L39.0937 126.682C39.1592 126.759 39.3555 126.449 39.421 126.449C40.2063 124.588 40.6645 123.193 41.5153 121.409C41.4826 121.72 42.1043 120.014 42.0061 120.634C42.4643 119.471 41.8425 120.634 42.0389 120.014C42.1698 119.704 42.3007 119.316 42.3661 119.316C42.3334 119.549 42.5297 119.161 42.4316 119.471L42.7588 118.696C42.7915 118.618 42.7261 118.851 42.6933 118.928C43.3151 117.3 43.9696 116.37 44.5259 114.974C44.5259 114.819 44.2641 115.517 44.2968 115.284C44.6895 114.199 44.8204 114.121 45.0495 113.656C45.2458 114.121 45.4749 114.587 45.6712 115.052C45.6712 115.052 45.6712 115.207 45.6385 115.129C46.0312 115.75 45.9003 115.905 46.3584 116.913C47.6019 119.549 49.3036 122.883 50.5143 125.596C50.8416 125.984 51.2343 126.837 51.6597 127.69L51.627 128L51.9869 128.62C52.0851 129.008 51.7251 128.155 51.9215 128.698L52.0851 128.853C52.0851 129.008 52.9032 130.713 52.3142 129.706C52.7396 130.636 53.165 131.566 53.5904 132.419C53.8849 133.039 53.8195 132.574 54.114 133.272C54.1467 133.505 53.9831 133.117 53.9831 133.195C54.8666 135.365 55.2593 135.055 56.0774 136.994L55.9792 136.839C56.1428 137.071 56.4374 137.691 56.4374 137.691C56.4046 137.226 56.241 137.459 56.0119 136.761C56.1101 136.606 56.3719 137.381 56.4374 137.149C56.6337 137.614 56.7973 137.769 56.9609 138.157C57.2227 138.932 57.7136 139.785 57.8772 140.405C58.0408 140.638 58.3026 140.793 58.6299 141.491C58.7935 142.111 58.5317 141.491 58.8262 142.266H58.9244C59.1862 142.809 59.1207 142.809 59.088 142.809C59.3498 143.351 59.3825 143.119 59.7097 143.894L59.4807 143.584C59.7425 144.049 59.8406 144.282 60.2006 145.057C60.1679 145.135 60.037 144.825 59.9388 144.592C60.0697 145.135 60.2988 145.212 60.3969 145.445C60.3969 145.367 60.1352 144.825 60.2988 144.98C60.3642 145.135 60.4297 145.212 60.4951 145.367C60.5933 145.6 60.6915 145.755 60.7896 145.988C60.7896 145.988 60.7896 145.988 60.8224 146.065L60.5933 145.755C60.986 146.453 60.8551 145.988 61.2478 146.918C61.215 146.918 61.215 146.918 61.215 146.918C61.5423 147.306 61.8368 148.158 62.2622 149.011L62.164 148.856C62.2949 149.089 62.3931 149.166 62.4585 149.244C62.5894 149.477 62.7203 149.787 62.8512 150.019C62.7531 149.942 62.6549 149.864 62.4913 149.632C62.6876 149.942 62.9167 150.407 62.8512 150.407L62.9821 150.329C63.0803 150.562 63.1785 150.717 63.2766 150.95L63.3094 151.027L63.2766 150.95C63.3421 151.027 63.4075 151.182 63.473 151.26C63.8657 152.113 64.2911 152.888 64.6838 153.741C64.651 153.741 64.6183 153.663 64.5529 153.508C64.2256 153.043 64.7492 153.818 64.6838 153.974C64.7819 154.051 65.0765 154.671 65.2401 155.059V154.904C65.3382 155.059 65.4037 155.292 65.5019 155.447C65.4691 155.524 65.4691 155.679 65.7309 156.144C66.1236 156.842 65.6 155.834 65.8618 156.222C66.1236 156.765 66.1563 157.075 66.549 157.695C66.6472 157.928 66.8108 158.47 66.7781 158.626C67.0399 159.013 67.4326 160.021 67.6289 160.176C67.269 159.323 67.1708 159.556 66.8108 158.47L66.9744 158.548C67.3017 159.168 67.7271 159.866 67.9234 160.331C67.8907 160.254 67.8907 160.176 67.9234 160.176C67.9889 160.331 68.0543 160.409 68.1198 160.486C68.2834 160.796 68.4143 161.107 68.5779 161.417C68.807 162.037 68.8724 161.959 69.2651 162.89C69.2324 163.045 68.9706 162.27 68.8724 162.347L69.3633 163.278C69.4942 163.2 69.7232 164.053 70.0505 164.518C70.3123 165.061 70.5086 165.371 70.6722 165.604C70.9667 166.146 71.2613 166.689 71.523 167.232C71.5558 167.387 71.5558 167.542 71.4903 167.464C71.8503 168.085 71.4576 167.232 71.5885 167.387C71.6867 167.542 71.7848 167.774 71.883 167.93L72.1448 168.472C73.2247 170.566 74.3046 172.659 75.3845 174.675C75.3517 174.675 75.3517 174.752 75.319 174.675C75.3845 174.752 75.4172 174.752 75.4499 174.83L75.4826 174.908C75.5808 175.14 75.7117 175.295 75.8099 175.528C75.8753 175.683 75.9408 175.915 75.7771 175.76C75.908 176.226 76.3989 177.156 76.6934 177.621C76.8898 177.776 76.4316 177.001 76.4971 176.923C76.628 177.156 76.7261 177.311 76.8243 177.466C79.8349 183.126 82.8782 188.708 85.9215 194.213H85.8888L85.9543 194.291C86.7069 195.609 87.4596 196.927 88.1795 198.245C88.1468 198.245 88.1468 198.168 88.0813 198.168C88.1795 198.323 88.2449 198.4 88.2776 198.478C88.4085 198.71 88.5067 198.865 88.6376 199.098C88.6376 199.253 88.7685 199.486 88.9976 200.028L88.7685 199.486C88.8012 199.486 88.8012 199.486 88.834 199.563L88.8012 199.486C88.834 199.563 88.8667 199.563 88.8667 199.641L88.834 199.563C88.8667 199.641 88.8994 199.718 88.9321 199.796C88.9321 199.796 88.9321 199.796 88.9321 199.718C91.3537 203.983 93.7753 208.247 96.2623 212.434C97.1458 213.907 97.9966 215.38 98.8802 216.853C99.2074 217.396 100.058 216.31 99.6001 215.613C96.0659 209.72 92.5972 203.672 89.1285 197.547C89.0957 197.47 89.063 197.392 88.9976 197.315C88.6049 196.617 88.2449 195.919 87.8522 195.299V195.221C87.7541 195.066 87.6232 194.834 87.4923 194.601C87.1323 193.981 86.7723 193.36 86.4451 192.663C86.3797 192.43 86.3142 192.275 86.0852 191.81C85.8234 191.345 85.7579 191.267 85.6597 191.19C85.4307 190.647 84.9071 189.871 84.9398 189.716C84.8417 189.716 84.7108 189.251 84.5471 189.096V189.019V189.174C84.1872 188.088 83.729 187.933 83.3363 186.848L83.4345 186.925L83.2382 186.615C83.2382 186.538 83.3036 186.615 83.3363 186.538L82.4528 184.832L82.6164 185.219C82.4201 184.909 82.2565 184.754 82.0601 184.289C82.4855 184.754 81.7656 183.746 81.7329 183.514L81.9292 183.824C81.6674 183.359 81.6674 183.359 81.6347 183.514C81.2747 182.893 81.4711 182.893 81.1111 182.428L81.3402 182.816C81.3729 182.971 81.1766 182.816 81.0457 182.506C81.013 182.428 80.9148 182.196 81.0457 182.351C80.7512 181.886 80.3585 181.11 80.2276 180.955C80.0967 180.645 80.1621 180.645 80.2603 180.8C79.6386 179.87 79.9985 180.335 79.3768 179.327L79.4095 179.249L79.1804 178.939L78.9514 178.241L79.0168 178.552C78.8205 178.241 78.6896 178.009 78.4932 177.544L78.6241 177.621C78.0678 176.691 78.0678 176.303 77.5115 175.45C77.4788 175.373 77.577 175.45 77.6097 175.528C77.0861 174.83 77.3152 174.675 76.7916 173.977C76.8243 173.977 76.7916 173.9 76.8243 173.9L76.5952 173.589L76.6607 173.512L76.4316 173.357L76.3335 172.969L76.2353 172.892C76.1044 172.194 75.7117 171.806 75.4499 171.031V171.263C74.5336 170.1 73.7155 167.697 72.7011 165.991L72.7666 165.914L72.3411 165.293C72.1775 164.751 72.5048 165.448 72.472 165.216C72.0466 164.441 72.243 165.061 71.7521 164.13C71.523 163.588 71.883 164.208 72.0139 164.363C71.523 163.51 70.8358 162.27 70.5413 161.572H70.5086C70.1814 161.029 69.8214 160.176 69.4614 159.556C69.4942 159.478 69.5923 159.633 69.6578 159.789C69.5269 159.556 69.396 159.168 69.2651 159.013L69.4287 159.168C69.1669 158.626 68.6433 157.773 68.6433 157.54C68.6433 157.618 68.6106 157.695 68.3816 157.307C68.3161 156.842 67.7598 156.222 67.4326 155.447C67.498 155.447 67.7598 155.989 67.6944 155.834C67.5307 155.447 67.3344 155.214 67.1708 154.981H67.2362C66.9417 154.516 66.6472 153.974 66.3854 153.431C66.32 152.966 65.6 151.88 65.6982 151.88C65.4037 151.26 65.9273 152.423 65.5346 151.725C65.4691 151.415 65.1746 151.105 65.2401 151.027L65.2728 151.105L65.011 150.562L65.2073 150.795C64.9783 150.407 64.7819 150.174 64.7165 150.252C64.5201 149.787 64.2256 149.244 64.1602 148.934L64.2584 149.089C63.6366 147.926 63.4075 146.763 62.8512 146.065C62.8185 145.988 62.8512 145.988 62.9167 146.065L62.5567 145.29L62.6876 145.367L62.0331 144.282L62.0659 144.204C61.6732 143.351 61.0514 142.188 60.5278 141.18L60.626 141.336C60.037 140.328 60.1024 140.173 59.677 139.397C59.7097 139.397 59.7097 139.397 59.7425 139.475L59.3825 138.699L59.4807 138.777C59.1534 138.389 58.7935 136.994 58.8916 137.459C58.728 137.226 58.4335 136.761 58.3681 136.684C57.9754 135.831 58.3026 136.373 58.0736 135.831C57.779 135.21 57.7136 135.21 57.3209 134.358L57.3536 134.28C57.1573 133.892 57.0264 133.737 56.7973 133.195L56.8955 133.35C56.4374 132.652 56.4374 132.109 56.0119 131.721C55.8483 131.334 55.5211 130.636 55.5865 130.558C55.0302 129.55 54.6375 128.775 54.114 127.767C54.114 127.38 54.0158 127.535 53.754 126.759L53.7213 126.914C53.0014 125.364 52.2814 123.348 51.4961 121.72L51.5288 121.565L51.3324 121.332C50.5143 119.471 49.4345 117.068 48.78 115.672C48.5509 115.284 48.1582 114.664 47.831 113.889L47.8637 113.966C47.3729 112.958 46.882 111.95 46.3911 110.787C46.4566 110.632 46.5548 110.555 46.6202 110.477C46.6202 110.4 46.3584 110.942 46.4893 110.555C46.8493 109.857 47.3729 108.694 47.7983 107.841C47.7983 107.919 47.8637 107.841 47.831 107.996C48.0928 107.066 48.191 107.453 48.6164 106.368C49.8271 103.654 51.3979 100.01 52.6414 97.4516C52.8377 96.6763 53.2304 95.8234 53.6231 94.9705L53.754 95.1256L54.0485 94.3503C54.2121 94.1177 53.8195 94.9705 54.0812 94.5053L54.1467 94.1177C54.2121 94.1177 54.9975 92.3344 54.5067 93.73L55.7829 91.0163C56.0774 90.3961 55.8811 90.4736 56.2083 89.8533C56.3065 89.7758 56.1101 90.1635 56.1756 90.1635C57.19 88.3802 57.0918 87.4498 58.0081 85.6665L57.9427 85.8216C58.0735 85.4339 58.3681 84.8912 58.3353 84.8137C58.139 84.8137 58.2372 85.2789 57.9099 85.6665C57.8772 85.4339 58.2044 84.8912 58.139 84.7361C58.3681 84.3485 58.4662 84.0383 58.6299 83.6507C58.9898 83.1079 59.3825 82.1 59.677 81.7899C59.8079 81.4022 59.9061 80.8595 60.2333 80.1617C60.5278 79.8515 60.2333 80.3943 60.5606 79.774V79.5414C60.8223 78.9987 60.7896 79.1537 60.7896 79.2313C61.0841 78.6885 60.9533 78.611 61.3459 77.9907L61.3132 78.5335C61.5423 77.9907 61.6732 77.7581 62.0331 77.0603C62.0331 77.1378 61.9022 77.448 61.8041 77.6031C62.0659 77.3705 62.0986 76.8277 62.2295 76.6727C62.1968 76.6727 61.935 77.1379 62.0004 76.8277C62.1968 76.5176 62.3277 75.8973 62.4913 75.7422L62.3277 76.285C62.6549 75.4321 62.4913 75.7422 62.9167 74.8894C62.884 74.9669 62.9167 74.9669 62.9167 74.9669C63.1457 74.2691 63.5384 73.6488 63.9311 72.8735L63.8657 73.0286C64.0293 72.6409 64.062 72.4083 64.1602 72.1757C63.8984 72.5634 63.9638 72.4083 63.8984 72.3308C64.2584 71.8656 64.2911 71.1678 64.8147 70.2374C64.8147 70.3149 64.7492 70.625 64.5856 70.8576C64.4874 71.4004 64.5201 71.5554 64.2584 72.3308C64.422 71.9431 64.651 71.4004 64.6183 71.633V71.3228C64.7165 71.0902 64.8147 70.9352 64.9128 70.7026C64.9128 70.47 64.6183 71.0127 64.8474 70.3924C65.1092 69.6946 65.0765 70.2374 65.0765 70.0823C65.4691 69.1519 65.1746 69.5396 65.6 68.8418C65.5673 68.9193 65.5019 69.1519 65.4691 69.1519C65.7636 68.6092 66.1563 67.6788 66.32 67.7563C66.2872 67.9114 66.32 67.9889 66.1891 68.144V68.0664C65.96 68.7642 66.3527 67.6788 66.3854 67.8338C66.4181 67.6012 66.7454 66.981 66.909 66.6708H66.8108C67.269 65.0426 66.8763 66.981 67.4326 65.7404C67.7925 64.8876 67.269 65.973 67.4653 65.4303C67.7271 64.9651 67.858 64.8876 68.2179 64.0347C68.3488 63.8796 68.5779 63.492 68.6433 63.647C68.8397 63.1043 69.3633 62.329 69.4287 61.9413C69.0033 62.5616 69.1015 62.8717 68.5779 63.5695L68.6433 63.1818C68.9706 62.5616 69.3306 61.7087 69.5596 61.321C69.4942 61.3986 69.4614 61.3986 69.4942 61.321C69.9196 60.3906 69.985 60.003 70.4432 59.1501C70.5413 59.1501 70.2795 59.6153 70.1159 60.003C70.4432 59.5378 70.4104 59.4602 70.8686 58.6074C70.934 58.6849 70.5741 59.1501 70.5741 59.3827L71.0322 58.3748C71.0322 58.0646 71.3922 57.677 71.6867 57.0567C72.3739 55.6611 72.4066 55.1959 72.7338 54.2655C72.8647 54.1104 72.8974 54.1104 72.8647 54.2655C72.6684 54.4981 72.7338 54.4981 72.6684 54.7307C72.8974 54.2655 73.2574 53.8778 73.1592 54.2655C73.5192 53.4901 72.9956 54.4206 73.192 53.9554L73.7155 52.9474C73.6174 52.9474 73.421 53.3351 73.6828 52.7148C73.9119 52.2496 74.0101 52.0945 74.3046 51.4743C74.2719 51.6293 74.4355 51.4743 74.2391 51.8619C74.4027 51.6293 74.6318 51.1641 74.6645 50.9315C74.3046 51.4743 75.1554 49.8461 74.8609 50.1562L75.2208 49.6135C75.1554 49.7685 75.1554 49.8461 75.0572 50.0011C75.1881 50.0011 75.319 49.4584 75.4172 49.2258C75.5481 49.0707 75.8426 48.4505 75.8753 48.4505C75.9735 48.2179 76.2353 47.7527 76.3007 47.7527C76.4316 47.4425 76.268 47.5976 76.3007 47.5201L76.8243 46.5121C76.8898 46.5121 76.9879 46.6672 76.9225 46.8998C77.0861 46.4346 76.9225 46.5121 77.217 45.9694C77.1188 46.4346 77.6424 45.3491 77.4788 45.9694C77.6751 45.7368 78.166 44.8064 78.4278 44.2637C78.5587 43.7985 78.1333 44.7289 78.1005 44.5738C78.8205 43.1007 78.755 42.6355 79.3113 41.6275L79.1477 41.8601C79.1804 41.7826 79.2132 41.7051 79.2459 41.6275C79.3768 41.3174 79.5404 41.0848 79.6713 40.7747C79.8349 40.6196 80.2603 40.0769 80.653 39.3015C80.6857 39.1465 80.3258 39.6892 80.3258 39.4566C80.4567 39.224 80.5548 38.9914 80.6857 38.7588L80.653 38.8363C80.9802 38.1385 81.3402 37.8284 81.3729 37.5183L81.7983 37.1306L81.6347 37.2857C81.6674 37.1306 82.0274 36.3553 82.0928 36.2002C82.4528 35.3473 82.6164 35.1923 82.8455 34.8821C82.8128 34.8821 82.7146 34.9597 82.6819 34.9597C82.7473 34.8046 82.8455 34.6495 82.9109 34.4945C83.1073 34.2619 83.5 33.409 83.5327 33.564C83.6636 33.3315 83.8927 33.0213 83.8599 32.8662L83.8927 33.0989C83.8599 32.7887 84.2526 32.0134 84.5799 31.3156C84.5799 31.3156 84.6126 31.3156 84.6126 31.238C84.6453 31.7032 84.9725 30.4627 85.2343 30.4627C85.2343 30.1526 85.7906 29.2997 85.7906 28.9896C85.8234 28.912 85.8561 28.8345 85.9215 28.757C86.0852 28.5244 86.1179 28.6794 86.216 28.6019L86.3142 28.2918C86.4778 28.1367 86.9687 27.2063 87.2959 26.7411L87.4923 26.0433L87.6232 25.9658C87.6559 25.8107 87.885 25.3455 87.7214 25.5781L87.885 25.3455C87.8195 25.1129 88.0159 24.9578 88.2449 24.4926C88.2776 24.4151 88.3104 24.3376 88.3758 24.26C88.4085 24.26 88.4085 24.3376 88.3758 24.4151C88.5394 24.105 88.5067 24.3376 88.6049 24.26C88.5394 24.3376 88.6703 23.8724 88.7358 23.5622C88.9976 23.0195 89.2921 22.5543 89.5539 22.0116C89.5866 22.0891 89.652 22.0891 89.8811 21.6239C89.6193 22.0891 89.5539 22.4768 89.423 22.7869C89.5212 22.6318 89.5866 22.5543 89.4557 22.8644C89.8157 22.0891 89.5539 22.4768 89.9138 21.779C89.9466 22.0116 90.0775 21.8565 90.4047 21.3138L90.1102 21.6239C90.1102 21.5464 90.1429 21.5464 90.1429 21.4688C90.0447 21.6239 90.012 21.6239 89.9793 21.6239C90.0447 21.4688 90.3392 20.616 90.4374 20.616C90.2738 20.771 90.3065 20.616 90.4047 20.3834C90.6338 19.9182 90.8628 19.5305 91.1246 19.0653C91.2228 18.9102 91.3864 18.6776 91.3864 18.8327C91.4846 18.6001 91.1901 18.9878 91.2228 18.9102C91.2882 18.7552 91.3537 18.6776 91.4519 18.5226C91.55 18.3675 91.6482 18.29 91.7464 18.1349L91.6809 18.29L92.0082 17.8248C92.0409 17.6697 91.6809 18.2124 91.9427 17.6697C92.0409 17.5922 92.27 17.0494 92.3027 17.127C92.2045 17.5146 92.3681 17.4371 92.1391 17.9023C92.3354 17.5146 92.9244 16.4292 92.6299 16.6618L92.859 16.2741C92.7281 16.4292 92.3681 16.9719 92.5645 16.5067C92.5972 16.4292 92.6626 16.3516 92.6954 16.2741L92.7281 16.1966C92.859 15.964 93.0226 15.6538 93.1535 15.4212C93.1862 15.4212 93.219 15.3437 93.2844 15.2662L93.1862 15.3437C93.2517 15.1886 93.3498 15.0336 93.4153 14.8785C93.4153 14.8785 93.4153 14.8785 93.448 14.8785C93.5462 14.6459 93.6116 14.5684 93.6771 14.4133C93.7753 14.2582 93.8734 14.0256 93.9716 13.8706C94.2334 13.4054 94.6915 12.5525 94.8879 12.3199C95.1824 11.6996 94.9206 12.2424 94.9206 12.0873C94.9533 12.0098 94.986 11.9322 95.0188 11.8547C95.4442 11.467 96.1641 9.83881 96.7204 8.83088C96.6877 8.83088 96.6877 8.83088 96.6877 8.83088C96.8513 8.52075 97.0149 8.21061 97.2113 7.90048C97.2113 7.90048 97.1785 8.05554 97.0476 8.28814L97.3422 7.66788C97.6039 7.43528 96.884 8.67581 97.244 8.28814C97.5712 7.66788 97.7348 6.97008 98.1602 6.34981C98.0948 6.81501 98.4548 5.72954 98.422 6.11721C98.3566 6.34981 98.2257 6.50488 98.1275 6.73748L98.2257 6.65994C98.9783 5.34187 98.3893 6.03967 98.7166 5.18681C99.1747 4.33394 99.1092 4.64407 99.1747 4.72161C99.2729 4.64407 99.4692 4.17887 99.6001 3.94627C99.371 4.56654 99.0765 4.72161 99.142 4.48901C99.142 4.48901 99.1747 4.48901 99.1747 4.41147C99.371 4.25641 99.6001 3.71367 99.7964 3.326C99.8946 3.0934 100.026 2.93834 100.124 2.70574C100.189 2.55067 100.124 2.3956 99.9601 2.31807ZM2.5412 212.356L2.44303 212.666C2.73755 211.891 2.6721 212.279 2.73755 212.201L2.6721 212.356L2.80299 212.124C2.5412 212.821 2.27941 213.442 2.05035 214.139C2.14852 213.674 2.14852 213.132 2.5412 212.356ZM1.65766 214.837C1.82128 214.45 1.91945 214.295 2.01762 214.217C1.91945 214.527 1.78855 214.76 1.69038 215.07L1.65766 214.837Z" fill="black"/>
<path d="M76.8898 43.2557L76.9879 43.0231C76.9225 43.1782 76.8898 43.2557 76.8898 43.2557Z" fill="black"/>
<path d="M90.2084 18.8327C90.2738 18.7552 90.372 18.5226 90.5684 18.2124L90.2084 18.8327Z" fill="black"/>
<path d="M59.6443 77.2154L59.7425 76.9828C59.677 77.1378 59.6443 77.1378 59.6443 77.2154Z" fill="black"/>
<path d="M69.8213 56.9792C69.7886 57.0567 69.7559 57.2118 69.6904 57.2893C69.7559 57.1342 69.8213 57.0567 69.8213 56.9792Z" fill="black"/>
<path d="M1.82125 213.287C1.69035 213.597 1.6249 213.907 1.52673 214.295L1.82125 213.287Z" fill="black"/>
<path d="M90.6665 20.4609C90.5356 20.8486 90.2083 21.2362 90.2411 21.3138C90.4047 21.0036 90.6338 20.6935 90.6665 20.4609Z" fill="black"/>
<path d="M42.5625 119.394L42.4643 119.626C42.5297 119.471 42.5625 119.471 42.5625 119.394Z" fill="black"/>
<path d="M29.2438 144.127C29.2438 144.049 29.2766 144.049 29.2766 144.049L29.2438 144.127Z" fill="black"/>
<path d="M28.393 145.91C28.4585 145.755 28.4912 145.6 28.5566 145.522C28.4585 145.677 28.393 145.832 28.393 145.91Z" fill="black"/>
<path d="M1.52678 214.295L1.36316 214.837C1.42861 214.682 1.49405 214.45 1.52678 214.295Z" fill="black"/>
<path d="M70.5087 55.7386C70.5414 55.7386 70.5741 55.6611 70.5741 55.5836C70.5741 55.5836 70.5741 55.5836 70.5087 55.7386Z" fill="black"/>
<path d="M65.2401 69.9272C65.1419 70.1598 65.011 70.47 64.9456 70.7026C65.0437 70.5475 65.1092 70.3149 65.2401 69.9272Z" fill="black"/>
<path d="M66.3854 67.9113C66.3854 67.9113 66.3854 67.9873 66.3854 67.9113C66.4178 67.9113 66.3854 67.9113 66.3854 67.9113Z" fill="black"/>
<path d="M70.9995 58.84L71.2286 58.2197L71.0322 58.5298C71.065 58.6074 71.065 58.6074 70.9995 58.84Z" fill="black"/>
<path d="M62.9495 74.9669C62.9168 75.0444 62.9168 75.0444 62.884 75.122C62.9168 75.0444 62.9495 74.9669 62.9495 74.9669Z" fill="black"/>
<path d="M61.0187 79.2312C61.1496 78.9211 61.0187 79.1537 60.9205 79.2312C60.9205 79.3088 60.9533 79.3088 61.0187 79.2312Z" fill="black"/>
<path d="M75.8427 48.683C75.8754 48.6055 75.8754 48.528 75.8754 48.528C75.8427 48.6055 75.8427 48.683 75.8427 48.683Z" fill="black"/>
<path d="M88.3758 24.4151C88.3431 24.4926 88.2776 24.5702 88.2449 24.7252C88.2776 24.5702 88.3431 24.4926 88.3758 24.4151Z" fill="black"/>
<path d="M72.5702 55.1183C72.6356 54.9633 72.6684 54.8857 72.7011 54.8082C72.6684 54.9633 72.6029 55.0408 72.5702 55.1183Z" fill="black"/>
<path d="M88.0813 25.0354L87.885 25.3455L88.0813 25.0354Z" fill="black"/>
<path d="M89.423 22.7869C89.3576 22.942 89.2594 23.097 89.194 23.1746C89.2921 23.097 89.3576 22.942 89.423 22.7869Z" fill="black"/>
<path d="M80.653 38.9138C80.653 38.9138 80.6203 38.9138 80.653 38.9138C80.4894 39.3015 80.5876 39.0689 80.653 38.9138Z" fill="black"/>
<path d="M87.3286 26.7411C87.3286 26.7411 87.2959 26.8186 87.3286 26.7411L87.2632 26.8962L87.3286 26.7411Z" fill="black"/>
<path d="M90.2411 21.3138C90.2084 21.3913 90.1757 21.4688 90.1429 21.5464C90.1757 21.4688 90.2084 21.3913 90.2411 21.3138C90.2411 21.3913 90.2411 21.3138 90.2411 21.3138Z" fill="black"/>
<path d="M83.5 33.7967C83.5328 33.6416 83.5328 33.5641 83.5328 33.5641C83.4673 33.7191 83.4346 33.7967 83.5 33.7967Z" fill="black"/>
<path d="M76.9879 173.822L77.0861 173.977C77.0206 173.822 77.0206 173.822 76.9879 173.822Z" fill="black"/>
<path d="M59.906 139.475L60.0042 139.707C59.9715 139.552 59.9387 139.475 59.906 139.475Z" fill="black"/>
<path d="M69.7887 159.789C69.8542 159.944 69.9196 160.021 69.9523 160.021C69.9196 160.021 69.8542 159.944 69.7887 159.789Z" fill="black"/>
<path d="M2.31213 1.77534L2.70482 2.55068C2.57392 2.24055 2.44303 2.00795 2.31213 1.77534Z" fill="black"/>
<path d="M40.5663 103.189L40.4681 102.957C40.5009 103.112 40.5336 103.112 40.5663 103.189Z" fill="black"/>
<path d="M29.8001 72.1757C29.8328 72.1757 29.8328 72.2531 29.8328 72.2531L29.8001 72.1757Z" fill="black"/>
<path d="M29.0475 70.1599C29.1129 70.3149 29.1457 70.3925 29.2111 70.5475C29.1457 70.3149 29.1129 70.2374 29.0475 70.1599Z" fill="black"/>
<path d="M2.31213 1.77532L2.11578 1.31012C2.18123 1.46519 2.24668 1.62025 2.31213 1.77532Z" fill="black"/>
<path d="M70.5741 161.339C70.6068 161.417 70.6068 161.417 70.6395 161.494C70.6723 161.572 70.6723 161.494 70.5741 161.339Z" fill="black"/>
<path d="M69.396 163.122L69.6905 163.588L69.5269 163.2C69.4942 163.277 69.4942 163.278 69.396 163.122Z" fill="black"/>
<path d="M61.346 146.84C61.3132 146.84 61.2805 146.763 61.2805 146.763C61.3132 146.84 61.346 146.84 61.346 146.84Z" fill="black"/>
<path d="M59.2516 142.964C59.4152 143.196 59.2843 142.964 59.2189 142.731C59.2189 142.809 59.2189 142.809 59.2516 142.964Z" fill="black"/>
</svg>
