<svg width="1280" height="720" viewBox="0 0 1280 720" fill="none" xmlns="http://www.w3.org/2000/svg">
<g clip-path="url(#clip0)">
<path d="M999.957 157.979L1000.87 157.26C999.957 157.739 999.957 157.859 999.957 157.979Z" fill="white"/>
<path d="M1162.97 68.3377C1162.52 68.3377 1162.97 68.3377 1162.97 68.3377C1163.88 67.8589 1165.25 67.2605 1167.07 66.0637L1162.97 68.3377Z" fill="white"/>
<path d="M783.664 277.66L785.03 276.941C784.575 277.3 784.12 277.54 783.664 277.66Z" fill="white"/>
<path d="M912.074 206.689C911.619 206.928 911.163 207.287 910.708 207.646C911.163 207.287 912.074 206.928 912.074 206.689Z" fill="white"/>
<path d="M1200.31 51.2234L1198.04 52.1808C1198.49 52.1808 1199.4 51.8218 1200.31 51.2234Z" fill="white"/>
<path d="M1259.96 16.875C1259.51 16.875 1259.51 16.875 1259.96 16.875C1259.51 16.9951 1259.51 16.875 1259.96 16.875Z" fill="white"/>
<path d="M1234.46 30.0398C1234.01 30.2792 1233.55 30.6382 1233.1 30.9972C1233.55 30.5185 1234.46 30.0398 1234.46 30.0398Z" fill="white"/>
<path d="M1232.19 31.476C1232.64 31.3564 1232.64 31.117 1233.1 30.9973C1232.19 31.2367 1232.19 31.476 1232.19 31.476Z" fill="white"/>
<path d="M8.19636 713.657C6.37494 714.614 5.00888 715.572 4.09818 716.409L8.19636 713.657Z" fill="white"/>
<path d="M9.56244 715.333L8.19638 716.051C8.65173 715.811 9.10709 715.572 9.56244 715.333Z" fill="white"/>
<path d="M1169.35 69.4148C1167.98 70.4919 1163.88 72.4068 1164.34 72.4068C1165.71 71.4494 1168.89 70.0132 1169.35 69.4148Z" fill="white"/>
<path d="M563.273 410.984L561.907 411.582C562.817 411.343 563.273 411.223 563.273 410.984Z" fill="white"/>
<path d="M9.56244 715.332L10.9285 714.495C10.9285 714.495 10.4731 714.614 10.4731 714.734C10.0178 714.973 10.0178 715.093 9.56244 715.332Z" fill="white"/>
<path d="M387.962 499.428C387.962 499.308 387.962 499.308 387.962 499.428C387.962 499.308 388.417 499.189 388.417 499.189L387.962 499.428Z" fill="white"/>
<path d="M376.578 505.293C377.488 504.814 377.944 504.455 378.854 503.976C377.488 504.694 377.033 505.053 376.578 505.293Z" fill="white"/>
<path d="M4.09818 716.409L1.36606 718.085C2.27677 717.487 3.18747 717.008 4.09818 716.409Z" fill="white"/>
<path d="M261.829 570.04C262.284 569.8 262.739 569.681 262.739 569.441C262.284 569.681 261.829 569.92 261.829 570.04Z" fill="white"/>
<path d="M920.27 202.26C920.726 202.141 920.726 201.901 921.181 201.782C921.181 201.662 921.181 201.662 920.27 202.26Z" fill="white"/>
<path d="M854.699 245.705C853.333 246.423 851.512 247.5 851.057 248.098C852.423 247.38 853.333 246.662 854.699 245.705Z" fill="white"/>
<path d="M841.494 253.245C841.494 253.125 841.949 253.125 841.949 253.005C841.949 253.125 841.494 253.125 841.494 253.245Z" fill="white"/>
<path d="M911.163 214.827C910.708 214.947 910.253 215.186 909.797 215.426C910.253 215.306 910.708 215.186 911.163 214.827Z" fill="white"/>
<path d="M643.415 367.061C659.352 358.085 679.388 346.237 695.325 337.38C698.058 335.346 703.066 332.473 708.075 329.601L709.441 329.481L713.54 327.088C715.361 326.13 710.352 328.883 713.995 327.327L714.906 326.37C715.816 326.25 725.834 320.266 719.459 324.335L735.852 315.12C739.495 313.085 737.218 313.803 741.316 311.649C742.227 311.17 739.95 312.487 740.861 312.367C753.611 305.665 752.7 304.348 764.539 298.005L763.629 298.604C765.45 297.527 769.093 295.492 768.637 295.372C765.905 296.09 767.271 296.569 763.173 298.364C762.718 298.125 766.816 295.851 765.905 295.971C768.637 294.535 770.004 293.577 772.28 292.261C776.834 290.106 781.843 286.995 785.486 285.319C787.307 284.242 788.218 282.925 792.316 280.532C795.959 278.976 792.316 281.011 796.414 278.737V278.258C799.601 276.463 799.602 276.702 799.602 276.822C803.244 274.907 801.878 275.146 806.432 272.633L804.61 274.069C807.798 272.154 809.164 271.436 813.717 268.923C813.717 269.043 811.896 270 810.53 270.718C813.717 269.402 814.628 268.324 815.994 267.606C815.539 267.846 812.351 269.521 813.262 268.564C815.539 267.367 817.36 265.811 819.637 264.973L817.816 266.41C821.914 263.777 819.637 264.973 825.101 261.862C824.646 261.981 825.101 261.981 825.101 262.101C827.833 260.066 832.842 257.673 837.851 254.8L836.941 255.399C838.762 254.202 839.673 253.604 840.583 252.886C837.396 254.441 837.851 253.963 837.396 254.082C841.949 252.048 842.405 250.731 848.78 247.261C848.78 247.38 847.869 248.218 845.592 249.175C844.226 250.492 844.682 250.731 841.494 252.886C843.771 251.569 846.503 250.013 846.048 250.372V249.894C847.414 249.056 848.78 248.457 849.69 247.859C849.69 247.5 846.048 249.415 848.78 247.5C852.423 245.346 851.512 246.543 851.967 246.064C856.976 243.191 853.333 244.747 858.342 241.995C857.887 242.234 856.976 242.832 856.521 243.072C860.619 241.157 865.172 238.165 866.994 237.686C866.539 238.045 866.994 238.045 865.628 238.883C862.44 241.157 868.815 237.088 868.36 237.806C867.449 237.925 872.458 235.173 875.19 233.856L873.824 234.215C879.288 229.787 874.735 234.574 881.565 230.386C885.663 227.753 879.744 231.343 882.021 229.667C885.208 227.872 887.029 227.274 891.583 224.641C892.949 223.923 896.137 222.487 897.047 222.487C899.779 220.931 905.699 217.699 907.065 216.742C901.601 219.375 902.967 219.495 896.592 222.606L897.503 221.649C901.601 219.495 906.154 216.622 908.886 215.186C908.431 215.425 907.976 215.545 907.976 215.425C913.44 212.314 914.351 211.356 919.815 208.245C921.181 207.886 917.994 209.681 915.717 210.997C919.815 209.082 919.36 208.963 924.824 205.971C925.735 205.851 921.181 208.005 921.181 208.364L927.101 205.013C927.101 204.415 931.654 202.5 935.297 200.346C943.949 195.439 943.949 194.601 948.047 191.848C949.413 191.13 950.324 191.011 949.868 191.25C947.136 192.447 948.047 192.207 947.592 192.686C950.324 191.011 954.877 189.215 953.511 190.173C958.065 187.54 951.234 191.011 953.966 189.455L960.341 185.864C958.975 186.223 956.699 187.42 959.886 185.625C962.618 184.069 963.984 183.351 967.627 181.316C967.172 181.675 969.449 180.718 966.716 182.274C968.538 181.316 971.27 179.761 972.181 179.162C967.627 181.316 978.1 175.452 974.457 177.008L979.011 174.854C978.1 175.332 978.1 175.452 976.734 176.17C978.556 175.572 979.922 174.375 981.288 173.537C982.654 172.819 986.297 170.785 987.207 170.545C988.118 169.827 991.305 168.152 992.216 167.792C994.038 166.715 991.761 167.673 992.216 167.314L998.591 163.723C999.502 163.604 1000.87 163.364 999.957 163.963C1002.23 162.527 999.502 163.364 1003.6 161.33C1002.23 162.646 1009.06 158.697 1006.79 160.492C1009.52 159.415 1015.44 156.064 1018.63 154.149C1019.99 152.952 1014.98 156.064 1014.53 155.944C1023.64 150.798 1022.27 150.199 1029.56 146.489L1027.73 147.447C1031.83 145.053 1031.38 145.292 1033.2 143.856C1032.74 144.574 1040.03 141.463 1046.86 137.513C1046.86 137.154 1042.31 139.548 1042.76 138.949L1047.31 136.316C1047.77 136.197 1047.31 136.436 1046.86 136.795C1050.5 134.402 1055.51 132.606 1055.97 131.888L1061.43 129.734L1059.15 130.572C1059.15 130.213 1063.71 127.58 1064.62 127.101C1068.72 124.468 1070.99 123.511 1074.18 122.074C1073.27 122.553 1070.54 123.511 1073.72 121.476C1075.09 121.596 1081.92 117.168 1082.38 117.287C1083.74 116.449 1086.93 115.013 1086.47 114.894L1086.93 115.133C1086.02 114.774 1091.94 111.782 1095.58 109.388C1096.04 110.106 1100.14 106.755 1103.32 105.918C1103.32 105.319 1110.15 101.729 1110.15 101.25C1113.34 99.4547 1113.8 99.6941 1115.16 99.3351L1116.53 98.4973C1118.8 97.6595 1124.72 94.3085 1128.82 92.2739L1131.1 90.2393L1132.92 89.6409C1133.38 89.2819 1136.11 87.726 1133.83 88.6835L1135.65 87.726C1134.74 87.4867 1137.93 86.2898 1141.12 84.1356C1142.03 83.6569 1142.03 83.8962 1141.57 84.2553C1143.39 83.2978 1142.94 83.7765 1144.3 83.1781C1142.94 83.8962 1149.31 79.3484 1143.85 81.9813C1142.94 82.101 1145.67 80.5452 1147.49 79.468L1149.31 78.9893L1150.68 77.6728C1153.41 76.117 1155.23 75.5186 1157.51 74.2021C1155.23 75.5186 1153.87 77.3138 1159.79 73.9627C1156.6 75.7579 1155.69 76.5957 1154.32 77.5531C1155.69 76.8351 1156.14 76.476 1154.78 77.6728C1159.33 75.0398 1155.69 76.7154 1160.24 74.2021C1160.7 74.4414 1162.06 73.7234 1166.62 71.5691L1162.97 73.125C1162.97 73.0053 1162.97 72.8856 1163.43 72.7659C1162.06 73.3643 1161.61 73.6037 1161.15 73.6037C1162.06 73.125 1165.71 70.492 1166.62 70.1329C1160.7 72.5266 1173.9 65.4654 1170.26 67.0212C1170.71 66.6622 1173.9 64.867 1174.36 64.7473C1171.17 67.0212 1178 63.1914 1178 63.6702C1179.37 62.8324 1174.36 65.3457 1176.18 64.1489C1178.46 62.8324 1180.73 61.9946 1182.1 61.2766L1181.19 61.875L1185.29 59.9601C1185.29 59.601 1181.19 61.7553 1184.38 59.9601C1185.29 59.4813 1188.47 57.6861 1188.47 57.6861C1187.56 58.6436 1189.38 58.0452 1186.65 59.601C1188.93 58.2845 1196.21 54.2154 1192.57 55.7712L1195.3 54.2154C1193.48 55.1728 1188.02 57.8058 1193.48 54.6941L1196.67 52.4202L1198.95 51.5824C1198.49 51.5824 1198.95 51.2234 1200.77 50.3856C1201.22 50.1462 1202.59 49.4281 1203.05 49.5478C1207.14 47.2739 1206.23 47.3936 1206.69 47.0345C1208.96 45.718 1209.88 45.2393 1209.42 45.9574C1212.61 44.1622 1218.07 41.0505 1220.8 39.9734C1224.9 37.5797 1219.89 40.4521 1221.71 39.0159C1226.72 37.101 1236.29 31.2367 1243.12 27.4069C1239.93 28.3643 1244.94 26.3297 1244.94 25.492C1244.03 26.3297 1252.22 21.9015 1246.76 25.3723L1250.4 23.3377C1253.59 22.0212 1244.94 26.8085 1249.49 24.7739C1253.59 22.5 1254.96 20.8244 1260.42 18.0718C1259.51 19.0292 1264.06 15.9175 1263.61 16.7553C1262.7 17.3537 1261.33 18.0718 1259.96 18.9095L1260.88 18.4308C1269.98 13.4042 1262.7 16.8749 1266.79 14.1223C1272.26 11.0106 1271.8 11.7287 1272.26 11.609C1273.17 11.1303 1275.9 9.57442 1277.27 8.73665C1274.54 10.6515 1270.44 12.2074 1271.8 11.2499C1274.99 10.0531 1280 6.70208 1281.37 5.74463C1272.71 10.0531 1275.9 8.85633 1267.25 12.8058C1266.34 13.4042 1267.71 13.4042 1262.7 15.9175C1264.97 14.3617 1262.24 15.9175 1261.33 16.3962C1262.7 15.9175 1258.6 18.1914 1257.23 18.9095C1255.41 19.5079 1258.6 17.234 1254.04 19.7473L1254.5 20.3457C1252.68 21.3031 1254.5 19.867 1250.86 21.9015C1252.22 20.7047 1249.49 22.1409 1254.04 19.2686C1247.21 22.4999 1245.39 24.5345 1240.84 27.1675C1241.29 26.9281 1241.29 26.8085 1241.75 26.5691C1240.84 27.1675 1239.02 28.2446 1237.65 28.9627C1234.46 30.6382 1239.47 27.5265 1238.56 27.8856L1233.55 30.7579V30.8776C1232.19 31.5957 1231.28 32.3138 1230.37 32.5531C1231.28 31.7154 1231.73 31.2367 1232.64 30.6382L1228.09 33.75C1228.09 33.3909 1223.08 36.1436 1226.72 33.9893L1218.98 38.4175L1217.62 38.6569C1215.79 39.734 1215.8 39.734 1218.53 38.5372C1215.8 39.9734 1208.05 45.359 1208.05 44.4015C1202.59 47.8723 1199.86 49.0691 1193.03 53.3776C1198.04 50.1462 1185.74 56.968 1191.21 53.4973C1187.11 55.4122 1187.56 56.0106 1184.83 57.5664C1182.1 59.0026 1182.1 58.2845 1184.83 56.609L1181.64 58.5239L1179.37 60.1994C1175.72 61.875 1178 60.4388 1174.81 62.234V62.7127L1172.08 63.9095C1172.99 63.5505 1171.63 64.5079 1169.35 65.8244L1166.62 67.3803C1168.89 65.8244 1163.88 68.8164 1164.8 67.9787C1162.52 69.2952 1162.52 69.2952 1157.97 71.8085L1159.33 71.4494C1154.32 74.6808 1158.42 71.4494 1153.87 74.0824L1154.78 73.9627C1147.49 77.5531 1144.3 80.3058 1138.84 82.9388C1141.57 81.3829 1140.21 81.742 1140.21 81.742C1136.11 84.1356 1129.28 87.8457 1125.63 90.359C1123.36 91.1968 1122.9 91.3164 1117.89 93.8297C1114.71 95.625 1114.25 95.8643 1113.8 96.5824C1110.61 98.2579 1105.14 101.609 1104.23 101.609C1103.78 102.088 1101.5 103.165 1100.14 104.122L1099.68 104.242L1100.59 104.122C1093.76 107.114 1091.94 109.388 1085.11 112.5L1086.02 111.902L1083.74 113.218C1083.29 113.457 1083.74 112.859 1083.74 112.739L1072.81 118.843L1075.55 117.646C1073.27 118.963 1072.36 119.92 1069.17 121.356C1072.81 118.843 1065.53 123.391 1064.16 123.75L1066.44 122.433C1063.25 124.229 1063.25 124.229 1064.16 124.109C1060.06 126.503 1060.52 125.545 1056.88 127.819L1059.61 126.263C1060.52 125.904 1059.15 126.981 1057.33 128.058C1056.88 128.298 1055.51 129.016 1056.42 128.178C1053.23 130.093 1048.22 132.726 1046.86 133.564C1045.04 134.521 1045.04 134.162 1045.95 133.564C1039.57 137.513 1042.76 135.359 1035.93 139.308V139.189L1033.65 140.625L1029.56 142.42L1031.38 141.822C1029.1 143.138 1027.73 143.976 1025 145.412L1025.46 144.694C1019.08 148.404 1017.26 148.763 1011.8 152.354C1011.34 152.593 1012.25 151.995 1012.71 151.755C1007.7 154.987 1007.7 154.029 1002.69 157.38C1002.69 157.141 1002.23 157.5 1002.23 157.38L999.957 158.936L999.502 158.697L998.136 160.013L995.859 160.851L994.948 161.449C990.85 162.886 988.118 165.16 983.109 167.194L984.475 166.955C976.279 172.58 961.708 179.162 950.779 185.864L950.324 185.625L946.225 188.378C943.038 189.814 947.136 187.42 946.225 187.899C941.217 190.771 944.859 189.215 938.94 192.566C935.297 194.242 939.395 191.968 940.761 191.13C935.297 194.362 927.556 199.029 923.002 201.183C923.002 201.303 923.002 201.423 923.002 201.303C919.36 203.457 914.351 206.21 910.253 208.484C910.253 208.364 911.163 207.766 912.074 207.287C910.708 208.125 908.431 209.202 907.52 209.92L908.431 208.963C905.244 210.758 899.324 214.229 898.413 214.468C898.869 214.229 899.324 214.468 896.592 215.904C894.315 216.622 889.306 220.093 884.753 222.487C885.208 222.128 888.396 220.332 887.485 220.811C885.208 222.008 883.387 223.205 882.021 224.282V223.923L872.458 229.667C870.181 230.386 862.896 235.053 862.896 234.574C859.253 236.609 866.539 232.899 861.985 235.532C860.164 236.13 857.887 237.925 857.431 237.686L857.887 237.447L854.699 239.242L856.065 238.045C853.333 239.601 851.967 240.798 852.423 240.918C849.69 242.354 846.048 244.508 844.226 245.106L845.137 244.508C837.851 248.697 831.476 251.21 826.467 254.561C826.012 254.8 826.012 254.8 826.923 254.202L822.369 256.715L822.825 255.997L815.994 260.306V260.186C810.985 262.939 803.244 267.367 796.869 270.957L797.78 270.359C791.405 274.308 790.95 274.069 785.941 277.061C785.941 276.941 786.396 276.822 786.396 276.702L781.843 279.335L782.753 278.737C780.021 280.771 772.28 284.122 775.012 283.045C773.191 284.122 770.459 286.037 770.004 286.396C764.995 289.269 768.182 286.995 764.995 288.79C761.352 290.824 761.352 291.303 755.888 293.936V293.816C753.611 295.133 752.245 295.971 749.057 297.766L749.968 297.168C745.414 300.16 742.682 300.758 739.95 303.152C737.673 304.348 733.575 306.742 733.12 306.503C727.2 310.213 722.191 313.085 715.816 316.676C713.995 317.154 714.45 317.513 709.897 319.548L710.807 319.428C701.7 324.574 689.861 330.319 679.843 335.944L678.933 336.064L677.567 337.261C666.638 343.364 652.067 351.144 643.415 356.051C640.683 357.726 637.04 360.12 632.487 362.633L632.942 362.394C625.201 366.822 617.46 371.489 608.353 376.277C608.808 375.918 607.442 376.396 608.353 375.798C606.987 376.995 603.344 378.67 601.523 379.628L604.255 378.431C602.433 379.867 598.335 381.782 596.514 382.38L593.326 384.654C592.871 384.774 592.415 385.013 592.415 385.013L591.96 385.372L589.228 386.449C588.317 387.048 583.308 389.92 582.398 390.878C581.942 391.117 577.844 393.032 580.576 391.476L566.46 399.375L568.737 398.178C569.648 398.059 565.55 400.452 563.273 401.649C565.55 399.973 562.817 401.41 560.996 402.008C559.175 403.085 563.273 401.17 562.362 401.769C560.085 403.205 555.532 406.077 553.71 406.676L555.076 405.838C551.889 407.633 549.612 408.471 546.425 410.266C544.148 411.941 541.416 413.138 542.782 412.899C538.684 415.293 540.505 413.737 539.139 414.455C537.773 415.652 531.398 418.883 530.487 419.242C529.577 420.678 518.648 425.465 519.103 426.064L515.005 427.859C515.005 427.979 515.005 428.457 512.729 430.013C509.996 431.449 509.996 430.971 508.63 431.449L508.175 432.527C491.782 440.785 472.657 452.154 455.354 461.25C448.068 465.439 439.417 470.705 430.765 475.492L431.676 474.894L423.024 479.681L429.854 476.21C428.033 477.287 426.667 478.125 424.845 479.082C414.827 484.348 402.078 491.29 390.694 497.872C384.319 502.181 384.774 500.505 378.399 504.694C378.854 504.335 378.854 504.215 379.31 503.856C372.024 508.285 367.926 510.678 361.096 515.106C360.64 514.508 356.087 517.979 356.087 517.5V517.979C354.265 518.936 349.712 521.21 350.167 520.851L347.435 522.886L346.524 523.005C341.971 525.519 332.864 531.024 329.221 532.221C318.748 538.564 300.989 548.497 286.418 556.396C285.052 557.593 280.953 559.867 277.766 561.662L273.668 563.457C270.48 565.253 267.748 567.407 264.561 568.963C264.561 568.963 264.561 568.843 264.561 568.723C261.373 570.638 257.73 572.314 255.454 574.109C251.811 576.144 247.713 578.058 248.623 577.34C249.534 577.699 240.882 581.649 240.882 581.649C240.882 581.649 48.2675 687.447 8.19637 713.657C7.28566 714.614 3.18748 717.008 5.46425 716.17C2.73212 718.085 0 718.803 0 719.162C5.00889 716.769 0 720.12 5.00889 717.726L2.27677 719.282C2.27677 719.641 5.46425 717.128 5.46425 717.606V717.008C7.74102 715.811 9.10708 715.093 10.4731 714.734C12.2946 713.537 12.2946 712.58 17.7588 709.827L16.3927 710.665C20.4909 708.391 19.5802 709.348 20.4909 708.87L19.5802 709.348L23.6784 707.433C20.4909 708.87 17.3034 711.383 19.5802 710.066C24.5891 707.314 18.2142 710.785 21.857 708.63C24.1338 707.314 24.1338 707.793 24.1338 707.912L28.2319 705.638C28.6873 705.758 25.4998 707.194 27.7766 706.237L32.3301 703.245C34.6069 702.886 37.339 700.013 40.9819 698.817C37.339 700.971 41.8926 698.697 41.4372 699.056L50.5443 693.91C51.455 693.431 48.2675 695.346 49.6336 694.508C51.455 693.551 52.3657 692.832 53.2764 692.354C54.1871 691.995 60.1067 688.524 60.5621 688.763C67.3924 685.293 62.3835 687.207 68.3031 683.976C69.6692 683.617 63.7495 686.609 66.937 685.173L72.8566 681.822C72.4013 682.181 72.4013 682.54 70.1245 683.856C86.9726 674.88 97.9011 670.213 112.472 661.835C115.205 660.758 111.106 662.673 110.196 663.63C120.213 657.527 126.588 655.253 135.695 650.226L135.24 650.106C149.356 643.165 163.927 634.428 178.954 626.41L177.133 627.367C178.499 626.17 181.686 624.375 183.963 623.058C184.418 622.939 183.052 624.136 187.15 621.742C186.24 622.221 184.418 623.178 184.418 622.819C198.079 615.997 223.579 601.396 244.525 590.027C271.846 574.588 302.355 557.952 329.221 542.753C325.123 545.027 325.578 543.949 329.221 542.274C339.694 537.726 343.792 534.016 353.355 529.229C368.381 520.372 384.319 512.713 397.524 504.335L398.435 504.215C400.711 503.019 401.167 502.66 403.444 501.343C408.908 498.351 415.283 494.641 418.47 492.846L418.015 492.606C421.202 490.811 420.292 491.769 423.024 489.854V489.973L426.211 487.699C426.667 488.059 435.318 482.553 438.506 481.237C442.604 478.843 449.89 474.415 456.265 470.824C458.086 470.226 465.827 465.918 470.836 463.165C480.398 457.779 494.059 450 506.354 443.178H505.443L508.63 441.383C508.63 441.383 509.086 441.144 508.63 441.503C511.818 440.186 515.916 437.314 518.648 435.997C516.371 436.835 516.371 437.194 514.55 438.271C511.818 439.707 513.639 438.271 517.282 436.237L519.559 434.801C520.47 434.681 522.746 433.484 523.657 433.364C534.13 427.5 540.505 423.311 551.434 417.207C550.978 417.926 559.175 412.779 557.809 414.215C563.728 410.505 555.987 414.694 558.264 412.899C560.085 411.822 561.907 410.745 562.362 410.625C561.907 411.104 564.639 409.907 563.273 410.745L567.371 408.231C567.826 407.992 566.916 408.59 566.46 408.83C574.657 403.803 582.853 400.093 590.139 395.545C590.139 395.186 586.951 397.34 586.951 396.981C594.237 392.434 594.692 393.152 601.523 388.843L600.612 389.801C602.889 388.364 603.344 387.766 607.898 385.612C609.264 385.253 605.165 387.527 603.344 388.723C606.076 387.168 612.906 383.338 610.174 384.415C613.362 382.5 615.183 381.902 617.005 380.944C617.005 380.944 613.362 382.62 615.183 381.543C620.192 379.149 627.022 375.199 632.487 372.207C632.487 372.207 633.397 372.088 632.942 372.327C636.585 370.053 637.495 370.412 643.415 367.061Z" fill="white"/>
<path d="M930.288 204.176L928.011 205.372C928.011 205.372 928.011 205.492 927.556 206.09L930.288 204.176Z" fill="white"/>
<path d="M825.557 262.46C825.557 262.58 825.101 262.819 825.101 262.939C825.557 262.58 825.557 262.46 825.557 262.46Z" fill="white"/>
<path d="M801.423 276.702C803.244 275.625 801.423 276.582 800.512 277.061C800.512 277.061 800.512 277.061 801.423 276.702Z" fill="white"/>
<path d="M987.663 170.904C987.207 171.144 987.207 171.263 987.207 171.263C987.663 170.904 987.663 170.785 987.663 170.904Z" fill="white"/>
<path d="M1151.13 79.5876C1150.68 79.7073 1150.68 79.827 1150.22 79.9467C1150.68 79.827 1150.68 79.7073 1151.13 79.5876Z" fill="white"/>
<path d="M1141.12 84.4946C1140.66 84.734 1140.21 85.093 1139.3 85.5718C1140.21 85.093 1140.66 84.734 1141.12 84.4946Z" fill="white"/>
<path d="M948.502 193.045C948.047 193.404 947.592 193.763 947.136 194.003C947.592 193.524 948.047 193.285 948.502 193.045Z" fill="white"/>
<path d="M1137.47 86.6489L1135.2 87.9654L1137.47 86.6489Z" fill="white"/>
<path d="M1153.87 77.9121C1152.96 78.3908 1151.59 79.1089 1151.13 79.468C1152.5 78.9892 1153.41 78.3908 1153.87 77.9121Z" fill="white"/>
<path d="M1046.86 137.274C1046.86 137.274 1046.86 137.394 1046.4 137.394C1045.04 138.351 1045.95 137.753 1046.86 137.274Z" fill="white"/>
<path d="M1128.82 92.2739C1128.82 92.2739 1128.82 92.3936 1128.37 92.3936L1127.91 92.7526L1128.82 92.2739Z" fill="white"/>
<path d="M1163.88 72.5266C1163.43 72.766 1162.97 73.0053 1162.97 73.125C1163.43 72.8857 1163.88 72.766 1163.88 72.5266C1164.34 72.5266 1164.34 72.5266 1163.88 72.5266Z" fill="white"/>
<path d="M1081.92 118.245C1082.38 117.886 1082.38 117.646 1082.38 117.646C1081.47 118.125 1081.01 118.364 1081.92 118.245Z" fill="white"/>
<path d="M1097.4 623.418L1097.86 623.537C1097.4 623.418 1097.4 623.418 1097.4 623.418Z" fill="white"/>
<path d="M994.038 567.167L995.404 567.766C994.493 567.407 994.038 567.167 994.038 567.167Z" fill="white"/>
<path d="M1160.24 657.048C1161.15 657.527 1162.52 658.245 1164.34 659.322L1160.24 657.048Z" fill="white"/>
<path d="M775.468 446.769L776.834 447.487C775.923 447.247 775.923 447.008 775.468 446.769Z" fill="white"/>
<path d="M903.878 518.218C903.422 517.979 902.511 517.62 902.056 517.261C902.967 517.739 903.422 518.098 903.878 518.218Z" fill="white"/>
<path d="M1188.02 675.598L1186.65 674.641C1186.65 674.521 1187.11 675 1188.02 675.598Z" fill="white"/>
<path d="M1254.96 709.229C1254.5 709.109 1254.96 709.109 1254.96 709.229V709.229Z" fill="white"/>
<path d="M1230.82 695.824C1230.37 695.585 1229.46 695.226 1229 694.867C1229.91 695.226 1230.82 695.824 1230.82 695.824Z" fill="white"/>
<path d="M1228.09 694.388C1228.55 694.508 1228.54 694.628 1229 694.867C1228.54 694.628 1228.09 694.388 1228.09 694.388Z" fill="white"/>
<path d="M17.7588 5.38572C15.9374 4.30859 14.116 3.47082 12.7499 2.63306L17.7588 5.38572Z" fill="white"/>
<path d="M580.576 337.5L581.032 337.739C581.032 337.5 580.576 337.38 580.576 337.5Z" fill="white"/>
<path d="M12.2945 4.42829L10.9285 3.71021C11.3838 4.06925 11.8392 4.30861 12.2945 4.42829Z" fill="white"/>
<path d="M1152.96 657.646C1150.68 656.689 1147.49 654.654 1147.04 654.654C1148.86 655.731 1151.59 657.287 1152.96 657.646Z" fill="white"/>
<path d="M525.478 316.077L524.112 315.359C525.023 315.718 525.023 315.838 525.478 316.077Z" fill="white"/>
<path d="M12.2946 4.42822L13.6606 5.26599C13.6606 5.14631 13.6606 5.14631 13.6606 5.02663C12.7499 4.90695 12.2946 4.66758 12.2946 4.42822Z" fill="white"/>
<path d="M382.497 222.965C382.497 223.085 382.497 223.085 382.497 222.965C382.953 223.085 382.953 223.085 382.953 223.205L382.497 222.965Z" fill="white"/>
<path d="M372.935 216.862C373.846 217.341 374.301 217.7 375.212 218.178C373.846 217.46 373.39 217.101 372.935 216.862Z" fill="white"/>
<path d="M12.7499 2.633L9.56241 1.07715C10.4731 1.67555 11.8392 2.15428 12.7499 2.633Z" fill="white"/>
<path d="M260.918 151.277C261.373 151.516 261.829 151.636 261.829 151.875C261.829 151.636 261.373 151.396 260.918 151.277Z" fill="white"/>
<path d="M912.074 522.886C912.529 523.005 912.529 523.245 912.985 523.364C913.44 523.364 913.44 523.364 912.074 522.886Z" fill="white"/>
<path d="M825.101 481.715C823.735 480.997 821.458 479.92 820.092 479.442C821.458 480.16 822.825 480.758 825.101 481.715Z" fill="white"/>
<path d="M810.985 474.176C810.985 474.295 811.441 474.295 811.441 474.415C810.985 474.415 810.985 474.295 810.985 474.176Z" fill="white"/>
<path d="M880.655 512.833C880.199 512.713 880.199 512.473 879.744 512.114C879.744 512.354 880.199 512.593 880.655 512.833Z" fill="white"/>
<path d="M602.433 360.718C618.371 369.814 640.228 381.423 656.165 390.399C660.263 392.314 665.727 395.066 670.736 397.939L670.281 398.418L674.835 400.811C676.201 401.769 671.192 399.016 673.924 400.811L676.201 401.649C676.201 401.888 686.674 407.753 678.933 403.923L695.325 413.138C698.968 415.173 698.513 414.215 702.156 416.489C702.611 416.968 700.334 415.652 700.334 415.891C711.718 422.832 716.727 423.431 727.656 429.894L726.745 429.415C727.656 429.894 729.477 430.731 730.388 431.33C731.754 431.928 732.664 432.527 732.664 432.527C732.209 431.569 729.932 431.449 727.2 429.415C728.566 429.415 732.209 431.809 732.664 431.569C734.941 433.125 737.218 433.843 739.495 435.16C742.682 437.434 749.057 440.545 751.334 442.34C753.611 443.418 756.798 444.495 760.896 446.769C763.173 448.564 759.53 446.41 763.173 448.803L764.539 449.043C767.727 450.957 767.271 450.598 766.816 450.598C770.459 452.633 770.459 452.154 774.557 454.668L771.369 453.351C775.012 455.146 775.923 455.984 780.932 458.497C780.477 458.497 778.655 457.42 777.289 456.702C779.111 458.138 781.843 459.096 783.209 459.814C783.209 459.574 780.021 457.779 781.843 458.617C784.119 459.934 787.307 461.25 788.673 462.207L785.486 460.891C790.494 463.524 788.673 462.207 794.137 465.319C793.682 465.199 793.682 465.199 793.682 465.199C797.78 466.995 801.878 469.628 806.887 472.5L805.976 472.021C808.253 473.098 810.075 473.697 810.985 474.295C808.253 472.62 809.164 473.098 809.619 472.859C812.807 475.133 816.45 475.971 822.369 479.561C821.914 479.561 820.092 478.723 818.726 477.766C815.539 476.689 814.628 476.569 810.53 474.535C813.262 475.851 815.994 477.407 815.084 477.048L816.45 477.407C817.816 478.245 819.182 478.843 820.092 479.442C821.458 479.681 817.816 477.766 821.914 479.561C826.012 481.596 823.28 480.758 824.191 481.117C829.655 483.989 827.378 482.194 831.932 485.066C831.476 484.827 830.11 484.229 829.655 483.989C832.842 486.024 838.762 488.896 838.762 489.614C837.851 489.375 837.396 489.375 836.485 488.537C831.932 486.383 840.128 490.332 837.851 489.734C838.307 489.495 842.86 492.367 845.137 493.564V493.085C854.699 497.035 843.315 492.965 851.512 497.154C856.521 499.787 849.69 496.077 853.333 497.753C856.521 499.548 856.976 500.266 861.985 502.899C862.896 503.617 865.628 505.173 865.172 505.412C868.36 506.968 873.824 510.199 876.101 511.037C871.547 508.285 870.637 508.404 865.628 505.173L867.905 506.011C872.003 508.165 877.467 510.918 879.744 512.473C879.288 512.114 879.288 511.995 879.744 512.114C885.663 515.226 887.94 516.064 893.404 519.056C893.404 519.535 890.217 517.739 887.94 516.423C891.128 518.457 891.583 518.457 897.047 521.569C896.592 521.809 893.404 519.535 892.038 519.295L898.413 522.646C900.235 523.005 902.967 525.16 907.065 527.194C916.172 532.101 918.449 532.7 924.368 535.213C925.279 535.931 925.735 536.17 924.824 535.931C923.002 534.734 923.002 534.973 922.092 534.495C925.279 536.17 928.011 538.205 925.735 537.367C930.743 540 924.368 536.41 927.556 537.965L933.931 541.556C933.476 541.077 931.199 539.761 935.297 541.556C938.484 543.112 939.395 543.83 943.493 545.864C942.583 545.625 943.949 546.582 941.217 545.027C943.038 545.984 945.77 547.54 947.136 548.138C943.493 545.864 954.422 551.729 952.145 549.934L955.788 552.207C954.877 551.729 954.422 551.729 953.056 550.891C953.511 551.609 956.699 552.686 958.065 553.404C959.431 554.242 963.074 556.277 963.074 556.396C964.44 557.114 967.627 558.79 968.082 559.149C970.359 560.226 968.538 559.149 969.448 559.508L975.823 563.098C975.823 563.338 975.368 563.817 974.002 563.218C976.734 564.535 975.823 563.577 979.922 565.612C977.189 564.535 984.475 568.364 980.377 566.809C982.198 568.005 988.118 571.356 991.761 573.152C994.493 574.229 988.573 571.117 989.029 571.117C998.591 576.263 1000.87 576.383 1007.7 580.213L1006.33 579.255C1010.89 581.529 1010.43 581.29 1013.62 582.606C1011.8 582.008 1016.81 585.479 1024.09 589.428C1025 589.668 1020.9 587.154 1022.72 587.753L1027.73 590.266C1028.19 590.505 1027.28 590.146 1026.82 589.907C1031.38 592.181 1034.11 594.335 1035.93 594.814L1039.12 597.327L1037.75 596.37C1038.66 596.609 1043.67 599.242 1045.04 599.721C1050.5 602.354 1051.87 603.311 1054.14 604.747C1053.69 604.269 1052.32 603.072 1055.97 605.106C1054.6 605.226 1063.71 609.535 1062.8 609.535C1064.16 610.372 1066.89 611.928 1067.35 611.928H1066.44C1067.8 612.048 1073.72 615.04 1078.28 617.314C1076 616.955 1083.29 619.827 1083.74 621.024C1085.56 621.383 1091.94 625.093 1093.3 625.452C1096.95 627.247 1095.58 627.128 1096.04 627.726L1097.86 628.564C1099.22 629.521 1105.6 632.872 1108.79 634.907L1113.34 636.702L1114.25 637.42C1115.16 637.66 1117.89 639.215 1116.53 638.258L1118.35 639.215C1119.26 639.215 1121.08 640.652 1125.63 642.567C1126.55 643.045 1126.09 642.926 1125.18 642.567C1127 643.524 1125.63 643.165 1126.55 643.763C1125.63 643.045 1135.2 647.114 1130.19 644.362C1130.19 644.122 1133.38 645.678 1135.2 646.636L1135.65 647.354L1138.84 648.431C1142.03 649.987 1142.48 650.705 1144.76 651.902C1142.48 650.585 1137.93 649.269 1143.85 652.62C1140.21 650.944 1138.38 650.106 1136.56 649.269C1137.93 649.987 1138.38 650.346 1136.11 649.269C1141.12 651.782 1138.38 650.106 1143.39 652.62C1142.48 652.62 1143.39 653.338 1147.49 655.612L1144.76 653.817C1145.22 653.936 1145.22 653.936 1145.67 654.056C1144.76 653.457 1144.3 653.218 1144.3 653.098C1145.22 653.577 1150.68 655.971 1151.13 656.45C1147.49 653.697 1160.7 660.878 1157.97 659.083C1158.88 659.322 1162.06 661.117 1162.06 661.356C1157.51 659.322 1164.34 663.032 1162.97 662.793C1164.8 663.511 1160.24 660.997 1162.52 662.075C1164.8 663.391 1166.16 664.348 1167.53 665.067L1166.16 664.588L1169.8 666.622C1170.71 666.862 1166.62 664.588 1170.26 666.383C1171.17 666.862 1174.81 668.657 1174.36 668.657C1172.08 667.819 1172.54 668.537 1169.8 667.101C1172.08 668.418 1180.28 672.487 1177.55 670.692L1180.28 672.247C1178.91 671.29 1174.36 668.537 1180.28 671.529L1184.83 673.564L1186.2 674.521C1186.2 674.521 1187.11 674.761 1188.47 675.598C1188.47 675.838 1189.84 676.556 1189.38 676.556C1193.94 678.83 1193.94 678.59 1194.85 678.83C1197.58 680.146 1198.04 680.625 1196.67 680.027C1199.86 681.822 1205.78 684.814 1208.05 686.13C1213.06 688.404 1207.14 685.652 1210.33 686.968C1213.06 689.122 1224.9 694.747 1232.19 698.577C1231.28 697.38 1234.46 699.654 1236.74 700.133C1234.92 699.295 1242.66 703.843 1236.29 700.612L1240.38 702.646C1242.66 704.082 1233.55 699.295 1236.74 701.569C1241.29 703.843 1245.39 705.16 1249.95 707.912C1247.21 707.075 1254.04 709.947 1252.22 709.348C1250.86 708.87 1249.49 708.032 1248.13 707.314L1249.04 707.793C1258.6 712.819 1252.68 709.109 1258.6 711.742C1264.52 714.854 1262.7 714.255 1262.7 714.495C1263.61 714.973 1266.34 716.529 1268.16 717.247C1264.06 715.452 1261.79 713.777 1264.06 714.495C1265.88 715.931 1272.71 719.043 1274.54 719.88C1267.25 715.332 1268.62 716.888 1261.79 712.58C1260.42 712.101 1259.96 712.221 1255.41 709.707C1258.6 711.263 1255.87 709.588 1254.96 709.109C1255.41 709.588 1251.31 707.434 1249.95 706.715C1249.04 705.997 1254.04 708.032 1249.04 705.519L1247.21 705.16C1245.39 704.202 1249.04 705.519 1244.48 703.364C1247.21 704.442 1244.94 702.886 1250.4 705.758C1244.94 702.287 1239.93 700.612 1234.46 698.098C1234.92 698.338 1235.38 698.338 1235.83 698.577C1234.46 698.098 1232.64 697.021 1230.82 696.303C1227.63 694.508 1234.01 697.62 1233.55 697.141L1228.09 694.388C1228.09 694.269 1228.09 694.269 1228.09 694.269C1226.72 693.551 1224.9 692.833 1224.9 692.593C1226.72 693.431 1227.63 693.67 1229 694.149L1222.63 691.277C1223.54 691.516 1218.53 688.763 1223.08 690.798L1214.43 686.489V686.011C1212.15 684.934 1212.15 684.934 1214.43 686.25C1211.7 684.694 1200.31 679.787 1203.5 680.386C1196.21 677.035 1194.39 675.838 1185.74 671.649C1192.57 674.761 1179.82 667.939 1186.2 671.17C1182.55 669.136 1181.19 668.896 1178 667.34C1175.72 665.785 1177.55 666.383 1180.73 667.939L1177.09 666.144L1173.45 664.588C1170.72 662.793 1173.45 664.109 1170.26 662.314L1168.89 662.075L1167.07 660.878C1167.53 661.356 1165.71 660.399 1162.97 659.083L1159.79 657.527C1162.97 658.963 1157.05 656.09 1158.88 656.689C1156.6 655.372 1156.14 655.372 1151.59 652.979L1152.05 653.457C1145.67 650.346 1152.5 653.218 1147.49 650.705V650.944C1141.57 647.234 1135.2 644.84 1130.64 642.088C1133.83 643.644 1133.38 643.165 1133.38 643.165C1128.82 640.891 1121.54 637.061 1116.53 634.787C1115.62 633.83 1115.62 633.59 1111.06 631.077C1107.42 629.282 1106.97 629.043 1105.6 628.444C1102.41 626.649 1096.04 623.418 1096.49 623.298C1095.13 622.939 1093.76 621.742 1091.48 620.785V620.545L1091.03 620.785C1086.47 617.553 1080.55 615.638 1075.55 612.407L1076.91 612.886L1074.18 611.569C1074.18 611.33 1075.09 611.809 1075.55 611.928L1064.16 605.825L1065.98 607.021C1063.71 605.705 1061.43 604.987 1059.15 603.431C1064.62 605.825 1055.51 601.396 1055.06 600.918L1057.79 602.234C1054.6 600.439 1054.6 600.439 1054.14 600.678C1049.59 598.404 1052.32 599.003 1047.77 596.848L1050.5 598.404C1050.96 598.883 1048.68 597.806 1046.86 596.848C1046.4 596.609 1045.49 595.891 1046.86 596.609C1043.22 594.814 1038.21 592.061 1036.39 591.223C1034.56 590.266 1035.47 590.505 1036.84 590.984C1029.1 587.154 1033.65 589.189 1025.91 585.359H1026.37L1023.64 584.043L1020.9 582.008L1021.81 582.726C1019.54 581.41 1017.72 580.692 1014.98 579.136L1016.35 579.734C1009.52 576.144 1009.06 575.426 1002.23 572.075C1001.78 571.835 1003.14 572.314 1003.6 572.673C996.77 569.561 999.957 570.16 993.127 567.048C993.582 567.168 993.127 566.809 993.582 566.928L990.395 565.492H991.305L988.118 564.415L987.207 563.457L985.841 562.979C984.02 561.303 979.011 559.149 975.823 556.875V557.354C964.44 552.088 953.511 544.907 940.761 538.444H941.672L936.208 535.811C933.931 534.255 938.484 536.649 937.574 536.17C932.109 533.298 934.386 535.093 928.011 531.742C925.279 529.947 929.377 532.34 931.199 533.059C925.279 529.947 916.172 525.399 912.529 523.125C912.529 523.125 912.074 523.005 912.074 523.125C907.976 521.09 902.967 518.218 898.869 515.944C899.324 515.944 900.235 516.543 901.601 517.141C900.235 516.303 898.413 515.106 896.592 514.508L898.869 515.346C895.681 513.551 888.851 510.199 888.851 509.721C888.851 509.96 888.395 509.96 885.663 508.404C885.208 507.447 877.467 504.335 873.369 501.822C874.28 502.061 877.467 503.856 876.556 503.378C874.735 502.061 872.003 501.104 869.726 500.027L870.637 500.266L859.708 494.641C859.253 493.684 849.69 489.255 851.056 489.495C847.414 487.46 853.789 491.29 848.78 488.657C847.869 487.939 844.226 486.383 845.137 486.383L845.592 486.622L842.405 484.827L845.137 485.904C841.949 484.348 839.673 483.271 838.762 483.271C836.485 481.715 832.387 479.681 831.476 478.963L832.842 479.442C825.101 475.372 821.914 472.38 815.084 469.269C814.628 469.029 815.083 469.029 815.994 469.508L811.441 466.995L812.807 467.593L804.61 463.404H805.066C800.057 460.532 791.86 456.223 785.486 452.633L786.396 453.112C778.655 449.282 780.021 449.282 774.102 446.41C774.557 446.529 774.557 446.649 774.557 446.649L770.004 444.016L771.369 444.495C767.271 442.699 762.262 438.87 764.084 440.186C761.807 439.109 758.164 437.314 757.254 437.074C752.245 434.202 756.343 436.356 753.611 434.561C749.968 432.527 748.602 432.168 744.048 429.415H744.504C742.227 428.098 740.405 427.38 737.218 425.585L738.129 426.064C732.209 423.191 732.209 422.234 726.745 420.08C724.923 418.763 720.37 416.489 721.281 416.489C714.45 412.899 708.986 410.027 702.156 406.436C702.156 405.718 700.79 405.718 697.147 403.324L696.691 403.564C687.584 398.418 678.022 392.314 668.004 386.689L668.46 386.449L665.727 385.372C654.799 379.269 641.138 371.25 632.487 366.343C629.299 364.787 624.29 362.394 620.192 359.88L620.647 360.12C612.451 355.691 604.255 351.024 595.603 346.117C596.514 346.356 595.603 345.878 596.969 346.476C594.237 345.399 591.96 343.604 590.139 342.646L591.96 343.963C589.228 342.646 586.04 340.612 585.13 339.894L580.576 337.739C580.576 337.62 580.121 337.38 580.121 337.261L579.21 336.902L577.844 335.705C576.933 335.226 571.469 332.354 569.192 331.516C569.192 331.277 565.55 329.242 568.737 330.798L555.076 322.779L556.898 324.096C556.443 324.335 551.889 321.941 550.068 320.745C553.255 322.301 550.978 320.745 550.068 320.027C547.791 318.949 551.434 320.984 550.068 320.505C547.335 319.189 542.327 316.317 540.96 315.598L542.782 316.436C539.594 314.641 538.684 313.684 535.496 311.888C532.309 310.332 530.487 309.016 530.032 309.495C525.934 307.101 529.121 308.537 527.755 307.699C525.478 306.622 520.014 303.271 519.559 302.793C515.916 301.715 509.086 296.33 506.809 295.971L504.077 293.936C503.621 293.936 502.255 293.577 499.523 292.021C497.246 290.465 498.613 290.824 497.702 290.346L494.97 289.508C481.309 280.771 460.818 269.641 445.792 260.066C438.506 255.878 428.943 250.731 420.292 245.824L421.202 246.303L413.006 241.396L418.47 244.987C416.649 243.91 414.827 243.192 413.006 242.114C404.354 236.729 392.515 229.548 380.676 222.965C372.024 218.896 377.033 219.973 369.292 216.024C370.203 216.383 370.203 216.503 371.113 216.742C363.372 212.434 358.819 210.04 350.623 205.731C352.899 206.09 345.614 202.859 346.98 203.218L345.614 202.859C344.248 201.902 340.605 199.508 341.515 199.867L337.417 197.952L337.873 197.713C333.319 195.08 323.757 189.694 322.391 188.138C310.551 181.795 294.159 171.742 280.498 163.723C278.221 162.646 274.123 160.253 270.936 158.457L268.203 156.423C265.016 154.628 260.918 152.713 258.186 150.918C258.186 150.918 258.641 151.037 258.641 151.157C255.454 149.242 252.721 147.447 249.079 145.771C245.436 143.737 242.704 141.582 244.07 142.181C242.704 142.061 236.784 137.753 236.784 137.753C236.784 137.753 192.615 111.064 143.436 81.1436C96.535 51.2234 41.8925 18.0718 17.7588 5.38564C15.482 4.54787 11.3838 2.15426 12.2945 3.1117C9.10706 1.31649 8.65171 0.359043 7.28565 0C10.9285 2.63298 4.55352 -0.598404 8.19636 1.91489L5.46423 0.359043C4.55353 0 9.56242 2.5133 8.19636 2.15426L10.0178 2.5133C11.8392 3.82979 12.7499 4.54787 13.2053 5.0266C15.482 6.2234 18.2141 6.82181 22.3123 9.81383L20.9463 8.97606C25.0445 11.3697 22.7677 10.5319 23.223 11.0106L22.3123 10.5319L25.0445 12.5665C23.223 11.0106 18.2141 8.61702 20.4909 9.93351C24.5891 12.8059 19.5802 9.21543 22.7677 11.25C25.0445 12.5665 23.6784 12.2074 23.223 12.2074L27.3212 14.6011C26.8659 14.6011 24.5891 13.0452 25.9552 14.0027L31.4194 16.875C30.9641 17.5931 37.339 20.1064 38.2497 21.5426C34.6069 19.3883 38.2497 21.7819 37.339 21.4229L45.9907 26.6888C46.4461 27.1676 43.2586 25.3723 44.6247 26.0904C45.9907 27.1676 47.3568 27.6463 48.2675 28.2447C48.7229 28.7234 54.6425 32.1941 53.7318 32.0745C59.196 35.6649 56.9192 33.5106 61.9281 36.8617C62.3835 37.3404 57.3746 34.2287 59.6514 35.7846L65.5709 39.2553C64.6602 39.016 63.7495 38.6569 61.9281 37.3404C76.4995 46.6755 82.419 51.9415 96.9904 60.4388C98.3564 61.7553 95.169 59.6011 93.3475 58.7633C104.276 64.867 106.553 67.5 115.205 72.766H115.66C126.133 80.1862 141.615 88.9229 154.365 97.1809L152.999 96.1037C155.276 97.1809 158.463 98.9761 160.74 100.293C160.74 100.532 158.008 99.4548 162.106 101.848C161.651 101.37 159.829 100.293 160.74 100.532C171.213 107.713 196.258 122.673 215.382 134.282C241.793 149.96 270.025 166.955 295.98 182.394C291.882 180 294.614 180.957 297.346 182.753C303.721 187.779 311.917 191.13 319.203 196.157C335.14 205.013 346.98 213.271 362.462 221.41L362.006 221.649C363.828 222.965 364.738 223.205 367.015 224.521C372.024 227.633 378.854 231.343 381.587 233.138H382.497C385.685 234.934 383.863 234.096 387.051 236.011H386.595L391.149 238.165C389.783 238.045 399.801 243.311 402.078 244.867C406.176 247.261 414.372 251.689 420.292 255.279C420.747 255.997 428.488 260.426 433.042 263.298C442.604 268.803 456.265 276.582 468.104 283.524L468.559 283.285L471.747 285.08C471.747 285.08 471.747 285.319 471.291 285.08C473.113 286.636 479.032 289.269 480.854 290.705C479.943 289.747 478.577 289.388 476.756 288.431C474.479 286.875 477.666 288.191 480.854 290.346L483.586 291.662C483.13 291.902 485.407 293.098 484.952 293.338C495.425 299.322 503.621 303.271 514.095 309.375C512.273 308.777 521.836 313.803 518.648 312.726C525.478 316.436 518.193 312.008 522.291 313.564C524.112 314.641 526.389 315.598 526.389 315.838C525.478 315.359 527.3 316.795 525.478 315.957L530.032 318.471C530.487 318.71 529.121 318.231 528.666 317.872C537.773 322.779 543.693 326.848 552.344 331.277C553.255 331.516 549.157 329.481 550.068 329.721C558.719 334.149 556.442 333.79 564.639 337.979L562.362 337.141C565.094 338.457 566.46 339.056 570.103 341.33C570.103 341.809 566.46 339.535 564.184 338.457C566.916 340.013 573.746 343.843 572.38 342.646C576.023 344.441 576.478 345.16 577.844 346.237C577.844 346.237 575.112 344.442 577.389 345.519C581.487 348.032 588.317 351.981 593.781 355.093C593.781 355.093 593.782 355.332 593.326 355.093C598.335 357.487 596.514 357.367 602.433 360.718Z" fill="white"/>
<path d="M900.235 523.604L897.958 522.407C897.958 522.407 897.503 522.407 896.592 521.808L900.235 523.604Z" fill="white"/>
<path d="M793.682 465.08C793.227 464.96 793.227 464.84 792.771 464.601C793.227 464.96 793.682 465.08 793.682 465.08Z" fill="white"/>
<path d="M766.816 450.957C768.637 451.915 767.271 451.077 766.361 450.479C766.361 450.598 766.361 450.598 766.816 450.957Z" fill="white"/>
<path d="M963.074 556.516C962.618 556.277 962.163 556.157 962.163 556.277C962.618 556.516 963.074 556.516 963.074 556.516Z" fill="white"/>
<path d="M1133.83 647.593C1133.83 647.474 1133.38 647.354 1133.38 647.234C1133.38 647.354 1133.38 647.474 1133.83 647.593Z" fill="white"/>
<path d="M1125.18 642.447C1124.72 642.207 1124.27 641.848 1123.36 641.489C1123.81 641.968 1124.27 642.207 1125.18 642.447Z" fill="white"/>
<path d="M921.636 534.375C921.181 534.016 920.27 533.657 919.815 533.418C920.726 534.016 921.181 534.255 921.636 534.375Z" fill="white"/>
<path d="M1121.08 640.412L1118.8 639.096L1121.08 640.412Z" fill="white"/>
<path d="M1136.56 649.269C1135.65 648.79 1134.29 648.072 1133.38 647.713C1134.74 648.311 1135.65 648.79 1136.56 649.269Z" fill="white"/>
<path d="M1026.37 589.907C1026.37 589.907 1026.37 589.787 1025.91 589.787C1023.64 588.83 1025 589.428 1026.37 589.907Z" fill="white"/>
<path d="M1109.24 635.027C1109.24 635.027 1109.24 634.907 1108.79 634.907L1107.88 634.548L1109.24 635.027Z" fill="white"/>
<path d="M1147.04 654.774C1146.58 654.535 1146.13 654.295 1145.67 654.176C1145.67 654.295 1146.13 654.535 1147.04 654.774C1146.58 654.774 1146.58 654.774 1147.04 654.774Z" fill="white"/>
<path d="M1060.97 609.056C1061.89 609.415 1062.34 609.535 1062.34 609.535C1061.89 609.056 1060.97 608.816 1060.97 609.056Z" fill="white"/>
</g>
<defs>
<clipPath id="clip0">
<rect width="1280" height="720" fill="white"/>
</clipPath>
</defs>
</svg>
