<svg width="319" height="518" viewBox="0 0 319 518" fill="none" xmlns="http://www.w3.org/2000/svg">
<g clip-path="url(#clip0)">
<path d="M249.208 113.658L249.436 113.14C249.208 113.485 249.208 113.572 249.208 113.658Z" fill="white"/>
<path d="M289.835 49.1651C289.721 49.1651 289.835 49.1651 289.835 49.1651C290.062 48.8207 290.402 48.3902 290.856 47.5292L289.835 49.1651Z" fill="white"/>
<path d="M195.304 199.762L195.644 199.244C195.531 199.503 195.417 199.675 195.304 199.762Z" fill="white"/>
<path d="M227.306 148.701C227.192 148.873 227.079 149.132 226.965 149.39C227.079 149.132 227.306 148.873 227.306 148.701Z" fill="white"/>
<path d="M299.141 36.8524L298.573 37.5413C298.687 37.5413 298.914 37.2829 299.141 36.8524Z" fill="white"/>
<path d="M314.008 12.1406C313.893 12.1406 313.893 12.1406 314.008 12.1406C313.893 12.2285 313.893 12.1406 314.008 12.1406Z" fill="white"/>
<path d="M307.652 21.6119C307.538 21.7841 307.425 22.0425 307.311 22.3008C307.425 21.9564 307.652 21.6119 307.652 21.6119Z" fill="white"/>
<path d="M307.084 22.646C307.198 22.5597 307.198 22.3871 307.312 22.3008C307.084 22.4734 307.084 22.646 307.084 22.646Z" fill="white"/>
<path d="M2.04271 513.437C1.58878 514.125 1.24833 514.814 1.02136 515.417L2.04271 513.437Z" fill="white"/>
<path d="M2.38317 514.642L2.04272 515.16C2.15621 514.987 2.26969 514.815 2.38317 514.642Z" fill="white"/>
<path d="M291.424 49.9401C291.083 50.715 290.062 52.0927 290.175 52.0927C290.516 51.4038 291.31 50.3706 291.424 49.9401Z" fill="white"/>
<path d="M140.378 295.68L140.038 296.112C140.265 295.939 140.378 295.853 140.378 295.68Z" fill="white"/>
<path d="M2.38312 514.642L2.72357 514.039C2.72357 514.039 2.61008 514.125 2.61008 514.211C2.4966 514.384 2.4966 514.47 2.38312 514.642Z" fill="white"/>
<path d="M96.6873 359.311C96.6873 359.225 96.6873 359.225 96.6873 359.311C96.6873 359.225 96.8011 359.139 96.8011 359.139L96.6873 359.311Z" fill="white"/>
<path d="M93.8502 363.53C94.0772 363.185 94.1907 362.927 94.4176 362.583C94.0772 363.099 93.9637 363.358 93.8502 363.53Z" fill="white"/>
<path d="M1.02135 515.417L0.340454 516.622C0.56742 516.192 0.794385 515.847 1.02135 515.417Z" fill="white"/>
<path d="M65.2526 410.113C65.3664 409.94 65.4802 409.854 65.4802 409.681C65.3664 409.854 65.2526 410.027 65.2526 410.113Z" fill="white"/>
<path d="M229.349 145.516C229.462 145.43 229.462 145.257 229.576 145.171C229.576 145.085 229.576 145.085 229.349 145.516Z" fill="white"/>
<path d="M213.007 176.771C212.667 177.287 212.213 178.062 212.099 178.493C212.44 177.976 212.667 177.46 213.007 176.771Z" fill="white"/>
<path d="M209.716 182.196C209.716 182.11 209.83 182.11 209.83 182.023C209.83 182.11 209.716 182.11 209.716 182.196Z" fill="white"/>
<path d="M227.079 154.556C226.966 154.642 226.852 154.815 226.739 154.988C226.852 154.901 226.966 154.815 227.079 154.556Z" fill="white"/>
<path d="M160.351 264.08C164.323 257.622 169.316 249.098 173.288 242.726C173.969 241.263 175.217 239.196 176.466 237.13L176.806 237.044L177.827 235.321C178.281 234.633 177.033 236.613 177.941 235.494L178.168 234.805C178.395 234.719 180.891 230.414 179.303 233.341L183.388 226.711C184.296 225.247 183.729 225.764 184.75 224.214C184.977 223.87 184.409 224.817 184.636 224.731C187.814 219.909 187.587 218.962 190.538 214.398L190.311 214.829C190.764 214.054 191.672 212.59 191.559 212.504C190.878 213.021 191.218 213.365 190.197 214.657C190.084 214.484 191.105 212.848 190.878 212.934C191.559 211.901 191.899 211.212 192.467 210.265C193.602 208.715 194.85 206.477 195.758 205.271C196.212 204.496 196.439 203.549 197.46 201.827C198.368 200.708 197.46 202.172 198.481 200.536V200.191C199.276 198.9 199.276 199.072 199.276 199.158C200.184 197.78 199.843 197.952 200.978 196.144L200.524 197.177C201.318 195.8 201.659 195.283 202.794 193.475C202.794 193.561 202.34 194.25 201.999 194.767C202.794 193.819 203.021 193.045 203.361 192.528C203.248 192.7 202.453 193.906 202.68 193.217C203.248 192.356 203.702 191.236 204.269 190.634L203.815 191.667C204.836 189.773 204.269 190.634 205.631 188.395C205.517 188.481 205.631 188.481 205.631 188.567C206.312 187.103 207.56 185.381 208.808 183.315L208.581 183.745C209.035 182.884 209.262 182.454 209.489 181.937C208.695 183.056 208.808 182.712 208.695 182.798C209.83 181.334 209.943 180.387 211.532 177.89C211.532 177.976 211.305 178.579 210.737 179.268C210.397 180.215 210.51 180.387 209.716 181.937C210.284 180.99 210.964 179.871 210.851 180.129V179.785C211.191 179.182 211.532 178.751 211.759 178.321C211.759 178.062 210.851 179.44 211.532 178.062C212.44 176.513 212.213 177.374 212.326 177.029C213.575 174.963 212.667 176.082 213.915 174.102C213.801 174.274 213.575 174.704 213.461 174.877C214.482 173.499 215.617 171.346 216.071 171.002C215.958 171.26 216.071 171.26 215.731 171.863C214.936 173.499 216.525 170.571 216.412 171.088C216.185 171.174 217.433 169.194 218.114 168.247L217.773 168.505C219.135 165.319 218 168.763 219.703 165.75C220.724 163.855 219.249 166.438 219.816 165.233C220.61 163.941 221.064 163.511 222.199 161.617C222.54 161.1 223.334 160.067 223.561 160.067C224.242 158.947 225.717 156.623 226.058 155.934C224.696 157.828 225.036 157.914 223.448 160.153L223.674 159.464C224.696 157.914 225.831 155.848 226.512 154.814C226.398 154.987 226.285 155.073 226.285 154.987C227.646 152.748 227.873 152.059 229.235 149.82C229.576 149.562 228.781 150.854 228.214 151.801C229.235 150.423 229.122 150.337 230.483 148.184C230.71 148.098 229.576 149.648 229.576 149.907L231.051 147.496C231.051 147.065 232.186 145.687 233.094 144.138C235.25 140.607 235.25 140.005 236.271 138.024C236.612 137.508 236.838 137.422 236.725 137.594C236.044 138.455 236.271 138.283 236.158 138.627C236.838 137.422 237.973 136.13 237.633 136.819C238.768 134.924 237.065 137.422 237.746 136.302L239.335 133.719C238.995 133.977 238.427 134.838 239.222 133.547C239.903 132.427 240.243 131.911 241.151 130.447C241.037 130.705 241.605 130.017 240.924 131.136C241.378 130.447 242.059 129.328 242.286 128.897C241.151 130.447 243.761 126.228 242.853 127.347L243.988 125.798C243.761 126.142 243.761 126.228 243.42 126.745C243.874 126.314 244.215 125.453 244.555 124.85C244.896 124.334 245.804 122.87 246.031 122.698C246.258 122.181 247.052 120.976 247.279 120.717C247.733 119.942 247.165 120.631 247.279 120.373L248.868 117.79C249.095 117.704 249.435 117.532 249.208 117.962C249.776 116.929 249.095 117.532 250.116 116.068C249.775 117.015 251.478 114.174 250.91 115.465C251.591 114.69 253.066 112.279 253.861 110.902C254.201 110.041 252.953 112.279 252.84 112.193C255.109 108.491 254.769 108.06 256.584 105.391L256.131 106.08C257.152 104.358 257.038 104.53 257.492 103.497C257.379 104.013 259.195 101.775 260.897 98.9331C260.897 98.6748 259.762 100.397 259.875 99.9664L261.01 98.0721C261.124 97.986 261.01 98.1582 260.897 98.4165C261.805 96.6944 263.053 95.4029 263.166 94.8863L264.528 93.3364L263.961 93.9391C263.961 93.6808 265.096 91.7865 265.323 91.4421C266.344 89.5478 266.911 88.859 267.706 87.8258C267.479 88.1702 266.798 88.859 267.592 87.3952C267.933 87.4813 269.635 84.2955 269.748 84.3816C270.089 83.7789 270.883 82.7456 270.77 82.6595L270.883 82.8317C270.656 82.5734 272.132 80.4208 273.039 78.6988C273.153 79.2154 274.174 76.8045 274.969 76.2018C274.969 75.7712 276.671 73.1881 276.671 72.8437C277.465 71.5522 277.579 71.7244 277.919 71.466L278.26 70.8633C278.827 70.2606 280.302 67.8497 281.324 66.3859L281.891 64.9222L282.345 64.4916C282.459 64.2333 283.139 63.114 282.572 63.8028L283.026 63.114C282.799 62.9418 283.593 62.0807 284.388 60.5309C284.615 60.1865 284.615 60.3587 284.501 60.617C284.955 59.9282 284.842 60.2726 285.182 59.842C284.842 60.3587 286.43 57.0867 285.069 58.981C284.842 59.0671 285.523 57.9478 285.977 57.1728L286.43 56.8284L286.771 55.8813C287.452 54.7619 287.906 54.3314 288.473 53.3843C287.906 54.3314 287.565 55.623 289.041 53.2121C288.246 54.5036 288.019 55.1063 287.679 55.7952C288.019 55.2786 288.133 55.0202 287.792 55.8813C288.927 53.987 288.019 55.1924 289.154 53.3843C289.267 53.5565 289.608 53.0399 290.743 51.49L289.835 52.6093C289.835 52.5232 289.835 52.4371 289.948 52.351C289.608 52.7815 289.494 52.9538 289.381 52.9538C289.608 52.6093 290.516 50.7151 290.743 50.4567C289.268 52.1788 292.559 47.0987 291.651 48.218C291.764 47.9597 292.559 46.6682 292.672 46.5821C291.878 48.218 293.58 45.4627 293.58 45.8071C293.92 45.2044 292.672 47.0126 293.126 46.1516C293.693 45.2044 294.261 44.6017 294.601 44.0851L294.374 44.5156L295.396 43.1379C295.396 42.8796 294.374 44.4295 295.169 43.1379C295.396 42.7935 296.19 41.502 296.19 41.502C295.963 42.1908 296.417 41.7603 295.736 42.8796C296.303 41.9325 298.119 39.0049 297.211 40.1243L297.892 39.0049C297.438 39.6938 296.076 41.5881 297.438 39.3494L298.233 37.7134L298.8 37.1107C298.687 37.1107 298.8 36.8524 299.254 36.2496C299.367 36.0774 299.708 35.5608 299.821 35.6469C300.843 34.0109 300.616 34.097 300.729 33.8387C301.297 32.8916 301.524 32.5472 301.41 33.0638C302.205 31.7722 303.566 29.5335 304.247 28.7586C305.269 27.0365 304.02 29.103 304.474 28.0698C305.722 26.6921 308.106 22.473 309.808 19.7177C309.013 20.4065 310.262 18.9428 310.262 18.3401C310.035 18.9428 312.078 15.7569 310.716 18.2539L311.624 16.7902C312.418 15.843 310.262 19.2872 311.397 17.8234C312.418 16.1875 312.758 14.982 314.12 13.0016C313.893 13.6904 315.028 11.4518 314.915 12.0545C314.688 12.485 314.347 13.0016 314.007 13.6043L314.234 13.2599C316.503 9.64357 314.688 12.1406 315.709 10.1602C317.071 7.9215 316.957 8.43812 317.071 8.35202C317.298 8.0076 317.979 6.88825 318.319 6.28553C317.638 7.66319 316.617 8.78254 316.957 8.09371C317.752 7.23267 319 4.82176 319.34 4.13293C317.184 7.23267 317.979 6.37163 315.822 9.21305C315.595 9.64357 315.936 9.64357 314.688 11.4518C315.255 10.3324 314.574 11.4518 314.347 11.7962C314.688 11.4518 313.666 13.0877 313.326 13.6043C312.872 14.0349 313.666 12.3989 312.531 14.2071L312.645 14.6376C312.191 15.3264 312.645 14.2932 311.737 15.7569C312.078 14.8959 311.397 15.9291 312.531 13.8627C310.829 16.1875 310.375 17.6512 309.24 19.5455C309.354 19.3733 309.354 19.2872 309.467 19.115C309.24 19.5455 308.787 20.3204 308.446 20.8371C307.652 22.0425 308.9 19.8038 308.673 20.0621L307.425 22.1286V22.2147C307.084 22.7313 306.857 23.248 306.63 23.4202C306.857 22.8174 306.971 22.473 307.198 22.0425L306.063 24.2812C306.063 24.0229 304.815 26.0033 305.722 24.4534L303.793 27.6393L303.453 27.8115C302.999 28.5864 302.999 28.5864 303.68 27.7254C302.999 28.7586 301.07 32.6333 301.07 31.9444C299.708 34.4414 299.027 35.3025 297.325 38.4022C298.573 36.0774 295.509 40.9853 296.871 38.4883C295.85 39.866 295.963 40.2965 295.282 41.4158C294.601 42.4491 294.601 41.9325 295.282 40.727L294.488 42.1047L293.92 43.3101C293.012 44.5156 293.58 43.4823 292.785 44.7739V45.1183L292.105 45.9794C292.332 45.721 291.991 46.4099 291.424 47.357L290.743 48.4764C291.31 47.357 290.062 49.5096 290.289 48.9069C289.721 49.854 289.721 49.854 288.587 51.6622L288.927 51.4039C287.679 53.7287 288.7 51.4039 287.565 53.2982L287.792 53.2121C285.977 55.7952 285.182 57.7756 283.82 59.6698C284.501 58.5505 284.161 58.8088 284.161 58.8088C283.139 60.5309 281.437 63.2001 280.529 65.0083C279.962 65.611 279.848 65.6971 278.6 67.5053C277.806 68.7968 277.692 68.969 277.579 69.4857C276.784 70.6911 275.423 73.102 275.196 73.102C275.082 73.4464 274.515 74.2214 274.174 74.9102L274.061 74.9963L274.288 74.9102C272.586 77.0628 272.132 78.6988 270.429 80.9375L270.656 80.5069L270.089 81.4541C269.975 81.6263 270.089 81.1958 270.089 81.1097L267.365 85.501L268.046 84.6399C267.479 85.5871 267.252 86.2759 266.457 87.3091C267.365 85.501 265.55 88.7729 265.209 89.0312L265.777 88.0841C264.982 89.3756 264.982 89.3756 265.209 89.2895C264.188 91.0116 264.301 90.3228 263.393 91.9587L264.074 90.8394C264.301 90.5811 263.961 91.356 263.507 92.1309C263.393 92.3032 263.053 92.8198 263.28 92.217C262.486 93.5947 261.237 95.489 260.897 96.0917C260.443 96.7805 260.443 96.5222 260.67 96.0917C259.081 98.9331 259.875 97.3833 258.173 100.225V100.139L257.606 101.172L256.584 102.463L257.038 102.033C256.471 102.98 256.131 103.583 255.45 104.616L255.563 104.099C253.974 106.769 253.52 107.027 252.159 109.61C252.045 109.782 252.272 109.352 252.386 109.179C251.137 111.504 251.137 110.815 249.889 113.226C249.889 113.054 249.776 113.312 249.776 113.226L249.208 114.346L249.095 114.174L248.754 115.121L248.187 115.723L247.96 116.154C246.938 117.187 246.258 118.823 245.009 120.287L245.35 120.115C243.307 124.162 239.676 128.897 236.952 133.719L236.838 133.547L235.817 135.527C235.023 136.56 236.044 134.838 235.817 135.183C234.569 137.249 235.477 136.13 234.001 138.541C233.094 139.746 234.115 138.11 234.455 137.508C233.094 139.832 231.164 143.19 230.03 144.74C230.03 144.826 230.03 144.913 230.03 144.826C229.122 146.376 227.873 148.357 226.852 149.993C226.852 149.907 227.079 149.476 227.306 149.132C226.965 149.734 226.398 150.509 226.171 151.026L226.398 150.337C225.604 151.629 224.128 154.126 223.901 154.298C224.015 154.126 224.128 154.298 223.448 155.331C222.88 155.848 221.632 158.345 220.497 160.067C220.61 159.808 221.405 158.517 221.178 158.861C220.61 159.722 220.157 160.583 219.816 161.358V161.1L217.433 165.233C216.866 165.75 215.05 169.108 215.05 168.763C214.142 170.227 215.958 167.558 214.823 169.452C214.369 169.883 213.801 171.174 213.688 171.002L213.801 170.83L213.007 172.121L213.348 171.26C212.667 172.38 212.326 173.241 212.44 173.327C211.759 174.36 210.851 175.91 210.397 176.34L210.624 175.91C208.808 178.924 207.219 180.732 205.971 183.143C205.858 183.315 205.858 183.315 206.085 182.884L204.95 184.692L205.063 184.176L203.361 187.276V187.189C202.113 189.17 200.184 192.356 198.595 194.939L198.822 194.508C197.233 197.35 197.12 197.177 195.871 199.33C195.871 199.244 195.985 199.158 195.985 199.072L194.85 200.966L195.077 200.536C194.396 201.999 192.467 204.41 193.148 203.635C192.694 204.41 192.013 205.788 191.899 206.046C190.651 208.113 191.445 206.477 190.651 207.768C189.743 209.232 189.743 209.576 188.381 211.471V211.385C187.814 212.332 187.473 212.934 186.679 214.226L186.906 213.796C185.771 215.948 185.09 216.379 184.409 218.101C183.842 218.962 182.821 220.684 182.707 220.512C181.232 223.181 179.984 225.247 178.395 227.83C177.941 228.175 178.054 228.433 176.92 229.897L177.147 229.811C174.877 233.513 171.926 237.646 169.43 241.693L169.203 241.779L168.862 242.64C166.139 247.032 162.507 252.628 160.351 256.159C159.67 257.364 158.762 259.086 157.628 260.894L157.741 260.722C155.812 263.908 153.883 267.266 151.613 270.71C151.726 270.452 151.386 270.796 151.613 270.366C151.272 271.227 150.365 272.432 149.911 273.121L150.592 272.26C150.138 273.293 149.116 274.671 148.662 275.101L147.868 276.737C147.755 276.823 147.641 276.996 147.641 276.996L147.528 277.254L146.847 278.029C146.62 278.459 145.371 280.526 145.144 281.215C145.031 281.387 144.01 282.765 144.69 281.645L141.173 287.328L141.74 286.467C141.967 286.381 140.946 288.103 140.378 288.964C140.946 287.759 140.265 288.792 139.811 289.222C139.357 289.997 140.378 288.62 140.151 289.05C139.584 290.083 138.449 292.15 137.995 292.58L138.335 291.978C137.541 293.269 136.974 293.872 136.179 295.164C135.612 296.369 134.931 297.23 135.271 297.058C134.25 298.78 134.704 297.661 134.364 298.177C134.023 299.038 132.434 301.363 132.207 301.621C131.98 302.655 129.257 306.099 129.37 306.529L128.349 307.821C128.349 307.907 128.349 308.251 127.782 309.371C127.101 310.404 127.101 310.06 126.76 310.404L126.647 311.179C122.561 317.12 117.795 325.3 113.483 331.844C111.667 334.857 109.511 338.646 107.355 342.09L107.582 341.66L105.425 345.104L107.128 342.607C106.674 343.382 106.333 343.984 105.879 344.673C103.383 348.462 100.205 353.456 97.3682 358.191C95.7794 361.291 95.8929 360.086 94.3042 363.099C94.4176 362.841 94.4176 362.755 94.5311 362.497C92.7154 365.683 91.6941 367.405 89.9918 370.59C89.8783 370.16 88.7435 372.657 88.7435 372.312V372.657C88.2896 373.346 87.1547 374.982 87.2682 374.723L86.5873 376.187L86.3604 376.273C85.2255 378.081 82.9559 382.042 82.048 382.903C79.4379 387.467 75.0121 394.613 71.3806 400.296C71.0402 401.157 70.0189 402.793 69.2245 404.085L68.2031 405.376C67.4087 406.668 66.7278 408.218 65.9335 409.337C65.9335 409.337 65.9335 409.251 65.9335 409.165C65.1391 410.543 64.2312 411.748 63.6638 413.04C62.756 414.503 61.7346 415.881 61.9616 415.364C62.1885 415.623 60.0324 418.464 60.0324 418.464C60.0324 418.464 12.0292 494.58 2.04269 513.436C1.81572 514.125 0.794379 515.847 1.36179 515.245C0.680896 516.622 0 517.139 0 517.397C1.24831 515.675 0 518.086 1.24831 516.364L0.567414 517.483C0.567414 517.742 1.36179 515.934 1.36179 516.278V515.847C1.92921 514.986 2.26965 514.47 2.6101 514.211C3.06403 513.35 3.06403 512.662 4.42583 510.681L4.08538 511.284C5.10672 509.648 4.87976 510.337 5.10672 509.992L4.87976 510.337L5.9011 508.959C5.10672 509.992 4.31234 511.801 4.87976 510.853C6.12807 508.873 4.53931 511.37 5.44717 509.82C6.01459 508.873 6.01459 509.217 6.01459 509.304L7.03593 507.668C7.14941 507.754 6.35503 508.787 6.92245 508.098L8.05727 505.945C8.62469 505.687 9.30558 503.621 10.2134 502.76C9.30558 504.31 10.4404 502.674 10.3269 502.932L12.5966 499.229C12.8236 498.885 12.0292 500.263 12.3696 499.66C12.8235 498.971 13.0505 498.454 13.2775 498.11C13.5044 497.852 14.9797 495.355 15.0932 495.527C16.7954 493.03 15.5471 494.408 17.0224 492.083C17.3629 491.824 15.8876 493.977 16.682 492.944L18.1572 490.533C18.0438 490.791 18.0438 491.05 17.4763 491.997C21.6752 485.539 24.3988 482.181 28.0302 476.154C28.7111 475.379 27.6898 476.756 27.4628 477.445C29.9594 473.054 31.5482 471.418 33.8179 467.802L33.7044 467.715C37.2223 462.721 40.8538 456.436 44.5987 450.667L44.1448 451.356C44.4852 450.495 45.2796 449.203 45.847 448.256C45.9605 448.17 45.6201 449.031 46.6414 447.309C46.4144 447.653 45.9605 448.342 45.9605 448.084C49.365 443.176 55.72 432.671 60.9402 424.491C67.7492 413.384 75.3525 401.416 82.048 390.48C81.0267 392.116 81.1402 391.341 82.048 390.136C84.6581 386.864 85.6795 384.195 88.0626 380.751C91.8075 374.379 95.7794 368.868 99.0704 362.841L99.2974 362.755C99.8648 361.894 99.9783 361.636 100.546 360.688C101.907 358.536 103.496 355.867 104.291 354.575L104.177 354.403C104.972 353.111 104.745 353.8 105.425 352.423V352.509L106.22 350.873C106.333 351.131 108.49 347.17 109.284 346.223C110.305 344.501 112.121 341.315 113.71 338.732C114.164 338.302 116.093 335.202 117.341 333.221C119.724 329.347 123.129 323.75 126.193 318.842H125.966L126.76 317.551C126.76 317.551 126.874 317.378 126.76 317.637C127.555 316.689 128.576 314.623 129.257 313.676C128.689 314.279 128.689 314.537 128.235 315.312C127.555 316.345 128.009 315.312 128.916 313.848L129.484 312.815C129.711 312.729 130.278 311.868 130.505 311.782C133.115 307.562 134.704 304.549 137.428 300.158C137.314 300.674 139.357 296.972 139.016 298.005C140.492 295.336 138.562 298.349 139.13 297.058C139.584 296.283 140.038 295.508 140.151 295.422C140.038 295.766 140.719 294.905 140.378 295.508L141.399 293.7C141.513 293.528 141.286 293.958 141.173 294.13C143.215 290.514 145.258 287.845 147.074 284.573C147.074 284.314 146.279 285.864 146.279 285.606C148.095 282.334 148.208 282.851 149.911 279.751L149.684 280.44C150.251 279.407 150.365 278.976 151.499 277.426C151.84 277.168 150.819 278.804 150.365 279.665C151.046 278.546 152.748 275.79 152.067 276.565C152.861 275.188 153.315 274.757 153.769 274.068C153.769 274.068 152.861 275.274 153.315 274.499C154.563 272.777 156.266 269.935 157.628 267.783C157.628 267.783 157.854 267.696 157.741 267.869C158.649 266.233 158.876 266.491 160.351 264.08Z" fill="white"/>
<path d="M231.845 146.893L231.278 147.754C231.278 147.754 231.278 147.84 231.164 148.271L231.845 146.893Z" fill="white"/>
<path d="M205.745 188.825C205.745 188.912 205.631 189.084 205.631 189.171C205.745 188.912 205.745 188.825 205.745 188.825Z" fill="white"/>
<path d="M199.73 199.072C200.184 198.297 199.73 198.986 199.503 199.33C199.503 199.33 199.503 199.33 199.73 199.072Z" fill="white"/>
<path d="M246.144 122.956C246.031 123.129 246.031 123.215 246.031 123.215C246.144 122.956 246.144 122.87 246.144 122.956Z" fill="white"/>
<path d="M286.885 57.2589C286.771 57.3452 286.771 57.4315 286.657 57.5178C286.771 57.4315 286.771 57.3452 286.885 57.2589Z" fill="white"/>
<path d="M284.388 60.7892C284.274 60.9614 284.161 61.2197 283.934 61.5641C284.161 61.2197 284.274 60.9614 284.388 60.7892Z" fill="white"/>
<path d="M236.385 138.885C236.271 139.144 236.158 139.402 236.044 139.574C236.158 139.23 236.271 139.057 236.385 138.885Z" fill="white"/>
<path d="M283.48 62.3391L282.912 63.2862L283.48 62.3391Z" fill="white"/>
<path d="M287.565 56.0535C287.338 56.3979 286.998 56.9145 286.884 57.1728C287.225 56.8284 287.452 56.3979 287.565 56.0535Z" fill="white"/>
<path d="M260.898 98.761C260.898 98.761 260.898 98.8473 260.784 98.8473C260.442 99.5377 260.67 99.1062 260.898 98.761Z" fill="white"/>
<path d="M281.324 66.386C281.324 66.386 281.324 66.4723 281.211 66.4723L281.097 66.7312L281.324 66.386Z" fill="white"/>
<path d="M290.063 52.1788C289.949 52.3514 289.835 52.5241 289.835 52.6104C289.949 52.4378 290.063 52.3514 290.063 52.1788C290.176 52.1788 290.176 52.1788 290.063 52.1788Z" fill="white"/>
<path d="M269.635 85.0714C269.749 84.8125 269.749 84.6399 269.749 84.6399C269.522 84.9851 269.408 85.1577 269.635 85.0714Z" fill="white"/>
<path d="M273.493 448.514L273.607 448.601C273.493 448.514 273.493 448.514 273.493 448.514Z" fill="white"/>
<path d="M247.733 408.046L248.073 408.477C247.846 408.218 247.733 408.046 247.733 408.046Z" fill="white"/>
<path d="M289.154 472.709C289.381 473.054 289.721 473.571 290.175 474.346L289.154 472.709Z" fill="white"/>
<path d="M193.261 321.425L193.602 321.942C193.375 321.77 193.375 321.597 193.261 321.425Z" fill="white"/>
<path d="M225.263 372.829C225.15 372.657 224.923 372.399 224.809 372.14C225.036 372.485 225.15 372.743 225.263 372.829Z" fill="white"/>
<path d="M296.076 486.055L295.736 485.367C295.736 485.281 295.849 485.625 296.076 486.055Z" fill="white"/>
<path d="M312.759 510.25C312.644 510.165 312.759 510.165 312.759 510.25V510.25Z" fill="white"/>
<path d="M306.744 500.607C306.63 500.435 306.403 500.177 306.29 499.918C306.517 500.177 306.744 500.607 306.744 500.607Z" fill="white"/>
<path d="M306.063 499.574C306.177 499.66 306.177 499.746 306.291 499.919C306.177 499.746 306.063 499.574 306.063 499.574Z" fill="white"/>
<path d="M4.4258 3.87467C3.97187 3.09974 3.51794 2.49701 3.17749 1.89429L4.4258 3.87467Z" fill="white"/>
<path d="M144.69 242.813L144.804 242.985C144.804 242.813 144.69 242.726 144.69 242.813Z" fill="white"/>
<path d="M3.06402 3.18703L2.72357 2.66919C2.83705 2.92811 2.95054 3.10072 3.06402 3.18703Z" fill="white"/>
<path d="M287.338 473.14C286.771 472.451 285.977 470.987 285.863 470.987C286.317 471.762 286.998 472.882 287.338 473.14Z" fill="white"/>
<path d="M130.959 227.401L130.619 226.883C130.846 227.142 130.846 227.229 130.959 227.401Z" fill="white"/>
<path d="M3.06403 3.18579L3.40447 3.78852C3.40447 3.70241 3.40447 3.70241 3.40447 3.61631C3.17751 3.53021 3.06403 3.358 3.06403 3.18579Z" fill="white"/>
<path d="M95.3255 160.411C95.3255 160.498 95.3255 160.498 95.3255 160.411C95.4394 160.498 95.4394 160.498 95.4394 160.584L95.3255 160.411Z" fill="white"/>
<path d="M92.9423 156.02C93.1693 156.364 93.2828 156.623 93.5097 156.967C93.1693 156.45 93.0558 156.192 92.9423 156.02Z" fill="white"/>
<path d="M3.1775 1.89425L2.38312 0.774902C2.61008 1.20542 2.95053 1.54984 3.1775 1.89425Z" fill="white"/>
<path d="M65.0256 108.835C65.1394 109.008 65.2533 109.094 65.2533 109.267C65.2533 109.094 65.1394 108.921 65.0256 108.835Z" fill="white"/>
<path d="M227.306 376.187C227.42 376.273 227.42 376.446 227.534 376.532C227.647 376.532 227.647 376.532 227.306 376.187Z" fill="white"/>
<path d="M205.631 346.567C205.29 346.051 204.723 345.276 204.382 344.932C204.723 345.448 205.063 345.879 205.631 346.567Z" fill="white"/>
<path d="M202.113 341.143C202.113 341.229 202.227 341.229 202.227 341.316C202.113 341.316 202.113 341.229 202.113 341.143Z" fill="white"/>
<path d="M219.476 368.955C219.362 368.868 219.362 368.696 219.249 368.438C219.249 368.61 219.362 368.782 219.476 368.955Z" fill="white"/>
<path d="M150.138 259.517C154.11 266.061 159.557 274.413 163.529 280.87C164.55 282.248 165.912 284.228 167.16 286.295L167.047 286.639L168.181 288.361C168.522 289.05 167.274 287.07 167.954 288.361L168.522 288.964C168.522 289.136 171.132 293.355 169.203 290.6L173.288 297.23C174.196 298.694 174.082 298.005 174.99 299.641C175.104 299.985 174.536 299.038 174.536 299.21C177.373 304.204 178.622 304.635 181.345 309.285L181.118 308.94C181.345 309.285 181.799 309.887 182.026 310.318C182.367 310.748 182.594 311.179 182.594 311.179C182.48 310.49 181.913 310.404 181.232 308.94C181.572 308.94 182.48 310.662 182.594 310.49C183.161 311.609 183.729 312.126 184.296 313.073C185.09 314.709 186.679 316.948 187.246 318.239C187.814 319.014 188.608 319.789 189.63 321.425C190.197 322.717 189.289 321.167 190.197 322.889L190.537 323.061C191.332 324.439 191.218 324.181 191.105 324.181C192.013 325.644 192.013 325.3 193.034 327.108L192.24 326.161C193.148 327.452 193.375 328.055 194.623 329.863C194.509 329.863 194.055 329.088 193.715 328.572C194.169 329.605 194.85 330.294 195.19 330.811C195.19 330.638 194.396 329.347 194.85 329.95C195.417 330.897 196.212 331.844 196.552 332.533L195.758 331.585C197.006 333.48 196.552 332.533 197.914 334.771C197.8 334.685 197.8 334.685 197.8 334.685C198.822 335.977 199.843 337.871 201.091 339.938L200.864 339.593C201.432 340.368 201.886 340.799 202.113 341.229C201.432 340.024 201.659 340.368 201.772 340.196C202.567 341.832 203.475 342.435 204.95 345.018C204.836 345.018 204.382 344.415 204.042 343.726C203.248 342.951 203.021 342.865 201.999 341.401C202.68 342.348 203.361 343.468 203.134 343.209L203.475 343.468C203.815 344.07 204.155 344.501 204.382 344.932C204.723 345.104 203.815 343.726 204.836 345.018C205.858 346.481 205.177 345.879 205.404 346.137C206.766 348.203 206.198 346.912 207.333 348.978C207.219 348.806 206.879 348.376 206.766 348.203C207.56 349.667 209.035 351.734 209.035 352.25C208.808 352.078 208.695 352.078 208.468 351.475C207.333 349.926 209.376 352.767 208.808 352.336C208.922 352.164 210.057 354.231 210.624 355.092V354.747C213.007 357.589 210.17 354.661 212.213 357.675C213.461 359.569 211.759 356.9 212.667 358.105C213.461 359.397 213.574 359.914 214.823 361.808C215.05 362.325 215.731 363.444 215.617 363.616C216.412 364.735 217.773 367.06 218.341 367.663C217.206 365.683 216.979 365.769 215.731 363.444L216.298 364.047C217.319 365.596 218.681 367.577 219.249 368.696C219.135 368.438 219.135 368.352 219.249 368.438C220.724 370.677 221.291 371.279 222.653 373.432C222.653 373.776 221.859 372.485 221.291 371.538C222.086 373.001 222.199 373.001 223.561 375.24C223.447 375.412 222.653 373.776 222.313 373.604L223.901 376.015C224.355 376.273 225.036 377.823 226.058 379.287C228.327 382.817 228.895 383.248 230.37 385.056C230.597 385.573 230.71 385.745 230.483 385.573C230.029 384.711 230.029 384.884 229.803 384.539C230.597 385.745 231.278 387.208 230.71 386.606C231.959 388.5 230.37 385.917 231.164 387.036L232.753 389.619C232.64 389.275 232.072 388.328 233.094 389.619C233.888 390.739 234.115 391.255 235.136 392.719C234.909 392.547 235.25 393.236 234.569 392.116C235.023 392.805 235.704 393.925 236.044 394.355C235.136 392.719 237.86 396.938 237.292 395.647L238.2 397.283C237.973 396.938 237.86 396.938 237.519 396.335C237.633 396.852 238.427 397.627 238.768 398.144C239.108 398.746 240.016 400.21 240.016 400.296C240.356 400.813 241.151 402.018 241.264 402.277C241.832 403.052 241.378 402.277 241.605 402.535L243.193 405.118C243.193 405.29 243.08 405.635 242.74 405.204C243.42 406.151 243.193 405.462 244.215 406.926C243.534 406.151 245.35 408.907 244.328 407.787C244.782 408.648 246.258 411.059 247.165 412.351C247.846 413.126 246.371 410.887 246.484 410.887C248.868 414.589 249.435 414.676 251.137 417.431L250.797 416.742C251.932 418.378 251.818 418.206 252.613 419.153C252.159 418.722 253.407 421.219 255.223 424.061C255.45 424.233 254.428 422.425 254.882 422.855L256.131 424.664C256.244 424.836 256.017 424.577 255.904 424.405C257.038 426.041 257.719 427.591 258.173 427.936L258.968 429.744L258.627 429.055C258.854 429.227 260.102 431.121 260.443 431.466C261.805 433.36 262.145 434.049 262.712 435.082C262.599 434.738 262.259 433.877 263.166 435.34C262.826 435.427 265.096 438.526 264.869 438.526C265.209 439.129 265.89 440.248 266.004 440.248H265.777C266.117 440.334 267.592 442.487 268.727 444.123C268.16 443.865 269.975 445.931 270.089 446.792C270.543 447.051 272.132 449.72 272.472 449.978C273.38 451.27 273.039 451.184 273.153 451.614L273.607 452.217C273.947 452.906 275.536 455.317 276.33 456.78L277.465 458.072L277.692 458.588C277.919 458.761 278.6 459.88 278.26 459.191L278.714 459.88C278.941 459.88 279.394 460.913 280.529 462.291C280.756 462.635 280.643 462.549 280.416 462.291C280.87 462.98 280.529 462.721 280.756 463.152C280.529 462.635 282.912 465.563 281.664 463.583C281.664 463.41 282.458 464.53 282.912 465.218L283.026 465.735L283.82 466.51C284.615 467.629 284.728 468.146 285.296 469.007C284.728 468.06 283.593 467.113 285.069 469.524C284.161 468.318 283.707 467.715 283.253 467.113C283.593 467.629 283.707 467.888 283.139 467.113C284.388 468.921 283.707 467.715 284.955 469.524C284.728 469.524 284.955 470.04 285.976 471.676L285.296 470.385C285.409 470.471 285.409 470.471 285.523 470.557C285.296 470.126 285.182 469.954 285.182 469.868C285.409 470.212 286.771 471.935 286.884 472.279C285.976 470.299 289.267 475.465 288.587 474.173C288.814 474.345 289.608 475.637 289.608 475.809C288.473 474.345 290.175 477.015 289.835 476.842C290.289 477.359 289.154 475.551 289.721 476.326C290.289 477.273 290.629 477.962 290.97 478.478L290.629 478.134L291.537 479.598C291.764 479.77 290.743 478.134 291.651 479.426C291.878 479.77 292.785 481.062 292.672 481.062C292.105 480.459 292.218 480.975 291.537 479.942C292.105 480.889 294.147 483.817 293.466 482.525L294.147 483.645C293.807 482.956 292.672 480.975 294.147 483.128L295.282 484.592L295.623 485.281C295.623 485.281 295.849 485.453 296.19 486.056C296.19 486.228 296.53 486.744 296.417 486.744C297.552 488.38 297.552 488.208 297.779 488.38C298.46 489.328 298.573 489.672 298.233 489.241C299.027 490.533 300.502 492.686 301.07 493.633C302.318 495.269 300.843 493.288 301.637 494.235C302.318 495.785 305.269 499.832 307.084 502.587C306.857 501.726 307.652 503.362 308.219 503.707C307.765 503.104 309.694 506.376 308.106 504.051L309.127 505.515C309.694 506.548 307.425 503.104 308.219 504.74C309.354 506.376 310.375 507.323 311.51 509.304C310.829 508.701 312.531 510.767 312.078 510.337C311.737 509.992 311.397 509.39 311.056 508.873L311.283 509.217C313.666 512.834 312.191 510.165 313.666 512.059C315.142 514.298 314.688 513.867 314.688 514.039C314.915 514.384 315.595 515.503 316.049 516.02C315.028 514.728 314.461 513.523 315.028 514.039C315.482 515.073 317.184 517.311 317.638 517.914C315.822 514.642 316.163 515.761 314.461 512.662C314.12 512.317 314.007 512.403 312.872 510.595C313.666 511.714 312.985 510.509 312.758 510.165C312.872 510.509 311.851 508.959 311.51 508.443C311.283 507.926 312.531 509.39 311.283 507.581L310.829 507.323C310.375 506.634 311.283 507.582 310.148 506.032C310.829 506.807 310.262 505.687 311.624 507.754C310.262 505.257 309.013 504.051 307.652 502.243C307.765 502.415 307.879 502.415 307.992 502.587C307.652 502.243 307.198 501.468 306.744 500.952C305.949 499.66 307.538 501.899 307.425 501.554L306.063 499.574C306.063 499.488 306.063 499.488 306.063 499.488C305.723 498.971 305.269 498.454 305.269 498.282C305.722 498.885 305.949 499.057 306.29 499.402L304.701 497.335C304.928 497.507 303.68 495.527 304.815 496.991L302.658 493.891V493.547C302.091 492.772 302.091 492.772 302.658 493.719C301.978 492.599 299.14 489.069 299.935 489.5C298.119 487.089 297.665 486.228 295.509 483.214C297.211 485.453 294.034 480.545 295.623 482.87C294.715 481.406 294.374 481.234 293.58 480.114C293.012 478.995 293.466 479.426 294.261 480.545L293.353 479.253L292.445 478.134C291.764 476.842 292.445 477.79 291.651 476.498L291.31 476.326L290.856 475.465C290.97 475.809 290.516 475.12 289.835 474.173L289.04 473.054C289.835 474.087 288.36 472.021 288.814 472.451C288.246 471.504 288.133 471.504 286.998 469.782L287.111 470.126C285.523 467.888 287.225 469.954 285.976 468.146V468.318C284.501 465.649 282.912 463.927 281.778 461.947C282.572 463.066 282.458 462.721 282.458 462.721C281.324 461.086 279.508 458.33 278.26 456.694C278.033 456.005 278.033 455.833 276.898 454.025C275.99 452.733 275.876 452.561 275.536 452.131C274.742 450.839 273.153 448.514 273.266 448.428C272.926 448.17 272.586 447.309 272.018 446.62V446.448L271.905 446.62C270.77 444.295 269.294 442.918 268.046 440.593L268.387 440.937L267.706 439.99C267.706 439.818 267.933 440.162 268.046 440.248L265.209 435.857L265.663 436.718C265.096 435.771 264.528 435.254 263.961 434.135C265.323 435.857 263.053 432.671 262.939 432.327L263.62 433.274C262.826 431.982 262.826 431.982 262.712 432.155C261.578 430.519 262.259 430.949 261.124 429.399L261.805 430.519C261.918 430.863 261.351 430.088 260.897 429.399C260.783 429.227 260.556 428.71 260.897 429.227C259.989 427.936 258.741 425.955 258.287 425.352C257.833 424.664 258.06 424.836 258.4 425.18C256.471 422.425 257.606 423.889 255.677 421.133H255.79L255.109 420.186L254.428 418.722L254.655 419.239C254.088 418.292 253.634 417.775 252.953 416.656L253.293 417.086C251.591 414.503 251.478 413.987 249.775 411.576C249.662 411.404 250.002 411.748 250.116 412.006C248.414 409.768 249.208 410.198 247.506 407.959C247.619 408.046 247.506 407.787 247.619 407.873L246.825 406.84H247.052L246.258 406.065L246.031 405.376L245.69 405.032C245.236 403.827 243.988 402.277 243.193 400.641V400.985C240.356 397.197 237.633 392.03 234.455 387.381H234.682L233.32 385.486C232.753 384.367 233.888 386.089 233.661 385.745C232.299 383.678 232.867 384.97 231.278 382.559C230.597 381.267 231.618 382.989 232.072 383.506C230.597 381.267 228.327 377.995 227.419 376.359C227.419 376.359 227.306 376.273 227.306 376.359C226.285 374.896 225.036 372.829 224.015 371.193C224.128 371.193 224.355 371.624 224.696 372.054C224.355 371.452 223.901 370.59 223.447 370.16L224.015 370.763C223.221 369.471 221.518 367.06 221.518 366.716C221.518 366.888 221.405 366.888 220.724 365.769C220.61 365.08 218.681 362.841 217.66 361.033C217.887 361.205 218.681 362.497 218.454 362.152C218 361.205 217.319 360.516 216.752 359.741L216.979 359.914L214.255 355.867C214.142 355.178 211.759 351.992 212.099 352.164C211.191 350.701 212.78 353.456 211.532 351.562C211.305 351.045 210.397 349.926 210.624 349.926L210.737 350.098L209.943 348.806L210.624 349.581C209.83 348.462 209.262 347.687 209.035 347.687C208.468 346.568 207.446 345.104 207.219 344.587L207.56 344.932C205.631 342.004 204.836 339.851 203.134 337.613C203.021 337.441 203.134 337.441 203.361 337.785L202.226 335.977L202.567 336.407L200.524 333.394H200.637C199.389 331.327 197.346 328.227 195.758 325.644L195.985 325.989C194.055 323.233 194.396 323.233 192.921 321.167C193.034 321.253 193.034 321.339 193.034 321.339L191.899 319.445L192.24 319.789C191.218 318.498 189.97 315.742 190.424 316.69C189.857 315.915 188.949 314.623 188.722 314.451C187.473 312.384 188.495 313.934 187.814 312.643C186.906 311.179 186.566 310.921 185.431 308.94H185.544C184.977 307.993 184.523 307.476 183.729 306.185L183.955 306.529C182.48 304.463 182.48 303.774 181.118 302.224C180.664 301.277 179.53 299.641 179.757 299.641C178.054 297.058 176.693 294.991 174.99 292.408C174.99 291.892 174.65 291.892 173.742 290.17L173.629 290.342C171.359 286.639 168.976 282.248 166.479 278.201L166.593 278.029L165.912 277.254C163.188 272.863 159.784 267.094 157.627 263.564C156.833 262.444 155.585 260.722 154.563 258.914L154.677 259.086C152.634 255.9 150.592 252.542 148.435 249.012C148.662 249.184 148.435 248.84 148.776 249.27C148.095 248.495 147.528 247.204 147.074 246.515L147.528 247.462C146.847 246.515 146.052 245.051 145.825 244.535L144.69 242.985C144.69 242.899 144.577 242.726 144.577 242.64L144.35 242.382L144.01 241.521C143.783 241.177 142.421 239.11 141.853 238.507C141.853 238.335 140.946 236.871 141.74 237.991L138.335 232.222L138.789 233.169C138.676 233.341 137.541 231.619 137.087 230.758C137.882 231.877 137.314 230.758 137.087 230.241C136.52 229.466 137.428 230.93 137.087 230.586C136.406 229.639 135.158 227.572 134.817 227.056L135.271 227.658C134.477 226.367 134.25 225.678 133.456 224.386C132.661 223.267 132.207 222.32 132.094 222.664C131.073 220.942 131.867 221.975 131.526 221.373C130.959 220.598 129.597 218.187 129.484 217.842C128.576 217.068 126.874 213.193 126.306 212.935L125.625 211.471C125.512 211.471 125.171 211.212 124.491 210.093C123.923 208.974 124.264 209.232 124.037 208.888L123.356 208.285C119.951 201.999 114.845 193.992 111.1 187.103C109.284 184.09 106.901 180.387 104.745 176.857L104.972 177.201L102.929 173.671L104.291 176.254C103.837 175.479 103.383 174.963 102.929 174.188C100.773 170.313 97.8221 165.147 94.8715 160.411C92.7154 157.484 93.9637 158.259 92.0345 155.417C92.2614 155.676 92.2614 155.762 92.4884 155.934C90.5592 152.834 89.4244 151.112 87.3817 148.012C87.9491 148.271 86.1334 145.946 86.4738 146.204L86.1334 145.946C85.7929 145.257 84.8851 143.535 85.112 143.793L84.0907 142.416L84.2042 142.243C83.0693 140.349 80.6862 136.474 80.3458 135.355C77.3952 130.792 73.3098 123.559 69.9053 117.79C69.3379 117.015 68.3166 115.293 67.5222 114.001L66.8413 112.538C66.0469 111.246 65.0256 109.868 64.3447 108.577C64.3447 108.577 64.4582 108.663 64.4582 108.749C63.6638 107.371 62.9829 106.08 62.075 104.874C61.1672 103.411 60.4863 101.861 60.8267 102.291C60.4863 102.205 59.011 99.1054 59.011 99.1054C59.011 99.1054 48.0032 79.9043 35.747 58.3783C24.0583 36.8524 10.4404 13.0017 4.4258 3.87467C3.85839 3.27194 2.83704 1.54987 3.06401 2.2387C2.26963 0.947141 2.15615 0.258311 1.8157 0C2.72356 1.89428 1.1348 -0.430519 2.04266 1.37766L1.36177 0.258311C1.1348 0 2.38311 1.80818 2.04266 1.54987L2.49659 1.80818C2.95053 2.75532 3.17749 3.27194 3.29097 3.61636C3.85839 4.47739 4.53928 4.90791 5.56063 7.06051L5.22018 6.45778C6.24153 8.17985 5.67411 7.57713 5.78759 7.92154L5.56063 7.57713L6.24152 9.04089C5.78759 7.92154 4.53928 6.19947 5.1067 7.14661C6.12804 9.2131 4.87973 6.62999 5.67411 8.09375C6.24153 9.04089 5.90108 8.78258 5.78759 8.78258L6.80894 10.5047C6.69546 10.5047 6.12804 9.38531 6.46849 10.0741L7.83028 12.1406C7.7168 12.6572 9.30556 14.4654 9.53252 15.4987C8.62466 13.9488 9.53252 15.6709 9.30556 15.4126L11.4617 19.2011C11.5752 19.5455 10.7808 18.254 11.1213 18.7706C11.4617 19.5455 11.8022 19.89 12.0291 20.3205C12.1426 20.6649 13.6179 23.1619 13.3909 23.0758C14.7527 25.6589 14.1853 24.109 15.4336 26.5199C15.5471 26.8644 14.2988 24.6257 14.8662 25.745L16.3415 28.242C16.1145 28.0698 15.8876 27.8115 15.4336 26.8644C19.0651 33.5805 20.5403 37.369 24.1718 43.4824C24.5122 44.4295 23.7179 42.8797 23.2639 42.2769C25.9875 46.6682 26.5549 48.5625 28.7111 52.3511H28.8246C31.4347 57.6895 35.2931 63.9751 38.4706 69.9162L38.1302 69.1413C38.6976 69.9162 39.492 71.2078 40.0594 72.1549C40.0594 72.3271 39.3785 71.5522 40.3998 73.2743C40.2863 72.9299 39.8324 72.1549 40.0594 72.3271C42.6695 77.4934 48.911 88.2563 53.6773 96.6084C60.2593 107.888 67.2952 120.115 73.7638 131.222C72.7424 129.5 73.4233 130.189 74.1042 131.48C75.693 135.097 77.7356 137.508 79.5514 141.124C83.5233 147.496 86.4738 153.437 90.3322 159.292L90.2188 159.464C90.6727 160.411 90.8997 160.583 91.4671 161.531C92.7154 163.769 94.4176 166.439 95.0985 167.73H95.3255C96.1199 169.022 95.6659 168.419 96.4603 169.797H96.3468L97.4817 171.346C97.1412 171.26 99.6378 175.049 100.205 176.168C101.227 177.89 103.269 181.076 104.745 183.659C104.858 184.176 106.787 187.362 107.922 189.428C110.305 193.389 113.71 198.986 116.66 203.98L116.774 203.808L117.568 205.099C117.568 205.099 117.568 205.271 117.455 205.099C117.909 206.218 119.384 208.113 119.838 209.146C119.611 208.457 119.27 208.199 118.816 207.51C118.249 206.391 119.043 207.338 119.838 208.888L120.519 209.835C120.405 210.007 120.973 210.868 120.859 211.04C123.469 215.345 125.512 218.187 128.122 222.578C127.668 222.148 130.051 225.764 129.257 224.989C130.959 227.658 129.143 224.472 130.165 225.592C130.619 226.367 131.186 227.056 131.186 227.228C130.959 226.883 131.413 227.917 130.959 227.314L132.094 229.122C132.207 229.294 131.867 228.95 131.753 228.692C134.023 232.222 135.498 235.149 137.655 238.335C137.882 238.507 136.86 237.044 137.087 237.216C139.243 240.402 138.676 240.143 140.719 243.157L140.151 242.554C140.832 243.501 141.173 243.932 142.08 245.568C142.08 245.912 141.173 244.276 140.605 243.501C141.286 244.621 142.988 247.376 142.648 246.515C143.556 247.807 143.669 248.323 144.01 249.098C144.01 249.098 143.329 247.807 143.896 248.581C144.917 250.39 146.62 253.231 147.981 255.47C147.981 255.47 147.981 255.642 147.868 255.47C149.116 257.192 148.662 257.106 150.138 259.517Z" fill="white"/>
<path d="M224.355 376.704L223.788 375.843C223.788 375.843 223.674 375.843 223.448 375.412L224.355 376.704Z" fill="white"/>
<path d="M197.801 334.6C197.687 334.514 197.687 334.427 197.573 334.255C197.687 334.514 197.801 334.6 197.801 334.6Z" fill="white"/>
<path d="M191.105 324.439C191.559 325.128 191.218 324.525 190.991 324.094C190.991 324.181 190.991 324.181 191.105 324.439Z" fill="white"/>
<path d="M240.017 400.383C239.903 400.21 239.789 400.124 239.789 400.21C239.903 400.383 240.017 400.383 240.017 400.383Z" fill="white"/>
<path d="M282.572 465.908C282.572 465.822 282.458 465.735 282.458 465.649C282.458 465.735 282.459 465.822 282.572 465.908Z" fill="white"/>
<path d="M280.416 462.205C280.302 462.033 280.189 461.774 279.962 461.516C280.075 461.86 280.189 462.033 280.416 462.205Z" fill="white"/>
<path d="M229.689 384.453C229.576 384.195 229.349 383.937 229.235 383.764C229.462 384.195 229.576 384.367 229.689 384.453Z" fill="white"/>
<path d="M279.394 460.741L278.827 459.794L279.394 460.741Z" fill="white"/>
<path d="M283.253 467.113C283.026 466.768 282.685 466.252 282.458 465.993C282.799 466.424 283.026 466.768 283.253 467.113Z" fill="white"/>
<path d="M255.79 424.406C255.79 424.406 255.79 424.32 255.677 424.32C255.109 423.629 255.45 424.061 255.79 424.406Z" fill="white"/>
<path d="M276.444 456.867C276.444 456.867 276.444 456.781 276.33 456.781L276.104 456.522L276.444 456.867Z" fill="white"/>
<path d="M285.863 471.074C285.749 470.902 285.636 470.729 285.523 470.643C285.523 470.729 285.636 470.902 285.863 471.074C285.749 471.074 285.749 471.074 285.863 471.074Z" fill="white"/>
<path d="M264.415 438.182C264.642 438.441 264.755 438.527 264.755 438.527C264.642 438.182 264.415 438.009 264.415 438.182Z" fill="white"/>
</g>
<defs>
<clipPath id="clip0">
<rect width="319" height="518" fill="white"/>
</clipPath>
</defs>
</svg>
