<svg width="80" height="16" viewBox="0 0 80 16" fill="none" xmlns="http://www.w3.org/2000/svg">
<g clip-path="url(#clip0)">
<path d="M0 15.254V12.1052H0.953211V3.42857H0V0.279785H12.973V6.11086H8.6719V3.42857H6.34699V6.48405H8.04417V8.67653H6.34699V12.1052H8.6719V9.04972H12.973V15.254H0Z" fill="black"/>
<path d="M14.6469 15.254V12.1052H15.6001V3.42857H14.6469V0.279785H22.7608V3.42857H20.9939V12.1052H22.7143V10.3326H26.5272V15.254H14.6469Z" fill="black"/>
<path d="M28.1546 15.254V12.1052H29.1078V3.42857H28.1546V0.279785H41.1276V6.11086H36.8265V3.42857H34.5016V6.48405H36.1988V8.67653H34.5016V12.1052H36.8265V9.04972H41.1276V15.254H28.1546Z" fill="black"/>
<path d="M44.6614 13.6914C43.3595 12.4552 42.6852 10.4959 42.6852 7.76699C42.6852 2.589 45.1961 0 50.2179 0C51.4269 0 52.5661 0.139946 53.6123 0.443162C54.6585 0.746377 55.4257 1.07292 55.9372 1.42278V6.25091H51.3339V4.87478C51.3339 4.38497 51.2176 4.0351 51.0084 3.80186C50.7992 3.56862 50.4737 3.452 50.0319 3.452C49.5902 3.452 49.2647 3.56862 49.0555 3.80186C48.8462 4.0351 48.73 4.38497 48.73 4.87478V10.6825C48.73 11.1723 48.8462 11.5222 49.0555 11.7554C49.2647 11.9887 49.5902 12.1053 50.0319 12.1053C50.4737 12.1053 50.7992 11.9887 51.0084 11.7554C51.2176 11.5222 51.3339 11.1723 51.3339 10.6825V9.1198H55.9372V14.1112C55.4025 14.4611 54.6353 14.7876 53.6123 15.0908C52.5893 15.394 51.4734 15.534 50.2644 15.534C47.8465 15.534 45.9866 14.9042 44.6614 13.6914Z" fill="black"/>
<path d="M71.979 4.92145H68.6777V3.4287H67.4455V12.1053H68.7939V15.2541H60.7265V12.1053H62.0749V3.4287H60.8428V4.92145H57.5414V0.256592H71.979V4.92145Z" fill="black"/>
<path d="M77.4193 1.39941C77.6053 1.39941 77.7681 1.44606 77.9076 1.51604C78.0471 1.60933 78.14 1.70263 78.2098 1.8659C78.2795 2.00585 78.326 2.19244 78.326 2.37903V2.58895H76.8381C76.8381 2.84552 76.9078 3.03211 77.0241 3.14874C77.1403 3.28868 77.3031 3.33533 77.5356 3.33533C77.6751 3.33533 77.7913 3.31201 77.9076 3.28868C78.0238 3.26536 78.1168 3.21871 78.233 3.17206V3.47528C78.1168 3.52192 78.0006 3.56857 77.9076 3.5919C77.7913 3.61522 77.6751 3.63855 77.5123 3.63855C77.3031 3.63855 77.1171 3.5919 76.9544 3.52192C76.7916 3.42863 76.6754 3.31201 76.5824 3.14874C76.4894 2.98547 76.4429 2.77555 76.4429 2.5423C76.4429 2.30906 76.4894 2.09914 76.5591 1.93587C76.6289 1.7726 76.7451 1.63266 76.9078 1.53936C77.0706 1.44606 77.2333 1.39941 77.4193 1.39941ZM77.4193 1.70263C77.2566 1.70263 77.1171 1.74928 77.0241 1.8659C76.9311 1.98252 76.8614 2.12247 76.8381 2.33239H77.9541C77.9541 2.14579 77.9076 2.00585 77.8146 1.88922C77.7448 1.7726 77.6053 1.70263 77.4193 1.70263Z" fill="black"/>
<path d="M77.3961 5.22464C75.9547 5.22464 74.7922 4.05843 74.7922 2.61232C74.7922 1.16621 75.9547 0 77.3961 0C78.8376 0 80 1.16621 80 2.61232C80 4.05843 78.8376 5.22464 77.3961 5.22464ZM77.3961 0.396513C76.1639 0.396513 75.1875 1.39946 75.1875 2.61232C75.1875 3.82518 76.1872 4.82813 77.3961 4.82813C78.6283 4.82813 79.6048 3.82518 79.6048 2.61232C79.6048 1.39946 78.6283 0.396513 77.3961 0.396513Z" fill="black"/>
</g>
<defs>
<clipPath id="clip0">
<rect width="80" height="15.534" fill="white"/>
</clipPath>
</defs>
</svg>
