<svg width="30" height="30" viewBox="0 0 30 30" fill="none" xmlns="http://www.w3.org/2000/svg">
<path fill-rule="evenodd" clip-rule="evenodd" d="M18.175 9.15008C17.65 9.15008 17.2 9.15008 16.675 9.15008C16 9.15008 15.625 9.52508 15.55 10.1251C15.55 10.6501 15.55 11.1751 15.55 11.7001C15.55 11.9251 15.625 11.8501 15.775 11.8501C16.525 11.8501 17.275 11.8501 18.025 11.8501C18.25 11.8501 18.325 11.9251 18.325 12.1501C18.25 13.0501 18.175 13.8751 18.1 14.7751C18.1 15.0001 18.025 15.0001 17.8 15.0001C17.2 15.0001 16.6 15.0001 16 15.0001C15.55 15.0001 15.625 14.9251 15.625 15.3751C15.625 18.1501 15.625 20.8501 15.625 23.6251C15.625 23.9251 15.55 24.0001 15.25 24.0001C14.2 24.0001 13.225 24.0001 12.175 24.0001C11.875 24.0001 11.875 23.9251 11.875 23.6251C11.875 22.2751 11.875 20.8501 11.875 19.5001C11.875 18.0751 11.875 16.7251 11.875 15.3001C11.875 15.0751 11.8 15.0001 11.575 15.0001C11.125 15.0001 10.675 15.0001 10.225 15.0001C10.075 15.0001 10 14.9251 10 14.7751C10 13.8751 10 13.0501 10 12.1501C10 12.0001 10.075 11.9251 10.225 11.9251C10.675 11.9251 11.125 11.9251 11.575 11.9251C11.8 11.9251 11.875 11.8501 11.875 11.6251C11.875 10.9501 11.875 10.2751 11.875 9.60008C11.875 8.77508 12.1 8.02508 12.625 7.35008C13.225 6.52508 14.125 6.15008 15.1 6.07508C16.15 6.00008 17.2 6.07508 18.175 6.07508C18.325 6.07508 18.325 6.15008 18.325 6.30008C18.325 7.20008 18.325 8.10008 18.325 8.92508C18.4 9.07508 18.325 9.15008 18.175 9.15008Z" fill="black"/>
</svg>
