<svg width="187" height="51" viewBox="0 0 187 51" fill="none" xmlns="http://www.w3.org/2000/svg">
<g clip-path="url(#clip0)">
<path d="M106.034 48.3588V45.1517H106.984V36.4735H106.034V33.2664H119.201V39.1147H114.833V36.4735H112.491V39.5549H114.2V41.7559H112.491V45.2146H114.833V42.1332H119.201V48.3588H106.034Z" fill="black"/>
<path d="M120.911 48.3588V45.1517H121.86V36.4735H120.911V33.2664H129.14V36.4735H127.368V45.2146H129.14V43.3909H133.002V48.3588H120.911Z" fill="black"/>
<path d="M134.648 48.3588V45.1517H135.597V36.4735H134.648V33.2664H147.815V39.1147H143.447V36.4735H141.105V39.5549H142.814V41.7559H141.105V45.2146H143.447V42.1332H147.815V48.3588H134.648Z" fill="black"/>
<path d="M151.423 46.7866C150.094 45.5289 149.397 43.5795 149.397 40.8125C149.397 35.5931 151.93 33.0148 157.057 33.0148C158.323 33.0148 159.463 33.1405 160.476 33.455C161.552 33.7694 162.311 34.0838 162.818 34.4611V39.3033H158.26V37.9198C158.26 37.4167 158.133 37.0394 157.943 36.8508C157.754 36.5992 157.374 36.4735 156.931 36.4735C156.487 36.4735 156.171 36.5992 155.918 36.8508C155.728 37.1023 155.601 37.4167 155.601 37.9198V43.7682C155.601 44.2712 155.728 44.6485 155.918 44.8372C156.108 45.0887 156.487 45.2145 156.931 45.2145C157.374 45.2145 157.69 45.0887 157.943 44.8372C158.133 44.5857 158.26 44.2712 158.26 43.7682V42.196H162.944V47.2268C162.438 47.6042 161.615 47.9186 160.602 48.233C159.526 48.5474 158.387 48.6732 157.184 48.6732C154.652 48.6732 152.753 48.0444 151.423 46.7866Z" fill="black"/>
<path d="M179.214 37.9828H175.858V36.4735H174.592V45.2146H175.985V48.4217H167.756V45.2146H169.148V36.4735H167.882V37.9828H164.527V33.2664H179.214V37.9828Z" fill="black"/>
<path d="M184.405 34.3983C184.594 34.3983 184.784 34.4612 184.911 34.5241C185.038 34.587 185.164 34.7127 185.227 34.9014C185.291 35.0272 185.354 35.2158 185.354 35.4045V35.5931H183.835C183.835 35.8447 183.898 36.0333 184.025 36.1591C184.151 36.2849 184.341 36.3478 184.531 36.3478C184.658 36.3478 184.784 36.3478 184.911 36.2849C185.038 36.2849 185.101 36.222 185.227 36.1591V36.4735C185.101 36.5364 184.974 36.5364 184.911 36.5993C184.784 36.5993 184.658 36.6622 184.531 36.6622C184.341 36.6622 184.151 36.5993 183.961 36.5364C183.771 36.4735 183.645 36.3478 183.582 36.1591C183.518 35.9704 183.455 35.7818 183.455 35.5302C183.455 35.2787 183.518 35.0901 183.582 34.9014C183.645 34.7127 183.771 34.587 183.898 34.5241C184.025 34.4612 184.151 34.3983 184.405 34.3983ZM184.341 34.7127C184.151 34.7127 184.025 34.7756 183.898 34.9014C183.771 35.0272 183.708 35.1529 183.708 35.3416H184.848C184.848 35.1529 184.784 35.0272 184.721 34.9014C184.721 34.7756 184.531 34.7127 184.341 34.7127Z" fill="black"/>
<path d="M184.341 38.2343C182.885 38.2343 181.682 37.0394 181.682 35.5931C181.682 34.1467 182.885 32.9519 184.341 32.9519C185.797 32.9519 187 34.1467 187 35.5931C187 37.1023 185.797 38.2343 184.341 38.2343ZM184.341 33.3921C183.075 33.3921 182.062 34.3983 182.062 35.656C182.062 36.9137 183.075 37.9198 184.341 37.9198C185.607 37.9198 186.62 36.9137 186.62 35.656C186.62 34.3983 185.607 33.3921 184.341 33.3921Z" fill="black"/>
<path d="M35.5768 8.3009H24.8785C25.7014 9.93592 26.2079 11.8225 26.2079 13.7719C26.2079 16.0987 25.5748 18.2368 24.4353 20.1233C28.0437 20.1862 31.7786 18.8656 34.7539 16.0358C34.9438 15.8471 35.2603 15.8471 35.4502 16.0358C35.6401 16.2245 35.6401 16.5389 35.4502 16.7275C32.3483 19.6203 28.4868 21.0666 24.6886 21.0666C24.372 21.0666 24.0555 21.0666 23.739 21.0037C22.6628 22.3872 21.3334 23.582 19.8141 24.3995H27.2207L25.4482 31.6942L32.7915 24.3995H33.3612H35.5135C40.3879 24.3995 44.3128 20.7522 44.3128 16.2873C44.3128 11.8225 40.4513 8.3009 35.5768 8.3009ZM31.5254 14.9667C31.0823 14.9667 30.7657 14.6523 30.7657 14.2121C30.7657 13.7719 31.0823 13.4575 31.5254 13.4575C31.9685 13.4575 32.285 13.7719 32.285 14.2121C32.285 14.5894 31.9052 14.9667 31.5254 14.9667Z" fill="#FEDFBF"/>
<path d="M18.5481 24.4624C18.2949 24.4624 18.1049 24.4624 17.8517 24.3995H17.6618C13.4204 23.8335 10.1919 20.4377 10.1919 16.4131C10.1919 11.9482 14.1801 8.30087 18.9912 8.30087H24.8785C22.8527 4.27621 18.6747 1.57214 13.8636 1.57214C7.09005 1.57214 1.5826 7.04317 1.5826 13.7719C1.5826 20.2491 6.64692 25.5315 13.0406 25.9716L17.5985 31.254L17.8517 25.3428C18.5481 25.0913 19.2444 24.7768 19.8775 24.4624H18.9912C18.8013 24.4624 18.6747 24.4624 18.5481 24.4624Z" fill="#7DCBB7"/>
<path d="M77.9905 31.6942C77.674 31.3169 77.2309 31.0654 76.7244 31.0654H72.2299C71.5335 31.0654 70.9005 31.5684 70.7106 32.2602L69.6977 36.5364L68.6848 32.2602C68.4949 31.5684 67.8619 31.0654 67.1655 31.0654H62.7343C61.9746 31.0654 61.3416 31.5684 61.215 32.3231L60.3287 36.4106L59.3158 32.2602C59.1259 31.5684 58.4929 31.0654 57.7966 31.0654H53.1754C52.6689 31.0654 52.2258 31.3169 51.9093 31.6942C51.6561 32.0086 51.5928 32.3859 51.5928 32.7633C50.1368 31.3798 47.9844 30.688 45.2624 30.6252C43.6798 30.6252 42.2238 30.8767 40.9577 31.3798C39.4384 31.9457 38.3622 32.8261 37.6026 33.8952C36.9062 34.9642 36.5264 36.2848 36.3998 37.857C36.3365 38.2972 36.5264 38.7374 36.8429 39.0518C37.1594 39.3662 37.5393 39.5549 37.9824 39.5549H38.109C37.1594 40.3095 36.2732 41.5043 35.9567 43.2651C35.8301 43.2022 35.6401 43.2022 35.5135 43.2022H31.1456V32.6375C31.1456 31.7571 30.4492 31.0654 29.563 31.0654H28.4868L33.5511 26.0345H35.6401C41.3375 26.0345 46.022 21.6954 46.022 16.3502C46.022 11.0049 41.3375 6.66584 35.6401 6.66584H25.828C23.2959 2.5783 18.8013 0 13.8636 0C6.20379 0 0 6.16276 0 13.7719C0 20.7522 5.31754 26.6634 12.2177 27.4809L15.2563 31.0025C14.6865 31.5684 14.3067 32.3859 14.3067 33.2663C14.3067 34.5869 15.1297 35.7189 16.3324 36.2219C16.2691 36.2848 16.2058 36.3477 16.2058 36.3477C16.1425 36.4106 15.7627 36.5364 15.003 36.5993C14.1801 36.6621 13.5471 37.3539 13.5471 38.1714V38.2343C13.5471 38.2972 13.5471 38.36 13.5471 38.4229C13.5471 39.3033 13.5471 39.6806 13.8003 40.1208C14.37 41.127 15.193 41.1899 15.6361 41.1899V46.0949H11.7112C10.825 46.0949 10.1286 46.7867 10.1286 47.6671V49.2392C10.1286 50.1196 10.825 50.8113 11.7112 50.8113H23.8023C24.1188 50.8113 24.372 50.7485 24.6253 50.6227C24.8152 50.6856 24.9418 50.7485 25.1317 50.7485H29.4997C29.563 50.7485 29.6263 50.7485 29.6263 50.7485H35.4502C36.3365 50.7485 37.0328 50.0567 37.0328 49.1763V48.6732C37.3494 49.0506 37.7292 49.4279 38.1723 49.7423C39.4384 50.6227 41.021 51.0629 42.8568 51.0629C44.5027 51.0629 45.8954 50.8113 46.9716 50.2454C47.2881 50.5598 47.6679 50.6856 48.111 50.6856H52.1625C53.0487 50.6856 53.7451 49.9938 53.7451 49.1134V40.9383L56.1506 49.5536C56.3406 50.2454 56.9736 50.6856 57.6699 50.6856H62.1645C62.8609 50.6856 63.4939 50.2454 63.6838 49.5536L64.76 45.529L65.8362 49.5536C66.0261 50.2454 66.6591 50.6856 67.3555 50.6856H71.85C72.5464 50.6856 73.1794 50.2454 73.3693 49.5536L78.1171 33.0777C78.3703 32.5746 78.2437 32.0715 77.9905 31.6942ZM13.5471 38.2972C13.5471 38.4229 13.5471 38.4858 13.6104 38.6116C13.6104 38.5487 13.5471 38.4229 13.5471 38.2972ZM14.37 39.5549C14.4966 39.6178 14.6865 39.6806 14.8131 39.7435C14.6865 39.6806 14.4966 39.6178 14.37 39.5549ZM12.9773 25.9716C6.58362 25.5314 1.5826 20.2491 1.5826 13.7719C1.5826 7.04316 7.09005 1.57213 13.8636 1.57213C18.6747 1.57213 22.8527 4.33909 24.8785 8.30086H35.5768C40.4513 8.30086 44.3761 11.9482 44.3761 16.4131C44.3761 20.8779 40.388 24.5253 35.5768 24.5253H33.4245H32.8548L25.5115 31.7571L27.284 24.4624H19.8141C19.1811 24.8397 18.4848 25.0912 17.7884 25.3428L17.5352 31.254L12.9773 25.9716ZM15.8893 33.2663C15.8893 32.2602 16.7756 31.5055 17.7884 31.5055C18.8013 31.5055 19.6875 32.2602 19.6875 33.2663C19.6875 34.2096 18.8013 34.9642 17.7884 34.9642C16.7756 34.9642 15.8893 34.2096 15.8893 33.2663ZM23.8023 49.2392H11.7112V47.6671H17.2187V39.3662C17.2187 39.4291 15.9526 39.5549 15.8893 39.5549C15.4462 39.5549 15.3829 39.6806 15.193 39.3662C15.1297 39.2404 15.193 38.1714 15.193 38.1714C16.0159 38.1085 16.9655 37.9199 17.4086 37.4168C17.6618 37.1652 17.7884 36.9766 18.1682 36.9766C19.0545 36.9766 19.0545 37.7941 19.0545 38.4229V47.6671H23.8656V49.2392H23.8023ZM23.9922 31.3798C23.9922 31.4427 23.9922 31.5055 23.9922 31.5055C23.739 31.7571 23.6124 32.1344 23.6124 32.5746V44.5228C23.6124 44.5857 23.6124 44.6486 23.6124 44.6486V46.0321H20.6371V38.3601C20.6371 37.7941 20.6371 36.7879 19.8775 36.0962C19.8141 36.0333 19.8142 36.0333 19.7508 35.9704C20.7004 35.4044 21.3334 34.3983 21.3334 33.2663C21.3334 31.8829 20.4472 30.7509 19.2444 30.2478L19.4343 26.4747C19.7508 26.349 20.0674 26.2232 20.3206 26.0345H25.3849L23.9922 31.3798ZM35.4502 49.1134H29.563H25.195V44.7743V32.6375H29.563V44.7743H35.4502V49.1134ZM52.2258 49.1134H48.111C47.9844 48.8619 47.8578 48.4217 47.7312 47.7928C46.7183 48.9248 45.0724 49.4907 42.8568 49.4907C41.3375 49.4907 40.0714 49.1134 39.0586 48.4217C37.9191 47.6042 37.2861 46.4094 37.2861 44.8372C37.2861 42.5734 38.1723 41.0641 39.9448 40.1837C40.7678 39.8064 42.4137 39.4291 44.9458 39.1147C46.7183 38.8631 47.6046 38.4229 47.6046 37.6683C47.6046 37.0395 47.3514 36.5364 46.7817 36.1591C46.2752 35.7817 45.6422 35.5931 44.9458 35.5931C44.1862 35.5931 43.6165 35.7817 43.0467 36.1591C42.477 36.5993 42.0972 37.2281 42.0339 37.9827H37.8558C37.9824 36.6621 38.2989 35.5302 38.8053 34.7127C39.3118 33.8952 40.198 33.2663 41.4008 32.8261C42.477 32.3859 43.7431 32.1973 45.1357 32.1973C49.8202 32.2602 52.2258 34.4612 52.2258 38.926V49.1134ZM71.9766 49.1134H67.4821L64.8866 39.5549L62.2911 49.1134H57.7966L53.1121 32.6375H57.7332L60.392 43.2651L62.671 32.6375H67.1022L69.6344 43.2651L72.1666 32.6375H76.6611L71.9766 49.1134Z" fill="white"/>
<path d="M47.5413 41.0641C47.0982 41.4414 46.3385 41.6929 45.2624 41.8816C43.9963 42.1331 43.2366 42.3218 42.8568 42.5104C42.0972 42.8878 41.7173 43.5795 41.7173 44.5228C41.7173 45.7805 42.3504 46.4093 43.6798 46.4093C44.3128 46.4093 44.8825 46.2836 45.5789 45.9691C46.2119 45.7176 46.7184 45.3403 47.0349 44.963C47.478 44.397 47.6679 43.6424 47.6679 42.5733C47.6679 42.3847 47.6679 42.1331 47.6679 41.7558C47.6046 41.5043 47.5413 41.2527 47.5413 41.0641Z" fill="white"/>
<path d="M10.1919 16.413C10.1919 20.4377 13.4837 23.8335 17.6618 24.3994H17.8517C17.9783 24.3994 18.0416 24.3994 18.1682 24.3994C18.2949 24.3994 18.4215 24.3994 18.5481 24.3994C18.6747 24.3994 18.8646 24.3994 18.9912 24.3994H19.8775C21.3967 23.5819 22.7261 22.3871 23.8023 21.0036C20.5738 20.815 17.5352 19.4944 15.3196 17.1047C15.1297 16.9161 15.1297 16.6017 15.3196 16.413C15.5095 16.2244 15.826 16.2244 16.0159 16.413C18.2315 18.7398 21.2701 19.9975 24.4353 20.0604C25.5748 18.2367 26.2079 16.0357 26.2079 13.7089C26.2079 11.7595 25.7647 9.87293 24.8785 8.23792H18.9912C14.1168 8.3008 10.1919 11.9481 10.1919 16.413ZM19.2444 14.212C19.2444 14.6522 18.9279 14.9666 18.4848 14.9666C18.0416 14.9666 17.7251 14.6522 17.7251 14.212C17.7251 13.7718 18.0416 13.4574 18.4848 13.4574C18.8646 13.3945 19.2444 13.7718 19.2444 14.212Z" fill="white"/>
<path d="M29.4997 32.6375H25.1317V44.7114V49.1134H29.4997H35.4502V44.7114H29.4997V32.6375Z" fill="black"/>
<path d="M45.1357 32.1973C43.7431 32.1973 42.477 32.3859 41.4008 32.8261C40.198 33.2663 39.3751 33.8952 38.8053 34.7127C38.2989 35.5302 37.9824 36.5992 37.8558 37.9827H42.0339C42.0972 37.2281 42.477 36.5992 43.0467 36.159C43.5531 35.7817 44.1862 35.5931 44.9458 35.5931C45.6422 35.5931 46.2752 35.7817 46.7817 36.159C47.2881 36.5364 47.6046 37.0394 47.6046 37.6683C47.6046 38.36 46.7183 38.8631 44.9458 39.1147C42.4137 39.4291 40.7678 39.7435 39.9448 40.1837C38.1723 41.0012 37.286 42.5733 37.286 44.8372C37.286 46.4094 37.8558 47.6042 39.0586 48.4217C40.0714 49.1134 41.3375 49.4907 42.8568 49.4907C45.0724 49.4907 46.7183 48.9248 47.7312 47.7928C47.8578 48.4217 47.9844 48.9248 48.111 49.1134H52.1625V38.926C52.2258 34.4611 49.8836 32.2602 45.1357 32.1973ZM46.9716 45.0259C46.655 45.4032 46.1486 45.7805 45.5156 46.032C44.8825 46.2836 44.2495 46.4722 43.6165 46.4722C42.2871 46.4722 41.654 45.8434 41.654 44.5857C41.654 43.6424 42.0338 42.9507 42.7935 42.5733C43.1733 42.3847 43.9963 42.1331 45.1991 41.9445C46.2752 41.7558 47.0982 41.4414 47.478 41.127C47.478 41.3156 47.478 41.5672 47.478 41.8816C47.478 42.2589 47.478 42.5105 47.478 42.6991C47.6046 43.7053 47.4147 44.4599 46.9716 45.0259Z" fill="black"/>
<path d="M72.2299 32.6375L69.6344 43.2022L67.1022 32.6375H62.6709L60.3287 43.2022L57.6699 32.6375H53.0487L57.7332 49.1134H62.2278L64.8866 39.5548L67.4821 49.1134H71.9766L76.7244 32.6375H72.2299Z" fill="black"/>
<path d="M17.7884 34.9642C18.8013 34.9642 19.6875 34.2096 19.6875 33.2663C19.6875 32.2601 18.8013 31.5055 17.7884 31.5055C16.7756 31.5055 15.8893 32.2601 15.8893 33.2663C15.8893 34.2096 16.7756 34.9642 17.7884 34.9642Z" fill="black"/>
<path d="M18.9912 38.4229C18.9912 37.7941 18.9912 36.9766 18.1049 36.9766C17.7251 36.9766 17.5352 37.1652 17.3453 37.4168C16.9022 37.9198 15.9526 38.1085 15.1297 38.1714C15.1297 38.1714 15.0664 39.3033 15.1297 39.3662C15.3196 39.6806 15.3829 39.6177 15.826 39.5549C15.9526 39.5549 17.1554 39.3662 17.1554 39.3662V47.6671H11.6479V49.2392H23.739V47.6671H18.9912V38.4229Z" fill="black"/>
<path d="M31.5254 14.9668C31.9685 14.9668 32.285 14.6523 32.285 14.2121C32.285 13.7719 31.9685 13.4575 31.5254 13.4575C31.0823 13.4575 30.7657 13.7719 30.7657 14.2121C30.7657 14.5895 31.0823 14.9668 31.5254 14.9668Z" fill="#7A3723"/>
<path d="M17.7251 14.2121C17.7251 14.6523 18.0416 14.9667 18.4848 14.9667C18.9279 14.9667 19.2444 14.6523 19.2444 14.2121C19.2444 13.7719 18.9279 13.4574 18.4848 13.4574C18.0416 13.3946 17.7251 13.7719 17.7251 14.2121Z" fill="#7A3723"/>
<path d="M35.4502 16.7904C35.6402 16.6017 35.6402 16.2873 35.4502 16.0986C35.2603 15.91 34.9438 15.91 34.7539 16.0986C31.7786 18.8656 27.9804 20.1862 24.4353 20.1233C24.2454 20.4377 23.9922 20.7522 23.8023 21.0666C24.1188 21.0666 24.4353 21.1295 24.7519 21.1295C28.4235 21.1295 32.3483 19.6831 35.4502 16.7904Z" fill="#7A3723"/>
<path d="M15.9526 16.5388C15.7627 16.3502 15.4462 16.3502 15.2563 16.5388C15.0664 16.7275 15.0664 17.0419 15.2563 17.2306C17.5352 19.6202 20.5738 20.9408 23.739 21.1295C23.9922 20.815 24.1821 20.5006 24.372 20.1862C21.2068 20.0604 18.1682 18.8656 15.9526 16.5388Z" fill="#7A3723"/>
<path d="M86.0934 35.4673L96.9184 46.1578" stroke="black" stroke-miterlimit="10"/>
<path d="M96.9184 35.4673L86.0934 46.1578" stroke="black" stroke-miterlimit="10"/>
</g>
<defs>
<clipPath id="clip0">
<rect width="187" height="51" fill="white"/>
</clipPath>
</defs>
</svg>
