<svg width="131" height="35" viewBox="0 0 131 35" fill="none" xmlns="http://www.w3.org/2000/svg">
<g clip-path="url(#clip0)">
<path d="M74.2806 33.1874V30.9864H74.9458V25.0308H74.2806V22.8298H83.5047V26.8434H80.4448V25.0308H78.804V27.1455H80.0014V28.656H78.804V31.0296H80.4448V28.9149H83.5047V33.1874H74.2806Z" fill="black"/>
<path d="M84.7021 33.1874V30.9864H85.3673V25.0308H84.7021V22.8298H90.4672V25.0308H89.2255V31.0296H90.4672V29.778H93.1724V33.1874H84.7021Z" fill="black"/>
<path d="M94.3253 33.1874V30.9864H94.9905V25.0308H94.3253V22.8298H103.549V26.8434H100.49V25.0308H98.8487V27.1455H100.046V28.656H98.8487V31.0296H100.49V28.9149H103.549V33.1874H94.3253Z" fill="black"/>
<path d="M106.077 32.1085C105.146 31.2454 104.658 29.9075 104.658 28.0086C104.658 24.4266 106.432 22.6572 110.024 22.6572C110.911 22.6572 111.709 22.7435 112.419 22.9593C113.173 23.1751 113.705 23.3909 114.06 23.6498V26.9729H110.867V26.0234C110.867 25.6782 110.778 25.4192 110.645 25.2898C110.512 25.1171 110.246 25.0308 109.935 25.0308C109.625 25.0308 109.403 25.1171 109.226 25.2898C109.093 25.4624 109.004 25.6782 109.004 26.0234V30.037C109.004 30.3822 109.093 30.6412 109.226 30.7707C109.359 30.9433 109.625 31.0296 109.935 31.0296C110.246 31.0296 110.467 30.9433 110.645 30.7707C110.778 30.598 110.867 30.3822 110.867 30.037V28.9581H114.148V32.4106C113.793 32.6695 113.217 32.8853 112.507 33.1011C111.754 33.3169 110.955 33.4032 110.113 33.4032C108.339 33.4032 107.008 32.9716 106.077 32.1085Z" fill="black"/>
<path d="M125.545 26.0666H123.195V25.0308H122.308V31.0296H123.284V33.2306H117.519V31.0296H118.494V25.0308H117.607V26.0666H115.257V22.8298H125.545V26.0666Z" fill="black"/>
<path d="M129.182 23.6066C129.315 23.6066 129.448 23.6497 129.537 23.6929C129.625 23.736 129.714 23.8223 129.758 23.9518C129.803 24.0381 129.847 24.1676 129.847 24.2971V24.4265H128.783C128.783 24.5992 128.827 24.7286 128.916 24.8149C129.004 24.9013 129.137 24.9444 129.271 24.9444C129.359 24.9444 129.448 24.9444 129.537 24.9013C129.625 24.9013 129.67 24.8581 129.758 24.8149V25.0307C129.67 25.0739 129.581 25.0739 129.537 25.117C129.448 25.117 129.359 25.1602 129.271 25.1602C129.137 25.1602 129.004 25.117 128.871 25.0739C128.738 25.0307 128.65 24.9444 128.605 24.8149C128.561 24.6855 128.517 24.556 128.517 24.3834C128.517 24.2108 128.561 24.0813 128.605 23.9518C128.65 23.8223 128.738 23.736 128.827 23.6929C128.916 23.6497 129.004 23.6066 129.182 23.6066ZM129.137 23.8223C129.004 23.8223 128.916 23.8655 128.827 23.9518C128.738 24.0381 128.694 24.1244 128.694 24.2539H129.492C129.492 24.1244 129.448 24.0381 129.404 23.9518C129.404 23.8655 129.271 23.8223 129.137 23.8223Z" fill="black"/>
<path d="M129.137 26.2392C128.117 26.2392 127.275 25.4192 127.275 24.4266C127.275 23.434 128.117 22.614 129.137 22.614C130.157 22.614 131 23.434 131 24.4266C131 25.4623 130.157 26.2392 129.137 26.2392ZM129.137 22.9161C128.251 22.9161 127.541 23.6066 127.541 24.4697C127.541 25.3329 128.251 26.0234 129.137 26.0234C130.024 26.0234 130.734 25.3329 130.734 24.4697C130.734 23.6066 130.024 22.9161 129.137 22.9161Z" fill="black"/>
<path d="M24.9228 5.69666H17.4282C18.0047 6.81873 18.3595 8.11342 18.3595 9.45128C18.3595 11.0481 17.916 12.5154 17.1178 13.8101C19.6456 13.8533 22.262 12.947 24.3463 11.0049C24.4793 10.8754 24.7011 10.8754 24.8341 11.0049C24.9672 11.1344 24.9672 11.3502 24.8341 11.4796C22.6611 13.4648 19.956 14.4574 17.2952 14.4574C17.0735 14.4574 16.8517 14.4574 16.63 14.4143C15.8761 15.3637 14.9448 16.1837 13.8805 16.7447H19.0691L17.8273 21.7509L22.9716 16.7447H23.3707H24.8785C28.2932 16.7447 31.0426 14.2417 31.0426 11.1775C31.0426 8.11342 28.3375 5.69666 24.9228 5.69666ZM22.0846 10.2713C21.7742 10.2713 21.5525 10.0555 21.5525 9.75338C21.5525 9.45128 21.7742 9.2355 22.0846 9.2355C22.3951 9.2355 22.6168 9.45128 22.6168 9.75338C22.6168 10.0123 22.3507 10.2713 22.0846 10.2713Z" fill="#FEDFBF"/>
<path d="M12.9935 16.788C12.8162 16.788 12.6831 16.788 12.5057 16.7448H12.3727C9.40147 16.3564 7.13979 14.026 7.13979 11.2639C7.13979 8.19982 9.93363 5.69673 13.304 5.69673H17.4282C16.0091 2.93471 13.0822 1.07898 9.71189 1.07898C4.9668 1.07898 1.10864 4.8336 1.10864 9.45136C1.10864 13.8965 4.65637 17.5216 9.13539 17.8237L12.3283 21.4489L12.5057 17.3922C12.9935 17.2195 13.4814 17.0038 13.9248 16.788H13.304C13.1709 16.788 13.0822 16.788 12.9935 16.788Z" fill="#7DCBB7"/>
<path d="M54.6351 21.7509C54.4133 21.492 54.1029 21.3194 53.7481 21.3194H50.5995C50.1117 21.3194 49.6683 21.6646 49.5352 22.1393L48.8257 25.074L48.1161 22.1393C47.9831 21.6646 47.5396 21.3194 47.0518 21.3194H43.9475C43.4154 21.3194 42.9719 21.6646 42.8832 22.1825L42.2624 24.9877L41.5528 22.1393C41.4198 21.6646 40.9763 21.3194 40.4885 21.3194H37.2512C36.8964 21.3194 36.586 21.492 36.3643 21.7509C36.1869 21.9667 36.1425 22.2256 36.1425 22.4846C35.1226 21.5351 33.6148 21.0604 31.7079 21.0173C30.5992 21.0173 29.5792 21.1899 28.6923 21.5351C27.628 21.9236 26.8741 22.5277 26.3419 23.2614C25.8541 23.9951 25.588 24.9014 25.4993 25.9803C25.455 26.2824 25.588 26.5845 25.8098 26.8002C26.0315 27.016 26.2976 27.1455 26.608 27.1455H26.6967C26.0315 27.6634 25.4106 28.4834 25.1889 29.6917C25.1002 29.6486 24.9672 29.6486 24.8785 29.6486H21.8186V22.3983C21.8186 21.7941 21.3307 21.3194 20.7099 21.3194H19.956L23.5037 17.8668H24.9672C28.9584 17.8668 32.24 14.889 32.24 11.2207C32.24 7.5524 28.9584 4.5746 24.9672 4.5746H18.0934C16.3196 1.76942 13.171 0 9.71192 0C4.34597 0 0 4.22935 0 9.45129C0 14.2417 3.72512 18.2984 8.5589 18.8594L10.6875 21.2762C10.2884 21.6646 10.0223 22.2256 10.0223 22.8298C10.0223 23.7361 10.5989 24.5129 11.4414 24.8582C11.3971 24.9014 11.3527 24.9445 11.3527 24.9445C11.3084 24.9877 11.0423 25.074 10.5102 25.1171C9.93365 25.1603 9.49018 25.635 9.49018 26.1961V26.2392C9.49018 26.2824 9.49018 26.3255 9.49018 26.3687C9.49018 26.9729 9.49018 27.2318 9.66757 27.5339C10.0667 28.2244 10.6432 28.2676 10.9536 28.2676V31.6338H8.20413C7.58328 31.6338 7.09546 32.1085 7.09546 32.7127V33.7916C7.09546 34.3958 7.58328 34.8705 8.20413 34.8705H16.6743C16.8961 34.8705 17.0735 34.8274 17.2508 34.7411C17.3839 34.7842 17.4726 34.8274 17.6056 34.8274H20.6655C20.7099 34.8274 20.7542 34.8274 20.7542 34.8274H24.8341C25.455 34.8274 25.9428 34.3526 25.9428 33.7485V33.4032C26.1645 33.6621 26.4306 33.9211 26.741 34.1369C27.628 34.7411 28.7366 35.0432 30.0227 35.0432C31.1757 35.0432 32.1513 34.8705 32.9052 34.4821C33.1269 34.6979 33.393 34.7842 33.7035 34.7842H36.5416C37.1625 34.7842 37.6503 34.3095 37.6503 33.7053V28.0949L39.3355 34.0074C39.4685 34.4821 39.912 34.7842 40.3998 34.7842H43.5484C44.0362 34.7842 44.4797 34.4821 44.6127 34.0074L45.3666 31.2454L46.1205 34.0074C46.2536 34.4821 46.697 34.7842 47.1848 34.7842H50.3335C50.8213 34.7842 51.2647 34.4821 51.3978 34.0074L54.7238 22.7004C54.9012 22.3551 54.8125 22.0099 54.6351 21.7509ZM9.49018 26.2824C9.49018 26.3687 9.49018 26.4118 9.53453 26.4982C9.53453 26.455 9.49018 26.3687 9.49018 26.2824ZM10.0667 27.1455C10.1554 27.1887 10.2884 27.2318 10.3771 27.275C10.2884 27.2318 10.1554 27.1887 10.0667 27.1455ZM9.09106 17.8237C4.61205 17.5216 1.10867 13.8964 1.10867 9.45129C1.10867 4.83354 4.96683 1.07891 9.71192 1.07891C13.0823 1.07891 16.0091 2.97781 17.4282 5.69667H24.9228C28.3375 5.69667 31.087 8.19975 31.087 11.2639C31.087 14.328 28.2932 16.8311 24.9228 16.8311H23.415H23.0159L17.8717 21.7941L19.1134 16.7879H13.8805C13.437 17.0469 12.9492 17.2195 12.4614 17.3921L12.284 21.4488L9.09106 17.8237ZM11.131 22.8298C11.131 22.1393 11.7519 21.6215 12.4614 21.6215C13.171 21.6215 13.7918 22.1393 13.7918 22.8298C13.7918 23.4772 13.171 23.9951 12.4614 23.9951C11.7519 23.9951 11.131 23.4772 11.131 22.8298ZM16.6743 33.7916H8.20413V32.7127H12.0623V27.016C12.0623 27.0592 11.1754 27.1455 11.131 27.1455C10.8206 27.1455 10.7762 27.2318 10.6432 27.016C10.5989 26.9297 10.6432 26.1961 10.6432 26.1961C11.2197 26.1529 11.8849 26.0234 12.1953 25.6782C12.3727 25.5055 12.4614 25.3761 12.7275 25.3761C13.3483 25.3761 13.3483 25.9371 13.3483 26.3687V32.7127H16.7187V33.7916H16.6743ZM16.8074 21.5351C16.8074 21.5783 16.8074 21.6215 16.8074 21.6215C16.63 21.7941 16.5413 22.053 16.5413 22.3551V30.5549C16.5413 30.598 16.5413 30.6412 16.5413 30.6412V31.5906H14.457V26.3255C14.457 25.9371 14.457 25.2466 13.9248 24.7719C13.8805 24.7287 13.8805 24.7287 13.8362 24.6856C14.5014 24.2972 14.9448 23.6067 14.9448 22.8298C14.9448 21.8804 14.324 21.1036 13.4814 20.7583L13.6144 18.1689C13.8362 18.0826 14.0579 17.9963 14.2353 17.8668H17.783L16.8074 21.5351ZM24.8341 33.7053H20.7099H17.65V30.7275V22.3983H20.7099V30.7275H24.8341V33.7053ZM36.586 33.7053H33.7035C33.6148 33.5327 33.5261 33.2306 33.4374 32.799C32.7278 33.5758 31.5748 33.9642 30.0227 33.9642C28.9584 33.9642 28.0714 33.7053 27.3619 33.2306C26.5636 32.6695 26.1202 31.8496 26.1202 30.7707C26.1202 29.217 26.741 28.1813 27.9827 27.5771C28.5592 27.3181 29.7123 27.0592 31.4861 26.8434C32.7278 26.6708 33.3487 26.3687 33.3487 25.8508C33.3487 25.4192 33.1713 25.074 32.7722 24.815C32.4174 24.5561 31.9739 24.4266 31.4861 24.4266C30.954 24.4266 30.5548 24.5561 30.1557 24.815C29.7566 25.1171 29.4905 25.5487 29.4462 26.0666H26.5193C26.608 25.1603 26.8297 24.3835 27.1845 23.8224C27.5393 23.2614 28.1601 22.8298 29.0027 22.5277C29.7566 22.2256 30.6435 22.0962 31.6192 22.0962C34.9008 22.1393 36.586 23.6498 36.586 26.7139V33.7053ZM50.4221 33.7053H47.2735L45.4553 27.1455L43.6371 33.7053H40.4885L37.2068 22.3983H40.4441L42.3067 29.6917L43.9032 22.3983H47.0075L48.7813 29.6917L50.5552 22.3983H53.7038L50.4221 33.7053Z" fill="white"/>
<path d="M33.3044 28.1813C32.994 28.4402 32.4618 28.6128 31.7079 28.7423C30.821 28.9149 30.2888 29.0444 30.0227 29.1739C29.4906 29.4328 29.2245 29.9075 29.2245 30.5549C29.2245 31.418 29.668 31.8496 30.5992 31.8496C31.0427 31.8496 31.4418 31.7633 31.9296 31.5475C32.3731 31.3749 32.7279 31.1159 32.9496 30.857C33.26 30.4686 33.3931 29.9507 33.3931 29.217C33.3931 29.0876 33.3931 28.9149 33.3931 28.656C33.3487 28.4834 33.3044 28.3107 33.3044 28.1813Z" fill="white"/>
<path d="M7.13977 11.2639C7.13977 14.0259 9.4458 16.3564 12.3727 16.7448H12.5057C12.5944 16.7448 12.6388 16.7448 12.7274 16.7448C12.8161 16.7448 12.9048 16.7448 12.9935 16.7448C13.0822 16.7448 13.2153 16.7448 13.304 16.7448H13.9248C14.9891 16.1838 15.9204 15.3638 16.6743 14.4144C14.4126 14.2849 12.284 13.3786 10.7318 11.7386C10.5988 11.6092 10.5988 11.3934 10.7318 11.2639C10.8649 11.1345 11.0866 11.1345 11.2197 11.2639C12.7718 12.8607 14.9004 13.7238 17.1178 13.767C17.916 12.5155 18.3595 11.005 18.3595 9.40819C18.3595 8.07033 18.049 6.77564 17.4282 5.65356H13.304C9.88926 5.69672 7.13977 8.1998 7.13977 11.2639ZM13.4813 9.75344C13.4813 10.0555 13.2596 10.2713 12.9492 10.2713C12.6388 10.2713 12.417 10.0555 12.417 9.75344C12.417 9.45134 12.6388 9.23556 12.9492 9.23556C13.2153 9.1924 13.4813 9.45134 13.4813 9.75344Z" fill="white"/>
<path d="M20.6655 22.3983H17.6056V30.6844V33.7053H20.6655H24.8341V30.6844H20.6655V22.3983Z" fill="black"/>
<path d="M31.6192 22.0962C30.6436 22.0962 29.7567 22.2257 29.0028 22.5278C28.1602 22.8299 27.5837 23.2614 27.1846 23.8225C26.8298 24.3835 26.6081 25.1172 26.5194 26.0666H29.4462C29.4906 25.5487 29.7567 25.1172 30.1558 24.8151C30.5106 24.5561 30.954 24.4266 31.4862 24.4266C31.974 24.4266 32.4175 24.5561 32.7722 24.8151C33.127 25.074 33.3487 25.4193 33.3487 25.8508C33.3487 26.3255 32.7279 26.6708 31.4862 26.8434C29.7123 27.0592 28.5593 27.275 27.9828 27.5771C26.7411 28.1381 26.1202 29.217 26.1202 30.7707C26.1202 31.8496 26.5194 32.6696 27.3619 33.2306C28.0715 33.7053 28.9584 33.9643 30.0227 33.9643C31.5749 33.9643 32.7279 33.5758 33.4374 32.799C33.5261 33.2306 33.6148 33.5758 33.7035 33.7053H36.5417V26.7139C36.5861 23.6498 34.9452 22.1393 31.6192 22.0962ZM32.9053 30.9001C32.6835 31.1591 32.3288 31.418 31.8853 31.5906C31.4418 31.7633 30.9984 31.8927 30.5549 31.8927C29.6236 31.8927 29.1802 31.4612 29.1802 30.598C29.1802 29.9507 29.4462 29.476 29.9784 29.217C30.2445 29.0876 30.821 28.9149 31.6636 28.7855C32.4175 28.656 32.994 28.4402 33.2601 28.2244C33.2601 28.3539 33.2601 28.5265 33.2601 28.7423C33.2601 29.0012 33.2601 29.1739 33.2601 29.3033C33.3487 29.9939 33.2157 30.5117 32.9053 30.9001Z" fill="black"/>
<path d="M50.5995 22.3983L48.7813 29.6486L47.0074 22.3983H43.9032L42.2623 29.6486L40.3998 22.3983H37.1625L40.4441 33.7053H43.5927L45.4553 27.1455L47.2735 33.7053H50.4221L53.7481 22.3983H50.5995Z" fill="black"/>
<path d="M12.4614 23.9951C13.1709 23.9951 13.7918 23.4772 13.7918 22.8298C13.7918 22.1393 13.1709 21.6215 12.4614 21.6215C11.7518 21.6215 11.131 22.1393 11.131 22.8298C11.131 23.4772 11.7518 23.9951 12.4614 23.9951Z" fill="black"/>
<path d="M13.304 26.3687C13.304 25.9371 13.304 25.3761 12.6831 25.3761C12.4171 25.3761 12.284 25.5056 12.151 25.6782C11.8406 26.0234 11.1754 26.1529 10.5989 26.1961C10.5989 26.1961 10.5545 26.9729 10.5989 27.016C10.7319 27.2318 10.7762 27.1887 11.0867 27.1455C11.1754 27.1455 12.018 27.016 12.018 27.016V32.7127H8.15979V33.7916H16.63V32.7127H13.304V26.3687Z" fill="black"/>
<path d="M22.0847 10.2712C22.3951 10.2712 22.6168 10.0554 22.6168 9.75335C22.6168 9.45126 22.3951 9.23547 22.0847 9.23547C21.7742 9.23547 21.5525 9.45126 21.5525 9.75335C21.5525 10.0123 21.7742 10.2712 22.0847 10.2712Z" fill="#7A3723"/>
<path d="M12.4171 9.75344C12.4171 10.0555 12.6388 10.2713 12.9493 10.2713C13.2597 10.2713 13.4814 10.0555 13.4814 9.75344C13.4814 9.45134 13.2597 9.23556 12.9493 9.23556C12.6388 9.1924 12.4171 9.45134 12.4171 9.75344Z" fill="#7A3723"/>
<path d="M24.8341 11.5228C24.9671 11.3933 24.9671 11.1775 24.8341 11.048C24.7011 10.9186 24.4793 10.9186 24.3463 11.048C22.262 12.9469 19.6012 13.8532 17.1178 13.8101C16.9847 14.0258 16.8074 14.2416 16.6743 14.4574C16.896 14.4574 17.1178 14.5006 17.3395 14.5006C19.9116 14.5006 22.6611 13.508 24.8341 11.5228Z" fill="#7A3723"/>
<path d="M11.1754 11.3502C11.0423 11.2207 10.8206 11.2207 10.6875 11.3502C10.5545 11.4796 10.5545 11.6954 10.6875 11.8249C12.284 13.4648 14.4127 14.3711 16.63 14.5006C16.8074 14.2848 16.9404 14.069 17.0735 13.8532C14.8561 13.7669 12.7275 12.9469 11.1754 11.3502Z" fill="#7A3723"/>
<path d="M60.3114 24.3403L67.8947 31.677" stroke="black" stroke-miterlimit="10"/>
<path d="M67.8947 24.3403L60.3114 31.677" stroke="black" stroke-miterlimit="10"/>
</g>
<defs>
<clipPath id="clip0">
<rect width="131" height="35" fill="white"/>
</clipPath>
</defs>
</svg>
