<svg width="155" height="51" viewBox="0 0 155 51" fill="none" xmlns="http://www.w3.org/2000/svg">
<g clip-path="url(#clip0)">
<path d="M2.5 28.3784V22.5205H4.28727V6.37867H2.5V0.520752H26.8243V11.3688H18.7598V6.37867H14.4006V12.063H17.5828V16.1419H14.4006V22.5205H18.7598V16.8361H26.8243V28.3784H2.5Z" fill="black"/>
<path d="M29.9629 28.3784V22.5205H31.7502V6.37867H29.9629V0.520752H45.1765V6.37867H41.8635V22.5205H45.0893V19.2227H52.2384V28.3784H29.9629Z" fill="black"/>
<path d="M55.2899 28.3784V22.5205H57.0772V6.37867H55.2899V0.520752H79.6142V11.3688H71.5497V6.37867H67.1905V12.063H70.3727V16.1419H67.1905V22.5205H71.5497V16.8361H79.6142V28.3784H55.2899Z" fill="black"/>
<path d="M86.2402 25.4711C83.799 23.1713 82.5349 19.5264 82.5349 14.4495C82.5349 4.81651 87.2428 0 96.6587 0C98.9254 0 101.061 0.260352 103.023 0.824448C104.985 1.38854 106.423 1.99603 107.382 2.64691V11.6291H98.7511V9.06893C98.7511 8.1577 98.5331 7.50682 98.1408 7.0729C97.7485 6.63898 97.1382 6.42202 96.3099 6.42202C95.4817 6.42202 94.8714 6.63898 94.4791 7.0729C94.0867 7.50682 93.8688 8.1577 93.8688 9.06893V19.8735C93.8688 20.7848 94.0867 21.4357 94.4791 21.8696C94.8714 22.3035 95.4817 22.5205 96.3099 22.5205C97.1382 22.5205 97.7485 22.3035 98.1408 21.8696C98.5331 21.4357 98.7511 20.7848 98.7511 19.8735V16.9663H107.382V26.2522C106.38 26.9031 104.941 27.5105 103.023 28.0746C101.105 28.6387 99.0126 28.8991 96.7458 28.8991C92.2123 28.8991 88.7249 27.7275 86.2402 25.4711Z" fill="black"/>
<path d="M137.461 9.1557H131.271V6.37861H128.96V22.5204H131.489V28.3784H116.362V22.5204H118.891V6.37861H116.58V9.1557H110.39V0.477295H137.461V9.1557Z" fill="black"/>
<path d="M147.661 2.60352C148.01 2.60352 148.315 2.6903 148.577 2.82048C148.838 2.99404 149.013 3.16761 149.143 3.47136C149.274 3.73171 149.361 4.07884 149.361 4.42598V4.81651H146.571C146.571 5.29382 146.702 5.64096 146.92 5.85792C147.138 6.11827 147.443 6.20505 147.879 6.20505C148.141 6.20505 148.359 6.16166 148.577 6.11827C148.795 6.07488 148.969 5.98809 149.187 5.90131V6.4654C148.969 6.55219 148.751 6.63897 148.577 6.68236C148.359 6.72576 148.141 6.76915 147.836 6.76915C147.443 6.76915 147.095 6.68236 146.789 6.55219C146.484 6.37862 146.266 6.16166 146.092 5.85792C145.918 5.55417 145.83 5.16364 145.83 4.72972C145.83 4.2958 145.918 3.90528 146.048 3.60153C146.179 3.29779 146.397 3.03744 146.702 2.86387C147.007 2.6903 147.313 2.60352 147.661 2.60352ZM147.661 3.16761C147.356 3.16761 147.095 3.2544 146.92 3.47136C146.746 3.68832 146.615 3.94867 146.571 4.3392H148.664C148.664 3.99206 148.577 3.73171 148.402 3.51475C148.272 3.29779 148.01 3.16761 147.661 3.16761Z" fill="black"/>
<path d="M147.618 9.71981C144.915 9.71981 142.735 7.55021 142.735 4.85991C142.735 2.1696 144.915 0 147.618 0C150.32 0 152.5 2.1696 152.5 4.85991C152.5 7.55021 150.32 9.71981 147.618 9.71981ZM147.618 0.737664C145.307 0.737664 143.476 2.60352 143.476 4.85991C143.476 7.11629 145.351 8.98215 147.618 8.98215C149.928 8.98215 151.759 7.11629 151.759 4.85991C151.759 2.60352 149.928 0.737664 147.618 0.737664Z" fill="black"/>
</g>
<path d="M1.05 47.8992V47.1992L1.512 47.1292C1.68 47.1012 1.806 47.0452 1.89 46.9612C1.974 46.8678 2.016 46.7092 2.016 46.4852V39.7932C2.016 39.5692 1.974 39.4152 1.89 39.3312C1.806 39.2378 1.68 39.1772 1.512 39.1492L1.05 39.0792V38.3792H4.172V39.0792L3.71 39.1492C3.542 39.1772 3.416 39.2378 3.332 39.3312C3.248 39.4152 3.206 39.5692 3.206 39.7932V46.4852C3.206 46.7092 3.248 46.8678 3.332 46.9612C3.416 47.0452 3.542 47.1012 3.71 47.1292L4.172 47.1992V47.8992H1.05ZM12.671 38.3792H15.723V39.0792L15.261 39.1492C15.037 39.1865 14.897 39.2425 14.841 39.3172C14.785 39.3918 14.757 39.5505 14.757 39.7932V47.8992H13.651L9.03098 40.1712V46.4852C9.03098 46.7278 9.05898 46.8865 9.11498 46.9612C9.17098 47.0358 9.31098 47.0918 9.53498 47.1292L9.99698 47.1992V47.8992H6.94498V47.1992L7.40698 47.1292C7.63098 47.0918 7.77098 47.0358 7.82698 46.9612C7.88298 46.8865 7.91098 46.7278 7.91098 46.4852V39.7932C7.91098 39.5412 7.89232 39.3825 7.85498 39.3172C7.81765 39.2518 7.71498 39.2005 7.54698 39.1632L7.09898 39.0792V38.3792H9.25498L13.637 45.7012V39.7932C13.637 39.5505 13.609 39.3918 13.553 39.3172C13.497 39.2425 13.357 39.1865 13.133 39.1492L12.671 39.0792V38.3792ZM23.3508 39.6952C23.2948 39.5365 23.2201 39.4198 23.1268 39.3452C23.0428 39.2705 22.9168 39.2192 22.7488 39.1912L22.2868 39.1212V38.3792H25.6048V39.1212L25.2548 39.1492C25.0681 39.1585 24.9281 39.2052 24.8348 39.2892C24.7415 39.3638 24.6948 39.4572 24.6948 39.5692C24.6948 39.6532 24.7135 39.7512 24.7508 39.8632L26.8788 46.6532H27.0748L29.3988 39.8912C29.4361 39.8072 29.4548 39.7092 29.4548 39.5972C29.4548 39.4665 29.4128 39.3685 29.3288 39.3032C29.2448 39.2285 29.1095 39.1818 28.9228 39.1632L28.5308 39.1212V38.3792H31.7368V39.1212L31.2328 39.1912C31.0741 39.2098 30.9481 39.2612 30.8548 39.3452C30.7615 39.4292 30.6868 39.5552 30.6308 39.7232L27.8588 47.8992H26.0248L23.3508 39.6952ZM37.2605 48.0532C36.2058 48.0532 35.3238 47.7685 34.6145 47.1992C33.9145 46.6205 33.5645 45.6918 33.5645 44.4132V41.8792C33.5645 40.6285 33.9098 39.7092 34.6005 39.1212C35.3005 38.5238 36.1871 38.2252 37.2605 38.2252C38.3525 38.2252 39.2485 38.5238 39.9485 39.1212C40.6485 39.7092 40.9985 40.6285 40.9985 41.8792V44.4132C40.9985 45.6918 40.6391 46.6205 39.9205 47.1992C39.2111 47.7685 38.3245 48.0532 37.2605 48.0532ZM37.2605 47.0032C38.0538 47.0032 38.6745 46.7978 39.1225 46.3872C39.5798 45.9672 39.8085 45.3092 39.8085 44.4132V41.8092C39.8085 40.9692 39.5751 40.3392 39.1085 39.9192C38.6511 39.4898 38.0351 39.2752 37.2605 39.2752C36.4951 39.2752 35.8838 39.4898 35.4265 39.9192C34.9785 40.3485 34.7545 40.9785 34.7545 41.8092V44.4132C34.7545 45.3092 34.9738 45.9672 35.4125 46.3872C35.8605 46.7978 36.4765 47.0032 37.2605 47.0032ZM45.0812 47.8992V47.1992L45.5432 47.1292C45.7112 47.1012 45.8372 47.0452 45.9212 46.9612C46.0052 46.8678 46.0472 46.7092 46.0472 46.4852V40.5772C46.0472 40.2505 46.0379 39.8445 46.0192 39.3592H44.5632C44.4325 39.3592 44.3299 39.3918 44.2552 39.4572C44.1899 39.5225 44.1479 39.6392 44.1292 39.8072L44.0592 40.3112H43.2332V38.3792H50.0512V40.3112H49.2252L49.1552 39.8072C49.1365 39.6392 49.0945 39.5225 49.0292 39.4572C48.9639 39.3918 48.8612 39.3592 48.7212 39.3592H47.2652C47.2465 39.8445 47.2372 40.2505 47.2372 40.5772V46.4852C47.2372 46.7092 47.2792 46.8678 47.3632 46.9612C47.4472 47.0452 47.5732 47.1012 47.7412 47.1292L48.2032 47.1992V47.8992H45.0812ZM52.2927 47.8992V47.1992L52.6147 47.1292C52.7921 47.0918 52.9181 47.0312 52.9927 46.9472C53.0767 46.8632 53.1187 46.7092 53.1187 46.4852V39.7932C53.1187 39.5692 53.0721 39.4152 52.9787 39.3312C52.8854 39.2472 52.7361 39.1818 52.5307 39.1352L52.2927 39.0792V38.3792H58.6907V40.3812H57.8787L57.7947 39.8072C57.7761 39.6485 57.7154 39.5365 57.6127 39.4712C57.5194 39.3965 57.3561 39.3592 57.1227 39.3592H54.8127C54.6074 39.3592 54.4721 39.4058 54.4067 39.4992C54.3414 39.5832 54.3087 39.7605 54.3087 40.0312V42.6632H57.5847V43.5732H54.3087V46.2472C54.3087 46.5178 54.3414 46.6998 54.4067 46.7932C54.4721 46.8772 54.6074 46.9192 54.8127 46.9192H57.2767C57.5101 46.9192 57.6734 46.8865 57.7667 46.8212C57.8694 46.7558 57.9301 46.6438 57.9487 46.4852L58.0327 45.8972H58.8447V47.8992H52.2927ZM70.1835 47.8992H68.4475L66.5575 39.2752L65.6195 39.0512V38.3792H68.8955V39.0512L67.8455 39.2752L69.4275 46.6252H69.5255L71.4855 39.7932H72.5635L74.5375 46.6252H74.6355L76.0915 39.2752L75.0975 39.0512V38.3792H78.2475V39.0512L77.2955 39.2752L75.4755 47.8992H73.7395L72.0315 41.8232H71.9335L70.1835 47.8992ZM80.2758 47.8992V47.1992L80.5978 47.1292C80.7751 47.0918 80.9011 47.0312 80.9758 46.9472C81.0598 46.8632 81.1018 46.7092 81.1018 46.4852V39.7932C81.1018 39.5692 81.0551 39.4152 80.9618 39.3312C80.8684 39.2472 80.7191 39.1818 80.5138 39.1352L80.2758 39.0792V38.3792H86.6738V40.3812H85.8618L85.7778 39.8072C85.7591 39.6485 85.6984 39.5365 85.5958 39.4712C85.5025 39.3965 85.3391 39.3592 85.1058 39.3592H82.7958C82.5904 39.3592 82.4551 39.4058 82.3898 39.4992C82.3244 39.5832 82.2918 39.7605 82.2918 40.0312V42.6632H85.5678V43.5732H82.2918V46.2472C82.2918 46.5178 82.3244 46.6998 82.3898 46.7932C82.4551 46.8772 82.5904 46.9192 82.7958 46.9192H85.2598C85.4931 46.9192 85.6564 46.8865 85.7498 46.8212C85.8524 46.7558 85.9131 46.6438 85.9318 46.4852L86.0158 45.8972H86.8278V47.8992H80.2758ZM95.6606 47.8992V47.1992L96.1226 47.1292C96.2906 47.1012 96.4166 47.0452 96.5006 46.9612C96.5846 46.8678 96.6266 46.7092 96.6266 46.4852V40.5772C96.6266 40.2505 96.6172 39.8445 96.5986 39.3592H95.1426C95.0119 39.3592 94.9092 39.3918 94.8346 39.4572C94.7692 39.5225 94.7272 39.6392 94.7086 39.8072L94.6386 40.3112H93.8126V38.3792H100.631V40.3112H99.8046L99.7346 39.8072C99.7159 39.6392 99.6739 39.5225 99.6086 39.4572C99.5432 39.3918 99.4406 39.3592 99.3006 39.3592H97.8446C97.8259 39.8445 97.8166 40.2505 97.8166 40.5772V46.4852C97.8166 46.7092 97.8586 46.8678 97.9426 46.9612C98.0266 47.0452 98.1526 47.1012 98.3206 47.1292L98.7826 47.1992V47.8992H95.6606ZM102.802 47.8992V47.1992L103.222 47.1432C103.39 47.1245 103.511 47.0685 103.586 46.9752C103.661 46.8818 103.698 46.7185 103.698 46.4852V39.7932C103.698 39.6252 103.675 39.5085 103.628 39.4432C103.591 39.3685 103.516 39.3125 103.404 39.2752L102.886 39.1212V38.3792H106.862C107.814 38.3792 108.551 38.6405 109.074 39.1632C109.597 39.6858 109.858 40.3812 109.858 41.2492C109.858 42.6585 109.177 43.5778 107.814 44.0072L109.186 46.6672C109.261 46.8072 109.34 46.9098 109.424 46.9752C109.517 47.0312 109.648 47.0685 109.816 47.0872L110.32 47.1572V47.8992H108.388L106.722 44.1892H104.888V46.4852C104.888 46.7185 104.93 46.8818 105.014 46.9752C105.098 47.0592 105.243 47.1105 105.448 47.1292L105.98 47.1992V47.8992H102.802ZM106.288 43.2092C107.044 43.2092 107.613 43.0458 107.996 42.7192C108.388 42.3832 108.584 41.8932 108.584 41.2492C108.584 40.6612 108.407 40.1992 108.052 39.8632C107.697 39.5272 107.207 39.3592 106.582 39.3592H105.294C105.023 39.3592 104.888 39.4898 104.888 39.7512V43.2092H106.288ZM117.136 48.0532C116.091 48.0532 115.237 47.7825 114.574 47.2412C113.911 46.6998 113.58 45.7945 113.58 44.5252V39.7932C113.58 39.5692 113.538 39.4152 113.454 39.3312C113.37 39.2378 113.244 39.1772 113.076 39.1492L112.614 39.0792V38.3792H115.736V39.0792L115.274 39.1492C115.106 39.1772 114.98 39.2378 114.896 39.3312C114.812 39.4152 114.77 39.5692 114.77 39.7932V44.4972C114.77 45.3185 114.971 45.9438 115.372 46.3732C115.773 46.7932 116.361 47.0032 117.136 47.0032C117.92 47.0032 118.513 46.7932 118.914 46.3732C119.325 45.9438 119.53 45.3185 119.53 44.4972V39.7932C119.53 39.5692 119.488 39.4152 119.404 39.3312C119.32 39.2378 119.194 39.1772 119.026 39.1492L118.564 39.0792V38.3792H121.686V39.0792L121.224 39.1492C121.056 39.1772 120.93 39.2378 120.846 39.3312C120.762 39.4152 120.72 39.5692 120.72 39.7932V44.5252C120.72 45.7945 120.384 46.6998 119.712 47.2412C119.049 47.7825 118.191 48.0532 117.136 48.0532ZM127.294 48.0392C126.547 48.0392 125.927 47.9692 125.432 47.8292C124.947 47.6798 124.508 47.4978 124.116 47.2832C124.116 46.4992 124.158 45.8552 124.242 45.3512H125.194L125.334 46.5692C125.567 46.7092 125.866 46.8165 126.23 46.8912C126.603 46.9565 126.958 46.9892 127.294 46.9892C127.91 46.9892 128.409 46.8445 128.792 46.5552C129.175 46.2565 129.366 45.8552 129.366 45.3512C129.366 44.9872 129.259 44.6885 129.044 44.4552C128.829 44.2125 128.559 44.0212 128.232 43.8812C127.915 43.7318 127.485 43.5685 126.944 43.3912C126.337 43.1858 125.847 42.9945 125.474 42.8172C125.101 42.6305 124.783 42.3785 124.522 42.0612C124.27 41.7345 124.144 41.3238 124.144 40.8292C124.144 39.8958 124.433 39.2285 125.012 38.8272C125.6 38.4258 126.375 38.2252 127.336 38.2252C128.419 38.2252 129.399 38.4725 130.276 38.9672C130.276 39.5552 130.239 40.1992 130.164 40.8992H129.212L129.128 39.6952C128.941 39.5738 128.671 39.4758 128.316 39.4012C127.971 39.3172 127.658 39.2752 127.378 39.2752C126.771 39.2752 126.277 39.3825 125.894 39.5972C125.521 39.8118 125.334 40.1712 125.334 40.6752C125.334 41.1418 125.507 41.4965 125.852 41.7392C126.197 41.9725 126.706 42.1872 127.378 42.3832C128.115 42.6072 128.675 42.8032 129.058 42.9712C129.45 43.1392 129.795 43.4052 130.094 43.7692C130.402 44.1332 130.556 44.6232 130.556 45.2392C130.556 46.1165 130.276 46.8025 129.716 47.2972C129.156 47.7918 128.349 48.0392 127.294 48.0392ZM134.58 47.8992V47.1992L135.042 47.1292C135.21 47.1012 135.336 47.0452 135.42 46.9612C135.504 46.8678 135.546 46.7092 135.546 46.4852V40.5772C135.546 40.2505 135.537 39.8445 135.518 39.3592H134.062C133.931 39.3592 133.829 39.3918 133.754 39.4572C133.689 39.5225 133.647 39.6392 133.628 39.8072L133.558 40.3112H132.732V38.3792H139.55V40.3112H138.724L138.654 39.8072C138.635 39.6392 138.593 39.5225 138.528 39.4572C138.463 39.3918 138.36 39.3592 138.22 39.3592H136.764C136.745 39.8445 136.736 40.2505 136.736 40.5772V46.4852C136.736 46.7092 136.778 46.8678 136.862 46.9612C136.946 47.0452 137.072 47.1012 137.24 47.1292L137.702 47.1992V47.8992H134.58Z" fill="black"/>
<defs>
<clipPath id="clip0">
<rect width="150" height="28.8991" fill="white" transform="translate(2.5)"/>
</clipPath>
</defs>
</svg>
