<svg width="124" height="34" viewBox="0 0 124 34" fill="none" xmlns="http://www.w3.org/2000/svg">
<g filter="url(#filter0_d)">
<rect x="2" y="1" width="120" height="29.1429" fill="#28B55F"/>
<path fill-rule="evenodd" clip-rule="evenodd" d="M85.15 10.5217C84.7 10.5217 84.3143 10.5217 83.8643 10.5217C83.2857 10.5217 82.9643 10.8431 82.9 11.3574C82.9 11.8074 82.9 12.2574 82.9 12.7074C82.9 12.9003 82.9643 12.836 83.0928 12.836C83.7357 12.836 84.3785 12.836 85.0214 12.836C85.2143 12.836 85.2785 12.9003 85.2785 13.0931C85.2143 13.8646 85.15 14.5717 85.0857 15.3431C85.0857 15.536 85.0214 15.536 84.8285 15.536C84.3143 15.536 83.8 15.536 83.2857 15.536C82.9 15.536 82.9643 15.4717 82.9643 15.8574C82.9643 18.236 82.9643 20.5503 82.9643 22.9288C82.9643 23.186 82.9 23.2503 82.6428 23.2503C81.7428 23.2503 80.9071 23.2503 80.0071 23.2503C79.75 23.2503 79.75 23.186 79.75 22.9288C79.75 21.7717 79.75 20.5503 79.75 19.3931C79.75 18.1717 79.75 17.0146 79.75 15.7931C79.75 15.6003 79.6857 15.536 79.4928 15.536C79.1071 15.536 78.7214 15.536 78.3357 15.536C78.2071 15.536 78.1428 15.4717 78.1428 15.3431C78.1428 14.5717 78.1428 13.8646 78.1428 13.0931C78.1428 12.9646 78.2071 12.9003 78.3357 12.9003C78.7214 12.9003 79.1071 12.9003 79.4928 12.9003C79.6857 12.9003 79.75 12.836 79.75 12.6431C79.75 12.0646 79.75 11.486 79.75 10.9074C79.75 10.2003 79.9428 9.55742 80.3928 8.97885C80.9071 8.27171 81.6785 7.95028 82.5143 7.88599C83.4143 7.82171 84.3143 7.88599 85.15 7.88599C85.2785 7.88599 85.2785 7.95028 85.2785 8.07885C85.2785 8.85028 85.2785 9.62171 85.2785 10.3288C85.3428 10.4574 85.2785 10.5217 85.15 10.5217Z" fill="#F0EFE9"/>
<path d="M112.093 12.657C112.093 12.7856 112.093 12.9141 112.093 13.0427C112.093 17.2213 108.879 22.107 103.029 22.107C101.229 22.107 99.5571 21.5927 98.1428 20.6927C98.4 20.6927 98.6571 20.757 98.9143 20.757C100.393 20.757 101.743 20.2427 102.836 19.407C101.421 19.407 100.264 18.4427 99.8785 17.2213C100.071 17.2856 100.264 17.2856 100.457 17.2856C100.779 17.2856 101.036 17.2213 101.293 17.157C99.8143 16.8356 98.7214 15.5499 98.7214 14.0713C98.7214 14.0713 98.7214 14.0713 98.7214 14.007C99.1714 14.2641 99.6214 14.3927 100.136 14.3927C99.3643 13.7499 98.85 12.7856 98.85 11.6927C98.85 11.1141 98.9785 10.5356 99.3 10.0856C100.843 12.0141 103.221 13.2999 105.857 13.4284C105.793 13.1713 105.793 12.9784 105.793 12.7213C105.793 10.9856 107.207 9.57129 108.943 9.57129C109.843 9.57129 110.679 9.957 111.257 10.5999C111.964 10.4713 112.671 10.2141 113.25 9.82843C112.993 10.5999 112.479 11.1784 111.836 11.5641C112.479 11.4999 113.121 11.307 113.636 11.0499C113.25 11.6284 112.671 12.207 112.093 12.657Z" fill="#F0EFE9"/>
<path d="M20.8881 18.03C20.8881 18.98 20.5431 19.74 19.8531 20.31C19.1731 20.87 18.2031 21.15 16.9431 21.15C15.8131 21.15 14.8031 20.935 13.9131 20.505V18.39C14.4231 18.61 14.9481 18.815 15.4881 19.005C16.0381 19.185 16.5831 19.275 17.1231 19.275C17.6831 19.275 18.0781 19.17 18.3081 18.96C18.5481 18.74 18.6681 18.465 18.6681 18.135C18.6681 17.865 18.5731 17.635 18.3831 17.445C18.2031 17.255 17.9581 17.08 17.6481 16.92C17.3381 16.75 16.9831 16.57 16.5831 16.38C16.3331 16.26 16.0631 16.12 15.7731 15.96C15.4831 15.79 15.2031 15.585 14.9331 15.345C14.6731 15.095 14.4581 14.795 14.2881 14.445C14.1181 14.095 14.0331 13.675 14.0331 13.185C14.0331 12.225 14.3581 11.48 15.0081 10.95C15.6581 10.41 16.5431 10.14 17.6631 10.14C18.2231 10.14 18.7531 10.205 19.2531 10.335C19.7531 10.465 20.2831 10.65 20.8431 10.89L20.1081 12.66C19.6181 12.46 19.1781 12.305 18.7881 12.195C18.3981 12.085 17.9981 12.03 17.5881 12.03C17.1581 12.03 16.8281 12.13 16.5981 12.33C16.3681 12.53 16.2531 12.79 16.2531 13.11C16.2531 13.49 16.4231 13.79 16.7631 14.01C17.1031 14.23 17.6081 14.5 18.2781 14.82C18.8281 15.08 19.2931 15.35 19.6731 15.63C20.0631 15.91 20.3631 16.24 20.5731 16.62C20.7831 17 20.8881 17.47 20.8881 18.03ZM24.8899 9.6V11.925C24.8899 12.335 24.8749 12.725 24.8449 13.095C24.8249 13.455 24.8049 13.71 24.7849 13.86H24.9049C25.1649 13.44 25.4999 13.135 25.9099 12.945C26.3199 12.755 26.7749 12.66 27.2749 12.66C28.1549 12.66 28.8649 12.9 29.4049 13.38C29.9449 13.85 30.2149 14.61 30.2149 15.66V21H27.9799V16.215C27.9799 15.035 27.5399 14.445 26.6599 14.445C25.9899 14.445 25.5249 14.68 25.2649 15.15C25.0149 15.61 24.8899 16.275 24.8899 17.145V21H22.6549V9.6H24.8899ZM35.8733 12.645C36.9733 12.645 37.8133 12.885 38.3933 13.365C38.9833 13.835 39.2783 14.56 39.2783 15.54V21H37.7183L37.2833 19.89H37.2233C36.8733 20.33 36.5033 20.65 36.1133 20.85C35.7233 21.05 35.1883 21.15 34.5083 21.15C33.7783 21.15 33.1733 20.94 32.6933 20.52C32.2133 20.1 31.9733 19.445 31.9733 18.555C31.9733 17.685 32.2783 17.045 32.8883 16.635C33.4983 16.225 34.4133 15.995 35.6333 15.945L37.0583 15.9V15.54C37.0583 15.11 36.9433 14.795 36.7133 14.595C36.4933 14.395 36.1833 14.295 35.7833 14.295C35.3833 14.295 34.9933 14.355 34.6133 14.475C34.2333 14.585 33.8533 14.725 33.4733 14.895L32.7383 13.38C33.1683 13.16 33.6533 12.985 34.1933 12.855C34.7333 12.715 35.2933 12.645 35.8733 12.645ZM37.0583 17.205L36.1883 17.235C35.4683 17.255 34.9683 17.385 34.6883 17.625C34.4083 17.865 34.2683 18.18 34.2683 18.57C34.2683 18.91 34.3683 19.155 34.5683 19.305C34.7683 19.445 35.0283 19.515 35.3483 19.515C35.8283 19.515 36.2333 19.375 36.5633 19.095C36.8933 18.805 37.0583 18.4 37.0583 17.88V17.205ZM46.141 12.66C46.251 12.66 46.381 12.665 46.531 12.675C46.681 12.685 46.801 12.7 46.891 12.72L46.726 14.82C46.646 14.8 46.541 14.785 46.411 14.775C46.281 14.755 46.166 14.745 46.066 14.745C45.686 14.745 45.321 14.815 44.971 14.955C44.621 15.085 44.336 15.3 44.116 15.6C43.906 15.9 43.801 16.31 43.801 16.83V21H41.566V12.81H43.261L43.591 14.19H43.696C43.936 13.77 44.266 13.41 44.686 13.11C45.106 12.81 45.591 12.66 46.141 12.66ZM51.4596 12.66C52.5896 12.66 53.4846 12.985 54.1446 13.635C54.8046 14.275 55.1346 15.19 55.1346 16.38V17.46H49.8546C49.8746 18.09 50.0596 18.585 50.4096 18.945C50.7696 19.305 51.2646 19.485 51.8946 19.485C52.4146 19.485 52.8896 19.435 53.3196 19.335C53.7596 19.225 54.2096 19.06 54.6696 18.84V20.565C54.2596 20.765 53.8346 20.91 53.3946 21C52.9546 21.1 52.4196 21.15 51.7896 21.15C50.9696 21.15 50.2446 21 49.6146 20.7C48.9846 20.39 48.4896 19.93 48.1296 19.32C47.7696 18.7 47.5896 17.915 47.5896 16.965C47.5896 16.015 47.7496 15.22 48.0696 14.58C48.3996 13.94 48.8546 13.46 49.4346 13.14C50.0146 12.82 50.6896 12.66 51.4596 12.66ZM51.4746 14.25C51.0346 14.25 50.6746 14.39 50.3946 14.67C50.1146 14.95 49.9496 15.385 49.8996 15.975H53.0346C53.0246 15.485 52.8896 15.075 52.6296 14.745C52.3796 14.415 51.9946 14.25 51.4746 14.25Z" fill="#F0EFE9"/>
<line x1="66.7858" y1="7" x2="66.7858" y2="25" stroke="#F0EFE9"/>
</g>
<defs>
<filter id="filter0_d" x="0" y="0" width="124" height="33.1429" filterUnits="userSpaceOnUse" color-interpolation-filters="sRGB">
<feFlood flood-opacity="0" result="BackgroundImageFix"/>
<feColorMatrix in="SourceAlpha" type="matrix" values="0 0 0 0 0 0 0 0 0 0 0 0 0 0 0 0 0 0 127 0"/>
<feOffset dy="1"/>
<feGaussianBlur stdDeviation="1"/>
<feColorMatrix type="matrix" values="0 0 0 0 0 0 0 0 0 0 0 0 0 0 0 0 0 0 0.25 0"/>
<feBlend mode="normal" in2="BackgroundImageFix" result="effect1_dropShadow"/>
<feBlend mode="normal" in="SourceGraphic" in2="effect1_dropShadow" result="shape"/>
</filter>
</defs>
</svg>
