<svg width="140" height="34" viewBox="0 0 140 34" fill="none" xmlns="http://www.w3.org/2000/svg">
<rect width="140" height="34" fill="#28B55F"/>
<path fill-rule="evenodd" clip-rule="evenodd" d="M98.175 11.1083C97.65 11.1083 97.2 11.1083 96.675 11.1083C96 11.1083 95.625 11.4833 95.55 12.0833C95.55 12.6083 95.55 13.1333 95.55 13.6583C95.55 13.8833 95.625 13.8083 95.775 13.8083C96.525 13.8083 97.275 13.8083 98.025 13.8083C98.25 13.8083 98.325 13.8833 98.325 14.1083C98.25 15.0083 98.175 15.8333 98.1 16.7333C98.1 16.9583 98.025 16.9583 97.8 16.9583C97.2 16.9583 96.6 16.9583 96 16.9583C95.55 16.9583 95.625 16.8833 95.625 17.3333C95.625 20.1083 95.625 22.8083 95.625 25.5833C95.625 25.8833 95.55 25.9583 95.25 25.9583C94.2 25.9583 93.225 25.9583 92.175 25.9583C91.875 25.9583 91.875 25.8833 91.875 25.5833C91.875 24.2333 91.875 22.8083 91.875 21.4583C91.875 20.0333 91.875 18.6833 91.875 17.2583C91.875 17.0333 91.8 16.9583 91.575 16.9583C91.125 16.9583 90.675 16.9583 90.225 16.9583C90.075 16.9583 90 16.8833 90 16.7333C90 15.8333 90 15.0083 90 14.1083C90 13.9583 90.075 13.8833 90.225 13.8833C90.675 13.8833 91.125 13.8833 91.575 13.8833C91.8 13.8833 91.875 13.8083 91.875 13.5833C91.875 12.9083 91.875 12.2333 91.875 11.5583C91.875 10.7333 92.1 9.98333 92.625 9.30833C93.225 8.48333 94.125 8.10833 95.1 8.03333C96.15 7.95833 97.2 8.03333 98.175 8.03333C98.325 8.03333 98.325 8.10833 98.325 8.25833C98.325 9.15833 98.325 10.0583 98.325 10.8833C98.4 11.0333 98.325 11.1083 98.175 11.1083Z" fill="#F0EFE9"/>
<path d="M127.275 13.6C127.275 13.75 127.275 13.9 127.275 14.05C127.275 18.925 123.525 24.625 116.7 24.625C114.6 24.625 112.65 24.025 111 22.975C111.3 22.975 111.6 23.05 111.9 23.05C113.625 23.05 115.2 22.45 116.475 21.475C114.825 21.475 113.475 20.35 113.025 18.925C113.25 19 113.475 19 113.7 19C114.075 19 114.375 18.925 114.675 18.85C112.95 18.475 111.675 16.975 111.675 15.25C111.675 15.25 111.675 15.25 111.675 15.175C112.2 15.475 112.725 15.625 113.325 15.625C112.425 14.875 111.825 13.75 111.825 12.475C111.825 11.8 111.975 11.125 112.35 10.6C114.15 12.85 116.925 14.35 120 14.5C119.925 14.2 119.925 13.975 119.925 13.675C119.925 11.65 121.575 10 123.6 10C124.65 10 125.625 10.45 126.3 11.2C127.125 11.05 127.95 10.75 128.625 10.3C128.325 11.2 127.725 11.875 126.975 12.325C127.725 12.25 128.475 12.025 129.075 11.725C128.625 12.4 127.95 13.075 127.275 13.6Z" fill="#F0EFE9"/>
<path d="M21.6658 19.436C21.6658 20.576 21.2518 21.488 20.4238 22.172C19.6078 22.844 18.4438 23.18 16.9318 23.18C15.5758 23.18 14.3638 22.922 13.2958 22.406V19.868C13.9078 20.132 14.5378 20.378 15.1858 20.606C15.8458 20.822 16.4998 20.93 17.1478 20.93C17.8198 20.93 18.2938 20.804 18.5698 20.552C18.8578 20.288 19.0018 19.958 19.0018 19.562C19.0018 19.238 18.8878 18.962 18.6598 18.734C18.4438 18.506 18.1498 18.296 17.7778 18.104C17.4058 17.9 16.9798 17.684 16.4998 17.456C16.1998 17.312 15.8758 17.144 15.5278 16.952C15.1798 16.748 14.8438 16.502 14.5198 16.214C14.2078 15.914 13.9498 15.554 13.7458 15.134C13.5418 14.714 13.4398 14.21 13.4398 13.622C13.4398 12.47 13.8298 11.576 14.6098 10.94C15.3898 10.292 16.4518 9.968 17.7958 9.968C18.4678 9.968 19.1038 10.046 19.7038 10.202C20.3038 10.358 20.9398 10.58 21.6118 10.868L20.7298 12.992C20.1418 12.752 19.6138 12.566 19.1458 12.434C18.6778 12.302 18.1978 12.236 17.7058 12.236C17.1898 12.236 16.7938 12.356 16.5178 12.596C16.2418 12.836 16.1038 13.148 16.1038 13.532C16.1038 13.988 16.3078 14.348 16.7158 14.612C17.1238 14.876 17.7298 15.2 18.5338 15.584C19.1938 15.896 19.7518 16.22 20.2078 16.556C20.6758 16.892 21.0358 17.288 21.2878 17.744C21.5398 18.2 21.6658 18.764 21.6658 19.436ZM26.4678 9.32V12.11C26.4678 12.602 26.4498 13.07 26.4138 13.514C26.3898 13.946 26.3658 14.252 26.3418 14.432H26.4858C26.7978 13.928 27.1998 13.562 27.6918 13.334C28.1838 13.106 28.7298 12.992 29.3298 12.992C30.3858 12.992 31.2378 13.28 31.8858 13.856C32.5338 14.42 32.8578 15.332 32.8578 16.592V23H30.1758V17.258C30.1758 15.842 29.6478 15.134 28.5918 15.134C27.7878 15.134 27.2298 15.416 26.9178 15.98C26.6178 16.532 26.4678 17.33 26.4678 18.374V23H23.7858V9.32H26.4678ZM39.6479 12.974C40.9679 12.974 41.9759 13.262 42.6719 13.838C43.3799 14.402 43.7339 15.272 43.7339 16.448V23H41.8619L41.3399 21.668H41.2679C40.8479 22.196 40.4039 22.58 39.9359 22.82C39.4679 23.06 38.8259 23.18 38.0099 23.18C37.1339 23.18 36.4079 22.928 35.8319 22.424C35.2559 21.92 34.9679 21.134 34.9679 20.066C34.9679 19.022 35.3339 18.254 36.0659 17.762C36.7979 17.27 37.8959 16.994 39.3599 16.934L41.0699 16.88V16.448C41.0699 15.932 40.9319 15.554 40.6559 15.314C40.3919 15.074 40.0199 14.954 39.5399 14.954C39.0599 14.954 38.5919 15.026 38.1359 15.17C37.6799 15.302 37.2239 15.47 36.7679 15.674L35.8859 13.856C36.4019 13.592 36.9839 13.382 37.6319 13.226C38.2799 13.058 38.9519 12.974 39.6479 12.974ZM41.0699 18.446L40.0259 18.482C39.1619 18.506 38.5619 18.662 38.2259 18.95C37.8899 19.238 37.7219 19.616 37.7219 20.084C37.7219 20.492 37.8419 20.786 38.0819 20.966C38.3219 21.134 38.6339 21.218 39.0179 21.218C39.5939 21.218 40.0799 21.05 40.4759 20.714C40.8719 20.366 41.0699 19.88 41.0699 19.256V18.446ZM51.9692 12.992C52.1012 12.992 52.2572 12.998 52.4372 13.01C52.6172 13.022 52.7612 13.04 52.8692 13.064L52.6712 15.584C52.5752 15.56 52.4492 15.542 52.2932 15.53C52.1372 15.506 51.9992 15.494 51.8792 15.494C51.4232 15.494 50.9852 15.578 50.5652 15.746C50.1452 15.902 49.8032 16.16 49.5392 16.52C49.2872 16.88 49.1612 17.372 49.1612 17.996V23H46.4792V13.172H48.5132L48.9092 14.828H49.0352C49.3232 14.324 49.7192 13.892 50.2232 13.532C50.7272 13.172 51.3092 12.992 51.9692 12.992ZM58.3515 12.992C59.7075 12.992 60.7815 13.382 61.5735 14.162C62.3655 14.93 62.7615 16.028 62.7615 17.456V18.752H56.4255C56.4495 19.508 56.6715 20.102 57.0915 20.534C57.5235 20.966 58.1175 21.182 58.8735 21.182C59.4975 21.182 60.0675 21.122 60.5835 21.002C61.1115 20.87 61.6515 20.672 62.2035 20.408V22.478C61.7115 22.718 61.2015 22.892 60.6735 23C60.1455 23.12 59.5035 23.18 58.7475 23.18C57.7635 23.18 56.8935 23 56.1375 22.64C55.3815 22.268 54.7875 21.716 54.3555 20.984C53.9235 20.24 53.7075 19.298 53.7075 18.158C53.7075 17.018 53.8995 16.064 54.2835 15.296C54.6795 14.528 55.2255 13.952 55.9215 13.568C56.6175 13.184 57.4275 12.992 58.3515 12.992ZM58.3695 14.9C57.8415 14.9 57.4095 15.068 57.0735 15.404C56.7375 15.74 56.5395 16.262 56.4795 16.97H60.2415C60.2295 16.382 60.0675 15.89 59.7555 15.494C59.4555 15.098 58.9935 14.9 58.3695 14.9Z" fill="#F0EFE9"/>
<line x1="75.5" y1="7" x2="75.5" y2="28" stroke="#F0EFE9"/>
</svg>
