<svg width="30" height="30" viewBox="0 0 30 30" fill="none" xmlns="http://www.w3.org/2000/svg">
<path d="M22.2 11.3251C22.2 11.4751 22.2 11.6251 22.2 11.7751C22.2 16.6501 18.45 22.3501 11.625 22.3501C9.52499 22.3501 7.57499 21.7501 5.92499 20.7001C6.22499 20.7001 6.52499 20.7751 6.82499 20.7751C8.54999 20.7751 10.125 20.1751 11.4 19.2001C9.74999 19.2001 8.39999 18.0751 7.94999 16.6501C8.17499 16.7251 8.39999 16.7251 8.62499 16.7251C8.99999 16.7251 9.29999 16.6501 9.59999 16.5751C7.87499 16.2001 6.59999 14.7001 6.59999 12.9751C6.59999 12.9751 6.59999 12.9751 6.59999 12.9001C7.12499 13.2001 7.64999 13.3501 8.24999 13.3501C7.34999 12.6001 6.74999 11.4751 6.74999 10.2001C6.74999 9.5251 6.89999 8.8501 7.27499 8.3251C9.07499 10.5751 11.85 12.0751 14.925 12.2251C14.85 11.9251 14.85 11.7001 14.85 11.4001C14.85 9.3751 16.5 7.7251 18.525 7.7251C19.575 7.7251 20.55 8.1751 21.225 8.9251C22.05 8.7751 22.875 8.4751 23.55 8.0251C23.25 8.9251 22.65 9.6001 21.9 10.0501C22.65 9.9751 23.4 9.7501 24 9.4501C23.55 10.1251 22.875 10.8001 22.2 11.3251Z" fill="black"/>
</svg>
