<svg width="255" height="169" viewBox="0 0 255 169" fill="none" xmlns="http://www.w3.org/2000/svg">
<g clip-path="url(#clip0)">
<path d="M46.2375 79.2081C46.5015 79.1691 46.1933 79.328 46.1933 79.328C46.6327 79.4901 46.8967 79.4511 47.2049 79.2922C46.9851 79.2112 46.4572 79.2891 46.2375 79.2081Z" fill="black"/>
<path d="M10.4744 82.7843L10.2989 82.5833C10.4744 82.7843 10.4744 82.7843 10.4744 82.7843Z" fill="black"/>
<path d="M179.106 76.2759C179.062 76.3959 179.281 76.4769 179.106 76.2759C179.281 76.4769 179.281 76.4769 179.106 76.2759Z" fill="black"/>
<path d="M245.282 82.2786C245.282 82.2786 245.062 82.1976 245.282 82.2786L245.018 82.3175C245.018 82.3175 245.062 82.1976 245.282 82.2786Z" fill="black"/>
<path d="M197.047 77.7123C197.047 77.7123 197.091 77.5923 197.047 77.7123C196.827 77.6313 195.859 77.5472 194.892 77.463L195.068 77.664L197.047 77.7123Z" fill="black"/>
<path d="M218.848 83.5706L216.782 83.0814C222.499 83.1452 225.532 83.7186 230.546 83.6593L230.282 83.6983C230.985 83.8213 231.075 82.9005 239.911 84.6595C240.131 84.7405 240.175 84.6206 240.835 84.8636L239.208 84.5364C240 84.4196 240.748 84.4227 241.759 84.3868C241.979 84.4679 242.199 84.5489 242.199 84.5489L245.145 84.6813L246.024 85.0054C246.816 84.8885 246.07 84.2045 248.619 84.7358C247.565 84.2107 249.675 84.58 249.28 84.2979C249.5 84.379 249.719 84.46 249.939 84.541C251.17 84.5862 253.897 84.6376 254.425 84.5597C254.425 84.5597 248.666 83.254 247.084 82.8068C249.019 82.9751 247.568 82.8489 247.128 82.6869L247.084 82.8068C245.897 82.6417 245.766 82.3207 245.062 82.1976C245.062 82.1976 245.062 82.1976 245.018 82.3176C245.018 82.3176 244.974 82.4376 244.754 82.3566C244.271 82.3145 243.523 82.3114 243.039 82.2693L242.864 82.0683C242.247 82.3862 236.753 81.0416 235.566 80.8764C234.203 80.5103 233.103 80.7861 231.432 80.5789C229.014 80.3686 230.07 80.2127 228.927 79.9276C227.52 79.6815 229.322 80.2096 228.838 80.1676L226.992 79.7594C227.959 79.8435 227.3 79.6004 227.081 79.5194C225.63 79.3932 223.08 78.8619 222.683 79.2608C220.573 78.8916 220.398 78.6906 219.65 78.6875C219.87 78.7685 220.573 78.8916 220.573 78.8916C219.65 78.6875 220.309 78.9305 220.529 79.0115C219.473 79.1674 213.714 77.8617 213.757 78.4226L213.801 78.3027C213.669 78.6626 214.284 79.0256 213.492 79.1425L212.833 78.8994L212.041 79.0163C211.337 78.8932 211.645 78.7343 211.645 78.7343C210.37 78.8091 208.215 78.5598 206.545 78.3526L208.873 79.4838C207.247 79.1566 204.477 78.5443 204.345 78.9042L203.246 78.4991C200.037 77.7247 201.442 78.6518 200.255 78.4866L198.673 78.0395L200.124 78.1657C198.717 77.9195 198.014 77.7964 196.651 77.4303L196.871 77.5113L196.607 77.5503C196.563 77.6702 195.771 77.7871 194.804 77.703C193.353 77.5768 192.297 77.7326 189.923 77.4023L189.526 77.8012L187.635 77.513L187.944 77.354C189.659 77.4413 192.649 77.4537 194.892 77.463L194.936 77.343C193.705 77.2979 192.21 77.2917 191.462 77.2885C190.978 77.2465 189.88 76.8414 190.452 76.6435L189.836 76.9614C185.614 76.9037 185.614 76.9037 181.041 76.4441L181.48 76.6062C180.688 76.7231 179.941 76.7199 179.501 76.5579C176.819 76.3865 173.917 76.1342 172.07 75.7259L171.938 76.0859C171.454 76.0438 170.18 75.4377 170.223 75.9986L169.167 76.1545C168.419 76.1514 168.111 76.3103 166.968 76.0252L166.748 75.9441C164.814 75.7759 166.88 76.2651 164.725 76.0158C164.066 75.7728 164.329 76.4147 163.361 76.3306L162.043 75.8445C160.152 75.5562 160.195 76.1172 157.513 75.9458C156.106 75.6996 155.271 75.2556 155.888 74.9377C155.007 75.2945 155.535 75.2166 154.215 75.4114C153.776 75.2493 154.04 75.2104 154.348 75.0515C152.941 74.8053 153.556 75.1683 152.545 75.2042C152.412 75.5641 152.455 76.125 152.191 76.164L152.63 76.326C151.794 76.5629 150.563 76.5177 149.331 76.4725L149.376 76.3525L147.925 76.2263L147.749 76.0254L145.946 76.1781L146.165 76.2591C145.682 76.217 144.362 76.4118 143.439 76.2077L143.483 76.0877C140.889 75.6764 139.437 76.2311 136.71 76.1797L136.798 75.9398C135.656 75.6546 136.885 76.3807 135.698 76.2156L135.567 75.8946C134.906 76.3324 134.336 75.8494 133.632 75.7263L134.247 76.0894L133.016 76.0442C131.565 75.918 131.962 75.5191 132.006 75.3991L131.17 75.636L130.819 75.234C130.422 75.6329 130.115 75.1109 129.015 75.3867C128.84 75.1857 129.104 75.1468 128.62 75.1047L126.948 75.5784L128.048 75.3026L128.135 75.7435C127.21 76.2203 126.42 75.6563 125.628 75.7732L126.2 75.5753C124.88 75.7701 124.705 75.5691 123.782 75.365C124.001 75.446 124.441 75.608 123.913 75.6859C123.429 75.6439 123.474 75.5239 123.254 75.4429C123.385 75.7638 122.549 76.0007 121.362 75.8355L121.406 75.7155C121.142 75.7545 121.098 75.8745 120.614 75.8324L120.658 75.7124L120.042 76.0303C119.339 75.9072 118.942 76.3061 118.811 75.9851L119.075 75.9462L115.072 75.9696L114.941 75.6486C114.764 76.1285 112.743 75.5193 113.049 76.0413C112.17 75.7172 110.19 76.3498 110.191 75.6689C107.465 75.6175 106.496 76.2143 103.066 76.0398C101.528 75.4727 98.6685 75.7812 96.6453 75.8529C92.7744 76.1973 90.443 76.4279 86.572 76.7723C83.8026 76.16 80.6779 77.1884 77.7758 76.936L77.1594 77.2539C75.0491 76.8846 72.8047 77.5562 70.1666 77.2648C69.6387 77.3428 69.3305 77.5017 69.3305 77.5017C69.3305 77.5017 69.5502 77.5827 69.7699 77.6637C69.0665 77.5406 67.7025 77.8554 67.6155 77.4145L67.8794 77.3755C67.7482 77.0545 66.0317 77.6482 64.8888 77.3631L65.5038 77.7261L64.2282 77.8009L64.4922 77.7619C59.5639 78.9431 55.9599 77.8867 51.3398 78.9089C51.7365 78.51 50.5037 79.1457 50.1527 78.7437C48.3507 78.2155 47.8213 78.9743 46.7212 79.2501C46.7212 79.2501 46.7212 79.2501 46.677 79.3701L44.6537 79.4418C45.4029 78.764 43.6849 80.0386 44.3898 79.4808C39.1563 79.459 33.0852 80.355 27.2352 80.6511L27.6747 80.8131C26.1351 80.9269 24.5071 81.2806 23.3201 81.1154C22.133 80.9503 21.3396 81.7481 20.8559 81.706C19.9755 82.0628 18.3933 81.6156 18.8769 81.6577C17.5571 81.8525 16.8523 82.4103 14.8733 82.362C14.2584 81.999 11.0009 83.3873 10.4744 82.7843C8.01175 82.694 6.47075 83.4886 3.74413 83.4372C3.74413 83.4372 3.74413 83.4372 3.78837 83.3173L0.221194 85.5454L3.0761 87.2796L8.43938 88.3032C12.1348 87.7578 15.8303 87.2124 19.7013 86.8681L29.2894 86.5875C32.9406 86.1621 36.7673 85.9377 40.4185 85.5123C44.0255 85.2069 47.8965 84.8625 51.7232 84.6381L53.1315 84.2033C58.188 84.705 63.1605 83.4039 68.5253 83.7466L68.394 83.4257C69.6696 83.3509 69.8451 83.5519 70.1091 83.5129C82.645 82.6839 95.7089 81.7769 107.627 81.9466C108.814 82.1118 112.157 81.8453 113.3 82.1304C116.731 81.624 120.778 81.4806 124.736 81.5772L124.692 81.6971L126.451 81.6644L126.671 81.7454C128.518 81.4727 131.948 81.6472 134.411 81.7376L134.367 81.8575C148.88 81.7577 162.295 81.2527 177.202 82.1157C184.413 82.8667 191.891 82.2169 200.07 83.0519C201.521 83.1781 217.308 83.6844 218.848 83.5706Z" fill="black"/>
<path d="M242.243 84.429C242.418 84.63 242.418 84.63 242.243 84.429V84.429Z" fill="black"/>
<path d="M228.312 79.5645C227.345 79.4804 227.345 79.4804 227.564 79.5614C227.828 79.5225 228.092 79.4835 228.312 79.5645Z" fill="black"/>
<path d="M250.115 84.742C250.598 84.7841 250.378 84.703 249.939 84.541C249.455 84.4989 248.972 84.4569 248.972 84.4569C249.411 84.6189 249.851 84.781 250.115 84.742Z" fill="black"/>
<path d="M247.173 82.5669L247.217 82.4469C246.953 82.4859 246.953 82.4859 247.173 82.5669Z" fill="black"/>
</g>
<defs>
<clipPath id="clip0">
<rect width="238.165" height="91.173" fill="white" transform="translate(31.543 0.602539) rotate(20.2409)"/>
</clipPath>
</defs>
</svg>
