<svg width="93" height="62" viewBox="0 0 93 62" fill="none" xmlns="http://www.w3.org/2000/svg">
<path d="M17.0063 28.8819C17.1019 28.8678 16.9903 28.9254 16.9903 28.9254C17.1495 28.9841 17.2451 28.97 17.3567 28.9124C17.2771 28.883 17.0859 28.9113 17.0063 28.8819Z" fill="black"/>
<path d="M4.05072 30.1781L3.98657 30.1047C4.05072 30.1781 4.05072 30.1781 4.05072 30.1781Z" fill="black"/>
<path d="M65.1418 27.8196C65.1257 27.8634 65.2058 27.8929 65.1418 27.8196C65.2058 27.8929 65.2058 27.8929 65.1418 27.8196Z" fill="black"/>
<path d="M89.117 29.9946C89.117 29.9946 89.0366 29.965 89.117 29.9946L89.0204 30.0088C89.0204 30.0088 89.0366 29.965 89.117 29.9946Z" fill="black"/>
<path d="M71.6421 28.3403C71.6421 28.3403 71.6582 28.2968 71.6421 28.3403C71.5624 28.311 71.2116 28.2805 70.8608 28.2499L70.9245 28.3228L71.6421 28.3403Z" fill="black"/>
<path d="M79.5393 30.4629L78.7908 30.2857C80.8621 30.3088 81.961 30.5165 83.7774 30.4951L83.6817 30.5092C83.9366 30.5538 83.9692 30.2202 87.1703 30.8574C87.2499 30.8868 87.2659 30.8433 87.5047 30.9314L86.9155 30.8128C87.2023 30.7705 87.4732 30.7716 87.8397 30.7586C87.9193 30.788 87.9989 30.8174 87.9989 30.8174L89.0663 30.8653L89.3847 30.9827C89.6716 30.9404 89.4013 30.6926 90.3249 30.8851C89.943 30.6948 90.7075 30.8286 90.5643 30.7264C90.6439 30.7558 90.7235 30.7852 90.8031 30.8145C91.2492 30.8309 92.237 30.8495 92.4282 30.8213C92.4282 30.8213 90.342 30.3482 89.7688 30.1863C90.4697 30.2472 89.944 30.2015 89.7848 30.1428L89.7688 30.1863C89.3387 30.1264 89.2912 30.0101 89.0364 29.9655C89.0364 29.9655 89.0364 29.9655 89.0203 30.009C89.0203 30.009 89.0043 30.0525 88.9247 30.0231C88.7495 30.0079 88.4786 30.0068 88.3034 29.9915L88.2398 29.9187C88.0165 30.0339 86.026 29.5467 85.5959 29.4869C85.1023 29.3543 84.7037 29.4542 84.0985 29.3791C83.2223 29.3029 83.6048 29.2465 83.1908 29.1432C82.6811 29.054 83.334 29.2453 83.1587 29.2301L82.4899 29.0822C82.8403 29.1127 82.6015 29.0246 82.5219 28.9953C81.9962 28.9496 81.0725 28.7571 80.9288 28.9016C80.1643 28.7678 80.1008 28.695 79.8299 28.6939C79.9095 28.7232 80.1644 28.7678 80.1644 28.7678C79.8299 28.6939 80.0687 28.7819 80.1483 28.8113C79.7658 28.8677 77.6796 28.3947 77.6951 28.5979L77.7112 28.5545C77.6631 28.6849 77.8858 28.8164 77.599 28.8587L77.3602 28.7707L77.0733 28.813C76.8184 28.7684 76.9301 28.7108 76.9301 28.7108C76.468 28.7379 75.6875 28.6476 75.0822 28.5726L75.9257 28.9824C75.3365 28.8638 74.3332 28.642 74.2851 28.7724L73.8871 28.6256C72.7246 28.3451 73.2337 28.681 72.8037 28.6211L72.2304 28.4591L72.7561 28.5049C72.2465 28.4157 71.9916 28.3711 71.498 28.2384L71.5776 28.2678L71.482 28.2819C71.466 28.3254 71.1791 28.3677 70.8286 28.3372C70.3029 28.2915 69.9204 28.348 69.0603 28.2283L68.9166 28.3728L68.2317 28.2684L68.3434 28.2108C68.9647 28.2424 70.0481 28.2469 70.8607 28.2503L70.8767 28.2068C70.4306 28.1905 69.8889 28.1882 69.618 28.1871C69.4428 28.1718 69.0448 28.0251 69.2521 27.9534L69.0288 28.0685C67.4993 28.0477 67.4993 28.0477 65.8426 27.8812L66.0018 27.9399C65.7149 27.9822 65.4441 27.9811 65.2849 27.9224C64.3131 27.8603 63.2617 27.7689 62.5929 27.621L62.5448 27.7514C62.3696 27.7361 61.908 27.5166 61.9235 27.7198L61.541 27.7762C61.2701 27.7751 61.1584 27.8327 60.7444 27.7294L60.6648 27.7C59.9639 27.6391 60.7124 27.8163 59.9318 27.726C59.693 27.6379 59.7881 27.8705 59.4377 27.84L58.9601 27.6639C58.2752 27.5595 58.2907 27.7627 57.3189 27.7006C56.8092 27.6114 56.5069 27.4506 56.7302 27.3354C56.4112 27.4647 56.6025 27.4365 56.1244 27.507C55.9652 27.4483 56.0608 27.4342 56.1724 27.3766C55.6628 27.2875 55.8856 27.419 55.5191 27.432C55.471 27.5624 55.4865 27.7656 55.3909 27.7797L55.5501 27.8384C55.2471 27.9242 54.8011 27.9078 54.355 27.8915L54.371 27.848L53.8453 27.8023L53.7817 27.7295L53.1284 27.7848L53.208 27.8141C53.0327 27.7989 52.5546 27.8695 52.2202 27.7955L52.2362 27.752C51.2965 27.603 50.7703 27.804 49.7825 27.7854L49.8145 27.6984C49.4005 27.5952 49.846 27.8582 49.416 27.7984L49.3684 27.6821C49.1291 27.8407 48.9224 27.6657 48.6675 27.6211L48.8903 27.7526L48.4442 27.7363C47.9185 27.6906 48.0622 27.5461 48.0783 27.5026L47.7753 27.5884L47.6482 27.4428C47.5045 27.5873 47.3934 27.3982 46.9948 27.4981C46.9313 27.4253 47.0269 27.4112 46.8517 27.3959L46.2458 27.5675L46.6444 27.4676L46.6759 27.6274C46.3409 27.8001 46.0546 27.5958 45.7677 27.6381L45.975 27.5664C45.4968 27.637 45.4333 27.5641 45.0988 27.4902C45.1784 27.5196 45.3376 27.5783 45.1464 27.6065C44.9712 27.5912 44.9872 27.5478 44.9076 27.5184C44.9551 27.6347 44.6522 27.7205 44.2222 27.6607L44.2382 27.6172C44.1426 27.6313 44.1265 27.6748 43.9513 27.6596L43.9673 27.6161L43.744 27.7312C43.4892 27.6867 43.3455 27.8312 43.2979 27.7149L43.3936 27.7008L41.9436 27.7093L41.8961 27.593C41.832 27.7668 41.0996 27.5461 41.2107 27.7352C40.8923 27.6178 40.1748 27.847 40.1753 27.6003C39.1875 27.5817 38.8365 27.7979 37.5939 27.7347C37.0367 27.5292 36.0008 27.641 35.2679 27.667C33.8655 27.7917 33.0209 27.8753 31.6185 28.0001C30.6152 27.7782 29.4832 28.1508 28.4318 28.0594L28.2085 28.1745C27.444 28.0407 26.6309 28.284 25.6752 28.1785C25.4839 28.2067 25.3722 28.2643 25.3722 28.2643C25.3722 28.2643 25.4518 28.2937 25.5314 28.323C25.2766 28.2784 24.7824 28.3924 24.7509 28.2327L24.8466 28.2186C24.799 28.1023 24.1772 28.3174 23.7631 28.2141L23.9859 28.3456L23.5238 28.3727L23.6194 28.3586C21.834 28.7865 20.5283 28.4038 18.8546 28.7741C18.9983 28.6296 18.5517 28.8599 18.4245 28.7143C17.7717 28.5229 17.5799 28.7978 17.1814 28.8977C17.1814 28.8977 17.1814 28.8977 17.1653 28.9412L16.4324 28.9672C16.7038 28.7216 16.0814 29.1834 16.3367 28.9813C14.4407 28.9734 12.2413 29.298 10.122 29.4053L10.2812 29.464C9.72345 29.5052 9.13366 29.6333 8.7036 29.5735C8.27354 29.5137 7.98612 29.8027 7.81089 29.7874C7.49195 29.9167 6.91872 29.7547 7.09395 29.7699C6.61581 29.8405 6.36044 30.0426 5.6435 30.0251C5.42073 29.8936 4.2406 30.3965 4.04988 30.1781C3.15771 30.1454 2.59943 30.4332 1.61164 30.4146C1.61164 30.4146 1.61164 30.4146 1.62766 30.3712L0.335348 31.1784L1.36962 31.8066L3.31263 32.1775C4.65142 31.9799 5.99021 31.7823 7.39258 31.6575L10.8662 31.5559C12.1889 31.4018 13.5753 31.3205 14.898 31.1664C16.2048 31.0557 17.6071 30.931 18.9935 30.8497L19.5037 30.6922C21.3356 30.8739 23.137 30.4026 25.0805 30.5267L25.033 30.4104C25.4951 30.3833 25.5587 30.4562 25.6543 30.442C30.1958 30.1417 34.9286 29.8131 39.2463 29.8746C39.6764 29.9344 40.8875 29.8379 41.3015 29.9412C42.5447 29.7577 44.0106 29.7058 45.4445 29.7408L45.4284 29.7842L46.0658 29.7724L46.1454 29.8017C46.8148 29.7029 48.0574 29.7661 48.9496 29.7989L48.9336 29.8423C54.1915 29.8062 59.0514 29.6232 64.452 29.9359C67.0644 30.2079 69.7735 29.9725 72.7364 30.275C73.262 30.3208 78.9816 30.5042 79.5393 30.4629Z" fill="black"/>
<path d="M88.0151 30.7734C88.0791 30.8467 88.0791 30.8467 88.0151 30.7734V30.7734Z" fill="black"/>
<path d="M82.9682 29.0111C82.6177 28.9806 82.6177 28.9806 82.6973 29.01C82.793 28.9959 82.8886 28.9818 82.9682 29.0111Z" fill="black"/>
<path d="M90.8672 30.8869C91.0426 30.9022 90.963 30.8728 90.8036 30.8141C90.6282 30.7988 90.4528 30.7835 90.4528 30.7835C90.6121 30.8423 90.7715 30.9011 90.8672 30.8869Z" fill="black"/>
<path d="M89.8013 30.0992L89.8174 30.0554C89.7212 30.0696 89.7212 30.0696 89.8013 30.0992Z" fill="black"/>
</svg>
