<svg width="743" height="743" viewBox="0 0 743 743" fill="none" xmlns="http://www.w3.org/2000/svg">
<rect x="7.5" y="7.5" width="728" height="728" fill="#CDE4ED" stroke="white" stroke-width="15"/>
<path d="M732.098 16.4583C730.671 16.1997 728.293 16.9756 727.342 17.7516C715.926 27.0632 704.748 36.3748 693.57 45.9451H693.332C692.619 46.721 692.381 46.9797 692.857 46.721C690.954 48.273 689.289 49.8249 687.386 51.3768C687.149 51.6355 686.911 51.6355 686.911 51.8942C684.057 54.2221 681.203 56.55 678.349 59.1365C677.16 59.9125 675.257 61.4644 677.398 59.3952C675.257 60.9471 675.019 61.7231 673.83 63.275C673.592 63.275 673.592 63.5337 673.355 63.5337C671.928 64.3096 672.165 63.275 673.592 61.7231L671.69 63.7923V63.5337L670.263 65.3443C668.122 66.6375 669.549 65.0856 667.409 66.6375V67.4135L665.982 68.1895C666.695 67.9308 665.506 68.9654 664.317 70.2587V70.0001L662.652 71.552C664.079 69.7414 660.988 72.8453 661.463 71.8107C660.036 73.1039 660.036 73.1039 657.42 75.4318H658.134C655.042 78.5357 657.658 75.1732 654.804 77.2424L655.28 77.5011C650.999 80.0876 648.858 83.4502 645.766 85.5194C647.431 83.9675 646.718 83.9675 646.718 83.9675C644.34 86.2954 640.059 89.6579 637.918 92.2445C636.491 92.5031 636.253 92.5031 633.399 94.5724C631.497 96.383 631.259 96.6416 630.783 97.4176C628.881 98.7109 625.551 102.073 625.075 101.815C624.838 102.591 623.411 103.108 622.459 104.401H622.221L622.697 104.66C618.892 106.729 617.465 110.092 613.66 112.161L614.135 111.644L612.946 112.937C612.708 112.937 613.184 112.42 612.946 112.161L606.525 117.851L607.952 117.075C606.525 118.369 606.049 119.403 604.147 120.697C606.287 117.851 602.006 122.507 601.293 122.507L602.482 121.214C600.579 123.025 600.579 123.025 601.055 123.283C598.676 125.611 598.914 124.059 596.774 126.387L598.439 125.094C599.152 124.835 598.201 126.128 597.012 127.163C596.774 127.422 595.823 127.939 596.536 127.163C594.633 128.974 591.542 131.302 590.828 132.336C589.639 133.112 589.877 132.595 590.352 132.077C586.547 135.957 588.45 133.629 584.407 137.509V137.251L583.218 138.803L580.839 140.096L581.791 139.837C580.364 141.13 579.65 141.906 577.985 143.2L578.461 142.424C574.894 146.045 573.704 145.786 570.375 149.666C570.137 149.925 570.613 149.149 570.851 148.89C567.759 152.511 567.997 150.701 564.905 154.322C565.143 154.063 564.667 154.322 564.667 154.063L563.24 155.615L563.002 155.098L562.289 156.908L561.1 157.426L560.624 158.202C558.246 158.719 556.581 161.564 553.727 162.858L554.44 163.116C549.684 169.324 540.884 174.238 534.463 180.705L534.225 180.187L531.847 183.291C530.182 184.326 532.56 181.998 531.847 182.257C528.993 185.361 531.133 184.067 527.804 187.43C525.901 188.723 528.279 186.654 528.993 185.619C525.901 188.723 521.144 193.379 518.766 195.448V195.707C516.626 197.776 513.772 200.363 511.393 202.691C511.393 202.432 511.869 201.915 512.345 201.397C511.393 202.173 510.204 203.208 509.491 203.984L510.204 202.691C508.302 204.242 504.972 207.864 504.259 207.864C504.496 207.864 504.734 208.122 503.069 209.674C501.642 209.933 499.026 213.813 496.172 215.882C496.41 215.365 498.313 213.813 497.599 214.071C496.172 215.106 495.221 216.399 494.27 217.693L494.508 217.175L488.8 223.124C487.373 223.383 483.33 228.556 483.33 227.521C481.189 229.591 485.232 226.228 482.616 228.815C481.665 229.332 480.238 231.143 480 230.625L480.238 230.367L478.335 232.177L479.287 230.625C477.86 232.177 476.908 233.729 477.146 234.247C475.481 235.54 473.341 237.609 472.39 237.868L472.865 237.35C468.822 241.489 465.017 242.782 462.163 246.662C461.925 246.921 461.925 246.662 462.401 246.145L459.785 248.473L460.26 247.697L456.217 252.352V252.094C453.363 254.68 448.845 259.077 445.277 262.699L445.753 262.181C441.947 266.32 441.71 265.544 438.856 268.648C438.856 268.389 439.094 268.389 439.094 268.389L436.477 270.976L436.953 270.2C435.288 272.528 431.007 274.856 432.434 274.08C431.483 275.373 429.818 277.442 429.58 277.959C426.726 280.805 428.629 278.477 426.726 279.77C424.586 281.839 424.586 282.357 421.494 284.943V284.684C420.305 285.978 419.592 287.012 417.689 288.823L418.165 288.306C415.549 291.668 413.884 291.151 412.219 294.513C410.792 295.548 408.651 297.876 408.414 297.359C404.846 301.238 402.23 304.084 398.663 307.963C397.474 307.963 397.949 308.739 395.333 310.55L395.809 310.809C390.577 315.982 383.917 320.896 378.447 326.587L377.972 326.328L377.258 327.88C371.075 333.829 362.988 341.589 357.994 346.245C356.567 348.055 354.427 350.9 351.81 353.228L352.048 352.97C347.767 357.625 343.249 362.54 338.254 366.937C338.492 366.42 337.779 366.937 338.254 366.161C337.541 367.713 335.4 369.006 334.449 370.041L335.876 369.006C335.638 369.524 335.163 370.041 334.687 370.558V370.3L332.309 368.489C332.309 368.23 332.071 367.972 332.071 367.972L331.595 367.713L330.882 366.161C330.168 365.644 327.314 363.057 326.125 362.54C326.125 362.281 324.222 359.953 325.887 361.505L318.277 353.487L319.466 354.78C319.228 355.297 316.85 353.228 315.661 351.676C317.563 352.97 316.136 351.418 315.898 350.383C314.709 349.607 316.612 351.676 315.898 351.159C314.234 350.124 311.38 347.279 310.904 346.245L311.855 347.021C309.953 345.21 309.715 343.658 307.812 341.847C305.91 340.554 304.958 339.002 304.72 340.037C302.342 337.709 304.245 338.743 303.531 337.968C302.104 337.192 299.25 333.57 299.013 332.794C296.872 332.277 293.067 326.069 292.116 326.328L290.689 324C290.451 324.259 289.737 324.259 288.072 322.707C286.883 320.896 287.597 320.896 287.121 320.379L285.456 320.12C277.846 310.55 266.43 299.686 258.344 289.34C254.301 285.202 248.831 280.029 244.312 274.855L245.026 275.373L240.507 270.2L243.599 274.08C242.409 273.045 241.696 272.269 240.745 271.234C235.988 265.285 229.567 257.784 223.145 251.318C218.389 247.697 221.243 247.697 216.724 244.075C217.2 244.334 217.437 244.334 217.675 244.593C213.394 240.196 211.016 237.868 206.497 233.729C207.686 233.471 203.881 230.625 204.595 230.625H203.881C203.168 229.332 201.027 227.004 201.741 227.004L199.6 225.452L199.838 224.935C197.46 222.348 191.99 216.658 191.514 214.589C185.093 208.381 176.055 197.517 168.92 188.982C167.731 187.947 165.353 185.619 163.688 183.809L162.261 181.222C160.359 179.411 158.218 177.86 156.791 175.79H157.029C155.126 173.98 153.699 171.652 151.797 170.359C149.894 168.031 148.229 165.703 149.181 166.22C147.278 164.668 144.186 159.495 144.186 159.495C144.186 159.495 120.641 130.784 94.0044 98.4522C87.3452 90.4339 80.686 82.1569 74.0268 73.8799C67.3677 65.8616 60.7085 57.8432 54.7627 50.6009C42.3957 35.8575 31.6934 23.7007 25.272 17.2343C24.0829 16.717 21.7046 14.1304 22.1802 15.6823C20.5154 13.6131 20.2776 12.0612 19.5641 12.0612C20.5154 13.3544 20.2776 13.6131 19.802 13.6131C17.6615 11.8025 11.9536 14.3891 14.0941 17.2343C30.7421 38.7027 47.6279 60.1711 64.5137 81.3809C64.2759 81.1223 64.2759 81.1223 64.0381 80.8636C64.5137 81.3809 64.9894 81.8982 65.465 82.4156C66.1785 83.4502 67.1298 84.4848 67.8433 85.5194C70.6973 89.3993 72.1242 92.5031 75.4538 96.6416L75.9295 96.383C81.6374 105.177 89.7235 114.489 96.8584 123.542L96.1449 122.249C97.334 123.283 98.9988 125.094 100.426 126.387C100.426 126.646 98.9988 125.87 101.139 128.456C100.901 127.939 99.9502 126.646 100.426 126.904C106.134 135.181 119.69 151.218 129.679 163.892C144.186 180.446 159.169 199.069 173.439 215.106C171.299 212.519 172.963 213.037 174.39 215.106C177.72 221.314 182.477 223.642 186.282 229.591C195.082 238.644 201.503 247.955 210.065 255.715L209.827 256.232C210.778 257.784 211.492 257.784 212.681 259.077H212.443C215.297 262.44 219.102 266.061 220.529 267.872L221.005 267.613C222.67 269.424 221.718 268.906 223.621 270.717L223.383 270.976L225.761 272.786C224.81 273.304 230.518 278.218 231.707 280.029C234.085 282.357 238.604 286.754 241.934 290.634C242.172 291.668 246.452 296.324 248.831 299.428C251.447 302.273 254.539 305.636 258.106 309.257C261.436 312.878 265.003 316.499 268.333 320.12L268.571 319.603L270.235 321.414C270.235 321.414 270.235 321.672 269.997 321.672C270.949 323.741 274.278 325.811 275.23 327.621C274.754 326.328 274.041 326.328 273.089 325.293C271.9 323.483 273.565 324.517 275.468 326.845H275.23L276.657 327.88C276.419 328.397 277.608 329.949 277.37 330.467C283.316 336.416 287.597 340.037 293.543 346.503C292.591 346.245 297.823 350.9 296.159 350.383C299.964 354.004 296.159 349.09 298.061 350.383C299.013 351.418 300.202 352.452 300.202 352.711C299.488 352.452 300.677 354.004 299.726 353.228L302.104 355.815C302.342 356.073 301.629 355.556 301.391 355.297C306.623 359.953 309.715 364.609 314.471 368.748C314.947 368.748 312.807 366.937 313.282 366.937C318.277 371.075 316.85 371.334 321.368 375.214L320.179 374.697C321.606 375.731 322.558 375.99 324.222 378.318L323.985 378.577C323.271 378.059 321.844 376.766 321.131 376.249C321.844 377.025 322.795 378.059 323.747 378.835C323.271 379.352 323.033 379.87 322.795 380.387C322.558 380.387 320.417 382.456 321.844 380.646L313.758 388.405L315.185 387.371C315.661 387.629 313.52 390.216 312.093 391.251C313.52 389.44 311.855 390.733 310.904 390.992C309.953 392.285 312.093 390.475 311.617 391.251C310.428 392.803 307.812 395.906 306.861 396.424L307.574 395.389C305.91 397.458 304.483 397.717 302.818 399.528C301.391 401.597 299.964 402.373 300.915 402.632C298.775 405.218 299.726 403.149 298.775 403.925C298.061 405.218 294.494 408.581 293.78 408.581C293.305 410.909 287.359 414.788 287.597 415.823L285.219 417.375C285.219 417.634 285.456 418.41 283.792 420.22C282.127 421.513 282.127 420.737 281.651 420.996L281.413 422.807C272.376 430.566 261.911 442.464 252.16 451.517C248.355 455.915 243.599 461.605 238.604 466.52L239.08 465.744L234.323 470.399L238.128 467.037C237.177 468.33 236.464 469.106 235.512 470.141C230.042 475.314 222.907 482.039 216.962 489.281C213.632 494.454 213.632 491.35 210.303 496.265C210.54 495.748 210.54 495.489 210.778 495.23C206.973 500.145 204.833 502.731 201.027 507.646C200.789 506.353 198.411 510.75 198.411 509.715V510.491C197.222 511.267 195.082 513.595 195.082 513.078L193.655 515.405L193.179 515.147C190.801 517.733 185.806 523.682 183.904 524.458C178.196 531.442 168.683 541.788 161.072 550.065C160.359 551.617 158.218 553.945 156.316 556.014L154.175 557.566C152.51 559.636 151.083 562.222 149.418 563.774V563.515C147.754 565.585 145.851 567.137 144.662 569.465C142.759 571.534 140.619 573.603 140.857 572.568C141.332 573.344 136.576 576.966 136.576 576.966C136.576 576.966 134.911 578.776 132.295 581.621C129.441 584.725 125.636 589.122 120.641 594.554C111.128 605.418 97.8097 620.161 84.2535 636.198C70.6973 652.234 56.4275 669.047 44.5361 684.049C32.6447 699.051 22.8937 712.243 17.8993 720.002C17.4237 721.296 15.521 724.141 16.7102 723.365C15.0454 725.434 13.8562 725.951 13.8562 726.469C16.2345 723.882 14.0941 728.279 16.7102 725.951L15.9967 726.986C15.0454 728.021 14.0941 729.314 13.1428 730.349C12.1914 731.642 14.0941 731.642 14.8076 731.642C16.2345 731.642 18.375 731.124 19.3263 729.831C33.3582 712.76 47.3901 695.947 61.4219 679.135C64.9894 675.772 68.319 672.41 72.1242 667.754C73.5512 666.719 71.6486 668.788 70.9351 670.082C75.9295 663.098 79.4969 661.805 84.2535 656.114L84.0156 655.856C91.6262 649.13 98.761 639.043 106.847 630.766L105.658 631.542C106.372 629.99 108.036 628.179 109.225 626.628C109.463 626.628 108.988 628.179 110.89 625.593C110.415 626.11 109.225 626.886 109.463 626.628C116.598 619.902 130.154 604.124 141.094 592.226C155.364 575.672 171.774 558.601 186.044 542.564C183.904 544.892 184.141 543.34 186.044 541.53C191.752 537.909 193.655 532.735 199.125 528.597C207.211 519.027 215.773 511.784 222.67 502.214L223.145 502.473C224.572 501.438 224.572 500.662 225.761 499.369V499.627C228.853 496.524 232.183 492.385 233.848 490.833L233.61 490.316C235.275 488.505 234.799 489.54 236.464 487.471L236.702 487.729L238.366 485.143C238.842 486.177 243.361 479.97 245.026 478.676C247.166 476.09 251.209 471.175 254.776 467.813C255.728 467.554 260.009 462.898 262.863 460.312C268.095 454.621 275.468 446.603 282.365 439.878L281.889 439.619L283.554 437.809C283.554 437.809 283.792 437.809 283.792 438.067C285.694 437.291 287.597 433.67 289.499 432.636C288.31 433.153 288.31 433.929 287.121 434.963C285.456 436.257 286.408 434.446 288.548 432.636V432.894L289.737 431.342C290.213 431.601 291.64 430.566 292.116 430.566C297.823 424.359 301.153 419.703 307.337 413.754C307.099 414.788 311.617 409.098 310.904 411.167C314.234 407.287 309.715 411.167 311.142 409.098C312.093 408.063 313.044 406.77 313.52 406.77C313.282 407.546 314.709 406.253 313.996 407.287L316.374 404.701C316.612 404.442 316.136 405.218 315.898 405.477C320.417 400.045 325.174 396.941 329.217 392.285C329.217 391.768 327.314 394.096 327.552 393.32C330.406 389.699 331.357 389.44 333.022 387.888C334.449 389.44 336.114 390.992 337.541 392.544C337.541 392.544 337.541 393.061 337.303 392.803C340.157 394.872 339.206 395.389 342.535 398.752C351.573 407.546 363.94 418.668 372.739 427.721C375.118 429.014 377.972 431.86 381.063 434.705L380.826 435.739L383.442 437.809C384.155 439.102 381.539 436.257 382.966 438.067L384.155 438.585C384.155 439.102 390.101 444.792 385.82 441.43C388.912 444.534 392.004 447.638 395.095 450.483C397.236 452.552 396.76 451 398.901 453.328C399.138 454.104 397.949 452.811 397.949 453.069C404.371 460.312 407.225 459.277 413.17 465.744L412.457 465.226C413.646 466.002 415.786 468.071 415.786 468.071C415.549 466.52 414.359 467.295 412.695 464.968C413.408 464.45 415.311 467.037 415.786 466.261C417.213 467.813 418.402 468.33 419.592 469.623C421.494 472.21 425.062 475.055 426.251 477.124C427.44 477.9 429.343 478.418 431.721 480.746C432.91 482.815 431.007 480.746 433.148 483.332H433.861C435.764 485.143 435.288 485.143 435.05 485.143C436.953 486.953 437.191 486.177 439.569 488.764L437.904 487.729C439.807 489.281 440.521 490.057 443.137 492.644C442.899 492.902 441.948 491.868 441.234 491.092C442.185 492.902 443.85 493.161 444.564 493.937C444.564 493.678 442.661 491.868 443.85 492.385C444.326 492.902 444.801 493.161 445.277 493.678C445.991 494.454 446.704 494.972 447.418 495.748C447.418 495.748 447.418 495.748 447.655 496.006L445.991 494.972C448.845 497.3 447.893 495.748 450.747 498.851C450.509 498.851 450.509 498.851 450.509 498.851C452.888 500.145 455.028 502.99 458.12 505.835L457.406 505.318C458.358 506.094 459.071 506.353 459.547 506.611C460.498 507.387 461.449 508.422 462.401 509.198C461.687 508.939 460.974 508.68 459.785 507.904C461.212 508.939 462.876 510.491 462.401 510.491L463.352 510.232C464.066 511.008 464.779 511.526 465.492 512.302L465.73 512.56L465.492 512.302C465.968 512.56 466.444 513.078 466.919 513.336C469.773 516.181 472.865 518.768 475.719 521.613C475.481 521.613 475.243 521.355 474.768 520.837C472.39 519.285 476.195 521.872 475.719 522.389C476.433 522.648 478.573 524.717 479.762 526.01V525.493C480.476 526.01 480.951 526.786 481.665 527.304C481.427 527.562 481.427 528.08 483.33 529.632C486.184 531.959 482.378 528.597 484.281 529.89C486.184 531.701 486.421 532.735 489.275 534.805C489.989 535.581 491.178 537.391 490.94 537.909C492.843 539.202 495.697 542.564 497.124 543.082C494.508 540.236 493.794 541.012 491.178 537.391L492.367 537.65C494.745 539.719 497.837 542.047 499.264 543.599C499.026 543.34 499.026 543.082 499.264 543.082C499.74 543.599 500.215 543.858 500.691 544.116C501.88 545.151 502.832 546.185 504.021 547.22C505.686 549.289 506.161 549.031 509.015 552.135C508.777 552.652 506.875 550.065 506.161 550.324L509.729 553.428C510.68 553.169 512.345 556.014 514.723 557.566C516.626 559.377 518.053 560.412 519.242 561.188C521.382 562.998 523.523 564.809 525.425 566.619C525.663 567.137 525.663 567.654 525.187 567.395C527.804 569.465 524.95 566.619 525.901 567.137C526.614 567.654 527.328 568.43 528.041 568.947L529.944 570.758C537.792 577.742 545.641 584.725 553.489 591.45C553.251 591.45 553.251 591.709 553.013 591.45C553.489 591.709 553.727 591.709 553.965 591.968L554.203 592.226C554.916 593.002 555.867 593.52 556.581 594.296C557.056 594.813 557.532 595.589 556.343 595.071C557.294 596.623 560.862 599.727 563.002 601.279C564.429 601.797 561.1 599.21 561.575 598.951C562.527 599.727 563.24 600.245 563.953 600.762C585.834 619.644 607.952 638.267 630.07 656.632H629.832L630.308 656.89C635.778 661.287 641.248 665.685 646.48 670.082C646.242 670.082 646.242 669.823 645.766 669.823C646.48 670.34 646.956 670.599 647.193 670.858C648.145 671.634 648.858 672.151 649.81 672.927C649.81 673.444 650.761 674.22 652.426 676.031L650.761 674.22C650.999 674.22 650.999 674.22 651.237 674.479L650.999 674.22C651.237 674.479 651.474 674.479 651.474 674.737L651.237 674.479C651.474 674.737 651.712 674.996 651.95 675.255C651.95 675.255 651.95 675.255 651.95 674.996C669.549 689.222 687.149 703.448 705.224 717.416C711.645 722.33 717.828 727.245 724.25 732.159C726.628 733.97 732.812 730.348 729.482 728.021C703.797 708.363 678.587 688.188 653.377 667.754C653.139 667.495 652.901 667.236 652.426 666.978C649.572 664.65 646.956 662.322 644.102 660.253V659.994C643.388 659.477 642.437 658.701 641.486 657.925C638.869 655.856 636.253 653.786 633.875 651.458C633.399 650.682 632.924 650.165 631.259 648.613C629.356 647.061 628.881 646.803 628.167 646.544C626.502 644.733 622.697 642.147 622.935 641.63C622.221 641.63 621.27 640.078 620.081 639.56V639.302V639.819C617.465 636.198 614.135 635.68 611.281 632.059L611.995 632.318L610.568 631.283C610.568 631.025 611.044 631.283 611.281 631.025L604.86 625.334L606.049 626.628C604.622 625.593 603.433 625.076 602.006 623.524C605.098 625.076 599.866 621.713 599.628 620.937L601.055 621.972C599.152 620.42 599.152 620.42 598.914 620.937C596.298 618.868 597.725 618.868 595.109 617.316L596.774 618.609C597.012 619.126 595.585 618.609 594.633 617.575C594.396 617.316 593.682 616.54 594.633 617.057C592.493 615.505 589.639 612.919 588.688 612.401C587.736 611.367 588.212 611.367 588.925 611.884C584.407 608.78 587.023 610.332 582.504 606.97L582.742 606.711L581.077 605.676L579.412 603.348L579.888 604.383C578.461 603.348 577.51 602.572 576.083 601.021L577.034 601.279C572.991 598.175 572.991 596.882 568.948 594.037C568.71 593.778 569.424 594.037 569.661 594.296C565.856 591.968 567.521 591.45 563.716 589.122C563.954 589.122 563.716 588.864 563.953 588.864L562.289 587.829L562.764 587.57L561.1 587.053L560.386 585.76L559.673 585.501C558.721 583.173 555.867 581.88 553.965 579.293V580.069C547.306 576.19 541.36 568.171 533.987 562.481L534.463 562.222L531.371 560.153C530.182 558.342 532.56 560.67 532.322 559.894C529.231 557.308 530.658 559.377 527.09 556.273C525.425 554.462 528.041 556.532 528.993 557.049C525.425 554.204 520.431 550.065 518.29 547.737H518.053C515.674 545.927 513.058 543.082 510.442 541.012C510.68 540.754 511.393 541.271 511.869 541.788C510.918 541.012 509.966 539.719 509.015 539.202L510.204 539.719C508.302 537.909 504.496 535.063 504.496 534.287C504.496 534.546 504.259 534.805 502.594 533.511C502.118 531.959 498.075 529.89 495.697 527.304C496.172 527.304 498.075 529.114 497.599 528.597C496.41 527.304 494.983 526.528 493.794 525.752H494.27C492.129 524.2 489.989 522.389 488.086 520.579C487.611 519.027 482.378 515.405 483.092 515.405C480.951 513.336 484.757 517.216 481.903 514.888C481.427 513.854 479.287 512.819 479.762 512.56L480 512.819L478.097 511.008L479.524 511.784C477.86 510.491 476.433 509.715 475.957 509.974C474.53 508.422 472.39 506.611 471.914 505.577L472.627 506.094C468.109 502.214 466.444 498.334 462.401 496.006C462.163 495.748 462.401 495.748 462.876 496.006L460.26 493.42L461.212 493.678L456.455 490.057L456.693 489.799C453.839 486.953 449.32 483.073 445.515 479.711L446.228 480.228C441.947 476.866 442.423 476.348 439.331 473.762C439.569 473.762 439.569 473.762 439.807 474.021L437.191 471.434L437.904 471.693C435.526 470.399 432.91 465.744 433.624 467.295C432.434 466.52 430.294 464.968 429.818 464.709C426.964 461.864 429.343 463.674 427.678 461.864C425.537 459.794 425.062 459.794 422.208 456.949L422.446 456.691C421.019 455.397 420.067 454.88 418.402 453.069L419.116 453.587C415.786 451.259 415.786 449.448 412.695 448.155C411.505 446.862 409.127 444.534 409.603 444.275C405.56 440.913 402.706 438.326 398.901 434.963C398.901 433.67 398.187 434.188 396.284 431.601L396.047 432.118C390.814 426.945 385.582 420.22 379.874 414.788L380.112 414.271L378.685 413.495C372.739 407.287 364.891 399.269 360.134 394.613C358.47 393.32 355.616 391.251 353.237 388.664L353.475 388.923C349.908 385.56 346.34 382.198 342.773 378.318C343.249 377.801 343.962 377.542 344.438 377.283C344.438 377.025 342.535 378.835 343.486 377.542C346.103 375.214 349.908 371.334 353 368.489C353 368.748 353.475 368.489 353.237 369.006C355.14 365.902 355.854 367.196 358.945 363.574C367.745 354.521 379.161 342.365 388.198 333.829C389.625 331.242 392.479 328.397 395.333 325.552L396.284 326.069L398.425 323.483C399.614 322.707 396.76 325.552 398.663 324L399.138 322.707C399.614 322.707 405.322 316.758 401.754 321.414L411.03 312.361C413.17 310.291 411.743 310.55 414.122 308.481C414.835 308.222 413.408 309.515 413.884 309.515C421.256 303.566 420.543 300.462 427.202 294.513L426.726 295.031C427.678 293.737 429.818 291.927 429.58 291.668C428.153 291.668 428.867 293.22 426.489 294.513C426.251 293.737 428.629 291.927 428.153 291.409C429.818 290.116 430.532 289.082 431.721 287.788C434.337 285.978 437.191 282.615 439.331 281.581C440.283 280.287 440.996 278.477 443.374 276.149C445.515 275.114 443.374 276.925 445.753 274.855V274.08C447.655 272.269 447.418 272.786 447.418 273.045C449.558 271.234 448.607 270.976 451.461 268.906L451.223 270.717C452.888 268.906 453.839 268.13 456.455 265.803C456.455 266.061 455.504 267.096 454.79 267.613C456.693 266.837 456.931 265.027 457.882 264.509C457.644 264.509 455.742 266.061 456.217 265.027C457.644 263.992 458.595 261.923 459.785 261.405L458.595 263.216C460.974 260.371 459.785 261.405 462.876 258.56C462.639 258.819 462.876 258.819 462.876 258.819C464.541 256.491 467.395 254.422 470.249 251.835L469.773 252.352C470.963 251.059 471.2 250.283 471.914 249.507C470.011 250.801 470.487 250.283 470.011 250.025C472.627 248.473 472.865 246.145 476.67 243.041C476.67 243.299 476.195 244.334 475.006 245.11C474.292 246.921 474.53 247.438 472.627 250.025C473.816 248.731 475.481 246.921 475.243 247.697V246.662C475.957 245.886 476.67 245.369 477.384 244.593C477.384 243.817 475.243 245.627 476.908 243.558C478.811 241.23 478.573 243.041 478.573 242.524C481.427 239.42 479.287 240.713 482.378 238.385C482.141 238.644 481.665 239.42 481.427 239.42C483.567 237.609 486.421 234.505 487.611 234.764C487.373 235.281 487.611 235.54 486.659 236.057V235.798C484.994 238.126 487.848 234.505 488.086 235.022C488.324 234.247 490.702 232.177 491.891 231.143H491.178C494.508 225.711 491.654 232.177 495.697 228.039C498.313 225.194 494.508 228.815 495.935 227.004C497.837 225.452 498.789 225.194 501.405 222.348C502.356 221.831 504.021 220.538 504.496 221.055C505.923 219.245 509.729 216.658 510.204 215.365C507.112 217.434 507.826 218.469 504.021 220.796L504.496 219.503C506.875 217.434 509.491 214.589 511.156 213.295C510.68 213.554 510.442 213.554 510.68 213.295C513.772 210.192 514.247 208.898 517.577 206.053C518.29 206.053 516.388 207.605 515.199 208.898C517.577 207.346 517.339 207.088 520.669 204.242C521.144 204.501 518.528 206.053 518.528 206.829L521.858 203.466C521.858 202.432 524.474 201.139 526.614 199.069C531.609 194.414 531.847 192.862 534.225 189.758C535.176 189.24 535.414 189.24 535.176 189.758C533.749 190.534 534.225 190.534 533.749 191.31C535.414 189.758 538.03 188.464 537.317 189.758C539.933 187.171 536.128 190.275 537.555 188.723L541.36 185.361C540.646 185.361 539.219 186.654 541.122 184.585C542.787 183.033 543.5 182.515 545.641 180.446C545.403 180.963 546.592 180.446 545.165 181.739C546.354 180.963 548.019 179.411 548.257 178.636C545.641 180.446 551.824 175.014 549.684 176.049L552.3 174.238C551.824 174.756 551.824 175.014 551.111 175.532C552.062 175.532 553.013 173.721 553.727 172.945C554.678 172.428 556.819 170.359 557.056 170.359C557.77 169.583 559.673 168.031 560.148 168.031C561.1 166.996 559.91 167.513 560.148 167.255L563.953 163.892C564.429 163.892 565.143 164.409 564.667 165.185C565.856 163.633 564.667 163.892 566.807 162.082C566.094 163.633 569.899 160.012 568.71 162.082C570.137 161.306 573.704 158.202 575.607 156.391C576.558 154.839 573.467 157.943 573.229 157.426C578.461 152.511 577.985 150.959 582.028 147.597L580.839 148.373C581.077 148.114 581.315 147.855 581.553 147.597C582.504 146.562 583.693 145.786 584.645 144.752C585.834 144.234 588.926 142.424 591.779 139.837C592.017 139.32 589.401 141.13 589.401 140.354C590.352 139.578 591.066 138.803 592.017 138.027L591.779 138.285C594.158 135.957 596.774 134.923 597.012 133.888L600.103 132.595L598.914 133.112C599.152 132.595 601.768 130.008 602.244 129.491C604.86 126.646 606.049 126.128 607.714 125.094C607.476 125.094 606.763 125.352 606.525 125.352C607 124.835 607.714 124.318 608.19 123.8C609.617 123.025 612.47 120.179 612.708 120.697C613.66 119.921 615.324 118.886 615.087 118.369L615.324 119.145C615.087 118.11 617.941 115.523 620.319 113.196C620.319 113.196 620.557 113.196 620.557 112.937C620.794 114.489 623.173 110.35 625.075 110.35C625.075 109.316 629.118 106.471 629.118 105.436C629.356 105.177 629.594 104.919 630.07 104.66C631.259 103.884 631.497 104.401 632.21 104.143L632.924 103.108C634.113 102.591 637.68 99.4868 640.059 97.9349L641.486 95.607L642.437 95.3483C642.675 94.831 644.34 93.2791 643.15 94.0551L644.34 93.2791C643.864 92.5031 645.291 91.9858 646.956 90.4339C647.193 90.1752 647.431 89.9166 647.907 89.6579C648.145 89.6579 648.145 89.9166 647.907 90.1752C649.096 89.1406 648.858 89.9166 649.572 89.6579C649.096 89.9166 650.047 88.3646 650.523 87.33C652.426 85.5194 654.566 83.9675 656.469 82.1569C656.707 82.4156 657.182 82.4156 658.847 80.8636C656.944 82.4156 656.469 83.7088 655.517 84.7435C656.231 84.2261 656.707 83.9675 655.755 85.0021C658.371 82.4156 656.469 83.7088 659.085 81.3809C659.323 82.1569 660.274 81.6396 662.652 79.829L660.512 80.8636C660.512 80.605 660.75 80.605 660.75 80.3463C660.036 80.8636 659.798 80.8636 659.561 80.8636C660.036 80.3463 662.177 77.5011 662.89 77.5011C661.701 78.0184 661.939 77.5011 662.652 76.7251C664.317 75.1732 665.982 73.8799 667.885 72.328C668.598 71.8107 669.787 71.0347 669.787 71.552C670.501 70.776 668.36 72.0693 668.598 71.8107C669.074 71.2934 669.549 71.0347 670.263 70.5174C670.976 70.0001 671.69 69.7414 672.403 69.2241L671.928 69.7414L674.306 68.1895C674.544 67.6722 671.928 69.4828 673.83 67.6722C674.544 67.4135 676.209 65.6029 676.446 65.8616C675.733 67.1549 676.922 66.8962 675.257 68.4481C676.684 67.1549 680.965 63.5337 678.825 64.3096L680.489 63.0164C679.538 63.5337 676.922 65.3443 678.349 63.7923C678.587 63.5337 679.062 63.275 679.3 63.0164L679.538 62.7577C680.489 61.9817 681.679 60.9471 682.63 60.1711C682.868 60.1711 683.106 59.9125 683.581 59.6538L682.868 59.9125C683.343 59.3952 684.057 58.8779 684.533 58.3606C684.533 58.3606 684.533 58.3606 684.77 58.3606C685.484 57.5846 685.96 57.3259 686.435 56.8086C687.149 56.2913 687.862 55.5153 688.576 54.998C690.478 53.4461 693.808 50.6009 695.235 49.8249C697.375 47.7557 695.473 49.5663 695.473 49.0489C695.71 48.7903 695.948 48.5316 696.186 48.273C699.278 46.9797 704.51 41.5479 708.553 38.1854C708.315 38.1854 708.315 38.1854 708.315 38.1854C709.505 37.1508 710.694 36.1162 712.121 35.0815C712.121 35.0815 711.883 35.5988 710.931 36.3748L713.072 34.3056C714.975 33.5296 709.742 37.6681 712.358 36.3748C714.737 34.3056 715.926 31.9777 719.018 29.9084C718.542 31.4603 721.158 27.8392 720.92 29.1324C720.445 29.9084 719.493 30.4257 718.78 31.2017L719.493 30.943C724.963 26.5459 720.682 28.8738 723.061 26.0286C726.39 23.1834 725.915 24.218 726.39 24.4766C727.104 24.218 728.531 22.666 729.482 21.8901C727.817 23.9593 725.677 24.4766 726.152 23.7007C726.152 23.7007 726.39 23.7007 726.39 23.442C727.817 22.9247 729.482 21.1141 730.909 19.8208C731.623 19.0449 732.574 18.5276 733.287 17.7516C733.763 17.2343 733.287 16.717 732.098 16.4583ZM24.0829 717.157L23.3694 718.192C25.5098 715.605 25.0342 716.898 25.5098 716.64L25.0342 717.157L25.9855 716.381C24.0829 718.709 22.1802 720.778 20.5154 723.106C21.2289 721.554 21.2289 719.744 24.0829 717.157ZM17.6615 725.434C18.8506 724.141 19.5641 723.623 20.2776 723.365C19.5641 724.399 18.6128 725.175 17.8993 726.21L17.6615 725.434Z" fill="white"/>
</svg>
