<svg width="722" height="721" viewBox="0 0 722 721" fill="none" xmlns="http://www.w3.org/2000/svg">
<path d="M720.098 4.45831C718.671 4.19965 716.293 4.97562 715.342 5.75159C703.926 15.0632 692.748 24.3748 681.57 33.9451H681.332C680.619 34.721 680.381 34.9797 680.857 34.721C678.954 36.273 677.289 37.8249 675.386 39.3768C675.149 39.6355 674.911 39.6355 674.911 39.8942C672.057 42.2221 669.203 44.55 666.349 47.1365C665.16 47.9125 663.257 49.4644 665.398 47.3952C663.257 48.9471 663.019 49.7231 661.83 51.275C661.592 51.275 661.592 51.5337 661.355 51.5337C659.928 52.3096 660.165 51.275 661.592 49.7231L659.69 51.7923V51.5337L658.263 53.3443C656.122 54.6375 657.549 53.0856 655.409 54.6375V55.4135L653.982 56.1895C654.695 55.9308 653.506 56.9654 652.317 58.2587V58.0001L650.652 59.552C652.079 57.7414 648.988 60.8453 649.463 59.8107C648.036 61.1039 648.036 61.1039 645.42 63.4318H646.134C643.042 66.5357 645.658 63.1732 642.804 65.2424L643.28 65.5011C638.999 68.0876 636.858 71.4502 633.766 73.5194C635.431 71.9675 634.718 71.9675 634.718 71.9675C632.34 74.2954 628.059 77.6579 625.918 80.2445C624.491 80.5031 624.253 80.5031 621.399 82.5724C619.497 84.383 619.259 84.6416 618.783 85.4176C616.881 86.7109 613.551 90.0734 613.075 89.8147C612.838 90.5907 611.411 91.108 610.459 92.4013H610.221L610.697 92.66C606.892 94.7292 605.465 98.0917 601.66 100.161L602.135 99.6437L600.946 100.937C600.708 100.937 601.184 100.42 600.946 100.161L594.525 105.851L595.952 105.075C594.525 106.369 594.049 107.403 592.147 108.697C594.287 105.851 590.006 110.507 589.293 110.507L590.482 109.214C588.579 111.025 588.579 111.025 589.055 111.283C586.676 113.611 586.914 112.059 584.774 114.387L586.439 113.094C587.152 112.835 586.201 114.128 585.012 115.163C584.774 115.422 583.823 115.939 584.536 115.163C582.633 116.974 579.542 119.302 578.828 120.336C577.639 121.112 577.877 120.595 578.352 120.077C574.547 123.957 576.45 121.629 572.407 125.509V125.251L571.218 126.803L568.839 128.096L569.791 127.837C568.364 129.13 567.65 129.906 565.985 131.2L566.461 130.424C562.894 134.045 561.705 133.786 558.375 137.666C558.137 137.925 558.613 137.149 558.851 136.89C555.759 140.511 555.997 138.701 552.905 142.322C553.143 142.063 552.667 142.322 552.667 142.063L551.24 143.615L551.002 143.098L550.289 144.908L549.1 145.426L548.624 146.202C546.246 146.719 544.581 149.564 541.727 150.858L542.44 151.116C537.684 157.324 528.884 162.238 522.463 168.705L522.225 168.187L519.847 171.291C518.182 172.326 520.56 169.998 519.847 170.257C516.993 173.361 519.133 172.067 515.804 175.43C513.901 176.723 516.279 174.654 516.993 173.619C513.901 176.723 509.144 181.379 506.766 183.448V183.707C504.626 185.776 501.772 188.363 499.393 190.691C499.393 190.432 499.869 189.915 500.345 189.397C499.393 190.173 498.204 191.208 497.491 191.984L498.204 190.691C496.302 192.242 492.972 195.864 492.259 195.864C492.496 195.864 492.734 196.122 491.069 197.674C489.642 197.933 487.026 201.813 484.172 203.882C484.41 203.365 486.313 201.813 485.599 202.071C484.172 203.106 483.221 204.399 482.27 205.693L482.508 205.175L476.8 211.124C475.373 211.383 471.33 216.556 471.33 215.521C469.189 217.591 473.232 214.228 470.616 216.815C469.665 217.332 468.238 219.143 468 218.625L468.238 218.367L466.335 220.177L467.287 218.625C465.86 220.177 464.908 221.729 465.146 222.247C463.481 223.54 461.341 225.609 460.39 225.868L460.865 225.35C456.822 229.489 453.017 230.782 450.163 234.662C449.925 234.921 449.925 234.662 450.401 234.145L447.785 236.473L448.26 235.697L444.217 240.352V240.094C441.363 242.68 436.845 247.077 433.277 250.699L433.753 250.181C429.948 254.32 429.71 253.544 426.856 256.648C426.856 256.389 427.094 256.389 427.094 256.389L424.477 258.976L424.953 258.2C423.288 260.528 419.007 262.856 420.434 262.08C419.483 263.373 417.818 265.442 417.58 265.959C414.726 268.805 416.629 266.477 414.727 267.77C412.586 269.839 412.586 270.357 409.494 272.943V272.684C408.305 273.978 407.592 275.012 405.689 276.823L406.165 276.306C403.549 279.668 401.884 279.151 400.219 282.513C398.792 283.548 396.652 285.876 396.414 285.359C392.846 289.238 390.23 292.084 386.663 295.963C385.474 295.963 385.949 296.739 383.333 298.55L383.809 298.809C378.577 303.982 371.917 308.896 366.447 314.587L365.972 314.328L365.258 315.88C359.075 321.829 350.988 329.589 345.994 334.245C344.567 336.055 342.427 338.9 339.811 341.228L340.048 340.97C335.767 345.625 331.249 350.54 326.254 354.937C326.492 354.42 325.779 354.937 326.254 354.161C325.541 355.713 323.4 357.006 322.449 358.041L323.876 357.006C323.638 357.524 323.163 358.041 322.687 358.558V358.3L320.309 356.489C320.309 356.23 320.071 355.972 320.071 355.972L319.595 355.713L318.882 354.161C318.168 353.644 315.314 351.057 314.125 350.54C314.125 350.281 312.222 347.953 313.887 349.505L306.277 341.487L307.466 342.78C307.228 343.297 304.85 341.228 303.661 339.676C305.563 340.97 304.136 339.418 303.898 338.383C302.709 337.607 304.612 339.676 303.898 339.159C302.234 338.124 299.38 335.279 298.904 334.245L299.855 335.021C297.953 333.21 297.715 331.658 295.812 329.847C293.91 328.554 292.958 327.002 292.72 328.037C290.342 325.709 292.245 326.743 291.531 325.968C290.104 325.192 287.25 321.57 287.013 320.794C284.872 320.277 281.067 314.069 280.116 314.328L278.689 312C278.451 312.259 277.737 312.259 276.073 310.707C274.883 308.896 275.597 308.896 275.121 308.379L273.456 308.12C265.846 298.55 254.43 287.686 246.344 277.34C242.301 273.202 236.831 268.029 232.312 262.855L233.026 263.373L228.507 258.2L231.599 262.08C230.409 261.045 229.696 260.269 228.745 259.234C223.988 253.285 217.567 245.784 211.145 239.318C206.389 235.697 209.243 235.697 204.724 232.075C205.2 232.334 205.437 232.334 205.675 232.593C201.394 228.196 199.016 225.868 194.497 221.729C195.686 221.471 191.881 218.625 192.595 218.625H191.881C191.168 217.332 189.027 215.004 189.741 215.004L187.6 213.452L187.838 212.935C185.46 210.348 179.99 204.658 179.514 202.589C173.093 196.381 164.055 185.517 156.92 176.982C155.731 175.947 153.353 173.619 151.688 171.809L150.261 169.222C148.359 167.411 146.218 165.86 144.791 163.79H145.029C143.126 161.98 141.699 159.652 139.797 158.359C137.894 156.031 136.229 153.703 137.181 154.22C135.278 152.668 132.186 147.495 132.186 147.495C132.186 147.495 108.641 118.784 82.0045 86.4522C75.3453 78.4339 68.6861 70.1569 62.0269 61.8799C55.3677 53.8616 48.7085 45.8432 42.7628 38.6009C30.3957 23.8575 19.6934 11.7007 13.272 5.23427C12.0829 4.71696 9.70462 2.1304 10.1803 3.68234C8.51548 1.61309 8.27765 0.0611572 7.56416 0.0611572C8.51548 1.35444 8.27765 1.61309 7.80199 1.61309C5.66153 -0.197499 -0.046349 2.38906 2.09411 5.23427C18.7421 26.7027 35.6279 48.1711 52.5137 69.3809C52.2759 69.1223 52.2759 69.1223 52.0381 68.8636C52.5137 69.3809 52.9894 69.8982 53.4651 70.4156C54.1785 71.4502 55.1299 72.4848 55.8433 73.5194C58.6973 77.3993 60.1243 80.5031 63.4539 84.6416L63.9295 84.383C69.6374 93.1773 77.7236 102.489 84.8584 111.542L84.1449 110.249C85.3341 111.283 86.9989 113.094 88.4258 114.387C88.4258 114.646 86.9989 113.87 89.1393 116.456C88.9015 115.939 87.9502 114.646 88.4258 114.904C94.1337 123.181 107.69 139.218 117.679 151.892C132.186 168.446 147.169 187.069 161.439 203.106C159.299 200.519 160.964 201.037 162.39 203.106C165.72 209.314 170.477 211.642 174.282 217.591C183.082 226.644 189.503 235.955 198.065 243.715L197.827 244.232C198.778 245.784 199.492 245.784 200.681 247.077H200.443C203.297 250.44 207.102 254.061 208.529 255.872L209.005 255.613C210.67 257.424 209.718 256.906 211.621 258.717L211.383 258.976L213.761 260.786C212.81 261.304 218.518 266.218 219.707 268.029C222.085 270.357 226.604 274.754 229.934 278.634C230.172 279.668 234.453 284.324 236.831 287.428C239.447 290.273 242.539 293.636 246.106 297.257C249.436 300.878 253.003 304.499 256.333 308.12L256.571 307.603L258.235 309.414C258.235 309.414 258.235 309.672 257.998 309.672C258.949 311.741 262.278 313.811 263.23 315.621C262.754 314.328 262.041 314.328 261.089 313.293C259.9 311.483 261.565 312.517 263.468 314.845H263.23L264.657 315.88C264.419 316.397 265.608 317.949 265.37 318.467C271.316 324.416 275.597 328.037 281.543 334.503C280.591 334.245 285.823 338.9 284.159 338.383C287.964 342.004 284.159 337.09 286.061 338.383C287.013 339.418 288.202 340.452 288.202 340.711C287.488 340.452 288.677 342.004 287.726 341.228L290.104 343.815C290.342 344.073 289.629 343.556 289.391 343.297C294.623 347.953 297.715 352.609 302.471 356.748C302.947 356.748 300.807 354.937 301.282 354.937C306.277 359.075 304.85 359.334 309.368 363.214L308.179 362.697C309.606 363.731 310.558 363.99 312.222 366.318L311.985 366.577C311.271 366.059 309.844 364.766 309.131 364.249C309.844 365.025 310.795 366.059 311.747 366.835C311.271 367.352 311.033 367.87 310.795 368.387C310.558 368.387 308.417 370.456 309.844 368.646L301.758 376.405L303.185 375.371C303.661 375.629 301.52 378.216 300.093 379.251C301.52 377.44 299.855 378.733 298.904 378.992C297.953 380.285 300.093 378.475 299.618 379.251C298.428 380.803 295.812 383.906 294.861 384.424L295.574 383.389C293.91 385.458 292.483 385.717 290.818 387.528C289.391 389.597 287.964 390.373 288.915 390.632C286.775 393.218 287.726 391.149 286.775 391.925C286.061 393.218 282.494 396.581 281.78 396.581C281.305 398.909 275.359 402.788 275.597 403.823L273.219 405.375C273.219 405.634 273.456 406.41 271.792 408.22C270.127 409.513 270.127 408.737 269.651 408.996L269.413 410.807C260.376 418.566 249.911 430.464 240.16 439.517C236.355 443.915 231.599 449.605 226.604 454.52L227.08 453.744L222.323 458.399L226.129 455.037C225.177 456.33 224.464 457.106 223.512 458.141C218.042 463.314 210.908 470.039 204.962 477.281C201.632 482.454 201.632 479.35 198.303 484.265C198.54 483.748 198.54 483.489 198.778 483.23C194.973 488.145 192.833 490.731 189.027 495.646C188.789 494.353 186.411 498.75 186.411 497.715V498.491C185.222 499.267 183.082 501.595 183.082 501.078L181.655 503.405L181.179 503.147C178.801 505.733 173.806 511.682 171.904 512.458C166.196 519.442 156.683 529.788 149.072 538.065C148.359 539.617 146.218 541.945 144.316 544.014L142.175 545.566C140.51 547.636 139.083 550.222 137.419 551.774V551.515C135.754 553.585 133.851 555.137 132.662 557.465C130.759 559.534 128.619 561.603 128.857 560.568C129.332 561.344 124.576 564.966 124.576 564.966C124.576 564.966 122.911 566.776 120.295 569.621C117.441 572.725 113.636 577.122 108.641 582.554C99.1281 593.418 85.8097 608.161 72.2535 624.198C58.6973 640.234 44.4276 657.047 32.5361 672.049C20.6447 687.051 10.8938 700.243 5.89936 708.002C5.42371 709.296 3.52108 712.141 4.71022 711.365C3.04542 713.434 1.85628 713.951 1.85628 714.469C4.23456 711.882 2.09411 716.279 4.71022 713.951L3.99673 714.986C3.04542 716.021 2.09411 717.314 1.14279 718.349C0.191479 719.642 2.09411 719.642 2.80759 719.642C4.23456 719.642 6.37502 719.124 7.32633 717.831C21.3582 700.76 35.3901 683.947 49.422 667.135C52.9894 663.772 56.319 660.41 60.1243 655.754C61.5512 654.719 59.6486 656.788 58.9351 658.082C63.9295 651.098 67.4969 649.805 72.2535 644.114L72.0157 643.856C79.6262 637.13 86.761 627.043 94.8472 618.766L93.6581 619.542C94.3716 617.99 96.0364 616.179 97.2255 614.628C97.4633 614.628 96.9877 616.179 98.8903 613.593C98.4146 614.11 97.2255 614.886 97.4633 614.628C104.598 607.902 118.154 592.124 129.095 580.226C143.364 563.672 159.774 546.601 174.044 530.564C171.904 532.892 172.141 531.34 174.044 529.53C179.752 525.909 181.655 520.735 187.125 516.597C195.211 507.027 203.773 499.784 210.67 490.214L211.145 490.473C212.572 489.438 212.572 488.662 213.761 487.369V487.627C216.853 484.524 220.183 480.385 221.848 478.833L221.61 478.316C223.275 476.505 222.799 477.54 224.464 475.471L224.702 475.729L226.366 473.143C226.842 474.177 231.361 467.97 233.026 466.676C235.166 464.09 239.209 459.175 242.777 455.813C243.728 455.554 248.009 450.898 250.863 448.312C256.095 442.621 263.468 434.603 270.365 427.878L269.889 427.619L271.554 425.809C271.554 425.809 271.792 425.809 271.792 426.067C273.694 425.291 275.597 421.67 277.499 420.636C276.31 421.153 276.31 421.929 275.121 422.963C273.456 424.257 274.408 422.446 276.548 420.636V420.894L277.737 419.342C278.213 419.601 279.64 418.566 280.116 418.566C285.823 412.359 289.153 407.703 295.337 401.754C295.099 402.788 299.618 397.098 298.904 399.167C302.234 395.287 297.715 399.167 299.142 397.098C300.093 396.063 301.044 394.77 301.52 394.77C301.282 395.546 302.709 394.253 301.996 395.287L304.374 392.701C304.612 392.442 304.136 393.218 303.898 393.477C308.417 388.045 313.174 384.941 317.217 380.285C317.217 379.768 315.314 382.096 315.552 381.32C318.406 377.699 319.357 377.44 321.022 375.888C322.449 377.44 324.114 378.992 325.541 380.544C325.541 380.544 325.541 381.061 325.303 380.803C328.157 382.872 327.206 383.389 330.535 386.752C339.573 395.546 351.94 406.668 360.739 415.721C363.118 417.014 365.972 419.86 369.063 422.705L368.826 423.739L371.442 425.809C372.155 427.102 369.539 424.257 370.966 426.067L372.155 426.585C372.155 427.102 378.101 432.792 373.82 429.43C376.912 432.534 380.004 435.638 383.095 438.483C385.236 440.552 384.76 439 386.901 441.328C387.138 442.104 385.949 440.811 385.949 441.069C392.371 448.312 395.225 447.277 401.17 453.744L400.457 453.226C401.646 454.002 403.786 456.071 403.786 456.071C403.549 454.52 402.359 455.295 400.695 452.968C401.408 452.45 403.311 455.037 403.786 454.261C405.213 455.813 406.402 456.33 407.592 457.623C409.494 460.21 413.062 463.055 414.251 465.124C415.44 465.9 417.343 466.418 419.721 468.746C420.91 470.815 419.007 468.746 421.148 471.332H421.861C423.764 473.143 423.288 473.143 423.05 473.143C424.953 474.953 425.191 474.177 427.569 476.764L425.904 475.729C427.807 477.281 428.521 478.057 431.137 480.644C430.899 480.902 429.948 479.868 429.234 479.092C430.185 480.902 431.85 481.161 432.564 481.937C432.564 481.678 430.661 479.868 431.85 480.385C432.326 480.902 432.801 481.161 433.277 481.678C433.991 482.454 434.704 482.972 435.418 483.748C435.418 483.748 435.418 483.748 435.655 484.006L433.991 482.972C436.845 485.3 435.893 483.748 438.747 486.851C438.509 486.851 438.509 486.851 438.509 486.851C440.888 488.145 443.028 490.99 446.12 493.835L445.406 493.318C446.358 494.094 447.071 494.353 447.547 494.611C448.498 495.387 449.449 496.422 450.401 497.198C449.687 496.939 448.974 496.68 447.785 495.904C449.212 496.939 450.876 498.491 450.401 498.491L451.352 498.232C452.066 499.008 452.779 499.526 453.493 500.302L453.73 500.56L453.493 500.302C453.968 500.56 454.444 501.078 454.92 501.336C457.773 504.181 460.865 506.768 463.719 509.613C463.481 509.613 463.243 509.355 462.768 508.837C460.39 507.285 464.195 509.872 463.719 510.389C464.433 510.648 466.573 512.717 467.762 514.01V513.493C468.476 514.01 468.951 514.786 469.665 515.304C469.427 515.562 469.427 516.08 471.33 517.632C474.184 519.959 470.378 516.597 472.281 517.89C474.184 519.701 474.421 520.735 477.275 522.805C477.989 523.581 479.178 525.391 478.94 525.909C480.843 527.202 483.697 530.564 485.124 531.082C482.508 528.236 481.794 529.012 479.178 525.391L480.367 525.65C482.745 527.719 485.837 530.047 487.264 531.599C487.026 531.34 487.026 531.082 487.264 531.082C487.74 531.599 488.216 531.858 488.691 532.116C489.88 533.151 490.832 534.185 492.021 535.22C493.686 537.289 494.161 537.031 497.015 540.135C496.777 540.652 494.875 538.065 494.161 538.324L497.729 541.428C498.68 541.169 500.345 544.014 502.723 545.566C504.626 547.377 506.053 548.412 507.242 549.188C509.382 550.998 511.523 552.809 513.425 554.619C513.663 555.137 513.663 555.654 513.188 555.395C515.804 557.465 512.95 554.619 513.901 555.137C514.614 555.654 515.328 556.43 516.041 556.947L517.944 558.758C525.792 565.742 533.641 572.725 541.489 579.45C541.251 579.45 541.251 579.709 541.013 579.45C541.489 579.709 541.727 579.709 541.965 579.968L542.203 580.226C542.916 581.002 543.867 581.52 544.581 582.296C545.057 582.813 545.532 583.589 544.343 583.071C545.294 584.623 548.862 587.727 551.002 589.279C552.429 589.797 549.1 587.21 549.575 586.951C550.527 587.727 551.24 588.245 551.953 588.762C573.834 607.644 595.952 626.267 618.07 644.632H617.832L618.308 644.89C623.778 649.287 629.248 653.685 634.48 658.082C634.242 658.082 634.242 657.823 633.766 657.823C634.48 658.34 634.956 658.599 635.193 658.858C636.145 659.634 636.858 660.151 637.81 660.927C637.81 661.444 638.761 662.22 640.426 664.031L638.761 662.22C638.999 662.22 638.999 662.22 639.237 662.479L638.999 662.22C639.237 662.479 639.474 662.479 639.474 662.737L639.237 662.479C639.474 662.737 639.712 662.996 639.95 663.255C639.95 663.255 639.95 663.255 639.95 662.996C657.549 677.222 675.149 691.448 693.224 705.416C699.645 710.33 705.828 715.245 712.25 720.159C714.628 721.97 720.812 718.348 717.482 716.021C691.797 696.363 666.587 676.188 641.377 655.754C641.139 655.495 640.901 655.236 640.426 654.978C637.572 652.65 634.956 650.322 632.102 648.253V647.994C631.388 647.477 630.437 646.701 629.486 645.925C626.87 643.856 624.253 641.786 621.875 639.458C621.399 638.682 620.924 638.165 619.259 636.613C617.356 635.061 616.881 634.803 616.167 634.544C614.502 632.733 610.697 630.147 610.935 629.63C610.221 629.63 609.27 628.078 608.081 627.56V627.302V627.819C605.465 624.198 602.135 623.68 599.281 620.059L599.995 620.318L598.568 619.283C598.568 619.025 599.044 619.283 599.281 619.025L592.86 613.334L594.049 614.628C592.622 613.593 591.433 613.076 590.006 611.524C593.098 613.076 587.866 609.713 587.628 608.937L589.055 609.972C587.152 608.42 587.152 608.42 586.914 608.937C584.298 606.868 585.725 606.868 583.109 605.316L584.774 606.609C585.012 607.126 583.585 606.609 582.633 605.575C582.396 605.316 581.682 604.54 582.633 605.057C580.493 603.505 577.639 600.919 576.688 600.401C575.736 599.367 576.212 599.367 576.925 599.884C572.407 596.78 575.023 598.332 570.504 594.97L570.742 594.711L569.077 593.676L567.412 591.348L567.888 592.383C566.461 591.348 565.51 590.572 564.083 589.021L565.034 589.279C560.991 586.175 560.991 584.882 556.948 582.037C556.71 581.778 557.424 582.037 557.661 582.296C553.856 579.968 555.521 579.45 551.716 577.122C551.954 577.122 551.716 576.864 551.953 576.864L550.289 575.829L550.764 575.57L549.1 575.053L548.386 573.76L547.673 573.501C546.721 571.173 543.867 569.88 541.965 567.293V568.069C535.306 564.19 529.36 556.171 521.987 550.481L522.463 550.222L519.371 548.153C518.182 546.342 520.56 548.67 520.322 547.894C517.231 545.308 518.658 547.377 515.09 544.273C513.425 542.462 516.041 544.532 516.993 545.049C513.425 542.204 508.431 538.065 506.29 535.737H506.053C503.674 533.927 501.058 531.082 498.442 529.012C498.68 528.754 499.393 529.271 499.869 529.788C498.918 529.012 497.966 527.719 497.015 527.202L498.204 527.719C496.302 525.909 492.496 523.063 492.496 522.287C492.496 522.546 492.259 522.805 490.594 521.511C490.118 519.959 486.075 517.89 483.697 515.304C484.172 515.304 486.075 517.114 485.599 516.597C484.41 515.304 482.983 514.528 481.794 513.752H482.27C480.129 512.2 477.989 510.389 476.086 508.579C475.611 507.027 470.378 503.405 471.092 503.405C468.951 501.336 472.757 505.216 469.903 502.888C469.427 501.854 467.287 500.819 467.762 500.56L468 500.819L466.097 499.008L467.524 499.784C465.86 498.491 464.433 497.715 463.957 497.974C462.53 496.422 460.39 494.611 459.914 493.577L460.627 494.094C456.109 490.214 454.444 486.334 450.401 484.006C450.163 483.748 450.401 483.748 450.876 484.006L448.26 481.42L449.212 481.678L444.455 478.057L444.693 477.799C441.839 474.953 437.32 471.073 433.515 467.711L434.228 468.228C429.948 464.866 430.423 464.348 427.331 461.762C427.569 461.762 427.569 461.762 427.807 462.021L425.191 459.434L425.904 459.693C423.526 458.399 420.91 453.744 421.624 455.295C420.434 454.52 418.294 452.968 417.818 452.709C414.964 449.864 417.343 451.674 415.678 449.864C413.537 447.794 413.062 447.794 410.208 444.949L410.446 444.691C409.019 443.397 408.067 442.88 406.402 441.069L407.116 441.587C403.786 439.259 403.786 437.448 400.695 436.155C399.505 434.862 397.127 432.534 397.603 432.275C393.56 428.913 390.706 426.326 386.901 422.963C386.901 421.67 386.187 422.188 384.284 419.601L384.047 420.118C378.814 414.945 373.582 408.22 367.874 402.788L368.112 402.271L366.685 401.495C360.739 395.287 352.891 387.269 348.135 382.613C346.47 381.32 343.616 379.251 341.238 376.664L341.475 376.923C337.908 373.56 334.34 370.198 330.773 366.318C331.249 365.801 331.962 365.542 332.438 365.283C332.438 365.025 330.535 366.835 331.487 365.542C334.103 363.214 337.908 359.334 341 356.489C341 356.748 341.475 356.489 341.238 357.006C343.14 353.902 343.854 355.196 346.945 351.574C355.745 342.521 367.161 330.365 376.198 321.829C377.625 319.242 380.479 316.397 383.333 313.552L384.284 314.069L386.425 311.483C387.614 310.707 384.76 313.552 386.663 312L387.138 310.707C387.614 310.707 393.322 304.758 389.754 309.414L399.03 300.361C401.17 298.291 399.743 298.55 402.122 296.481C402.835 296.222 401.408 297.515 401.884 297.515C409.256 291.566 408.543 288.462 415.202 282.513L414.727 283.031C415.678 281.737 417.818 279.927 417.58 279.668C416.153 279.668 416.867 281.22 414.489 282.513C414.251 281.737 416.629 279.927 416.153 279.409C417.818 278.116 418.532 277.082 419.721 275.788C422.337 273.978 425.191 270.615 427.331 269.581C428.283 268.287 428.996 266.477 431.374 264.149C433.515 263.114 431.374 264.925 433.753 262.855V262.08C435.655 260.269 435.418 260.786 435.418 261.045C437.558 259.234 436.607 258.976 439.461 256.906L439.223 258.717C440.888 256.906 441.839 256.13 444.455 253.803C444.455 254.061 443.504 255.096 442.79 255.613C444.693 254.837 444.931 253.027 445.882 252.509C445.644 252.509 443.742 254.061 444.217 253.027C445.644 251.992 446.596 249.923 447.785 249.405L446.596 251.216C448.974 248.371 447.785 249.405 450.876 246.56C450.639 246.819 450.876 246.819 450.876 246.819C452.541 244.491 455.395 242.422 458.249 239.835L457.773 240.352C458.963 239.059 459.2 238.283 459.914 237.507C458.011 238.801 458.487 238.283 458.011 238.025C460.627 236.473 460.865 234.145 464.67 231.041C464.67 231.299 464.195 232.334 463.006 233.11C462.292 234.921 462.53 235.438 460.627 238.025C461.817 236.731 463.481 234.921 463.244 235.697V234.662C463.957 233.886 464.67 233.369 465.384 232.593C465.384 231.817 463.243 233.627 464.908 231.558C466.811 229.23 466.573 231.041 466.573 230.524C469.427 227.42 467.287 228.713 470.378 226.385C470.141 226.644 469.665 227.42 469.427 227.42C471.568 225.609 474.421 222.505 475.611 222.764C475.373 223.281 475.611 223.54 474.659 224.057V223.798C472.994 226.126 475.848 222.505 476.086 223.022C476.324 222.247 478.702 220.177 479.892 219.143H479.178C482.508 213.711 479.654 220.177 483.697 216.039C486.313 213.194 482.508 216.815 483.935 215.004C485.837 213.452 486.789 213.194 489.405 210.348C490.356 209.831 492.021 208.538 492.496 209.055C493.923 207.245 497.729 204.658 498.204 203.365C495.113 205.434 495.826 206.469 492.021 208.796L492.496 207.503C494.875 205.434 497.491 202.589 499.156 201.295C498.68 201.554 498.442 201.554 498.68 201.295C501.772 198.192 502.247 196.898 505.577 194.053C506.29 194.053 504.388 195.605 503.199 196.898C505.577 195.346 505.339 195.088 508.669 192.242C509.144 192.501 506.528 194.053 506.528 194.829L509.858 191.466C509.858 190.432 512.474 189.139 514.614 187.069C519.609 182.414 519.847 180.862 522.225 177.758C523.176 177.24 523.414 177.24 523.176 177.758C521.749 178.534 522.225 178.534 521.749 179.31C523.414 177.758 526.03 176.464 525.317 177.758C527.933 175.171 524.128 178.275 525.555 176.723L529.36 173.361C528.646 173.361 527.219 174.654 529.122 172.585C530.787 171.033 531.5 170.515 533.641 168.446C533.403 168.963 534.592 168.446 533.165 169.739C534.354 168.963 536.019 167.411 536.257 166.636C533.641 168.446 539.824 163.014 537.684 164.049L540.3 162.238C539.824 162.756 539.824 163.014 539.111 163.532C540.062 163.532 541.013 161.721 541.727 160.945C542.678 160.428 544.819 158.359 545.057 158.359C545.77 157.583 547.673 156.031 548.148 156.031C549.1 154.996 547.91 155.513 548.148 155.255L551.953 151.892C552.429 151.892 553.143 152.409 552.667 153.185C553.856 151.633 552.667 151.892 554.807 150.082C554.094 151.633 557.899 148.012 556.71 150.082C558.137 149.306 561.704 146.202 563.607 144.391C564.558 142.839 561.467 145.943 561.229 145.426C566.461 140.511 565.985 138.959 570.029 135.597L568.839 136.373C569.077 136.114 569.315 135.855 569.553 135.597C570.504 134.562 571.693 133.786 572.645 132.752C573.834 132.234 576.926 130.424 579.779 127.837C580.017 127.32 577.401 129.13 577.401 128.354C578.352 127.578 579.066 126.803 580.017 126.027L579.779 126.285C582.158 123.957 584.774 122.923 585.012 121.888L588.103 120.595L586.914 121.112C587.152 120.595 589.768 118.008 590.244 117.491C592.86 114.646 594.049 114.128 595.714 113.094C595.476 113.094 594.763 113.352 594.525 113.352C595 112.835 595.714 112.318 596.19 111.8C597.617 111.025 600.471 108.179 600.708 108.697C601.66 107.921 603.324 106.886 603.087 106.369L603.324 107.145C603.087 106.11 605.941 103.523 608.319 101.196C608.319 101.196 608.557 101.196 608.557 100.937C608.794 102.489 611.173 98.3504 613.075 98.3504C613.075 97.3158 617.118 94.4705 617.118 93.4359C617.356 93.1773 617.594 92.9186 618.07 92.66C619.259 91.884 619.497 92.4013 620.21 92.1426L620.924 91.108C622.113 90.5907 625.68 87.4868 628.059 85.9349L629.486 83.607L630.437 83.3483C630.675 82.831 632.34 81.2791 631.15 82.0551L632.34 81.2791C631.864 80.5031 633.291 79.9858 634.956 78.4339C635.193 78.1752 635.431 77.9166 635.907 77.6579C636.145 77.6579 636.145 77.9166 635.907 78.1752C637.096 77.1406 636.858 77.9166 637.572 77.6579C637.096 77.9166 638.047 76.3646 638.523 75.33C640.426 73.5194 642.566 71.9675 644.469 70.1569C644.707 70.4156 645.182 70.4156 646.847 68.8636C644.944 70.4156 644.469 71.7088 643.517 72.7435C644.231 72.2261 644.707 71.9675 643.755 73.0021C646.371 70.4156 644.469 71.7088 647.085 69.3809C647.323 70.1569 648.274 69.6396 650.652 67.829L648.512 68.8636C648.512 68.605 648.75 68.605 648.75 68.3463C648.036 68.8636 647.798 68.8636 647.561 68.8636C648.036 68.3463 650.177 65.5011 650.89 65.5011C649.701 66.0184 649.939 65.5011 650.652 64.7251C652.317 63.1732 653.982 61.8799 655.885 60.328C656.598 59.8107 657.787 59.0347 657.787 59.552C658.501 58.776 656.36 60.0693 656.598 59.8107C657.074 59.2934 657.549 59.0347 658.263 58.5174C658.976 58.0001 659.69 57.7414 660.403 57.2241L659.928 57.7414L662.306 56.1895C662.544 55.6722 659.928 57.4828 661.83 55.6722C662.544 55.4135 664.209 53.6029 664.446 53.8616C663.733 55.1549 664.922 54.8962 663.257 56.4481C664.684 55.1549 668.965 51.5337 666.825 52.3096L668.489 51.0164C667.538 51.5337 664.922 53.3443 666.349 51.7923C666.587 51.5337 667.062 51.275 667.3 51.0164L667.538 50.7577C668.49 49.9817 669.679 48.9471 670.63 48.1711C670.868 48.1711 671.106 47.9125 671.581 47.6538L670.868 47.9125C671.343 47.3952 672.057 46.8779 672.533 46.3606C672.533 46.3606 672.533 46.3606 672.77 46.3606C673.484 45.5846 673.96 45.3259 674.435 44.8086C675.149 44.2913 675.862 43.5153 676.576 42.998C678.478 41.4461 681.808 38.6009 683.235 37.8249C685.375 35.7557 683.473 37.5663 683.473 37.0489C683.711 36.7903 683.948 36.5316 684.186 36.273C687.278 34.9797 692.51 29.5479 696.553 26.1854C696.315 26.1854 696.315 26.1854 696.315 26.1854C697.505 25.1508 698.694 24.1162 700.121 23.0815C700.121 23.0815 699.883 23.5988 698.932 24.3748L701.072 22.3056C702.975 21.5296 697.742 25.6681 700.358 24.3748C702.737 22.3056 703.926 19.9777 707.018 17.9084C706.542 19.4603 709.158 15.8392 708.92 17.1324C708.445 17.9084 707.493 18.4257 706.78 19.2017L707.493 18.943C712.963 14.5459 708.682 16.8738 711.061 14.0286C714.39 11.1834 713.915 12.218 714.39 12.4766C715.104 12.218 716.531 10.666 717.482 9.89008C715.817 11.9593 713.677 12.4766 714.153 11.7007C714.153 11.7007 714.39 11.7007 714.39 11.442C715.817 10.9247 717.482 9.11411 718.909 7.82083C719.623 7.04487 720.574 6.52755 721.287 5.75159C721.763 5.23427 721.287 4.71696 720.098 4.45831ZM12.0829 705.157L11.3694 706.192C13.5099 703.605 13.0342 704.898 13.5099 704.64L13.0342 705.157L13.9855 704.381C12.0829 706.709 10.1803 708.778 8.51548 711.106C9.22896 709.554 9.22896 707.744 12.0829 705.157ZM5.66153 713.434C6.85068 712.141 7.56416 711.623 8.27765 711.365C7.56416 712.399 6.61285 713.175 5.89936 714.21L5.66153 713.434Z" fill="white"/>
</svg>
